<svg xmlns="http://www.w3.org/2000/svg" viewBox="0 0 1008.15 520.13">
  <defs>
    <style>
      .a95f825d-5929-4de1-830f-4711b628b265{fill:currentColor;}
      .a79be5e9-0dd7-4363-9dcf-03a9ebdee228,.b3fdd36e-ac22-442e-8823-5809fae0cd05,.e6b8698b-8f4d-4c03-9596-a6bfdbc5bc8b{fill:none;}
      .a79be5e9-0dd7-4363-9dcf-03a9ebdee228,.b3fdd36e-ac22-442e-8823-5809fae0cd05{stroke:currentColor;}
      .a79be5e9-0dd7-4363-9dcf-03a9ebdee228{stroke-miterlimit:10;stroke-width:9.14px;}
      .b3fdd36e-ac22-442e-8823-5809fae0cd05{stroke-width:22.86px;}
    </style>
  </defs>
  <g id="aef009cc-0bff-4b5b-ae91-db5aaf4041a4" data-name="Layer 2">
    <g id="bf51cdfb-3d84-473e-9a76-e0bd2e5e6795" data-name="Layer 1">
      <g id="bcafb916-2972-4154-9d0d-e9d7a6590529" data-name="Group 121">
        <g id="ab6307e2-1b4b-4321-ab4d-1d54c24fbf82" data-name="Group 8-2">
          <g id="b5036d17-6748-4384-b6dc-f86fdade216e" data-name="Group 5-2">
            <path id="b0b8963b-9e7c-4fef-b938-f3c4dc44ab6e" data-name="Path 5-2" class="a95f825d-5929-4de1-830f-4711b628b265" d="M488.89,399.88h29l3.16,39.06H486.56Zm44.56,37.49,33.34-8.93-13.17-36.91-28,7.51Zm44.89-13.64,29.89-17.25L586,374.23l-25.15,14.5Zm39.84-24.8,24.4-24.4-29.86-25.38L592.2,369.66Zm32.05-34.26,17.25-29.89L632.07,318l-14.51,25.15Zm22.09-41.4,8.93-33.33-38.55-7.06-7.5,28ZM683,277.55V243l-39.06,3.16v29Zm-1.56-46.9-8.93-33.33-36.92,13.16,7.51,28Zm-13.65-44.89-17.26-29.89-32.24,22.27,14.5,25.15Zm-24.8-39.83-24.4-24.4-25.39,29.86,20.52,20.51Zm-34.27-32.05L578.79,96.63,562,132l25.15,14.5Zm-41.39-22.1L534,82.85l-7.06,38.55,28,7.51Zm-45.7-10.63H487.07l3.16,39.06h29Zm-46.9,1.56-33.33,8.93,13.16,36.92,28-7.51ZM429.79,96.36,399.9,113.61l22.28,32.25,25.15-14.51ZM390,121.16l-24.4,24.4,29.85,25.38,20.52-20.51Zm-32,34.26-17.26,29.89,35.41,16.79L390.57,177Zm-22.1,41.4-8.93,33.33,38.55,7.06,7.51-28Zm-10.63,45.7V277l39.06-3.16v-29Zm1.56,46.9,8.93,33.33,36.92-13.16-7.51-28Zm13.65,44.89,17.26,29.89,32.25-22.27-14.51-25.15Zm24.8,39.83,24.4,24.4L415,368.68l-20.52-20.51Zm34.27,32.06,29.88,17.25L446.14,388,421,373.53Zm41.39,22.09,33.33,8.94,7.06-38.55-28-7.52Z"/>
            <path id="a0a0f968-19ec-47e4-aeb7-243f33f4ae75" data-name="Path 6-2" class="a95f825d-5929-4de1-830f-4711b628b265" d="M542.1,385.36l.66,3.74-6.1,3.81-9.28,1.63-7-1.49-.65-3.73,6.09-3.81,9.29-1.64Zm24-13.72-8.55,4-4.9,5.25,1.6,3.44,7.18-.38,8.55-4,4.9-5.25-1.6-3.44Zm26.76-19.84-7.22,6.06-3.39,6.35,2.45,2.91,6.83-2.23,7.23-6.06,3.38-6.35-2.45-2.91Zm20.72-26.1-5.41,7.73-1.62,7,3.11,2.17,6-3.91,5.41-7.73,1.62-7-3.11-2.18Zm18.06-35.91-4.8,5.35L623.57,304l.24,7.18,3.58,1.3,4.8-5.34,3.22-8.87-.24-7.18Zm7.13-33.68-3.79-.33-3.25,6.4-.83,9.39,2.1,6.86,3.78.33,3.26-6.4.82-9.4Zm-9.21-17.74,3.8,6.1,3.74-.66,1.49-7-1.64-9.28-3.8-6.1-3.74.66-1.49,7Zm-9.89-31.73,5.25,4.91,3.44-1.61-.38-7.17-4-8.55-5.25-4.91-3.44,1.61.38,7.17Zm-17.77-28.09,6.34,3.38,2.91-2.44-2.23-6.84-6.06-7.22-6.35-3.38-2.9,2.44,2.22,6.84Zm-15.26-24-3.92-6L575,143.11l-7-1.63-2.18,3.11,3.92,6,7.73,5.41,7,1.62Zm-30.13-17.76L551.13,132l-8.86-3.22-7.18.24-1.3,3.57,5.34,4.8,8.86,3.23,7.19-.24Zm-33.69-9.36-6.41-3.26-9.39-.82-6.86,2.09-.33,3.79,6.41,3.25,9.39.83,6.86-2.1Zm-35-.32-7-1.49-9.29,1.63-6.1,3.81.66,3.74,7,1.48,9.29-1.63,6.1-3.81Zm-33.86,8.74-7.18.38-8.55,4-4.9,5.25,1.6,3.44,7.18-.39,8.55-4,4.9-5.25Zm-28,20.12-2.44-2.91-6.84,2.22-7.22,6.07L406,167.68l2.45,2.92,6.83-2.23,7.23-6.06Zm-24.29,23.78-3.11-2.18-6,3.92-5.41,7.72-1.62,7,3.11,2.18,6-3.92,5.41-7.72Zm-25.09,50.64,4.8-5.35,3.23-8.85-.25-7.19-3.57-1.3L376,213l-3.23,8.86.25,7.18ZM376.46,258l.82-9.39-2.09-6.86-3.78-.33-3.26,6.4-.82,9.39,2.09,6.86,3.78.34Zm2.17,23.81-3.81-6.09-3.74.66-1.48,7,1.63,9.29,3.81,6.1,3.74-.66,1.48-7Zm9.89,31.73-5.25-4.91-3.44,1.61.38,7.18,4,8.54,5.24,4.91,3.45-1.6-.39-7.18Zm17.77,28.09L400,338.24,397,340.68l2.23,6.84,6.06,7.22,6.34,3.38,2.91-2.44-2.23-6.84Zm24.43,22.53-7-1.62-2.18,3.11,3.92,6,7.73,5.41,7,1.62,2.18-3.11-3.92-6Zm29.43,15.44-7.18.24-1.3,3.57,5.35,4.8,8.86,3.23,7.18-.25,1.3-3.57-5.34-4.8Zm32.43,7.31-6.86,2.1-.33,3.78,6.4,3.25,9.39.83,6.86-2.1.34-3.78L502,387.72Z"/>
            <g id="e17b88a2-4fcc-436e-997c-0390c8fca66e" data-name="Group 4-2">
              <rect id="a90fbde4-d75e-4aa8-abd0-227351339702" data-name="Rectangle 2-2" class="a95f825d-5929-4de1-830f-4711b628b265" x="398.82" y="208.45" width="11.89" height="109.39"/>
              <rect id="b507b905-a037-46e5-a997-2e0772dfff23" data-name="Rectangle 3-2" class="a95f825d-5929-4de1-830f-4711b628b265" x="597.43" y="208.45" width="11.89" height="109.39"/>
            </g>
            <circle id="ae153447-b979-4614-b1cc-fd415a20277b" data-name="Ellipse 2-2" class="a95f825d-5929-4de1-830f-4711b628b265" cx="504.07" cy="263.14" r="51.11"/>
            <line id="be3cfb8c-7925-419a-b2ba-d900eb6edc69" data-name="Line 1-2" class="a79be5e9-0dd7-4363-9dcf-03a9ebdee228" x1="247.24" y1="3.23" x2="760.9" y2="516.89"/>
            <line id="bf548c10-b921-4a34-ad91-0c147c6f293e" data-name="Line 2-2" class="a79be5e9-0dd7-4363-9dcf-03a9ebdee228" x1="760.9" y1="3.23" x2="247.24" y2="516.89"/>
            <g id="f373c3cc-4f38-47fc-9a44-b4f077a67e17" data-name="Group 7-2">
              <path id="f28cea91-aa1f-4bcc-b7a7-3679a9e39946" data-name="Path 9-2" class="a95f825d-5929-4de1-830f-4711b628b265" d="M204.71,224.71a42.39,42.39,0,0,0-29.18,11.6V190.22H135.19V264.3h0V239.85H89.72V264.3H0v5.94H89.72v24.45h45.47V270.24h0v74.07h40.34V298.23a42.52,42.52,0,0,0,65-8.06H390.75V244.4H240.57A42.52,42.52,0,0,0,204.71,224.71Z"/>
              <path id="bccb560f-b549-4738-b17b-e9749d9d3bb0" data-name="Path 11-2" class="a95f825d-5929-4de1-830f-4711b628b265" d="M1008.15,261.44H918.43V237H873v24.44h0V187.37H832.62v46.08a42.51,42.51,0,0,0-65,8.06H617.4v45.77H767.59a42.51,42.51,0,0,0,65,8.06v46.09H873V267.35h0V291.8h45.47V267.35h89.72Z"/>
            </g>
            <g id="eb7248e9-78b5-49fb-a0e9-b81238f6b6ed" data-name="Ellipse 28">
              <circle class="e6b8698b-8f4d-4c03-9596-a6bfdbc5bc8b" cx="503.94" cy="262.35" r="66.3"/>
              <circle class="b3fdd36e-ac22-442e-8823-5809fae0cd05" cx="503.94" cy="262.35" r="77.73"/>
            </g>
          </g>
        </g>
      </g>
    </g>
  </g>
</svg>