<svg xmlns="http://www.w3.org/2000/svg" width="316" height="265" viewBox="0 0 316 265">
  <g id="Cis-type" transform="translate(-16.391 15)">
    <g id="Group_348" data-name="Group 348" transform="translate(69)">
      <g id="Group_340" data-name="Group 340">
        <path id="Path_266" data-name="Path 266" d="M225.626,327.02a3.81,3.81,0,0,0,5.178-.4,102.34,102.34,0,0,1,176.374,84.924,3.809,3.809,0,0,0,2.917,4.3l.006,0a3.812,3.812,0,0,0,4.622-3.119,109.954,109.954,0,0,0-189.539-91.267,3.815,3.815,0,0,0,.442,5.562Z" transform="translate(-196 -286)" fill="#5bc0f5"/>
        <path id="Path_267" data-name="Path 267" d="M203.637,396a101.772,101.772,0,0,1,17.974-57.869,3.815,3.815,0,0,0-.757-5.149h0a3.818,3.818,0,0,0-5.521.8,109.857,109.857,0,0,0-18.054,78.94,3.813,3.813,0,0,0,4.622,3.119l.006,0a3.811,3.811,0,0,0,2.917-4.3A102.422,102.422,0,0,1,203.637,396Z" transform="translate(-196 -286)" fill="#8a15ff"/>
        <path id="Path_268" data-name="Path 268" d="M255.085,484.771A102.845,102.845,0,0,1,208.1,425.894a3.812,3.812,0,0,0-4.493-2.606l-.007,0a3.814,3.814,0,0,0-2.811,4.819A110.518,110.518,0,0,0,251.3,491.4a3.813,3.813,0,0,0,5.325-1.667l0,0A3.812,3.812,0,0,0,255.085,484.771Z" transform="translate(-196 -286)" fill="#ff3636"/>
        <path id="Path_269" data-name="Path 269" d="M403.9,425.895a102.846,102.846,0,0,1-46.988,58.876,3.811,3.811,0,0,0-1.539,4.959l0,0A3.813,3.813,0,0,0,360.7,491.4a110.514,110.514,0,0,0,50.511-63.291,3.814,3.814,0,0,0-2.811-4.819l-.008,0A3.811,3.811,0,0,0,403.9,425.895Z" transform="translate(-196 -286)" fill="#78d356"/>
        <path id="Path_270" data-name="Path 270" d="M348.505,493.064a3.812,3.812,0,0,0-4.849-1.884,102.295,102.295,0,0,1-75.312,0,3.812,3.812,0,0,0-4.849,1.884l0,.006a3.811,3.811,0,0,0,2,5.2,109.932,109.932,0,0,0,81.009,0,3.811,3.811,0,0,0,2-5.2Z" transform="translate(-196 -286)" fill="#ff852b"/>
      </g>
    </g>
    <text id="Cis-type-2" data-name="Cis-type" transform="translate(179.391 119)" fill="#c7c7c7" font-size="32" font-family="Jura" font-weight="300"><tspan x="-63.856" y="0">Cis-type</tspan></text>
    <text id="Volatiles" transform="translate(266.391 17)" fill="#c7c7c7" font-size="16" font-family="Jura" font-weight="300"><tspan x="0" y="0">Volatiles</tspan></text>
    <text id="Organics" transform="translate(266.391 209)" fill="#c7c7c7" font-size="16" font-family="Jura" font-weight="300"><tspan x="0" y="0">Organics</tspan></text>
    <text id="Fissile" transform="translate(16.391 57)" fill="#c7c7c7" font-size="16" font-family="Jura" font-weight="300"><tspan x="0" y="0">Fissile</tspan></text>
    <text id="Rare_Earth" data-name="Rare Earth" transform="translate(16.391 209)" fill="#c7c7c7" font-size="16" font-family="Jura" font-weight="300"><tspan x="0" y="0">Rare Earth</tspan></text>
    <text id="Metals" transform="translate(151.391 247)" fill="#c7c7c7" font-size="16" font-family="Jura" font-weight="300"><tspan x="0" y="0">Metals</tspan></text>
    <g id="Group_366" data-name="Group 366" transform="translate(69.391 -1)">
      <g id="Group_340-2" data-name="Group 340" transform="translate(0 272)">
        <path id="Path_266-2" data-name="Path 266" d="M225.626,327.02a3.81,3.81,0,0,0,5.178-.4,102.34,102.34,0,0,1,176.374,84.924,3.809,3.809,0,0,0,2.917,4.3l.006,0a3.812,3.812,0,0,0,4.622-3.119,109.954,109.954,0,0,0-189.539-91.267,3.815,3.815,0,0,0,.442,5.562Z" transform="translate(-196 -557)" fill="#5bc0f5" opacity="0.499"/>
        <path id="Path_267-2" data-name="Path 267" d="M203.637,396a101.772,101.772,0,0,1,17.974-57.869,3.815,3.815,0,0,0-.757-5.149h0a3.818,3.818,0,0,0-5.521.8,109.857,109.857,0,0,0-18.054,78.94,3.813,3.813,0,0,0,4.622,3.119l.006,0a3.811,3.811,0,0,0,2.917-4.3A102.422,102.422,0,0,1,203.637,396Z" transform="translate(-196 -557)" fill="#8a15ff" opacity="0.499"/>
        <path id="Path_268-2" data-name="Path 268" d="M255.085,484.771A102.845,102.845,0,0,1,208.1,425.894a3.812,3.812,0,0,0-4.493-2.606l-.007,0a3.814,3.814,0,0,0-2.811,4.819A110.518,110.518,0,0,0,251.3,491.4a3.813,3.813,0,0,0,5.325-1.667l0,0A3.812,3.812,0,0,0,255.085,484.771Z" transform="translate(-196 -557)" fill="#ff3636" opacity="0.499"/>
        <path id="Path_269-2" data-name="Path 269" d="M403.9,425.895a102.846,102.846,0,0,1-46.988,58.876,3.811,3.811,0,0,0-1.539,4.959l0,0A3.813,3.813,0,0,0,360.7,491.4a110.514,110.514,0,0,0,50.511-63.291,3.814,3.814,0,0,0-2.811-4.819l-.008,0A3.811,3.811,0,0,0,403.9,425.895Z" transform="translate(-196 -557)" fill="#78d356" opacity="0.499"/>
        <path id="Path_270-2" data-name="Path 270" d="M348.505,493.064a3.812,3.812,0,0,0-4.849-1.884,102.295,102.295,0,0,1-75.312,0,3.812,3.812,0,0,0-4.849,1.884l0,.006a3.811,3.811,0,0,0,2,5.2,109.932,109.932,0,0,0,81.009,0,3.811,3.811,0,0,0,2-5.2Z" transform="translate(-196 -557)" fill="#ff852b" opacity="0.499"/>
      </g>
    </g>
  </g>
</svg>
