<?xml version="1.0" encoding="UTF-8"?>
<svg id="svg5919" xmlns="http://www.w3.org/2000/svg" xmlns:xlink="http://www.w3.org/1999/xlink" viewBox="0 0 5736.76 1333.33">
  <defs>
    <style>
      .cls-1 {
        fill: url(#linear-gradient);
      }

      .cls-1, .cls-2, .cls-3 {
        stroke-width: 0px;
      }

      .cls-2 {
        fill: #35a7cd;
      }

      .cls-3 {
        fill: #fff;
      }
    </style>
    <linearGradient id="linear-gradient" x1="510.48" y1="39.08" x2="718.02" y2="246.63" gradientTransform="translate(-69.67 515.93) scale(1.33)" gradientUnits="userSpaceOnUse">
      <stop offset="0" stop-color="#36a7cd"/>
      <stop offset="1" stop-color="#36a7cd" stop-opacity="0"/>
    </linearGradient>
  </defs>
  <g id="g841">
    <g id="g845">
      <path id="path847" class="cls-3" d="M1065.78,267.55l-110.95-47.3h-110.78l71.49,30.77-22.68,16.53,22.68,16.53-71.49,30.75h110.78l110.95-47.28Z"/>
    </g>
    <g id="g857">
      <path id="path859" class="cls-3" d="M1065.78,666.66c0,152.84-123.89,276.73-276.72,276.73V389.94c152.83,0,276.72,123.89,276.72,276.72"/>
    </g>
    <g id="g861">
      <path id="path863" class="cls-3" d="M785.88,1087.35c-231.97,0-420.72-188.73-420.72-420.69s188.76-420.69,420.72-420.69c1.07,0,2.12.16,3.19.32v-101.12c-288.03,0-521.52,233.49-521.52,521.49s233.48,521.51,521.52,521.51v-101.13c-1.07.15-2.11.31-3.19.31"/>
    </g>
    <path id="path867" class="cls-1" d="M512.35,666.66c0-152.83,123.9-276.72,276.72-276.72v-101.01c-1.07.16-2.11.32-3.19.32-208.12,0-377.42,169.31-377.42,377.41s169.31,377.4,377.42,377.4c1.07,0,2.12.15,3.19.33v-101c-152.82,0-276.72-123.89-276.72-276.73"/>
  </g>
  <g>
    <path class="cls-2" d="M2000.4,1204.28c-11.99,0-17.98-6-17.98-17.98v-338.28c0-11.99,6-17.98,17.98-17.98h133.6c33.3,0,58.62,8.66,75.93,25.98,17.32,17.32,25.98,42.63,25.98,75.94v17.13c0,33.11-8.66,58.38-25.98,75.79-17.32,17.41-42.63,26.12-75.93,26.12h-115.62v135.31c0,11.99-5.99,17.98-17.98,17.98ZM2018.39,1015.01h115.62c23.41,0,40.25-5.18,50.53-15.56,10.28-10.37,15.42-27.16,15.42-50.38v-17.13c0-23.22-5.14-40.01-15.42-50.39-10.28-10.37-27.12-15.56-50.53-15.56h-115.62v149.01Z"/>
    <path class="cls-2" d="M2561.34,1205.13c-4.76,2.85-9.28,3.76-13.56,2.71-4.28-1.05-7.95-3.85-10.99-8.42l-91.92-148.44h-96.49v135.31c0,11.99-5.99,17.98-17.98,17.98s-17.98-6-17.98-17.98v-338.28c0-11.99,6-17.98,17.98-17.98h133.6c33.3,0,58.62,8.66,75.93,25.98,17.32,17.32,25.98,42.63,25.98,75.94v17.13c0,29.12-6.71,52.15-20.12,69.08-13.42,16.94-33.16,27.31-59.24,31.12l81.07,131.32c5.9,10.09,3.8,18.27-6.28,24.55ZM2348.38,1015.01h115.62c23.41,0,40.25-5.18,50.53-15.56,10.28-10.37,15.42-27.16,15.42-50.38v-17.13c0-23.22-5.14-40.01-15.42-50.39-10.28-10.37-27.12-15.56-50.53-15.56h-115.62v149.01Z"/>
    <path class="cls-2" d="M2674.95,1204.28c-11.99,0-17.98-6-17.98-17.98v-338.28c0-11.99,6-17.98,17.98-17.98h210.96c11.99,0,17.98,6,17.98,17.98s-6,17.99-17.98,17.99h-192.98v131.03h125.61c11.99,0,17.98,5.99,17.98,17.98s-5.99,17.98-17.98,17.98h-125.61v135.31h192.98c11.99,0,17.98,5.99,17.98,17.98s-6,17.98-17.98,17.98h-210.96Z"/>
    <path class="cls-2" d="M2989.82,1066.11c-4.38,0-8.14-1.57-11.28-4.71s-4.71-6.9-4.71-11.28,1.57-8.37,4.71-11.42c3.14-3.04,6.9-4.57,11.28-4.57h157.58c4.57,0,8.37,1.53,11.42,4.57,3.04,3.05,4.57,6.85,4.57,11.42s-1.53,8.14-4.57,11.28c-3.05,3.14-6.85,4.71-11.42,4.71h-157.58Z"/>
    <path class="cls-2" d="M3511.66,1205.13c-4.76,2.85-9.28,3.76-13.56,2.71-4.28-1.05-7.95-3.85-10.99-8.42l-91.92-148.44h-96.49v135.31c0,11.99-5.99,17.98-17.98,17.98s-17.98-6-17.98-17.98v-338.28c0-11.99,6-17.98,17.98-17.98h133.6c33.3,0,58.62,8.66,75.93,25.98,17.32,17.32,25.98,42.63,25.98,75.94v17.13c0,29.12-6.71,52.15-20.12,69.08-13.42,16.94-33.16,27.31-59.24,31.12l81.07,131.32c5.9,10.09,3.8,18.27-6.28,24.55ZM3298.7,1015.01h115.62c23.41,0,40.25-5.18,50.53-15.56,10.28-10.37,15.42-27.16,15.42-50.38v-17.13c0-23.22-5.14-40.01-15.42-50.39-10.28-10.37-27.12-15.56-50.53-15.56h-115.62v149.01Z"/>
    <path class="cls-2" d="M3625.26,1204.28c-11.99,0-17.98-6-17.98-17.98v-338.28c0-11.99,6-17.98,17.98-17.98h210.96c11.99,0,17.98,6,17.98,17.98s-6,17.99-17.98,17.99h-192.98v131.03h125.61c11.99,0,17.98,5.99,17.98,17.98s-5.99,17.98-17.98,17.98h-125.61v135.31h192.98c11.99,0,17.98,5.99,17.98,17.98s-6,17.98-17.98,17.98h-210.96Z"/>
    <path class="cls-2" d="M3953.55,1204.28c-11.99,0-17.98-6-17.98-17.98v-338.28c0-11.99,6-17.98,17.98-17.98s17.98,6,17.98,17.98v320.3h168.43c11.99,0,17.99,5.99,17.99,17.98s-6,17.98-17.99,17.98h-186.41Z"/>
    <path class="cls-2" d="M4246.72,1204.28c-11.99,0-17.98-6-17.98-17.98v-338.28c0-11.99,6-17.98,17.98-17.98h210.96c11.99,0,17.98,6,17.98,17.98s-6,17.99-17.98,17.99h-192.98v131.03h125.61c11.99,0,17.98,5.99,17.98,17.98s-5.99,17.98-17.98,17.98h-125.61v135.31h192.98c11.99,0,17.98,5.99,17.98,17.98s-6,17.98-17.98,17.98h-210.96Z"/>
    <path class="cls-2" d="M4531.62,1202.57c-11.04-4.75-14.37-12.65-9.99-23.69l139.59-334.86c4-9.32,10.75-13.99,20.27-13.99h1.43c9.32.19,15.79,4.85,19.41,13.99l140.45,334.86c4.75,11.04,1.52,18.94-9.71,23.69-11.04,4.38-18.84,1.14-23.41-9.71l-35.4-84.78h-184.13l-35.11,84.78c-4.38,11.04-12.18,14.27-23.41,9.71ZM4604.7,1072.11h154.44l-77.65-185.27-76.79,185.27Z"/>
    <path class="cls-2" d="M4995.78,1203.99c-33.5,0-58.76-7.23-75.79-21.7-17.03-14.46-26.69-37.11-28.97-67.94-.38-5.9,1.04-10.46,4.28-13.7s7.71-4.85,13.42-4.85,10.04,1.53,12.99,4.57c2.95,3.05,4.8,7.42,5.57,13.13,1.33,20.37,7.14,34.54,17.41,42.54,10.28,7.99,27.31,11.99,51.1,11.99h82.21c26.26,0,44.39-5,54.38-14.99,9.99-9.99,14.99-27.93,14.99-53.81s-5.09-44.39-15.27-54.38c-10.18-9.99-28.22-14.99-54.1-14.99h-75.65c-34.45,0-59.76-8.14-75.93-24.41-16.18-16.27-24.26-41.54-24.26-75.79s8.04-59.42,24.12-75.51c16.08-16.08,41.25-24.12,75.51-24.12h75.93c31.4,0,55.14,6.81,71.22,20.41,16.08,13.61,25.26,34.88,27.55,63.8.57,5.71-.76,10.23-4,13.56-3.24,3.33-7.81,5-13.7,5-5.52,0-9.8-1.57-12.85-4.71-3.05-3.14-4.85-7.47-5.42-12.99-1.53-18.46-7.04-31.26-16.56-38.4-9.52-7.14-24.93-10.71-46.25-10.71h-75.93c-24.36,0-41.06,4.62-50.1,13.84-9.04,9.23-13.56,25.83-13.56,49.81s4.61,40.68,13.85,50.1c9.23,9.42,26.02,14.13,50.38,14.13h75.65c35.97,0,62.52,8.52,79.65,25.55,17.13,17.03,25.69,43.63,25.69,79.79s-8.52,62.42-25.55,79.36c-17.04,16.94-43.63,25.41-79.79,25.41h-82.21Z"/>
    <path class="cls-2" d="M5302.37,1204.28c-11.99,0-17.98-6-17.98-17.98v-338.28c0-11.99,6-17.98,17.98-17.98h210.96c11.99,0,17.98,6,17.98,17.98s-6,17.99-17.98,17.99h-192.98v131.03h125.61c11.99,0,17.98,5.99,17.98,17.98s-5.99,17.98-17.98,17.98h-125.61v135.31h192.98c11.99,0,17.98,5.99,17.98,17.98s-6,17.98-17.98,17.98h-210.96Z"/>
  </g>
</svg>