<svg xmlns="http://www.w3.org/2000/svg" width="353" height="266" viewBox="0 0 353 266">
  <g id="Cms-type" transform="translate(4.598 15)">
    <g id="Group_349" data-name="Group 349" transform="translate(69 0)">
      <g id="Group_339" data-name="Group 339">
        <path id="Path_266" data-name="Path 266" d="M225.626,327.02a3.81,3.81,0,0,0,5.178-.4,102.34,102.34,0,0,1,176.374,84.924,3.809,3.809,0,0,0,2.917,4.3l.006,0a3.812,3.812,0,0,0,4.622-3.119,109.954,109.954,0,0,0-189.539-91.267,3.815,3.815,0,0,0,.442,5.562Z" transform="translate(-196 -286)" fill="#ff852b"/>
        <path id="Path_267" data-name="Path 267" d="M203.637,396a101.772,101.772,0,0,1,17.974-57.869,3.815,3.815,0,0,0-.757-5.149h0a3.818,3.818,0,0,0-5.521.8,109.857,109.857,0,0,0-18.054,78.94,3.813,3.813,0,0,0,4.622,3.119l.006,0a3.811,3.811,0,0,0,2.917-4.3A102.422,102.422,0,0,1,203.637,396Z" transform="translate(-196 -286)" fill="#78d356"/>
        <path id="Path_268" data-name="Path 268" d="M255.085,484.771A102.845,102.845,0,0,1,208.1,425.894a3.812,3.812,0,0,0-4.493-2.606l-.007,0a3.814,3.814,0,0,0-2.811,4.819A110.518,110.518,0,0,0,251.3,491.4a3.813,3.813,0,0,0,5.325-1.667l0,0A3.812,3.812,0,0,0,255.085,484.771Z" transform="translate(-196 -286)" fill="#5bc0f5"/>
        <path id="Path_269" data-name="Path 269" d="M403.9,425.895a102.846,102.846,0,0,1-46.988,58.876,3.811,3.811,0,0,0-1.539,4.959l0,0A3.813,3.813,0,0,0,360.7,491.4a110.514,110.514,0,0,0,50.511-63.291,3.814,3.814,0,0,0-2.811-4.819l-.008,0A3.811,3.811,0,0,0,403.9,425.895Z" transform="translate(-196 -286)" fill="#ff3636"/>
        <path id="Path_270" data-name="Path 270" d="M348.505,493.064a3.812,3.812,0,0,0-4.849-1.884,102.295,102.295,0,0,1-75.312,0,3.812,3.812,0,0,0-4.849,1.884l0,.006a3.811,3.811,0,0,0,2,5.2,109.932,109.932,0,0,0,81.009,0,3.811,3.811,0,0,0,2-5.2Z" transform="translate(-196 -286)" fill="#8a15ff"/>
        <path id="Path_280" data-name="Path 280" d="M225.626,327.02a3.81,3.81,0,0,0,5.178-.4,102.34,102.34,0,0,1,176.374,84.924,3.809,3.809,0,0,0,2.917,4.3l.006,0a3.812,3.812,0,0,0,4.622-3.119,109.954,109.954,0,0,0-189.539-91.267,3.815,3.815,0,0,0,.442,5.562Z" transform="translate(-196 -286)" fill="#ff852b" opacity="0.5"/>
        <path id="Path_281" data-name="Path 281" d="M203.637,396a101.772,101.772,0,0,1,17.974-57.869,3.815,3.815,0,0,0-.757-5.149h0a3.818,3.818,0,0,0-5.521.8,109.857,109.857,0,0,0-18.054,78.94,3.813,3.813,0,0,0,4.622,3.119l.006,0a3.811,3.811,0,0,0,2.917-4.3A102.422,102.422,0,0,1,203.637,396Z" transform="translate(-196 -286)" fill="#78d356" opacity="0.5"/>
        <path id="Path_282" data-name="Path 282" d="M255.085,484.771A102.845,102.845,0,0,1,208.1,425.894a3.812,3.812,0,0,0-4.493-2.606l-.007,0a3.814,3.814,0,0,0-2.811,4.819A110.518,110.518,0,0,0,251.3,491.4a3.813,3.813,0,0,0,5.325-1.667l0,0A3.812,3.812,0,0,0,255.085,484.771Z" transform="translate(-196 -286)" fill="#5bc0f5" opacity="0.5"/>
        <path id="Path_283" data-name="Path 283" d="M403.9,425.895a102.846,102.846,0,0,1-46.988,58.876,3.811,3.811,0,0,0-1.539,4.959l0,0A3.813,3.813,0,0,0,360.7,491.4a110.514,110.514,0,0,0,50.511-63.291,3.814,3.814,0,0,0-2.811-4.819l-.008,0A3.811,3.811,0,0,0,403.9,425.895Z" transform="translate(-196 -286)" fill="#ff3636" opacity="0.5"/>
        <path id="Path_284" data-name="Path 284" d="M348.505,493.064a3.812,3.812,0,0,0-4.849-1.884,102.295,102.295,0,0,1-75.312,0,3.812,3.812,0,0,0-4.849,1.884l0,.006a3.811,3.811,0,0,0,2,5.2,109.932,109.932,0,0,0,81.009,0,3.811,3.811,0,0,0,2-5.2Z" transform="translate(-196 -286)" fill="#8a15ff" opacity="0.5"/>
      </g>
    </g>
    <text id="Cms-type-2" data-name="Cms-type" transform="translate(179.402 119)" fill="#c7c7c7" font-size="32" font-family="Jura" font-weight="300"><tspan x="-73.632" y="0">Cms-type</tspan></text>
    <text id="Organics" transform="translate(-4.598 57)" fill="#c7c7c7" font-size="16" font-family="Jura" font-weight="300"><tspan x="0" y="0">Organics</tspan></text>
    <text id="Metals" transform="translate(262.402 17)" fill="#c7c7c7" font-size="16" font-family="Jura" font-weight="300"><tspan x="0" y="0">Metals</tspan></text>
    <text id="Fissile" transform="translate(153.402 248)" fill="#c7c7c7" font-size="16" font-family="Jura" font-weight="300"><tspan x="0" y="0">Fissile</tspan></text>
    <text id="Volatiles" transform="translate(6.402 209)" fill="#c7c7c7" font-size="16" font-family="Jura" font-weight="300"><tspan x="0" y="0">Volatiles</tspan></text>
    <text id="Rare_Earth" data-name="Rare Earth" transform="translate(272.402 209)" fill="#c7c7c7" font-size="16" font-family="Jura" font-weight="300"><tspan x="0" y="0">Rare Earth</tspan></text>
  </g>
</svg>
