<svg xmlns="http://www.w3.org/2000/svg" width="263.046" height="250" viewBox="0 0 263.046 250">
  <g id="I-type" transform="translate(15 4)">
    <g id="Group_332" data-name="Group 332" transform="translate(0 11)">
      <path id="Path_246" data-name="Path 246" d="M271.968,471.968a110,110,0,1,1,110-110A110.125,110.125,0,0,1,271.968,471.968Zm0-212.363A102.363,102.363,0,1,0,374.331,361.968,102.478,102.478,0,0,0,271.968,259.605Z" transform="translate(-161.968 -251.968)" fill="#5bc0f5"/>
      <path id="Path_247" data-name="Path 247" d="M271.968,471.968a110,110,0,1,1,110-110A110.125,110.125,0,0,1,271.968,471.968Zm0-212.363A102.363,102.363,0,1,0,374.331,361.968,102.478,102.478,0,0,0,271.968,259.605Z" transform="translate(-161.968 -251.968)" fill="#5bc0f5" opacity="0.5"/>
    </g>
    <text id="I-type-2" data-name="I-type" transform="translate(110.046 130)" fill="#c7c7c7" font-size="32" font-family="Jura" font-weight="300"><tspan x="-44.72" y="0">I-type</tspan></text>
    <text id="Volatiles" transform="translate(185.046 17)" fill="#c7c7c7" font-size="16" font-family="Jura" font-weight="300"><tspan x="0" y="0">Volatiles</tspan></text>
  </g>
</svg>
