<svg xmlns="http://www.w3.org/2000/svg" width="301.146" height="262.807" viewBox="0 0 301.146 262.807">
  <g id="Sm-type" transform="translate(-0.051 3.807)">
    <g id="Group_352" data-name="Group 352" transform="translate(66.196 11.193)">
      <g id="Group_335" data-name="Group 335">
        <path id="Path_255" data-name="Path 255" d="M792.641,55.372h0a3.814,3.814,0,0,0-.634-5.16,102.233,102.233,0,0,1-36.439-78.274,102.31,102.31,0,0,1,2.977-24.564,3.813,3.813,0,0,0-2.52-4.547l-.007,0a3.811,3.811,0,0,0-4.881,2.685,109.885,109.885,0,0,0-3.21,26.428A109.861,109.861,0,0,0,787.1,56.06,3.818,3.818,0,0,0,792.641,55.372Z" transform="translate(-747.926 138.006)" fill="#8a15ff"/>
        <path id="Path_256" data-name="Path 256" d="M765.515-91.6a102.513,102.513,0,0,1,96.547-63.8c55.137.91,99.957,45.927,100.633,101.065a102.171,102.171,0,0,1-36.41,79.5,3.815,3.815,0,0,0-.636,5.161h0a3.814,3.814,0,0,0,5.537.69,109.79,109.79,0,0,0,39.138-85.947c-.987-59.1-49.136-107.187-108.235-108.109A110.162,110.162,0,0,0,758.435-94.46a3.813,3.813,0,0,0,2.37,5.05h0A3.814,3.814,0,0,0,765.515-91.6Z" transform="translate(-750.339 163.048)" fill="#ff852b"/>
        <path id="Path_257" data-name="Path 257" d="M932.525,95.592a3.816,3.816,0,0,0-5.119-.984,102.055,102.055,0,0,1-108,0,3.816,3.816,0,0,0-5.119.984h0a3.817,3.817,0,0,0,1.045,5.477,109.677,109.677,0,0,0,116.143,0,3.817,3.817,0,0,0,1.045-5.477Z" transform="translate(-763.409 102.295)" fill="#ff3636"/>
      </g>
      <g id="Group_345" data-name="Group 345">
        <path id="Path_255-2" data-name="Path 255" d="M792.641,55.372h0a3.814,3.814,0,0,0-.634-5.16,102.233,102.233,0,0,1-36.439-78.274,102.31,102.31,0,0,1,2.977-24.564,3.813,3.813,0,0,0-2.52-4.547l-.007,0a3.811,3.811,0,0,0-4.881,2.685,109.885,109.885,0,0,0-3.21,26.428A109.861,109.861,0,0,0,787.1,56.06,3.818,3.818,0,0,0,792.641,55.372Z" transform="translate(-747.926 138.006)" fill="#8a15ff" opacity="0.5"/>
        <path id="Path_256-2" data-name="Path 256" d="M765.515-91.6a102.513,102.513,0,0,1,96.547-63.8c55.137.91,99.957,45.927,100.633,101.065a102.171,102.171,0,0,1-36.41,79.5,3.815,3.815,0,0,0-.636,5.161h0a3.814,3.814,0,0,0,5.537.69,109.79,109.79,0,0,0,39.138-85.947c-.987-59.1-49.136-107.187-108.235-108.109A110.162,110.162,0,0,0,758.435-94.46a3.813,3.813,0,0,0,2.37,5.05h0A3.814,3.814,0,0,0,765.515-91.6Z" transform="translate(-750.339 163.048)" fill="#ff852b" opacity="0.5"/>
        <path id="Path_257-2" data-name="Path 257" d="M932.525,95.592a3.816,3.816,0,0,0-5.119-.984,102.055,102.055,0,0,1-108,0,3.816,3.816,0,0,0-5.119.984h0a3.817,3.817,0,0,0,1.045,5.477,109.677,109.677,0,0,0,116.143,0,3.817,3.817,0,0,0,1.045-5.477Z" transform="translate(-763.409 102.295)" fill="#ff3636" opacity="0.5"/>
      </g>
    </g>
    <text id="Sm-type-2" data-name="Sm-type" transform="translate(177.051 133)" fill="#c7c7c7" font-size="32" font-family="Jura" font-weight="300"><tspan x="-64.448" y="0">Sm-type</tspan></text>
    <text id="Metals" transform="translate(249.051 17)" fill="#c7c7c7" font-size="16" font-family="Jura" font-weight="300"><tspan x="0" y="0">Metals</tspan></text>
    <text id="Rare_Earth" data-name="Rare Earth" transform="translate(134.051 256)" fill="#c7c7c7" font-size="16" font-family="Jura" font-weight="300"><tspan x="0" y="0">Rare Earth</tspan></text>
    <text id="Fissile" transform="translate(0.051 147)" fill="#c7c7c7" font-size="16" font-family="Jura" font-weight="300"><tspan x="0" y="0">Fissile</tspan></text>
  </g>
</svg>
