<svg xmlns="http://www.w3.org/2000/svg" aria-hidden="true" focusable="false" viewBox="0 0 36 36">
  <path d="M29.16,5.14c-.81.26-1.6.53-2.4.82l-.06.11h-.22c-2.26.83-4.44,1.77-6.43,2.71l-.38.94-2.11.35h-.14c-3,1.56-5.33,2.92-6.18,3.44l-.59.36-.18.59-.87.88H8.23a7.56,7.56,0,0,0-.84.59c-.32.33,1.11,1.66,1.43,2s1.5,1.5,1.26,2.34-.73.44-1.13.56-2.56-1.07-3.76-1.23a1.17,1.17,0,0,0-1.43.72,9.35,9.35,0,0,0-.49,1.57,1.88,1.88,0,0,0,.56,1.5A43.93,43.93,0,0,0,8.21,25a6.62,6.62,0,0,1,2.49,1.83,23.48,23.48,0,0,1,3.94,5.44c.92,1.5,1.37.78,2.78.49s1.14-1.8,1-2.29-1.84-2.66-.5-4.13,3.4,2.37,4.55,2.34c.34,0,.74-.42,1.34-1.47L24,25.06l1.26-.72.35-.76q1.08-2.38,2-4.51l-.41-.93,1.35-1.35c.5-1.24.95-2.39,1.35-3.46l-.11-1.09,1.46-2.72c1.16-3.47,1.61-5.36,1.61-5.36-.72.16-1.45.35-2.19.55l-.78.78ZM21.49,23.41l2,.8L20,23.9l-1.45-3.08Zm-6.35-7.62,2.82.72-3.53-.05L13.5,14Zm7.06-3.43,2,.8-2.72.1-1.45-3.08Z"/>
  <path d="M26.76,6l-.28.1h.22Z"/>
</svg>