<svg xmlns="http://www.w3.org/2000/svg" aria-hidden="true" focusable="false" viewBox="0 0 36 36">
  <path d="M33.09,11.45a10,10,0,1,0-19.79,2.2,9.85,9.85,0,0,0,1.39,4.44l-.82.82,3,3,.71-.72a10,10,0,0,0,15.51-9.74Zm-3.7-5.52a8.89,8.89,0,0,1,1.32,1.71,9.44,9.44,0,0,0-1-1.15,9.2,9.2,0,0,0-13,0,9,9,0,0,0-1.94,2.87,8.76,8.76,0,0,1,4.18-5,9.6,9.6,0,0,1,6.07-.83A8.83,8.83,0,0,1,29.39,5.93ZM14.46,13.56c0-.19,0-.38,0-.57a8.81,8.81,0,0,1,17.51-1.43,8.81,8.81,0,0,1-15,6.84A8.7,8.7,0,0,1,14.46,13.56ZM30,19.78a9.61,9.61,0,0,1-12.19,1.15,10.1,10.1,0,0,1-1.39-1.15A9.58,9.58,0,0,1,15,17.91a10.37,10.37,0,0,0,1.09,1.31,10.09,10.09,0,0,0,1.95,1.51A9.79,9.79,0,0,0,21.38,22c.32.06.65.1,1,.13a9.38,9.38,0,0,0,3.57-.36c.33-.1.65-.21,1-.33a10.19,10.19,0,0,0,3.31-2.2A9.92,9.92,0,0,0,32.35,16,9.47,9.47,0,0,1,30,19.78Z"/>
  <path d="M10,23.52,3.45,30.11a2.36,2.36,0,0,0,2.22,2.22l6.59-6.59-1.11-1.11Z"/>
  <rect x="12.51" y="20.71" width="2.7" height="2.42" transform="translate(-11.44 16.22) rotate(-45)"/>
  <rect x="11.53" y="21.88" width="0.99" height="3.75" transform="translate(-13.27 15.46) rotate(-45)"/>
  <path d="M30,13.78c0,.12,0,.25,0,.38a6.92,6.92,0,1,0-13.65-1.92A6.92,6.92,0,0,1,30,13.78Z"/>
</svg>