<svg xmlns="http://www.w3.org/2000/svg" aria-hidden="true" focusable="false" viewBox="0 0 36 36">
  <path d="M18.55,29.82l1.77-.73a2.21,2.21,0,0,0,.3-.94L18.53,29l-2.4-.83a2.13,2.13,0,0,0,.29.89Z"/>
  <polygon points="24.62 15.78 23.19 16.72 21.82 17.3 21.01 18.63 21.82 18.08 24.06 17.82 24.62 15.78"/>
  <polygon points="15.86 18.63 15.06 17.3 13.69 16.72 12.25 15.78 12.82 17.82 15.06 18.08 15.86 18.63"/>
  <path d="M29.37,28.06a2.41,2.41,0,0,0-3.41.23,1.85,1.85,0,0,0-.19.27.18.18,0,0,0-.05.07,1.67,1.67,0,0,0-.12.23,2.4,2.4,0,0,1,.18-.26l0,0a2.09,2.09,0,0,1,1.4-.67,2.12,2.12,0,0,1,2.16,1.53,3.21,3.21,0,0,1,.07.43,2.13,2.13,0,0,1-.15.91,2.05,2.05,0,0,1-1,1.09l-.08,0a2.08,2.08,0,0,1-.75.2,2.14,2.14,0,0,1-1.1-.24,2.38,2.38,0,0,0,1.7.41A2.59,2.59,0,0,1,26,33.74a3.09,3.09,0,0,1-.53,0h0a2.6,2.6,0,0,1-2-1.41,2.46,2.46,0,0,0,2.68,2.14A2.45,2.45,0,0,0,29.93,32a3,3,0,0,0,.1-.95c0-.08,0-.16,0-.23A2.43,2.43,0,0,0,29.37,28.06Z"/>
  <path d="M25.43,30.45l-.12-.08-.78-.43-.08-.05-.69-.38-1.21-.68h0l1,1,.53.52.15.14,1,1,.37.36.46-.19,0,0,1-.41-.25-1-.25-.12-1.18-.55,0,0-.06,0-.48-.22-.45-.21.34.36.24.25.3.32.11.13.45.47.08.08-.11-.06Z"/>
  <path d="M11.49,33.71h0a3,3,0,0,1-.52,0,2.59,2.59,0,0,1-2.14-1.48,2.35,2.35,0,0,0,1.69-.41,2.11,2.11,0,0,1-1.09.24,2.08,2.08,0,0,1-.75-.2l-.09,0a2.13,2.13,0,0,1-1-1.09,2.29,2.29,0,0,1-.14-.91,2.14,2.14,0,0,1,.07-.43,2.1,2.1,0,0,1,3.56-.86l0,0a2.48,2.48,0,0,1,.19.26,1.67,1.67,0,0,0-.12-.23.18.18,0,0,0-.05-.07,1.85,1.85,0,0,0-.19-.27,2.41,2.41,0,0,0-4,2.54c0,.07,0,.15,0,.23A3,3,0,0,0,7,32a2.45,2.45,0,0,0,3.8,2.43,2.49,2.49,0,0,0,1.86-.59,2.4,2.4,0,0,0,.82-1.55A2.56,2.56,0,0,1,11.49,33.71Z"/>
  <path d="M13.13,29.51l-.69.38-.08.05-.78.43-.12.08-.37.2-.11.06.08-.08.44-.47.12-.13.3-.32.24-.25.34-.36-.45.21-.48.22-.06,0,0,0-1.19.55-.24.12-.25,1,1,.41,0,0,.45.19.37-.36,1-1,.15-.14.53-.52.89-.86a.14.14,0,0,0,0-.06Z"/>
  <path d="M21.6,26l-.08-.15a4.51,4.51,0,0,0-.48-.6l-.71.71a2.68,2.68,0,0,1,.52.74,1.76,1.76,0,0,1,.09.2,2.67,2.67,0,0,1,.19.94s0,.05,0,.08a2.78,2.78,0,0,1-.15.86,2.67,2.67,0,0,1-.66,1.09,2.75,2.75,0,0,1-4.56-1,2.75,2.75,0,0,1-.16-.9,1.23,1.23,0,0,1,0-.2,2.51,2.51,0,0,1,.18-.82,1.92,1.92,0,0,1,.12-.25,2.72,2.72,0,0,1,.49-.69l-.71-.71a3.87,3.87,0,0,0-.45.55c0,.07-.07.14-.11.2a4,4,0,0,0-.53,1.8s0,.08,0,.12A3.77,3.77,0,0,0,21,30.61,3.8,3.8,0,0,0,22.14,28v0a3.74,3.74,0,0,0-.12-.89A3.44,3.44,0,0,0,21.6,26Z"/>
  <path d="M33.41,10.05c-.15-1.74-.7-2.63-6.11-5.7C25,3.05,24.65,1.54,24.65,1.54c-.1,1.9.4,3.68,3.56,5.47,2.77,1.57,1.7,2.85.23,3.43a19.66,19.66,0,0,1-4.16.8v0l-3.93-.83H16.41l-3.78.8a19.61,19.61,0,0,1-4.17-.8C7,9.86,5.92,8.58,8.69,7c3.16-1.79,3.66-3.57,3.56-5.47,0,0-.33,1.51-2.64,2.81-5.42,3.07-6,4-6.11,5.7s1.14,2.76,2.69,3.61a20.93,20.93,0,0,0,2.53,1L5.18,17.61a3.32,3.32,0,0,0,2.38.92,4.83,4.83,0,0,0,1.66-.3l1.19-1.6v.44L13,22.77l.18,3.71,1,.91a4.68,4.68,0,0,1,.2-.84l-.42-.41-.17-3.4v-.15l-.06-.13-2.54-5.55V16l.2-.57.69-1.1-.29-.11L11.07,14,7.25,12.43A3.13,3.13,0,0,1,5.87,10.6c-.7-2,1.44-2.81,1.44-2.81s-.93.49-.89,1.33a2.06,2.06,0,0,0,1.41,1.77l4,.88.93.21h0l1.75-.37-.88,2.62,2.53,2,1.43,4.31-.78-.86L15.61,22.7,16.74,24l-1.13-.21-.92.45v1.15l.13.18c0-.08.13-.15.19-.23,0-.27.08-.9.08-.9s1.45.45,1.78,1a.9.9,0,0,1-.07,1l-.19.11a2.29,2.29,0,0,0-.43.87l2.19-.36,2.2.36a2.24,2.24,0,0,0-.49-.94l-.07,0a.92.92,0,0,1-.07-1c.33-.51,1.78-1,1.78-1s.08.84.09,1a.81.81,0,0,1,.12.14l.13-.18V24.26l-.92-.45-1.22.3,1.22-1.41-1.21-3.07-.78.86,1.43-4.31,2.64-2-.64-2.5L24,12l.1,0L25,11.8l4.17-.87a2.05,2.05,0,0,0,1.41-1.77c0-.84-.9-1.33-.9-1.33s2.15.82,1.45,2.81a3.11,3.11,0,0,1-1.62,1.84L25.69,14l-.7.28-.15.06.38.6.36,1.1v.88L22.8,23l-.06.14v.15l-.12,3.19-.19.17a4.22,4.22,0,0,1,.17.86l.76-.68.13-3.52,2.84-6.27v-.93l1.56,2.09a4.83,4.83,0,0,0,1.66.3,3.32,3.32,0,0,0,2.38-.92l-3.6-3a19.56,19.56,0,0,0,2.38-1C32.26,12.81,33.56,11.83,33.41,10.05ZM8.61,17.38a3.86,3.86,0,0,1-1,.15,2.67,2.67,0,0,1-.64-.07l2.86-2.37.34.26Zm21.58.08a2.67,2.67,0,0,1-.64.07,3.71,3.71,0,0,1-1-.15l-1.52-2,.35-.26Z"/>
</svg>