<svg xmlns="http://www.w3.org/2000/svg" aria-hidden="true" focusable="false" viewBox="0 0 36 36">
  <path d="M25.92,14.73a7.28,7.28,0,1,1-14.55,0v-3A13.14,13.14,0,0,0,9.68,18a2.42,2.42,0,0,1-.25,1l-2,3.67c-.18.38,0,.64.51.82L9.06,24l0,1.32a.42.42,0,0,0,.31.42l.24.07L9.42,26a.4.4,0,0,0,0,.37c.2.35.6,1.08.59,1.1s-.2,1.07-.2,1.08c-.37,1.47.73,1.69,1.82,1.65l2.5-.11a.52.52,0,0,1,.57.58L14.76,35l10-2.71-.68-5.69a4.31,4.31,0,0,1,1.42-3.85c1.82-1.82,2.48-7.11.42-10.23Z"/>
  <polygon points="14.6 4.18 16.87 7.83 16.87 19.06 18.09 19.06 18.09 7.48 15.56 3.44 16.63 2.61 12.92 1.01 13.55 5 14.6 4.18"/>
  <polygon points="20.58 7.83 22.86 4.18 23.91 5 24.53 1.01 20.83 2.61 21.89 3.44 19.37 7.48 19.37 19.06 20.58 19.06 20.58 7.83"/>
  <polygon points="10.24 8.9 14.17 9.81 14.17 16.6 15.38 16.6 15.38 8.84 10.44 7.7 10.67 6.2 6.88 7.57 10.06 10.04 10.24 8.9"/>
  <polygon points="22.02 8.84 22.02 16.6 23.24 16.6 23.24 9.81 26.98 8.94 27.16 10.04 30.34 7.57 26.55 6.2 26.79 7.74 22.02 8.84"/>
</svg>