<svg xmlns="http://www.w3.org/2000/svg" aria-hidden="true" focusable="false" viewBox="0 0 36 36">
  <polygon points="8.71 9.37 12.42 13.4 13.16 12.72 10.68 10.03 13.2 9.58 9.14 2.51 8.27 3.01 11.63 8.85 8.71 9.37"/>
  <polygon points="8.4 16.22 1.78 12.67 1.31 13.55 6.28 16.22 4 17.42 8.65 19.17 9 18.23 6.43 17.27 8.4 16.22"/>
  <polygon points="22.84 12.72 23.58 13.4 27.3 9.37 24.37 8.85 27.73 3.01 26.86 2.51 22.8 9.58 25.32 10.03 22.84 12.72"/>
  <polygon points="34.69 13.55 34.22 12.67 27.6 16.22 29.57 17.27 27 18.23 27.35 19.17 32 17.42 29.72 16.22 34.69 13.55"/>
  <path d="M18,13.81c-8.61,0-7.76,8.72-7.76,8.72l.49,2.89c1.16,5.45,4.32,8.78,7.27,8.78s6.41-3.63,7.27-8.78l.49-2.89S26.61,13.81,18,13.81Zm-5.37,7.33a.5.5,0,0,1-.47.31l-.19,0a.51.51,0,0,1-.27-.65l.54-1.34,2.36-1.26a.5.5,0,0,1,.68.2.5.5,0,0,1-.21.68l-2,1.09Zm2,0c.66,0,1.19.78,1.19,1.73a2.23,2.23,0,0,1-.33,1.2,1,1,0,0,0-.76-.41,1,1,0,0,0-.85.53,2.09,2.09,0,0,1-.43-1.32C13.42,21.93,14,21.15,14.6,21.15ZM18,32.24c-1.05,0-1.9-1.88-1.9-3.09A2.06,2.06,0,0,1,18,27a2.06,2.06,0,0,1,1.89,2.2C19.89,30.36,19.05,32.24,18,32.24Zm4.26-8.1a1,1,0,0,0-.81-.47,1,1,0,0,0-.81.47,2.14,2.14,0,0,1-.38-1.26c0-.95.53-1.73,1.19-1.73s1.18.78,1.18,1.73A2.14,2.14,0,0,1,22.26,24.14Zm2.1-3.36a.5.5,0,0,1-.29.64.57.57,0,0,1-.18,0,.51.51,0,0,1-.47-.32l-.37-1L21,19.05a.5.5,0,1,1,.47-.88l2.4,1.26Z"/>
</svg>