<svg xmlns="http://www.w3.org/2000/svg" aria-hidden="true" focusable="false" viewBox="0 0 36 36">
  <polygon points="24.29 17.15 23.19 19.05 18.78 23.45 19.27 33.42 20.95 35.1 23.98 32.67 21.1 23.53 22.27 22.93 24.29 20.06 25.41 16.76 24.89 16.55 24.29 17.15"/>
  <polygon points="10.93 17.15 10.33 16.55 9.81 16.76 10.93 20.06 12.94 22.93 14.12 23.53 11.24 32.67 14.27 35.1 15.95 33.42 16.44 23.45 12.03 19.05 10.93 17.15"/>
  <polygon points="16.2 10.81 14.33 9.52 15.62 11.39 16.11 11.3 16.2 10.81"/>
  <polygon points="20.89 9.52 19.01 10.81 19.1 11.3 19.6 11.39 20.89 9.52"/>
  <polygon points="15.62 14.2 14.33 16.07 16.2 14.78 16.11 14.29 15.62 14.2"/>
  <polygon points="19.01 14.78 20.89 16.07 19.6 14.2 19.1 14.29 19.01 14.78"/>
  <polygon points="24.46 12.8 19.29 11.84 18.68 11.73 18.56 11.12 17.61 5.95 16.66 11.12 16.54 11.73 15.93 11.84 10.76 12.8 15.93 13.75 16.54 13.86 16.66 14.47 17.61 19.64 18.56 14.47 18.68 13.86 19.29 13.75 24.46 12.8"/>
  <path d="M25.66,4.45A11.38,11.38,0,0,0,8,18.65a10.79,10.79,0,1,1,20.37-5,10.88,10.88,0,0,1-1.21,5A11.39,11.39,0,0,0,25.66,4.45Z"/>
</svg>