<svg xmlns="http://www.w3.org/2000/svg" aria-hidden="true" focusable="false" viewBox="0 0 36 36">
  <path d="M25.54,21.8l-1-1.19L21.06,20l-2,.36-3.13.8-.23.06-.23-.09-.63-.24-1.49,1.46-.81.81a6,6,0,0,0,.11.78l.89,4c.81,3.52,4.66,6.47,4.66,6.47a5.14,5.14,0,0,0,2.31.13,5,5,0,0,0,2.21-.68s3-3.79,3-7.4l-.08-4.05A4.26,4.26,0,0,0,25.54,21.8Zm-10.11,5a.64.64,0,0,1-.23,0,.51.51,0,0,1-.45-.27.5.5,0,0,1,.22-.67l.9-.46L14,24.47a.51.51,0,0,1-.22-.67.5.5,0,0,1,.67-.23l3.65,1.83Zm9.26-3-1.83,1.17.95.36a.5.5,0,0,1,.28.65.48.48,0,0,1-.46.32.57.57,0,0,1-.18,0l-2.79-1.08,3.49-2.23a.5.5,0,0,1,.54.84Z"/>
  <path d="M30.66,19.36h0l-3.42-1.23-2.95-3.84-2.15-2.77-1.66-1.23-1.05-.88-1-1.36.07-.38.27-1.49-.9-2.64.21-1.49L17.66.84,16.66,2l.62,2.63-.8,3-.42.55L15,9.6h0l-.55.3-1.28,2-1.5,3.59V17L9.91,18.79l-1.67.93L6.9,22.11l-2,.24.48,2.35L6,27.57l1.9-.26,2.47-.95L11,23.59l1.46-1.46.32-.32L14.64,20l1.09.41h0l2-.5h0l1.2-.31,2.16-.38,3.93.69.2.25,1.34,1.66,3,2.7,2.69,1,.89-4.63Zm-5.4.1-.14,0-.8-1.13-.13-.18v0l0-1.79-.74.93-.76,1,.62.9-2.13-.37-.08,0-.09,0-2.2.39-1.9.49c-.6-.22-1.3-.48-1.31-.5s1-1.08,1-1.08l.94-1.56-.35-.41L17,15.9l-.76-.2-1.25-1-.37-1.41-.17.84,1,2,0,.6.07.91-1.38,1.47v.68l-1.48,1.45-.19.06-1.27.43,0,.45-1.24.1.49,1.39,0-.05L10,26l-2.16.84L6.4,27l-.56-2.76,1.5-1.6.21.92S7,25.31,7.14,25.28s2-2.24,2-2.24l-.47-.42-.14-2.35.1-.18,1.18-.66.8.84,1-1.44,2.14-.65.26-.07h-.21l-1,0-1.15-.41.4-.43.14-.15V15.63l1.45-3.46L14.3,11l.29,1.89.8-.68-.14-1.06,1.08.54.76.55v-1.6l-.53-1.37,1.2-.66,2.42,2,1.6,1.19.62.79L23,14.93,24,14.78l2.59,3.37,1.22,3.63.63-1.65.79-.74,1.06.38-.09,2.58-1.12-.14,1.55,2.2-.88-.32-2.89-2.61-1.51-1.87ZM31,24.52l.49-.68V23l-.66-3,1.73,1.07-.71,3.72Z"/>
  <polygon points="20.62 12.96 20.3 11.19 20.09 12.63 20.14 13.76 21.77 16.22 22.24 16.93 22.32 16.46 22.35 16.24 21.77 13.88 20.62 12.96"/>
  <polygon points="19.23 15.8 19.03 15.05 18.47 15.85 17.87 16.69 20.09 16.35 19.34 16.25 19.23 15.8"/>
</svg>