<svg xmlns="http://www.w3.org/2000/svg" aria-hidden="true" focusable="false" viewBox="0 0 36 36">
  <path d="M33.75,13.36,29.27,11A3.19,3.19,0,0,0,25,12.37a3.1,3.1,0,0,0-.26.72H24A3.19,3.19,0,0,0,21,10.66H18l-.67,1.5H21a1.68,1.68,0,0,1,1.5.93h-.51a.75.75,0,0,0,0,1.5h.51a1.68,1.68,0,0,1-1.5.93h-1.8l.26.27L18.2,17l0,0H21A3.19,3.19,0,0,0,24,14.59h.68a3.16,3.16,0,0,0,1.6,2.07L30.8,19a3.17,3.17,0,0,0,1.47.37,3.09,3.09,0,0,0,.95-.15,3.18,3.18,0,0,0,.53-5.86Zm0,3.6a1.68,1.68,0,0,1-1,.83,1.7,1.7,0,0,1-1.29-.12L27,15.33a1.71,1.71,0,0,1-.72-.74h1.27a.75.75,0,0,0,0-1.5H26.29v0a1.7,1.7,0,0,1,1-.83,1.79,1.79,0,0,1,.51-.07,1.62,1.62,0,0,1,.77.19l4.48,2.34A1.69,1.69,0,0,1,33.76,17Z"/>
  <path d="M14,17.83l-.34.34-2.19,2.19a1.68,1.68,0,0,1-1.72.4l.36-.36a.75.75,0,0,0,0-1.06.74.74,0,0,0-1.06,0l-.36.36A1.66,1.66,0,0,1,9.11,18l2.46-2.46L10,15,8.05,16.92a3.17,3.17,0,0,0-.46,3.9l-.76.76a3.23,3.23,0,0,0-1.41-.47A3.23,3.23,0,0,0,2,24.05l-.38,5A3.19,3.19,0,0,0,4.56,32.5H4.8A3.18,3.18,0,0,0,8,29.57l.38-5a3.07,3.07,0,0,0-.46-1.89l.76-.76a3.13,3.13,0,0,0,1.65.47,3.18,3.18,0,0,0,2.25-.93l2.06-2.06-.46-1.19ZM6.86,24.41l-.38,5a1.68,1.68,0,0,1-3.36-.25l.38-5A1.7,1.7,0,0,1,5.18,22.6h.13a1.37,1.37,0,0,1,.4.09l-.62.61a.75.75,0,0,0,0,1.06.76.76,0,0,0,1.07,0l.62-.62A1.82,1.82,0,0,1,6.86,24.41Z"/>
  <polygon points="11.96 13.07 12.11 13.16 12.73 13.52 12.17 12.91 12.11 12.85 11.35 12 8.43 8.8 5.26 9.13 10.9 12.45 11.96 13.07"/>
  <polygon points="15.49 6.02 13.97 4.4 15.07 9.62 15.49 6.02"/>
  <polygon points="15.28 11.65 15.11 11.76 15.49 12.21 15.94 12.75 16.08 12.46 16.22 12.16 16.94 10.66 16.95 10.64 16.91 10.66 15.28 11.65"/>
  <polygon points="15.12 19.99 15.1 20.1 14.73 21.94 16.18 21.83 15.15 20.04 15.12 19.99"/>
  <polygon points="20.38 22.97 20.56 20.82 18.26 18.91 20.38 22.97"/>
</svg>