<svg xmlns="http://www.w3.org/2000/svg" aria-hidden="true" focusable="false" viewBox="0 0 36 36">
  <polygon points="27.83 11.22 28.57 11.22 29.05 10 28.53 9.12 27.86 9.12 27.31 9.89 27.79 11.21 27.83 11.22"/>
  <polygon points="28.89 15.05 27.45 14.93 26.41 14.84 25.73 15.11 24.1 15.74 24.01 15.84 24.75 16.42 24.75 15.84 26.74 15.84 27.46 16.2 27.59 29.89 28.58 29.89 28.87 16.2 29.59 15.84 31.57 15.84 31.57 16.42 32.32 15.84 31.6 15.11 28.89 15.11 28.89 15.05"/>
  <polygon points="20.05 31.11 31.9 31.11 30.69 30.26 20.05 31.11"/>
  <path d="M24.15,29.94,20.7,28.55l-.42-.1c.41-1.51,1.6-6.55,1.6-6.55l.48-.81V19.36l-2.05-.8-.16.26-2.36-.54H14.93L17.81,14l.68.73,2.2,1,.37.16.37.16,4.87-1.91,1.14.1,1.46.12H29l.64-1.47-.2-.77L27.82,12l-1-.46L26,13l-4.07.61-.34-.31-.33-.31-1.79-1.66-.19-.14L19,10.5l1-.79.42.19.71.62.55-.14.25-.41.36-.25.18-.25.39.11L23,9.4l.1-1.13.45-.8A2.92,2.92,0,0,0,22.69,5a2.21,2.21,0,0,0-3.11-.18,3.38,3.38,0,0,0-.91,2.32l-1.1.75L16.42,7.8,14.17,9.51,10.7,18.08l0,2-.22,1.48,1.63,5.31,0,0L7.94,25.79v-.06s-2-1.16-2.23-1.19a2.27,2.27,0,0,0-.78.31V27l-.85,1.84.63,1.3h1.8l.29-.37-1.09-1,1.56-1.31,5.91,3.1h1l.93-2.24-.53-.27.57-6.29h0l3.76-.53-.46,1,.16,6.19-.78,1.19.47.77h5.54Z"/>
</svg>