<svg xmlns="http://www.w3.org/2000/svg" aria-hidden="true" focusable="false" viewBox="0 0 36 36">
  <defs>
    <style>.cls-1{fill:none;}</style>
  </defs>
  <path class="cls-1" d="M28.21,25.27l-1-1,2.53-2.53,1,1A4.51,4.51,0,0,1,28.21,25.27Zm.25-6.05.1-.11a.52.52,0,0,1,.35-.14.51.51,0,0,1,.34.14l.54.55a.48.48,0,0,1,0,.68l-.12.12-.29.29-.3.3-2.54,2.54-.3.3-.29.29-.21.21a.48.48,0,0,1-.34.14h0a.43.43,0,0,1-.32-.14l-.55-.54a.52.52,0,0,1-.14-.33.5.5,0,0,1,.14-.36l.21-.21.3-.3.3-.29,2.55-2.55.29-.3ZM3.14,14.75,6.88,8.08,10.46,4.5A1.7,1.7,0,0,1,11.67,4h0a1.67,1.67,0,0,1,1.21.51L23.14,15l-2.62,2.55L11.4,8.35,4,15.59Zm16.78,3.36-.08.08a1.42,1.42,0,0,0-.07-.22ZM6.45,20.91,5.18,16.16l3.48-3.48L13.41,14l1.27,4.75L11.2,22.18Zm6.83,3.64a1,1,0,0,1-.3.06,1,1,0,0,1-.73-.3l-.71-.71L18,17.11l.71.71a.82.82,0,0,1,.11.17A1,1,0,0,1,19,19a1,1,0,0,1-.16.25s0,.06-.06.08l-.15.15-3.07,3.08-.43.42-.43.43-.93.94A1,1,0,0,1,13.28,24.55Zm5.88,2-.61-.15-1.15-.29-3.27-.82,1.24-1.21.43-.42.44-.42,3.12-3,.43-.42.44-.42.48-.47.3-.29.3-.29,2.62-2.54.3-.29.3-.3.06-.06a1,1,0,0,1,1.36,0l1.76,1.76a1,1,0,0,1,.29.7,1,1,0,0,1-.3.69l-.07.07-.3.29L27,19l-2.6,2.51-.3.3-.3.29-.48.45-.43.42-.44.42-3.12,3Z"/>
  <polygon class="cls-1" points="6.13 16.3 6.65 16.85 7.3 16.23 9.23 14.43 10.93 14.87 11.45 15.01 11.64 14.28 9.02 13.6 6.13 16.3"/>
  <path d="M13.41,14,8.66,12.68,5.18,16.16l1.27,4.75,4.75,1.27,3.48-3.48Zm-2,1.06-.52-.14-1.7-.44L7.3,16.23l-.65.62-.52-.55L9,13.6l2.63.68Z"/>
  <polygon points="20.15 27.16 25.17 32.18 28.23 29.09 23.28 24.14 20.15 27.16"/>
  <path d="M27.21,24.26l1,1a4.51,4.51,0,0,0,2.53-2.52l-1-1Z"/>
  <path d="M20.52,17.53,23.14,15,12.89,4.51A1.67,1.67,0,0,0,11.68,4h0a1.7,1.7,0,0,0-1.21.5L6.88,8.08,3.14,14.75l.84.84L11.4,8.35Z"/>
  <path d="M25.32,22.36l-.3.29-.3.3-.21.21a.5.5,0,0,0-.14.36.52.52,0,0,0,.14.33l.55.54a.43.43,0,0,0,.32.14h0a.48.48,0,0,0,.34-.14l.21-.21.29-.29.3-.3,2.54-2.54.3-.3.29-.29.12-.12a.48.48,0,0,0,0-.68l-.54-.55a.51.51,0,0,0-.34-.14.52.52,0,0,0-.35.14l-.1.11-.3.29-.29.3Z"/>
  <path d="M22.92,22.92l.43-.42.48-.45.3-.29.3-.3L27,19l.3-.29.3-.29.07-.07a1,1,0,0,0,.3-.69,1,1,0,0,0-.29-.7L26,15.15a1,1,0,0,0-1.36,0l-.06.06-.3.3-.3.29-2.62,2.54-.3.29-.3.29-.48.47-.44.42-.43.42-3.12,3-.44.42-.43.42L14.13,25.3l3.27.82,1.15.29.61.15.2-.19,3.12-3Z"/>
  <path d="M15.08,22.94l.43-.42,3.07-3.08.15-.15s0-.06.06-.08A1,1,0,0,0,19,19a1,1,0,0,0-.11-1,.82.82,0,0,0-.11-.17L18,17.11,11.54,23.6l.71.71a1,1,0,0,0,.73.3,1.34,1.34,0,0,0,.74-.3l.93-.94Z"/>
</svg>