<svg xmlns="http://www.w3.org/2000/svg" aria-hidden="true" focusable="false" viewBox="0 0 36 36">
  <path d="M24.86,20,24.7,20l-.61-.28-.59-.27h0L22.65,19l-1.22-.56L12.9,14.53l-.27-.12-.9-.42-.26-.11-.35-.17-.62-.28-.1,0-2-.9a22.31,22.31,0,0,0-.24,2.37A2.85,2.85,0,0,1,7.92,16L5.59,20.37c-.21.45,0,.76.61,1l1.28.57-.05,1.56a.5.5,0,0,0,.37.5l.28.08-.18.33a.46.46,0,0,0,0,.44c.23.42.7,1.29.7,1.3s-.24,1.27-.24,1.29c-.44,1.74.86,2,2.15,1.95l3-.13a.6.6,0,0,1,.67.68L14.23,35l11.85-3.21L25.27,25a5,5,0,0,1,1.35-4.19Z"/>
  <path d="M27.85,15.61a8.75,8.75,0,0,0,.36-2.95l.63-.36,1.45-.84-.2-1-1.75-.24-.63-.09a8.8,8.8,0,0,0-1.44-2.59l.16-.37.81-1.83-.76-.71-2,1-.17.09-.27-.19a9.58,9.58,0,0,0-1.27-.66,9.24,9.24,0,0,0-1.15-.41l-.5-2.34-1-.13L19.08,4.16a8.7,8.7,0,0,0-2.81.54l-.1,0,0,0L14.37,3.13l-.91.5.26,1.47.16.91a9.07,9.07,0,0,0-2,2.16l-2-.2-.41,0L9,8.87l.3.29,1.43,1.38c-.08.27-.14.54-.2.81l2,.9h0q0-.33.12-.66c0-.2.1-.4.16-.61a6.82,6.82,0,0,1,.71-1.53l0,0a5.36,5.36,0,0,1,.34-.49,6.94,6.94,0,0,1,.9-1,6,6,0,0,1,.49-.39,6.75,6.75,0,0,1,1.48-.83l.6-.2a7,7,0,0,1,1.29-.26q.32,0,.63,0a6.83,6.83,0,0,1,1.68.2,6.13,6.13,0,0,1,.61.18,7.59,7.59,0,0,1,1.19.56l.2.11.33.24A6.49,6.49,0,0,1,24.53,8.7a6,6,0,0,1,.39.49,6.65,6.65,0,0,1,.64,1.17c.08.19.16.39.23.58a7.24,7.24,0,0,1,.31,1.67c0,.21,0,.42,0,.63A6.57,6.57,0,0,1,26,14.49v.06c-.05.2-.1.4-.17.6a7.1,7.1,0,0,1-.7,1.54l0,0c-.11.17-.23.33-.34.49l-.4.47.1.05,1.59.73.29.14a7.07,7.07,0,0,0,.44-.63l1.55.16.85.09.44-.94-.85-.82Z"/>
  <path d="M19.31,14.82a1.67,1.67,0,0,0,1-.33,1.72,1.72,0,0,0,.74-1.42,1.74,1.74,0,1,0-2.75,1.42A1.7,1.7,0,0,0,19.31,14.82Z"/>
</svg>