<svg xmlns="http://www.w3.org/2000/svg" aria-hidden="true" focusable="false" viewBox="0 0 36 36">
  <polygon points="15.07 13.88 15.82 13.16 16.29 12.7 15.53 11.96 14.36 13.02 14.78 13.53 15.07 13.88"/>
  <polygon points="26.96 5.29 27.42 5.77 28.16 5.05 26.69 3.54 25.95 4.26 26.41 4.73 26.96 5.29"/>
  <polygon points="7.63 22.91 7.25 22.37 2.22 27.23 3.72 28.78 8.51 24.13 8.12 23.59 7.63 22.91"/>
  <polygon points="15.5 14.4 15.92 14.89 15.97 14.95 16.43 15.51 16.44 15.52 16.86 16.02 22.81 10.24 22.35 9.77 21.8 9.2 21.34 8.73 17.23 12.7 16.76 13.16 15.52 14.36 15.5 14.4"/>
  <polygon points="18.74 20.05 18.57 19.35 18.97 16.97 18.55 15.31 17.26 16.57 17.01 17.37 16.77 17.03 16.38 16.49 16.29 16.35 16.13 16.16 15.97 15.97 15.66 15.6 15.45 15.35 15.2 15.05 15.02 14.84 14.6 14.33 14.29 13.97 14.07 13.7 13.54 13.76 12.43 13.88 12.36 13.94 12.23 14.2 11.71 15.25 10.39 15.93 9.8 17.35 8.69 18.06 8.29 19.39 7.33 20.06 7.06 20.98 7.33 21.37 7.72 21.91 8.11 22.45 8.6 23.13 8.99 23.67 9.38 24.21 10.23 25.4 14.71 27.35 20.6 34.66 25.94 30.25 18.98 23.16 18.74 20.05"/>
  <polygon points="27.41 6.7 26.95 6.23 26.49 5.75 25.94 5.19 25.48 4.72 25.02 4.24 21.88 1 18.21 4.55 21.35 7.79 21.81 8.27 22.27 8.74 22.82 9.31 23.28 9.78 23.74 10.26 27.26 13.88 30.94 10.34 27.41 6.7"/>
</svg>