<svg xmlns="http://www.w3.org/2000/svg" aria-hidden="true" focusable="false" viewBox="0 0 36 36">
  <path d="M23.76,24.25l-.21,2.68-1.09,2-.25.16L22,28.83l-.13-.15-.48.18s0,.14.06.32,0,.26.06.4l-.22.14L21,29.44h0l-.44.11v.63l-.1.06-.18-.33-.18-.35-.06-.1-.52.07v.09l-.05.39-.05.38h-.15L19.12,30,19,29.77l-.55.07-.09.28-.13.38h-.13L18,30.11l-.08-.24-.55-.07L17.3,30l-.11.36h-.14L17,30l0-.38v-.16l-.52-.07-.09.16-.2.35-.19.33-.1-.06v-.75l-.45-.11-.07.08-.23.3-.23-.14c0-.15,0-.29,0-.42s0-.32,0-.32l-.48-.18-.1.15-.21.31L14,29l-1.09-2-.21-2.68-1.07-.33-.48.66.51,3L11.69,29c.9,3.16,5.43,5.16,5.43,5.16l1.44-.44,1.45.44s3.81-2,4.72-5.16l.08-1.44.5-3L25,23.89Z"/>
  <path d="M28.27,18.52l-1-.17.24-2.82S29.25,8.65,27.05,6,21.91,2.15,18.2,2.12h-.14a15,15,0,0,0-3,.32l0,0L13.9,3.63l.75.47-.57,2,1.34.66.27,2.26,2.36,1.19,3.44.08-2.55.4-3.15-.29-1.89,1.3-1.19,2.92c1.34-.32,2.58-.05,3.07,1.07A2.27,2.27,0,0,1,14.14,19c-1.53.47-3.51,1-3.76-.41C10.19,17.44,10,15.8,11.65,15a5.42,5.42,0,0,1,.85-.31L12.9,11l1.39-.95L14.6,8,12.82,6.37l0-2-1.55-.27h-.06A10.12,10.12,0,0,0,9.2,6C7,8.65,8.76,15.53,8.76,15.53L9,18.35l-1,.17-.35,1.12,1,2.33,1.47.88,2.61.23.94.69.47,1.78,0,.74v.07l.31.37.15-.22.21-.31v.71l.48.23.12-.25.17-.34.07,0h0v.74l.06,0,.36.14.06-.11c.05-.09.12-.24.19-.36l.11-.22,0,.23c0,.13,0,.28,0,.38v.1l.51,0,0-.09.13-.37.07-.23,0,.24.07.48v0l.51,0v0l.13-.39L18.1,27l0,.11.13.39v0l.17,0,.38,0,.1-.36.16.31,0,.08.51,0v-.1c0-.09,0-.24,0-.37s0-.24,0-.24l.12.23.18.36.06.1.35-.13.07,0,.07-.36.07-.38v0h0v0l.12.32.09.23.48-.23,0-.25,0-.36v0l.11-.05,0,0,.19.28.14.2.31-.37v-.52l.55-2.07.94-.69,2.85-.67.91-.76,1.15-2.13ZM16.51,21.57l.8-1.51.86-.69v-.06l0,0,0,0v.06l.87.69.79,1.51L20,23.24l-.93.35-.87-.44-.88.44-.92-.35Zm9.52-3c-.25,1.44-2.23.88-3.76.41a2.27,2.27,0,0,1-1.64-3.26c.62-1.42,2.44-1.48,4.14-.7S26.22,17.44,26,18.57Z"/>
</svg>