<svg xmlns="http://www.w3.org/2000/svg" aria-hidden="true" focusable="false" viewBox="0 0 36 36">
  <path d="M18.87,8.61V6.88h-.25V8.4C18.7,8.47,18.79,8.53,18.87,8.61Z"/>
  <path d="M22.61,23h1.92v-.25H22.82A2.52,2.52,0,0,1,22.61,23Z"/>
  <path d="M19.74,9.89h2.14v3H19.61l-.15.25h2.42v.66a2.32,2.32,0,0,1,.25-.21v-.45h.75a3.58,3.58,0,0,1,.88-.25H22.13v-3h3v3h-.22a3.71,3.71,0,0,1,.88.25h2.36v-.25H25.4v-3h2.77V9.64H25.4V6.88h-.25V9.64h-3V6.88h-.25V9.64H19.62Z"/>
  <rect x="25.15" y="24.9" width="0.25" height="0.84"/>
  <path d="M15.6,7.65V6.88h-.25v.84A1.82,1.82,0,0,1,15.6,7.65Z"/>
  <path d="M18.62,24.07v1.66h.25V24.14Z"/>
  <path d="M21.88,23.64v2.09h.25V23.44A2.43,2.43,0,0,1,21.88,23.64Z"/>
  <path d="M12.08,11.13a1.84,1.84,0,0,1,.25.09V9.89h.58c0-.08.08-.16.12-.25h-.7V6.88h-.25V9.64H9.31v.25h2.77Z"/>
  <path d="M16.81,22.71H15.6v-3h.66l.06-.25H15.6v-3h.46L16,16.18H15.6v-1l-.11-.31-.14,0v1.38h-1c0,.09-.09.17-.13.25h1.18v3h-3V18l-.25.08v1.33H9.31v.25h2.77v3H9.31V23h2.77v2.77h.25V23h3v2.77h.25V23H17A2.43,2.43,0,0,1,16.81,22.71Zm-1.46,0h-3v-3h3Z"/>
  <path d="M29.08,19.24v2.6l-3.22-3.91a2,2,0,0,0,.56-1.39,2.06,2.06,0,1,0-3.94.82l-1.59,1.48a2.11,2.11,0,0,0-1.06-.3,1.61,1.61,0,0,0-.44.06l-2-5.58a2,2,0,0,0,1-1.76,2.06,2.06,0,1,0-4.12,0,2.14,2.14,0,0,0,.15.76L12.5,13.23a2,2,0,0,0-1.5-.67,2.06,2.06,0,1,0,2.05,2.06,2.14,2.14,0,0,0-.14-.76l1.93-1.21a2,2,0,0,0,1.5.66,1.84,1.84,0,0,0,.33,0l2,5.61a2.06,2.06,0,1,0,3.19,1.71,2.07,2.07,0,0,0-.44-1.26L22.91,18a2.06,2.06,0,0,0,1.45.6,2.09,2.09,0,0,0,.9-.21l3.28,4h-2.4v.75h3.32a.38.38,0,0,0,.37-.38v-3.5ZM12.3,14.62A1.31,1.31,0,1,1,11,13.31a1.29,1.29,0,0,1,.84.34,1.45,1.45,0,0,1,.46,1Zm3.19-2.39a1.24,1.24,0,0,1-.39-.64,1.21,1.21,0,0,1-.07-.33,1.31,1.31,0,1,1,2.62,0,1.3,1.3,0,0,1-.54,1,1.22,1.22,0,0,1-.7.26h-.07A1.29,1.29,0,0,1,15.49,12.23Zm5.65,8.37a1.31,1.31,0,1,1-2.61,0,1.28,1.28,0,0,1,.44-1,1.26,1.26,0,0,1,.68-.31,1.16,1.16,0,0,1,.18,0,1.24,1.24,0,0,1,.47.1,1.39,1.39,0,0,1,.84,1.21Zm2.32-3.12a1.26,1.26,0,0,1-.35-.7,1,1,0,0,1-.05-.24,1.31,1.31,0,1,1,2.31.8,1.21,1.21,0,0,1-.62.42,1.23,1.23,0,0,1-.39.08A1.32,1.32,0,0,1,23.46,17.48Z"/>
  <polygon points="7.98 27.16 7.98 5.71 6.43 5.71 6.43 27.16 6.43 28.71 7.98 28.71 29.98 28.71 29.98 27.16 7.98 27.16"/>
</svg>