<svg xmlns="http://www.w3.org/2000/svg" aria-hidden="true" focusable="false" viewBox="0 0 36 36">
  <path d="M14.33,8l.72-.94-2-1.35a6.08,6.08,0,0,1-1.72-1.44l.74-.57a5.48,5.48,0,0,0,1.72,1.37A29.09,29.09,0,0,1,18,4.86a29.09,29.09,0,0,1,4.21.25,5.48,5.48,0,0,0,1.72-1.37l.74.57A6.08,6.08,0,0,1,23,5.75L21,7.1l.72.94-.84,4.65,5.69-5.76L25.74,4a2.89,2.89,0,0,0-2-1.61c-.78-.22-.53-.26-5.75-.26s-5,0-5.75.26a2.89,2.89,0,0,0-2,1.61L9.48,6.93l5.69,5.76Z"/>
  <path d="M20.46,8.1,18,7.41l-2.46.69a.48.48,0,0,0-.32.69l1.43,3.11.5-.14a3.27,3.27,0,0,1,1.7,0l.5.14,1.43-3.11A.48.48,0,0,0,20.46,8.1Z"/>
  <path d="M18.68,12.78a2.61,2.61,0,0,0-1.36,0,.65.65,0,0,0-.46.51L14.33,30.36a.63.63,0,0,0,.21.56l3.46,3,3.46-3a.63.63,0,0,0,.21-.56L19.14,13.29A.65.65,0,0,0,18.68,12.78Zm1.74,12.68H15.58l.34-2.17h4.16Z"/>
</svg>