<svg xmlns="http://www.w3.org/2000/svg" aria-hidden="true" focusable="false" viewBox="0 0 36 36">
  <path d="M30.77,21.48l-3.7,2.75-1,2.05a21.06,21.06,0,0,1-6.2.41l-.51-.52L19,12.26l2.75-.55a1.17,1.17,0,0,0,1,.55,1.19,1.19,0,0,0,0-2.37,1.17,1.17,0,0,0-1.1.79H19l0-1.75a2.83,2.83,0,1,0-2-.09l-.06,1.84H14.37a1.17,1.17,0,0,0-1.1-.79,1.19,1.19,0,0,0,0,2.37,1.17,1.17,0,0,0,1-.54l2.64.52-.41,14.08-.37.37a21,21,0,0,1-6.15-.41l-1-2.05-3.7-2.75L4.17,22.76l4.42,5.66,6.06.87L18,32.61l3.31-3.32,6.12-.87,4.42-5.66ZM8.61,28,4.44,22.74l.85-1L5.6,22,5,22.73l3.81,4.8,3.32,1.07Zm8.91-1.37-.73.78.4-15.1.34.08ZM16.36,6.23A1.75,1.75,0,1,1,18.1,8,1.74,1.74,0,0,1,16.36,6.23Z"/>
</svg>