<svg xmlns="http://www.w3.org/2000/svg" aria-hidden="true" focusable="false" viewBox="0 0 36 36">
  <path d="M31,21.84c-.7-.32-2.71.54-2.71.54l-4.64,2.18-.85.18A1.84,1.84,0,0,1,22,25.8l-.1,0c-.5.11-4.94,1.07-5.65,1.07a4.24,4.24,0,0,1-1.47-.3l.28-.66a3.55,3.55,0,0,0,1.19.24c.47,0,3.49-.61,5.44-1a1,1,0,0,0,.43-.81,1,1,0,0,0,0-.19l-.16-.23-5,.19-4.07-.93a5.15,5.15,0,0,0-2.31,0A5.06,5.06,0,0,0,7.74,25L3.1,29.25l2.84,3H7.38l4.12-3.46,3.13.7a5.38,5.38,0,0,0,2-.07s5.74-1,6.89-1.69l8.23-4.7A1.48,1.48,0,0,0,31,21.84Z"/>
  <path d="M29.25,5.55a3.82,3.82,0,0,0-1.83,4.36,1,1,0,0,0-1.65-.63,1.87,1.87,0,0,0-.89,1.83c.67-.79,1.42-.94,1.68.17a3,3,0,0,1-.24,1.78H23.15c-.14-.68-.09-1.64,1.35-1.43a1.42,1.42,0,0,0-1.09-.48.79.79,0,0,0,.05-.22,1.08,1.08,0,0,0-.45-1,.68.68,0,0,0,.16-.39.56.56,0,1,0-1.11-.08.6.6,0,0,0,.1.4,1.09,1.09,0,0,0-.61.91,1.81,1.81,0,0,0,0,.23,1.41,1.41,0,0,0-1.16.31c1.55,0,1.33,1.09,1.07,1.74H18.92a3.68,3.68,0,0,1-.22-2.71c.43-.91,1.05-.65,1.49.16a1.65,1.65,0,0,0-.44-1.75A.92.92,0,0,0,18.21,9a3.38,3.38,0,0,0-.8-4.11A3.38,3.38,0,0,0,16.61,9a.92.92,0,0,0-1.54-.25,1.65,1.65,0,0,0-.44,1.75c.44-.81,1-1.07,1.48-.16a3.68,3.68,0,0,1-.21,2.71H13.49c-.26-.65-.48-1.73,1.07-1.74A1.4,1.4,0,0,0,13.41,11c0-.08,0-.15,0-.23a1.07,1.07,0,0,0-.61-.91.67.67,0,0,0,.11-.4.61.61,0,0,0-.61-.59.59.59,0,0,0-.51.67.76.76,0,0,0,.16.39,1.1,1.1,0,0,0-.45,1,.79.79,0,0,0,.06.22,1.43,1.43,0,0,0-1.1.48c1.44-.21,1.49.75,1.35,1.43H8.49a3,3,0,0,1-.23-1.78c.26-1.11,1-1,1.68-.17A1.86,1.86,0,0,0,9,9.28a1,1,0,0,0-1.64.63A3.83,3.83,0,0,0,5.56,5.55l1.58,7.51.49,2.46H27.18l.5-2.46Z"/>
  <polygon points="8.03 18.91 26.78 18.91 27.06 17.47 7.76 17.47 8.03 18.91"/>
</svg>