<svg xmlns="http://www.w3.org/2000/svg" aria-hidden="true" focusable="false" viewBox="0 0 36 36">
  <path d="M31,22.85c-.7-.33-2.71.53-2.71.53l-4.64,2.19-.85.18A1.8,1.8,0,0,1,22,26.8l-.1,0c-.5.11-4.94,1.06-5.65,1.06a4.24,4.24,0,0,1-1.47-.3l.28-.66a3.55,3.55,0,0,0,1.19.24c.47,0,3.49-.61,5.44-1a1,1,0,0,0,.43-.82,1,1,0,0,0,0-.19l-.16-.22-5,.19-4.07-.94A5.15,5.15,0,0,0,7.74,26L3.1,30.26l2.84,3H7.38l4.12-3.47,3.13.71a5.17,5.17,0,0,0,2-.08s5.74-1,6.89-1.69l8.23-4.69A1.47,1.47,0,0,0,31,22.85Z"/>
  <path d="M18.34,4.67a7.9,7.9,0,1,0,7.89,7.9A7.9,7.9,0,0,0,18.34,4.67Zm7.16,7.54H22.87A9.83,9.83,0,0,0,20.7,5.79,7.2,7.2,0,0,1,25.5,12.21ZM18,5.42v6.79H14.52C14.62,8.7,16.13,5.76,18,5.42Zm0,7.5v6.79c-1.85-.34-3.36-3.28-3.46-6.79Zm.72,6.79V12.92h3.45C22.06,16.43,20.55,19.37,18.7,19.71Zm0-7.5V5.42c1.85.34,3.36,3.28,3.45,6.79ZM16,5.79a9.83,9.83,0,0,0-2.17,6.42H11.18A7.18,7.18,0,0,1,16,5.79Zm-4.79,7.13H13.8A9.81,9.81,0,0,0,16,19.34,7.18,7.18,0,0,1,11.18,12.92Zm9.52,6.42a9.83,9.83,0,0,0,2.17-6.42H25.5A7.2,7.2,0,0,1,20.7,19.34Z"/>
  <path d="M8.22,12.51a10,10,0,0,1,3-7.13.36.36,0,0,0,0-.51.35.35,0,0,0-.5,0,10.82,10.82,0,0,0-.08,15.32.36.36,0,0,0,.5,0,.36.36,0,0,0,0-.51A10.08,10.08,0,0,1,8.22,12.51Z"/>
  <path d="M26,5a.35.35,0,0,0-.51,0,.36.36,0,0,0,0,.51,10.13,10.13,0,0,1-.08,14.31.35.35,0,0,0,0,.5.36.36,0,0,0,.25.11.35.35,0,0,0,.26-.1A10.84,10.84,0,0,0,26,5Z"/>
</svg>