<svg xmlns="http://www.w3.org/2000/svg" aria-hidden="true" focusable="false" viewBox="0 0 36 36">
  <path d="M10.58,6.11A2.27,2.27,0,0,0,7.4,5.74L3.94,8.49a2.24,2.24,0,0,0,.54,3.85l-.3.91a2.28,2.28,0,0,0-2.73,1.66L1,16.84l1,.15.46-1.85a1.31,1.31,0,0,1,1.27-1l.22,0-.42,1.27a.49.49,0,0,0,.3.61l.15,0a.49.49,0,0,0,.46-.33l.34-1,.07.08a1.3,1.3,0,0,1,.15,1l-.77,3.1.69,1.19,1-4.06A2.23,2.23,0,0,0,5,13.67l.39-1.15A2.27,2.27,0,0,0,6.75,12l3.46-2.75a2.35,2.35,0,0,0,.69-.94l.72,0,.35-1-.91,0A2.3,2.3,0,0,0,10.58,6.11Zm-1,2.43L6.16,11.29a1.18,1.18,0,0,1-.39.19l.46-1.37a.48.48,0,0,0-.91-.3l-.54,1.62a1.28,1.28,0,0,1-.46-.35,1.32,1.32,0,0,1,.21-1.84L8,6.49a1.31,1.31,0,0,1,.81-.28,1.32,1.32,0,0,1,1,.49,1.37,1.37,0,0,1,.25.66L8.62,7.31h0a.48.48,0,0,0,0,1l1.22.05A1.37,1.37,0,0,1,9.62,8.54Z"/>
  <path d="M34.08,17.89A2.31,2.31,0,0,0,33,16.46a2.31,2.31,0,0,0-3.06.62l-1.13-.52-.28.92,1,.47a2.2,2.2,0,0,0,0,1.08l1.12,4.44s0,.08,0,.12l.62-1.39-.86-3.41a1.54,1.54,0,0,1,0-.43L31.8,19a.45.45,0,0,0,.2,0,.47.47,0,0,0,.43-.28.47.47,0,0,0-.23-.63l-1.33-.61a1.44,1.44,0,0,1,.61-.38,1.86,1.86,0,0,1,.34,0,1.38,1.38,0,0,1,1.33,1l.76,3,1,.21Z"/>
  <polygon points="31.39 23.89 31.22 24.47 30.78 25.93 32 26.39 31.61 24.81 31.39 23.89"/>
  <polygon points="3.9 21.04 3.9 21.57 3.9 22.58 5.19 22.4 4.18 21.34 3.9 21.04"/>
  <path d="M17.12,7.64,18,5.75a1.93,1.93,0,0,0-1.71-.9,2.64,2.64,0,0,0-1.57.61l-.61,2L16,7.7Z"/>
  <path d="M27.54,12.47l-1.31,3.1a4.69,4.69,0,0,1-1,.78l-1.56,1.41,1.5,1a.35.35,0,0,1,.11.49.36.36,0,0,1-.3.17.36.36,0,0,1-.2-.06l-1.66-1.07-.09.09.6,1.88a.35.35,0,0,1-.23.45l-.11,0a.36.36,0,0,1-.34-.25l-.54-1.69-1-.33.75-.4L17.6,15.92l-1.18-.54-.92-1.12-.3-.35-.29-.36-.1-.12.22-.54.62-1.53.17,0,0,0,.46-.14.09,0,.36-.13.37-.14a10.67,10.67,0,0,0,1-.45,2.75,2.75,0,0,0,1.21-1.35l-.09-.81-1.42.08h-1l-.85.05-1.65-.19-.7-.08-.11,0a1.25,1.25,0,0,0-.41.14,1.34,1.34,0,0,0-.71.83l-1.5,4.56a3,3,0,0,0,0,1.9l2.64,5.46.12.26c.06.07.1.16.16.23s.21.22.31.32a4.47,4.47,0,0,0,.35.29,2.49,2.49,0,0,0,.76.41l1.4.59a.37.37,0,0,1,.19.47.36.36,0,0,1-.33.22.32.32,0,0,1-.14,0L15,23.25a3.1,3.1,0,0,1-1-.55l-1.64,9.91H19l-.2-5.35a.36.36,0,0,1,.34-.38.37.37,0,0,1,.37.35l.21,5.38h3.13L23,25.08a6.61,6.61,0,0,1-.76.05,6.24,6.24,0,0,1-1-.08.36.36,0,1,1,.13-.71,4.8,4.8,0,0,0,1.56,0l.3-.05.93-.4,3-6.84.91-3.6ZM17.36,30.66A.36.36,0,0,1,17,31h-.06a.37.37,0,0,1-.29-.42l.77-4.35a.36.36,0,0,1,.7.12Z"/>
  <path d="M20.08,9.13l0,.08A3.46,3.46,0,0,1,18.47,11a11.36,11.36,0,0,1-1.37.61L17,13.24a2.5,2.5,0,0,0,1,.62,2.2,2.2,0,0,0,1.39-.18L20.8,8.37,21.08,8l.21-.29.2-.28.05-.07A2.19,2.19,0,0,0,20.4,6.05a1.81,1.81,0,0,0-1.3-.24,1.56,1.56,0,0,0-.42.14l0,0-.12.32-.46,1.3,1.8-.1Z"/>
  <path d="M20.07,14.54s0,.39.57.67a2.22,2.22,0,0,0,1.46,0l1.77-4.51.44-.6.21-.29.14-.19a.6.6,0,0,0,0-.12,1.78,1.78,0,0,0-.81-1.3h0a3.42,3.42,0,0,0-1.72-.46h0l0,0-.2.28-.21.29-.25.35Z"/>
  <path d="M22.77,15.49a1.78,1.78,0,0,0,1,.51,2.46,2.46,0,0,0,1.84-.86L27,11.93l.09-.2a1.62,1.62,0,0,0,0-.18,1.84,1.84,0,0,0-.64-1.21,1.36,1.36,0,0,0-1-.3l-.14,0-.13.18-.22.29-.43.59Z"/>
</svg>