<svg xmlns="http://www.w3.org/2000/svg" aria-hidden="true" focusable="false" viewBox="0 0 36 36">
  <polygon points="25.62 21.59 26.86 19.15 28.83 22.07 30.32 19.15 33.35 27.59 29.89 23.37 28.76 25.88 25.62 21.59"/>
  <polygon points="27.41 15.89 27.71 14.42 30.11 15.36 30.07 13.86 35.06 17.02 31.2 15.98 31.27 17.45 27.41 15.89"/>
  <polygon points="10.65 8.57 9.74 11.33 7.39 7.66 6.1 10.12 2.14 3.08 5.67 7.18 7.09 4.05 10.65 8.57"/>
  <polygon points="9.13 13.24 8.68 14.77 5.91 14.37 6.27 15.54 0.7 13.72 4.73 14.2 4.25 12.75 9.13 13.24"/>
  <path d="M16.11,8.15,17,6.26a1.91,1.91,0,0,0-1.7-.91A2.67,2.67,0,0,0,13.67,6l-.61,2L15,8.21Z"/>
  <path d="M26.53,13l-1.31,3.1a4.26,4.26,0,0,1-1,.79L22.7,18.27l1.5,1a.36.36,0,0,1,.11.5.37.37,0,0,1-.3.16.33.33,0,0,1-.19-.06l-1.66-1.06-.1.08.6,1.88a.35.35,0,0,1-.23.45.2.2,0,0,1-.11,0A.36.36,0,0,1,22,21l-.54-1.69-1-.32.74-.4-4.63-2.12-1.18-.54-.92-1.12-.29-.35-.3-.36-.1-.12L14,13.4l.62-1.54.17,0h.06l.45-.14.09,0,.36-.13.37-.14a8.64,8.64,0,0,0,1-.46,2.78,2.78,0,0,0,1.22-1.34l-.1-.81-1.42.07h0l-.23,0h-.16l-.24,0H16l-.26,0-.85,0-1.65-.19-.69-.07-.11,0a1.21,1.21,0,0,0-.42.13,1.4,1.4,0,0,0-.71.83L9.85,14.2a3,3,0,0,0,0,1.9l2.64,5.47.12.25c.06.08.11.16.17.23a2.34,2.34,0,0,0,.31.32,2.28,2.28,0,0,0,.34.29,2.24,2.24,0,0,0,.77.41l1.39.6a.36.36,0,0,1,.19.47.37.37,0,0,1-.33.22.32.32,0,0,1-.14,0L14,23.75a3,3,0,0,1-1-.54l-1.64,9.9H18l-.2-5.35a.35.35,0,0,1,.34-.37.36.36,0,0,1,.37.34l.21,5.38h3.13L22,25.58a5,5,0,0,1-.76.06,5.23,5.23,0,0,1-1-.09.36.36,0,0,1-.29-.41.36.36,0,0,1,.42-.29,4.8,4.8,0,0,0,1.56,0l.3-.05.94-.41,3-6.83.91-3.6ZM16.35,31.16a.36.36,0,0,1-.35.3h-.07a.36.36,0,0,1-.29-.41l.77-4.36a.36.36,0,0,1,.71.13Z"/>
  <path d="M19.07,9.64l0,.07a3.39,3.39,0,0,1-1.58,1.82,10.23,10.23,0,0,1-1.37.62L16,13.75a2.71,2.71,0,0,0,1,.61,2.27,2.27,0,0,0,1.39-.17l1.39-5.32.28-.38.21-.29.2-.28.05-.07a2.2,2.2,0,0,0-1.14-1.3,1.92,1.92,0,0,0-1.3-.24,1.32,1.32,0,0,0-.41.15h0l-.12.33-.45,1.29L18.87,8Z"/>
  <path d="M19.06,15s0,.39.58.67a2.12,2.12,0,0,0,1.45,0l1.77-4.5.44-.6.21-.29.14-.2a.6.6,0,0,0,0-.12,1.78,1.78,0,0,0-.8-1.29h0a3.47,3.47,0,0,0-1.73-.46h0l0,0-.2.28-.2.29-.25.34Z"/>
  <path d="M21.76,16a1.82,1.82,0,0,0,1,.51,2.43,2.43,0,0,0,1.83-.87L26,12.44l.09-.21a2.5,2.5,0,0,0-.13-.63,1.53,1.53,0,0,0-.52-.75,1.37,1.37,0,0,0-1-.31l-.14,0-.13.19-.21.29-.43.58Z"/>
</svg>