<svg xmlns="http://www.w3.org/2000/svg" aria-hidden="true" focusable="false" viewBox="0 0 36 36">
  <path d="M1.28,23.5c-.24-.68.16-1.59,1.1-2.63a2.1,2.1,0,0,1,1.4-1.72A2,2,0,0,1,4.46,19a38.55,38.55,0,0,1,7.69-4.25,5.71,5.71,0,0,1,.58-1c-7.16,3-13.12,7.12-12.13,10,.49,1.43,2.54,2,5.4,2a35.31,35.31,0,0,0,7.19-.9,2.7,2.7,0,0,1-.07-.69C6.48,25.65,1.87,25.22,1.28,23.5Z"/>
  <path d="M35.4,11.74c-.95-2.76-7.72-2.47-14.9-.6l-.11,0-.46.12.33.13a.24.24,0,0,0,.1.14l.35.26.44.31h0a.24.24,0,0,0,.14,0,.24.24,0,0,0,.19-.1s0,0,0,0h0a.23.23,0,0,0-.06-.3l-.11-.08a37,37,0,0,1,8.61-1.26c2.72,0,4.44.57,4.79,1.57.77,2.23-5.13,6.93-15.13,10.38q-.56.2-1.11.36a3.11,3.11,0,0,1,.32.63v0l1-.34C28.38,20.08,36.54,15.05,35.4,11.74Z"/>
  <path d="M5.28,23.13l-.11.05a2.26,2.26,0,0,1-.69.11,6.08,6.08,0,0,0,3.85.93,27.42,27.42,0,0,0,4.86-.53,2.57,2.57,0,0,1,.2-.61C9.53,23.85,6.62,23.8,5.28,23.13Z"/>
  <path d="M11.72,16.06a6.44,6.44,0,0,1,.2-.72,26.24,26.24,0,0,0-6.39,4,2,2,0,0,1,.45.36A24,24,0,0,1,11.72,16.06Z"/>
  <path d="M27.65,18.23a.24.24,0,0,0,.14-.05s0,0,0-.06c2.9-1.82,4.72-3.73,4.2-5.22-.42-1.21-2.26-1.77-5.29-1.63a31.3,31.3,0,0,0-5.23.78,4.64,4.64,0,0,1,.61.46,29.81,29.81,0,0,1,4.65-.66l.89,0c2.17,0,3.54.45,3.82,1.26.36,1-1.06,2.72-3.85,4.49l-.42-.5a.24.24,0,0,0-.33,0,.23.23,0,0,0,0,.34l.37.45a41.44,41.44,0,0,1-7.93,3.62c-.51.17-1,.34-1.51.49a2.56,2.56,0,0,1,.48.45l1.22-.4A41.84,41.84,0,0,0,27.65,18.23Z"/>
  <path d="M24.6,12.85c-.49,0-1,.08-1.56.15L23,13a.24.24,0,0,0-.34,0h0s0,0,0,.08a.23.23,0,0,0,.06.26l.17.14.52.44.05.05a.28.28,0,0,0,.16,0,.23.23,0,0,0,.18-.08.25.25,0,0,0,0-.34l-.23-.19c.38,0,.77-.09,1.13-.11l.66,0a7.64,7.64,0,0,1,1.12.07,1.9,1.9,0,0,1,.35-.4A10.29,10.29,0,0,0,24.6,12.85Z"/>
  <path d="M11.37,22.19c-2,.1-3.32-.24-3.56-.94-.3-.87,1.1-2.38,3.76-3.9a4.07,4.07,0,0,1,0-.5C8.83,18.39,7,20.1,7.4,21.39c.28.83,1.42,1.25,3.3,1.25h.7a22.84,22.84,0,0,0,2.51-.31,2.75,2.75,0,0,1,.73-.58A22.17,22.17,0,0,1,11.37,22.19Z"/>
  <path d="M19,20.55c-1,.33-1.9.6-2.82.83a3,3,0,0,1,1,.21c.66-.19,1.33-.4,2-.63a29,29,0,0,0,7.1-3.44,11.27,11.27,0,0,0,1.27-1,2.06,2.06,0,0,1-.42-.21,12.45,12.45,0,0,1-1.1.87A29,29,0,0,1,19,20.55Z"/>
  <path d="M5.26,22a1.18,1.18,0,0,0,.33-1.25h0a1,1,0,0,0-.21-.37l0,0,0,0a1.3,1.3,0,0,0-.23-.18l-.12-.06-.09,0v0L4.64,20l-.12,0a1.21,1.21,0,0,0-.42.05,1.22,1.22,0,0,0-.68.6,1.19,1.19,0,0,0,0,.89h0a1.34,1.34,0,0,0,.22.36.76.76,0,0,0,.09.09,1,1,0,0,0,.23.17h0l.12.06a1.47,1.47,0,0,0,.28.08l.12,0h.09a1.33,1.33,0,0,0,.34-.05A1,1,0,0,0,5.26,22Z"/>
  <path d="M27.14,14a1.12,1.12,0,0,0-.08.9h0a1,1,0,0,0,.21.35l.08.09a1.12,1.12,0,0,0,.22.16.34.34,0,0,0,.12.06l.06,0h0l.23,0h.15l.13,0h0a1,1,0,0,0,.24,0,1.16,1.16,0,0,0,.52-.4,1.12,1.12,0,0,0,.18-1,1.17,1.17,0,0,0-.21-.36l-.09-.08a.92.92,0,0,0-.22-.17l-.12-.06-.27-.07-.11,0-.13,0h0a1.28,1.28,0,0,0-.27,0,.92.92,0,0,0-.27.16h0A1.24,1.24,0,0,0,27.14,14Z"/>
  <path d="M13.23,14.75a6.15,6.15,0,0,0-.37.78,5.38,5.38,0,0,0-.21.76,4.71,4.71,0,0,0-.09.52,5.49,5.49,0,0,0,.26,2.4,5.57,5.57,0,0,0,.88,1.61,50.21,50.21,0,0,0,9.77-3.43,5.35,5.35,0,0,0-.29-1.75,5.83,5.83,0,0,0-.32-.72l-.08-.15a6.73,6.73,0,0,0-.4-.63l-.08-.09a4.83,4.83,0,0,0-.37-.42l-.08-.08-.09-.1c-.07-.07-.15-.12-.23-.19L21.2,13l-.13-.09-.19-.11-.41-.25,0,0-.31-.13-.37-.15-.16-.05a.35.35,0,0,1-.11,0L18.86,12h-.08a5.19,5.19,0,0,0-.68,0h-.16l-.38,0-.39,0-.15,0a6,6,0,0,0-.81.2,5.43,5.43,0,0,0-1.25.63,5.26,5.26,0,0,0-1.36,1.3A4.28,4.28,0,0,0,13.23,14.75Z"/>
  <path d="M17.89,23.66a1.77,1.77,0,0,0-.26-.49.86.86,0,0,0-.07-.1.1.1,0,0,0,0,0,1.57,1.57,0,0,0-.32-.31h0l-.07-.05a2,2,0,0,0-.42-.2l-.09,0a1.35,1.35,0,0,0-.28,0,2,2,0,0,0-.24,0h-.32a1.45,1.45,0,0,0-.36.08,2,2,0,0,0-.57.32h0a1.75,1.75,0,0,0-.36.36,2,2,0,0,0-.21.35,2,2,0,0,0-.15.49,1.62,1.62,0,0,0,0,.2,1.83,1.83,0,0,0,0,.52,2.44,2.44,0,0,0,.06.26,2.09,2.09,0,0,0,.26.49.36.36,0,0,1,.07.1,2.16,2.16,0,0,0,.38.36l.07,0a1.65,1.65,0,0,0,.42.21l.09,0a1.82,1.82,0,0,0,.52.08,1.61,1.61,0,0,0,.22,0h.11a2.37,2.37,0,0,0,.36-.09A2.83,2.83,0,0,0,17,26a3.55,3.55,0,0,0,.31-.23,2,2,0,0,0,.54-2.1Z"/>
  <path d="M7,14.74a.24.24,0,0,0-.1.32l.24.43a.25.25,0,0,0,.21.12.19.19,0,0,0,.12,0,.24.24,0,0,0,.09-.32c-.09-.14-.16-.28-.24-.42A.24.24,0,0,0,7,14.74Z"/>
  <path d="M18.71,25.89a.23.23,0,0,0-.26,0s-.05,0-.07.06a.19.19,0,0,0,0,.08.21.21,0,0,0,.1.24c.29.17.57.33.86.48a.2.2,0,0,0,.11,0,.22.22,0,0,0,.21-.12.24.24,0,0,0-.09-.33Z"/>
  <path d="M31,24.69a.24.24,0,0,0-.22.26,5.21,5.21,0,0,1,0,.55c0,.13,0,.26,0,.38a.24.24,0,0,0,.21.26h0a.23.23,0,0,0,.23-.22,3,3,0,0,0,0-.42c0-.19,0-.4,0-.6A.24.24,0,0,0,31,24.69Z"/>
  <path d="M18.73,10.5a.28.28,0,0,0,.13,0,.22.22,0,0,0,.2-.12.23.23,0,0,0-.08-.33c-.28-.17-.56-.34-.85-.5a.24.24,0,1,0-.23.41Z"/>
  <path d="M9.74,7.29a7.69,7.69,0,0,1,.95.06h0a.24.24,0,0,0,0-.48,8.78,8.78,0,0,0-1-.06h0A.23.23,0,0,0,9.51,7,.24.24,0,0,0,9.74,7.29Z"/>
  <path d="M7,8A.23.23,0,0,0,7.1,8a3.19,3.19,0,0,1,.8-.42.24.24,0,1,0-.16-.45,3.49,3.49,0,0,0-.92.48.24.24,0,0,0-.06.33A.23.23,0,0,0,7,8Z"/>
  <path d="M5.9,12a.24.24,0,0,0-.17.3,8.71,8.71,0,0,0,.31.95.23.23,0,0,0,.22.16l.09,0a.25.25,0,0,0,.14-.31c-.12-.32-.22-.62-.3-.91A.24.24,0,0,0,5.9,12Z"/>
  <path d="M12.58,7.72c.3.08.61.17.92.28h.07a.23.23,0,0,0,.23-.16.24.24,0,0,0-.15-.31c-.32-.11-.64-.2-1-.29a.24.24,0,0,0-.12.47Z"/>
  <path d="M16.18,9.1a.2.2,0,0,0,.11,0A.24.24,0,0,0,16.5,9a.24.24,0,0,0-.11-.32l-.9-.42a.24.24,0,0,0-.31.13.23.23,0,0,0,.12.31Z"/>
  <path d="M30.46,22a.24.24,0,0,0-.44.2c.14.31.26.6.36.89a.23.23,0,0,0,.22.16h.09a.24.24,0,0,0,.14-.31C30.73,22.65,30.6,22.34,30.46,22Z"/>
  <path d="M30.2,27.55a2.73,2.73,0,0,1-.67.59.24.24,0,0,0-.08.33.26.26,0,0,0,.21.11.19.19,0,0,0,.12,0,3.09,3.09,0,0,0,.79-.69.24.24,0,0,0,0-.34A.25.25,0,0,0,30.2,27.55Z"/>
  <path d="M27.78,28.68a7.26,7.26,0,0,1-.94,0,.23.23,0,0,0-.25.23.24.24,0,0,0,.23.25h.28c.25,0,.49,0,.73,0a.24.24,0,0,0,.21-.27A.22.22,0,0,0,27.78,28.68Z"/>
  <path d="M5.69,10.56h0a.24.24,0,0,0,.24-.24,3.6,3.6,0,0,1,.15-.9.25.25,0,0,0-.17-.3.23.23,0,0,0-.29.16,4.19,4.19,0,0,0-.17,1A.25.25,0,0,0,5.69,10.56Z"/>
  <path d="M24.94,28.46c-.3-.07-.61-.14-.93-.23a.23.23,0,0,0-.3.16.25.25,0,0,0,.17.3l1,.24h.05a.24.24,0,0,0,.05-.47Z"/>
  <path d="M22.18,27.6l-.89-.38a.23.23,0,0,0-.31.12.24.24,0,0,0,.12.32L22,28l.09,0a.25.25,0,0,0,.22-.15A.24.24,0,0,0,22.18,27.6Z"/>
  <path d="M29.53,20.27c-.17-.28-.35-.55-.53-.83a.25.25,0,0,0-.34-.07.23.23,0,0,0-.06.33l.52.82a.23.23,0,0,0,.2.11.28.28,0,0,0,.13,0A.24.24,0,0,0,29.53,20.27Z"/>
  <path d="M25.7,16a.23.23,0,0,0,.17-.07.24.24,0,0,0,0-.34l-.7-.69a.24.24,0,1,0-.33.34l.68.69A.23.23,0,0,0,25.7,16Z"/>
</svg>