<svg xmlns="http://www.w3.org/2000/svg" aria-hidden="true" focusable="false" viewBox="0 0 36 36">
  <path d="M25.16,6.16A7.32,7.32,0,0,0,25.38,1a7.34,7.34,0,0,0-4.15,3.06,6.87,6.87,0,0,0-.38,4.56,87.94,87.94,0,0,0-5.69,26.45l.74,0a87.33,87.33,0,0,1,5.58-26A6.9,6.9,0,0,0,25.16,6.16Z"/>
  <path d="M9.92,25.8,8,19.79l1.48,6.58a6.3,6.3,0,0,0,1.13,4,6.79,6.79,0,0,0,4.3,2.08,6.8,6.8,0,0,0-1.08-4.66A6.47,6.47,0,0,0,9.92,25.8Z"/>
  <path d="M18.7,28.37a6.83,6.83,0,0,0-2.08,4.31,6.8,6.8,0,0,0,4.66-1.08,6,6,0,0,0,1.9-3.3h0l3.08-6.47-3.19,5.44A6.54,6.54,0,0,0,18.7,28.37Z"/>
  <path d="M19.77,22.53a6.78,6.78,0,0,0-2.55,4A6.8,6.8,0,0,0,22,26,6.15,6.15,0,0,0,24.23,23h0L28,16.86l-3.78,5.05A6.53,6.53,0,0,0,19.77,22.53Z"/>
  <path d="M10.84,19.51a6.23,6.23,0,0,0,.67,4.14,6.8,6.8,0,0,0,4,2.54A6.77,6.77,0,0,0,15,21.45,6.47,6.47,0,0,0,11.32,19l-1.23-6.18Z"/>
  <path d="M21.24,16.28a6.82,6.82,0,0,0-2.73,3.92,6.8,6.8,0,0,0,4.77-.34,6,6,0,0,0,2.39-3h0l4-5.91-4,4.87A6.54,6.54,0,0,0,21.24,16.28Z"/>
  <path d="M12.45,12.86A6.41,6.41,0,0,0,12.93,17a6.79,6.79,0,0,0,3.93,2.72A6.8,6.8,0,0,0,16.52,15,6.47,6.47,0,0,0,13,12.37L12,6.13Z"/>
  <path d="M18.51,13.46a6.79,6.79,0,0,0,.17-4.77,6.78,6.78,0,0,0-3.62-3.13,6.82,6.82,0,0,0-.17,4.78A6.82,6.82,0,0,0,18.51,13.46Z"/>
  <path d="M23.23,10.47a6.86,6.86,0,0,0-3.13,3.62,6.82,6.82,0,0,0,4.78.17A6.83,6.83,0,0,0,28,10.64,6.83,6.83,0,0,0,23.23,10.47Z"/>
</svg>