<svg xmlns="http://www.w3.org/2000/svg" aria-hidden="true" focusable="false" viewBox="0 0 36 36">
  <path d="M7.69,12.19A11.82,11.82,0,0,1,9.61,9.77L9.43,5.4,9.32,2.86l0-.4V2.39l-.06.07L9,2.74,8,3.76l-.62.69,0,.06v.08Z"/>
  <path d="M6,17.23A11.9,11.9,0,0,1,7,13.6L4.88,7.33l-.15-.45-.21.43-1,2.07,0,.07,0,.07Z"/>
  <path d="M6.91,23l-6-3-.43-.22.15.45.72,2.2,0,.08.07,0,7.63,3.9A12,12,0,0,1,6.91,23Z"/>
  <path d="M9.46,26.76l-6.53,0H2.45l.34.34,1.63,1.64.06.05h.08l7.61,0A12.27,12.27,0,0,1,9.46,26.76Z"/>
  <path d="M6.5,21.85A12,12,0,0,1,6,18.33v0L1.44,13.36,1.12,13l0,.47L1,15.8v.08l.05.06Z"/>
  <path d="M28.77,4.59V4.51l-.06-.06-.79-.87-.77-.84-.25-.28-.07-.07v.07l0,.4L26.73,5l-.22,5.1a12.1,12.1,0,0,1,1.92,2.62Z"/>
  <path d="M29.09,22.44l6-6.5,0-.06V15.8L35,13.48,35,13l-.32.35-4.87,5.3A11.54,11.54,0,0,1,29.09,22.44Z"/>
  <path d="M32.66,9.52l0-.07,0-.07-1-2.07-.21-.43-.15.45L29,14.05a11.8,11.8,0,0,1,.8,4Z"/>
  <path d="M35.19,19.94l-6.4,3.27a12,12,0,0,1-2.38,3.48l8.24-4.21.07,0,0-.08.72-2.2.15-.45Z"/>
  <path d="M26.34,26.76a12,12,0,0,1-2.71,2l8,0h.08l.05-.05,1.64-1.64.33-.34h-.47Z"/>
  <path d="M22.49,29.35l-1.26-.47-.17-.06h0a11,11,0,0,0,3.78-2l.35-.32a10.75,10.75,0,0,0,2-2.47c.13-.21.26-.43.37-.65a11,11,0,0,0,1.1-3.49c0-.24.06-.49.08-.73s0-.52,0-.78,0-.68-.05-1a11.82,11.82,0,0,0-.3-1.68v0c-.06-.21-.11-.41-.17-.61A11,11,0,0,0,23.38,9L22.1,10.48a9,9,0,1,1-8.39,0L12.42,9a11.06,11.06,0,0,0-4.65,5.3c-.11.28-.22.57-.31.86l0,0A10.93,10.93,0,0,0,7,18.33H7A11,11,0,0,0,14.7,28.81l.24.06-.18.07-1.27.47-6.1,2.26-.45.17.43.19,2.11,1,.07,0,.08,0,7.47-2.77,1-.36.93.34L26.51,33l.07,0,.08,0,2.1-1,.43-.19-.44-.17Z"/>
</svg>