<svg xmlns="http://www.w3.org/2000/svg" aria-hidden="true" focusable="false" viewBox="0 0 36 36">
  <path d="M30.48,20.76l2-1.49L32,17.89l-2.45-.06A8.8,8.8,0,0,0,28.18,16l.72-2.35-1.17-.85-2,1.4a8.37,8.37,0,0,0-2.2-.73l-.81-2.32H21.25l-.82,2.33-.15,0a8.75,8.75,0,0,0-1.17.32l.61,1a6.36,6.36,0,0,1,.78-.2A7.46,7.46,0,1,1,15.74,26H14.4a8.33,8.33,0,0,0,1.31,1.79L15,30.19l1.16.85,2-1.4a8.35,8.35,0,0,0,2.2.72l.81,2.33h1.44l.82-2.32.15,0a9.16,9.16,0,0,0,2.05-.69l2,1.41,1.17-.85-.71-2.36A8.69,8.69,0,0,0,29.53,26l2.45,0,.45-1.37-1.95-1.5A8.93,8.93,0,0,0,30.48,20.76Z"/>
  <path d="M21.08,21.39l-1.19-2.06L18.3,16.57h0L13.85,8.86V6.06H10v2.8L5.09,17.31,2.73,21.39a1.93,1.93,0,0,0,1.67,2.9h15A1.93,1.93,0,0,0,21.08,21.39ZM8.28,19.3a1,1,0,1,1,1-1A1,1,0,0,1,8.28,19.3Zm1.66,1.58a1,1,0,1,1-1,1A1,1,0,0,1,9.94,20.88Zm2.53-1.05A1.5,1.5,0,1,1,14,21.34,1.5,1.5,0,0,1,12.47,19.83ZM10.61,9.24l.1-.17V6.81H13.1V9.07l.1.17,4.24,7.33H6.38Z"/>
  <rect x="9.25" y="3.64" width="5.32" height="1.38"/>
</svg>