<svg xmlns="http://www.w3.org/2000/svg" aria-hidden="true" focusable="false" viewBox="0 0 36 36">
  <polygon points="17.35 33.39 18.04 34.86 18.72 33.39 18.72 19.58 17.35 19.58 17.35 33.39"/>
  <rect x="11.11" y="6.16" width="2.79" height="2.37"/>
  <path d="M14.83,8.52,14.89,11H13.84v2.67h7.89v-.73l-1-1-.5-.49L19.72,11V3.24a2,2,0,0,0-2-2.1H17a2.12,2.12,0,0,0-2.12,2.1V8.52Zm-.41,3.4a.74.74,0,0,1,1.37.4.79.79,0,0,1-.75.76.74.74,0,0,1-.62-.35.71.71,0,0,1-.13-.41A.71.71,0,0,1,14.42,11.92Zm1.41-8.66v0h3V4.58h-3V3.26Z"/>
  <path d="M25.5,6.55a2,2,0,0,0-3.9-.39h-.86V8.52h2.79A2,2,0,0,0,25.5,6.55Z"/>
  <path d="M22,14.87H13.57v1.68a3,3,0,0,1,.52-.05,2.45,2.45,0,0,1,2.42,2.08H19.6A2.45,2.45,0,0,1,22,16.5Z"/>
  <path d="M14.09,17.5a1.5,1.5,0,0,0-.52.09h0a1.52,1.52,0,0,0-.48.31,1.43,1.43,0,0,0-.29,1.67l.06.12-.25.5h0l-.24.48-6,12-.22,2,1.45-1.35,6-11.9.24-.47.24-.47h.07a1.47,1.47,0,0,0,1.32-.83,1.68,1.68,0,0,0,.13-.5s0-.08,0-.13a1.5,1.5,0,0,0-.05-.37A1.46,1.46,0,0,0,14.09,17.5Z"/>
  <path d="M29.68,32.63l-6-11.88-.24-.47-.24-.48a1.46,1.46,0,0,0,.27-.85A1.44,1.44,0,0,0,23,17.9a1.36,1.36,0,0,0-.5-.31,1.39,1.39,0,0,0-.5-.09,1.46,1.46,0,0,0-1.4,1.08,1.51,1.51,0,0,0-.06.37.51.51,0,0,0,0,.13,1.24,1.24,0,0,0,.13.5,1.46,1.46,0,0,0,1.27.83l.25.48.24.48,6,11.88L29.9,34.6Z"/>
</svg>