<svg xmlns="http://www.w3.org/2000/svg" aria-hidden="true" focusable="false" viewBox="0 0 36 36">
  <path d="M4.39,20.42l-.88.71v7.19l.88,1.18,6.35,1.7.88-.7V23.3l-.88-1.18ZM7.89,30,7,29.73V21.64l.88.25Z"/>
  <polygon points="7.89 17.33 4.97 19.7 7.89 20.47 7.89 17.33"/>
  <path d="M19.16,24.58l-5.37-1.44-.88.7V31l.88,1.18,3.59,1,2.76.74.88-.7V26l-.88-1.18ZM17.29,32.7l-.89-.25V24.36l.89.25V32.7Z"/>
  <polygon points="31.13 19.42 29.71 20.6 23.82 25.54 22.93 25.42 21.86 26.31 21.81 32.88 22.8 32.06 23.14 30.99 29.71 25.57 30.49 24.93 31.29 25.03 32.15 24.31 32.2 17.74 31.46 18.36 31.13 19.42"/>
  <polygon points="22.78 18.6 17.22 23.17 19.97 23.9 20.37 24.01 29.71 16.42 31.16 15.24 29.71 14.86 27.91 14.38 22.78 18.6"/>
  <polygon points="32.49 16.54 31.85 15.76 29.71 17.52 21.01 24.66 21.65 25.43 29.71 18.81 32.49 16.54"/>
  <path d="M14.21,22.15l.36.1,1.21.32.88-.71v-7.2h0c-.19-.27-.35-.47-.5-.68v0c-.11-.14-.22-.28-.35-.47l-2.37-.63-4-1.07-.88.71v7.2l.42.56.46.62,1.1.29.45.12,1.08.29.35.1.84.22Zm-1.29-.81-.43-.12-.08,0-.14,0L12,21.1V13l.87.24h0v8.09Z"/>
  <polygon points="22.8 16.32 25.67 13.96 25.82 13.83 26.13 13.57 26.92 13.68 27.79 12.96 27.8 11.69 27.84 6.39 27.09 7.01 26.76 8.06 23.48 10.81 21.52 12.46 19.73 13.96 19.46 14.18 18.57 14.07 17.5 14.96 17.49 16 17.48 17.13 17.47 18.43 17.46 19.45 17.46 19.91 17.44 21.53 18.44 20.7 18.78 19.64 22.8 16.32"/>
  <polygon points="14.1 10.66 15.14 10.92 13.73 12.05 14.23 12.18 16.01 12.65 16.64 12.14 17.55 11.41 26.8 3.89 24.51 3.29 23.39 4.18 22.34 3.92 23.48 3.01 20.8 2.3 11.93 9.5 10.01 11.06 12.69 11.77 14.1 10.66"/>
  <polygon points="16.65 13.3 16.75 13.43 17.19 13.96 17.28 14.07 17.43 13.96 19.81 12.01 21.7 10.45 28.12 5.18 27.49 4.41 18.61 11.69 16.65 13.3"/>
</svg>