<svg xmlns="http://www.w3.org/2000/svg" aria-hidden="true" focusable="false" viewBox="0 0 36 36">
  <path d="M34.11,18.27l-2.83.12-.54-.21c-.5-.19-1.12-.39-1.5.14l-2,3.92L25.16,18.3a2.39,2.39,0,0,0-2.32-1.49l-2.79.47-.24-1.5-.15.12,0,0,0,0a3.19,3.19,0,0,1-1.58.33,3.19,3.19,0,0,1-1.58-.33l0,0,0,0-.15-.12L16,17.28l-2.79-.47a2.39,2.39,0,0,0-2.32,1.49L8.77,22.24l-2-3.92c-.38-.53-1-.33-1.5-.14l-.54.21-2.83-.12A.93.93,0,0,0,1,18.7L3.2,19.76a3.32,3.32,0,0,0,1.55.32l.72-.19,2.62,6a1.42,1.42,0,0,0,2.4.05L12.41,23l.87,8.92h9.44L23.59,23l1.92,2.93a1.42,1.42,0,0,0,2.4-.05l2.62-6,.72.19a3.32,3.32,0,0,0,1.55-.32L35,18.7A.93.93,0,0,0,34.11,18.27Z"/>
  <path d="M15.07,12.2a4.38,4.38,0,0,0,1.59,2.68l.25.19a2.36,2.36,0,0,0,1.09.2,2.36,2.36,0,0,0,1.09-.2l.25-.19a4.38,4.38,0,0,0,1.59-2.68l.2-1.93S21.47,6.75,18,6.75s-3.13,3.52-3.13,3.52Z"/>
  <path d="M1.91,9.76a.44.44,0,0,0,.32-.55A1.38,1.38,0,0,1,2.48,8a1.44,1.44,0,0,1,1.16-.58,1.39,1.39,0,0,1,1.22.71,1.45,1.45,0,0,1-.14,1.67,3.08,3.08,0,0,0-.58,2.76l.06.19a.44.44,0,0,0,.43.33h.12a.46.46,0,0,0,.32-.56L5,12.29a2.12,2.12,0,0,1,.4-1.94,2.35,2.35,0,0,0,.23-2.69,2.32,2.32,0,0,0-2-1.17h0a2.36,2.36,0,0,0-1.87.93,2.29,2.29,0,0,0-.4,2A.44.44,0,0,0,1.91,9.76Z"/>
  <path d="M5,14.11a.79.79,0,0,0-.56,1A.78.78,0,0,0,6,14.67.78.78,0,0,0,5,14.11Z"/>
  <path d="M30.5,8.52a.46.46,0,0,0,.56-.32,1.41,1.41,0,0,1,.83-1,1.46,1.46,0,0,1,1.3.09,1.39,1.39,0,0,1,.7,1.22,1.43,1.43,0,0,1-1,1.37A3.05,3.05,0,0,0,31.06,12l0,.2a.44.44,0,0,0,.31.55l.12,0a.47.47,0,0,0,.44-.34l.05-.19a2.18,2.18,0,0,1,1.32-1.49,2.34,2.34,0,1,0-1.71-4.36A2.3,2.3,0,0,0,30.19,8,.45.45,0,0,0,30.5,8.52Z"/>
  <path d="M30.63,15.36a.79.79,0,1,0-.55-1A.79.79,0,0,0,30.63,15.36Z"/>
</svg>