<svg xmlns="http://www.w3.org/2000/svg" aria-hidden="true" focusable="false" viewBox="0 0 36 36">
  <path d="M34.24,17.41a4,4,0,0,0-3.52-2.91,3.9,3.9,0,0,0-4.32-2.4,3.86,3.86,0,0,0-2.49,1.62.39.39,0,0,1-.54.1.38.38,0,0,1-.1-.53,4.64,4.64,0,0,1,2.19-1.72A4.63,4.63,0,0,0,23,9a4.06,4.06,0,0,0-3.61.48.41.41,0,1,1-.46-.67A4.82,4.82,0,0,1,21,8a5.51,5.51,0,0,0-10.39.41A2.83,2.83,0,0,0,7.5,10.69a2.37,2.37,0,0,0,0,.7,5.31,5.31,0,0,1,6,2.81.39.39,0,0,1-.17.52.38.38,0,0,1-.52-.17,4.58,4.58,0,0,0-8.61,2.86Z"/>
  <path d="M7.52,27.57a.41.41,0,0,1-.19-.05A.39.39,0,0,1,7.18,27l4.58-7.93a.38.38,0,0,1,.53-.14.37.37,0,0,1,.14.52L7.85,27.38A.39.39,0,0,1,7.52,27.57Z"/>
  <path d="M3,30.65a.34.34,0,0,1-.19,0,.37.37,0,0,1-.14-.52L9,19.06a.38.38,0,0,1,.53-.14.39.39,0,0,1,.14.52l-6.36,11A.39.39,0,0,1,3,30.65Z"/>
  <path d="M13.09,27.57a.41.41,0,0,1-.19-.05.38.38,0,0,1-.14-.53l4.58-7.93a.37.37,0,0,1,.52-.14.38.38,0,0,1,.15.52l-4.58,7.94A.42.42,0,0,1,13.09,27.57Z"/>
  <path d="M8.52,30.65a.34.34,0,0,1-.19,0,.38.38,0,0,1-.14-.52l6.36-11a.38.38,0,0,1,.53-.14.38.38,0,0,1,.14.52l-6.36,11A.37.37,0,0,1,8.52,30.65Z"/>
  <path d="M18.66,27.57a.45.45,0,0,1-.19-.05.38.38,0,0,1-.14-.53l4.58-7.93a.38.38,0,0,1,.53-.14.39.39,0,0,1,.14.52L19,27.38A.39.39,0,0,1,18.66,27.57Z"/>
  <path d="M14.1,30.65a.35.35,0,0,1-.2,0,.38.38,0,0,1-.14-.52l6.36-11a.38.38,0,0,1,.53-.14.37.37,0,0,1,.14.52l-6.36,11A.37.37,0,0,1,14.1,30.65Z"/>
  <path d="M24.24,27.57a.46.46,0,0,1-.2-.05A.39.39,0,0,1,23.9,27l4.58-7.93a.38.38,0,0,1,.53-.14.38.38,0,0,1,.14.52l-4.58,7.94A.39.39,0,0,1,24.24,27.57Z"/>
  <path d="M19.67,30.65a.37.37,0,0,1-.2,0,.39.39,0,0,1-.14-.52l6.36-11a.38.38,0,0,1,.53-.14.37.37,0,0,1,.14.52L20,30.46A.37.37,0,0,1,19.67,30.65Z"/>
</svg>