<svg xmlns="http://www.w3.org/2000/svg" aria-hidden="true" focusable="false" viewBox="0 0 36 36">
  <path d="M17.81,23.74V6.28h.43V23.74l.16.13a4,4,0,0,0,.83.41V6.44s0-2.72-1.21-3.83c-1.19,1.11-1.21,3.83-1.21,3.83V24.29a4.37,4.37,0,0,0,.83-.42Z"/>
  <path d="M20.59,25a2.08,2.08,0,0,1-.6.09,2.74,2.74,0,0,1-.76-.12A4.15,4.15,0,0,1,18,24.39a4.15,4.15,0,0,1-1.21.57,2.63,2.63,0,0,1-.76.12,2.08,2.08,0,0,1-.6-.09,3.88,3.88,0,0,1-1.89-1.09,6.23,6.23,0,0,0-.68,1.52,10,10,0,0,0,3.91,1,12.64,12.64,0,0,0,2.46,0,10.1,10.1,0,0,0,3.92-1,6.23,6.23,0,0,0-.68-1.52A4,4,0,0,1,20.59,25Z"/>
  <path d="M19.05,32.58a.91.91,0,0,0-.32-.38l.46-5.1c-.37,0-.76,0-1.17,0s-.81,0-1.18,0l.39,5.16a1.34,1.34,0,0,0-.22.31.53.53,0,0,0-.48.52.52.52,0,0,0,.48.52,1.13,1.13,0,0,0,2,0,.54.54,0,0,0,.47-.52A.52.52,0,0,0,19.05,32.58Z"/>
  <path d="M26.82,12.56l-.45-1.31-.16,1.46s-.28,1.11-.51,1.06-.87.54-.87.54l-1.11,1.28.3-2a6.71,6.71,0,0,1,1-2.46,7.17,7.17,0,0,0,.56-1.75l-.95,1.23c-.22-.37.27-.79.39-2.44a24.88,24.88,0,0,1,.44-2.8l-.93.73a3.67,3.67,0,0,1,.15-1.86l1.07-3L24.35,2.41a8.29,8.29,0,0,0-1.87,2.25l-.23.4L22,6l-.14-.37a4,4,0,0,1-.23-1.72l.1-1.07L20.64,4.61a1.77,1.77,0,0,0-.26.87l-.16,3.73,0,1.19a6.05,6.05,0,0,0,1.67-1.48l-.32,1.78a3.22,3.22,0,0,1,.64-.62A8,8,0,0,0,23.4,8.69s.1,1.68-.4,2.23c-.13.14-.25.29-.37.44a4.43,4.43,0,0,0-.83,1.5,5.83,5.83,0,0,1-1.33,2.36l-.23.25,0,3,.21,0c.94.07.87-.5,1.51-.88l.94-.39-.75,1.65-.09.28a4.33,4.33,0,0,1-.94,1.67l-.35.38s0,.46.68.12a2.45,2.45,0,0,1-1.33.79l-.07,1.11L21.6,23a2.06,2.06,0,0,0,.54-.2l2.48-1.4a1.88,1.88,0,0,0,.62-.57l1.27-1.87-1.46.34.48-1.45a.75.75,0,0,0,0-.16l.29-1.21A2,2,0,0,1,26,16l.5-1a2.72,2.72,0,0,0,.15-.43l.23-1.06A1.85,1.85,0,0,0,26.82,12.56Z"/>
  <path d="M13.93,22.15l1.72.77,0-1.8-.41-.5a6.52,6.52,0,0,1-.41-.94l-.45-1.88a1.38,1.38,0,0,0,.79.6.79.79,0,0,0,.43.06V18l0-2.5,0-1.34-.46-.81a1.35,1.35,0,0,0-.38-.41,1.29,1.29,0,0,1-.46-1.53l.1-.27a1.92,1.92,0,0,1,.18-.31L15,10.3,14.9,11a1.31,1.31,0,0,0,.54,1.17l.16.11,0-1.45-.46-1.36a1.89,1.89,0,0,1-.26-.8l-.17-1.89a1.85,1.85,0,0,1,.15-.93l.74-1.72L14.15,5.58A3.44,3.44,0,0,0,13.1,8.77l.12.35a1.85,1.85,0,0,1,0,1.23l-.15.44c-.31-.12-.41-.89-.41-.89l-.35.85a1.91,1.91,0,0,0-.14.71V12a1.84,1.84,0,0,0,.17.77l.92,2.08a1.85,1.85,0,0,1,.08,1.33,2,2,0,0,1-.4.72l-.32.35-.12-2.14-1,1.63a1.88,1.88,0,0,0-.17,1.52l.4,1.31A2.48,2.48,0,0,0,12,20l.54.86a1.64,1.64,0,0,0,.26.33l.57.58A2.22,2.22,0,0,0,13.93,22.15Z"/>
</svg>