<svg xmlns="http://www.w3.org/2000/svg" aria-hidden="true" focusable="false" viewBox="0 0 36 36">
  <path d="M18.09,23.71a6.51,6.51,0,0,1-1,.15H17a.63.63,0,0,1-.63-.37c-.14-.33,0-.56.25-.78l.1-.11h0a1.48,1.48,0,0,1-.85-.29,3.76,3.76,0,0,1-.7-.64c-.4-.44-.82-.88-1.23-1.31s-.74-.77-1.1-1.17c-.2-.21-.42-.42-.65-.64l.09.44a2.87,2.87,0,0,1,0,1.88,2.57,2.57,0,0,1-.53.79,1.28,1.28,0,0,1-.91.39,1.2,1.2,0,0,1-1-.56l-.37.6L8,23.28l-.75,1.31L4.46,27.15l3.48,3.48L11.32,27l1.09-.33s2.21-.56,2.86-.77c1-.32,3.95-1.06,4.2-1.12l.24-.05-1.59-1Z"/>
  <path d="M8.44,13.32s.56,2.21.77,2.86.61,2.17.87,3.2c.06.23.11.44.15.6s.09.35.1.4l.05.2a2,2,0,0,0,.11.37.36.36,0,0,0,.32.23.37.37,0,0,0,.28-.13,1.61,1.61,0,0,0,.35-.5,2.12,2.12,0,0,0,0-1.34c0-.08,0-.17-.05-.25s-.08-.43-.11-.66l0-.27a.63.63,0,0,1,.6-.78.54.54,0,0,1,.21.05,1.56,1.56,0,0,1,.34.25h0c.37.34.75.68,1.09,1.05l.55.59a1.16,1.16,0,0,1,.29-.5.38.38,0,0,1,.09-.08c-.06-.06-.13-.09-.18-.15a1.06,1.06,0,0,1-.12-.2,1.2,1.2,0,0,1-.17-.48,1.31,1.31,0,0,1,.14-.79,1.58,1.58,0,0,1,.27-.6,1.17,1.17,0,0,1,.56-.4l.3-.29a1.28,1.28,0,0,1,.23-1.28s0-.08.08-.11a1.28,1.28,0,0,1,.26-.2,1.14,1.14,0,0,1,.44-.18,1,1,0,0,1,.25,0,1.09,1.09,0,0,1,.26,0A1.14,1.14,0,0,1,17,14l.32-.3.11-.12.23-.22-.22-.2a3.77,3.77,0,0,1-.91.13,2.43,2.43,0,0,1-.89-.17,2.53,2.53,0,0,1-.79-.54,1.25,1.25,0,0,1-.37-1.1,1.87,1.87,0,0,1,.07-.22l-1.55-1L11.81,8.94,10.5,8.19,7.94,5.37,4.46,8.85l3.65,3.38Z"/>
  <path d="M16,12.35a1.58,1.58,0,0,0,.42.09h.13a2.39,2.39,0,0,0,.59-.08l.2,0,.37-.07a5.66,5.66,0,0,1,.81-.12h.09a.65.65,0,0,1,.64.37.62.62,0,0,1-.18.69,1.59,1.59,0,0,1,.64.25,3.83,3.83,0,0,1,.7.65c.4.44.82.88,1.23,1.3l1.1,1.17c.2.22.42.43.65.64l-.09-.44a2.93,2.93,0,0,1,0-1.88,2.51,2.51,0,0,1,.53-.78,1.24,1.24,0,0,1,.91-.39,1.21,1.21,0,0,1,1.1.72l.33-.54,1.42-1.18.75-1.31,2.82-2.56L27.67,5.37,24.29,9l-1.09.33s-2.21.56-2.86.77c-1,.32-3.95,1.06-4.2,1.12h0a3.3,3.3,0,0,0-.56.16h0a.34.34,0,0,0-.2.39.44.44,0,0,0,.11.2A1.78,1.78,0,0,0,16,12.35Z"/>
  <path d="M27.24,22.93l-.14-.47s-.56-2.21-.77-2.86-.55-2-.81-3q-.09-.33-.15-.6c-.08-.29-.13-.5-.15-.6v0a2.76,2.76,0,0,0-.16-.58.36.36,0,0,0-.32-.23.41.41,0,0,0-.28.13,1.78,1.78,0,0,0-.35.51,2.12,2.12,0,0,0,0,1.34c0,.16.07.33.1.49s.07.46.09.69h0a.67.67,0,0,1-.37.73.59.59,0,0,1-.21,0h0a.66.66,0,0,1-.41-.18l-.14-.12c-.37-.35-.75-.69-1.1-1.07l-.55-.59-.4-.42L20.94,16c-.41-.42-.82-.85-1.21-1.29h0a3.36,3.36,0,0,0-.56-.51.56.56,0,0,0-.34-.13.34.34,0,0,0-.17.05.21.21,0,0,0-.1.06l0,0a.48.48,0,0,0-.16.27.51.51,0,0,0,.07.37.35.35,0,0,0,.05.08c.12.19.25.37.39.55l.05.06c.06.09.14.18.22.28s.28.36.44.55l.17.21.28.34h0l.12.14.08.1.33.41.12.14a.29.29,0,0,1,.07.22.14.14,0,0,1,0,.1.15.15,0,0,1-.11,0h0a.63.63,0,0,1-.31-.12l0,0-.34-.29,0,0-.25-.22-.1-.08-.23-.21-.82-.7,0,0-.32-.27L18.09,16A.69.69,0,0,1,18,15.9l-.34-.28-.54-.46L16.9,15l-.17-.13,0,0,0,0a.43.43,0,0,0-.16,0h0a.46.46,0,0,0-.33.15l0,0a.45.45,0,0,0-.12.38s0,0,0,0a.35.35,0,0,0,0,.13h0l.21.24.08.1.63.68.21.22.1.1,0,0c.09.11.19.21.29.32l.05,0,0,0,.77.81.13.13.48.5.05.06.1.11.27.28s.16.21.09.3a.14.14,0,0,1-.13.07h0l-.13,0a5.47,5.47,0,0,1-.47-.32l-.18-.12-.18-.13h0l-.36-.26L18,18.62l-.14-.1L17.09,18l-.15-.11-.21-.15h0l-.37-.26h0c-.46-.31-.81-.55-.91-.6l-.07,0H15.3a.3.3,0,0,0-.24.12.52.52,0,0,0-.13.34.06.06,0,0,0,0,0,.19.19,0,0,0,0,.1,1.39,1.39,0,0,0,.24.34l.31.27.25.22.1.08.2.18.11.09.22.19.84.72h0l.32.28.1.08.09.08.33.29.57.48.1.09,0,.06s0,0,0,0a.18.18,0,0,1,0,.14.23.23,0,0,1-.21.08h-.06a1.34,1.34,0,0,1-.22-.12l-.46-.28-.1-.07-.37-.23-.24-.16-.08-.05h0L16.85,20,16.73,20l-.79-.51-.06-.05-.07,0s-.18-.09-.34-.15l-.17-.05h0a.53.53,0,0,0-.34.17.29.29,0,0,0,0,.4c.06.06.11.13.17.2a3.31,3.31,0,0,0,.27.26c.11.08.42.35.8.68l.38.34.13.11.33.28.32.29.05,0,.27.24.07.06.19.16.14.12.28.26.25.21.25.15,1.88,1.16.41.25,1.43.88,1.3.77Z"/>
  <polygon points="28.06 23.06 27.81 23.3 27.49 23.61 24.35 26.62 24.03 26.93 23.71 27.23 23.68 27.26 23.86 27.44 27.09 30.63 27.16 30.57 27.47 30.27 30.98 26.84 31.3 26.53 31.54 26.29 28.06 23.06"/>
</svg>