<svg xmlns="http://www.w3.org/2000/svg" aria-hidden="true" focusable="false" viewBox="0 0 36 36">
  <path d="M33.91,23l-.65.11-.5.07a25.28,25.28,0,0,1-2.88.21V23h.54c.86,0,1.62-.11,2.22-.18l.5-.07.3-.05-.18-.06-.17-.05c-.16,0-.35-.09-.57-.13a15,15,0,0,0-2-.18h-.66V14.69L32.38,22c.21,0,.4.06.56.1l-2.88-8.45a1.16,1.16,0,0,0,.56-.49,1.22,1.22,0,0,0,.13-.53,1.11,1.11,0,0,0-1.07-1.11l-.47-.44-.6-.07a3.34,3.34,0,0,1-1.27-.42l-2-1a4.09,4.09,0,0,0-.71-.3l-.8-.23a3.45,3.45,0,0,1-1.08-.55h0a3.53,3.53,0,0,0-1.24-.58l-2-.46-.31-.85.27-.4A3.37,3.37,0,0,0,20,5v0a5,5,0,0,0-.12-1.35s-.13-.84-1.32-.84-1.32.84-1.32.84a5.31,5.31,0,0,0-.13,1.35V5a3.38,3.38,0,0,0,.51,1.26l.26.4-.31.85-2,.46a3.57,3.57,0,0,0-1.25.58,3.4,3.4,0,0,1-1.07.55l-.81.23a4.87,4.87,0,0,0-.71.3l-2.14,1A3.46,3.46,0,0,1,8.3,11l-.61.07-.5.47a1.12,1.12,0,0,0-.91,1.08,1.12,1.12,0,0,0,.69,1L4.09,22.12c.17,0,.35-.07.57-.1l2.49-7.33v7.54H6.49a15,15,0,0,0-2,.18c-.23,0-.42.09-.57.13l-.18.05-.17.06.29.05.51.07c.59.07,1.36.15,2.22.18h.53v.38a25.47,25.47,0,0,1-2.88-.21l-.5-.07L3.12,23H2.45c.29.86,1.35,2.79,5,2.79s4.66-1.93,4.95-2.79h-.68l-.64.11-.5.07a25.47,25.47,0,0,1-2.88.21V23h.53c.86,0,1.63-.11,2.22-.18l.51-.07.29-.05L11,22.6l-.18-.05c-.15,0-.34-.09-.57-.13a15,15,0,0,0-2-.18H7.65V14.69L10.14,22l.57.1L7.83,13.67a1.11,1.11,0,0,0,.68-1,1.09,1.09,0,0,0-.19-.59l.06,0a3.39,3.39,0,0,1,1.19-.46l3-.77.67-.31,2-.18L16,14.62a4.43,4.43,0,0,1,0,1.54l-.29,1.76h0l-.2,2.24a7.06,7.06,0,0,0,0,1.3l.24,2.43a6.78,6.78,0,0,1,0,1.19l-.11,1.43a6.59,6.59,0,0,0,.08,1.66l.2,1.18a7,7,0,0,1,0,2.5l-.12.61-.6.55v.35H17.6V33l-.19-.5-.09-.87a7.3,7.3,0,0,1,0-1.62l.27-1.9a6.87,6.87,0,0,0,0-1.57l-.11-1.28a6.9,6.9,0,0,1,.1-2l.22-1.06.42-2.81h.48l.42,2.81.21,1.06a6.91,6.91,0,0,1,.11,2l-.12,1.28a6.88,6.88,0,0,0,0,1.57l.26,1.9a6.75,6.75,0,0,1,0,1.62l-.08.87-.19.5v.37h2.34V33l-.6-.55-.12-.61a6.78,6.78,0,0,1,0-2.5l.2-1.18a7.09,7.09,0,0,0,.08-1.66l-.11-1.43a6.76,6.76,0,0,1,0-1.19l.25-2.43a7.06,7.06,0,0,0,0-1.3l-.2-2.24h0L21,16.16a4.43,4.43,0,0,1,0-1.54l.82-4.31,1.94.18.67.31,2.9.77a3.44,3.44,0,0,1,1.2.46l.15.09a1.06,1.06,0,0,0-.16.53,1.11,1.11,0,0,0,.68,1l-2.87,8.45.56-.1,2.49-7.33v7.54h-.65a13.19,13.19,0,0,0-2,.19l-.57.12L26,22.6l-.17.06.29.05.5.07c.6.07,1.37.15,2.23.18h.52v.38a25.08,25.08,0,0,1-2.87-.21l-.5-.07L25.36,23h-.68c.3.86,1.35,2.79,4.95,2.79s4.66-1.93,4.95-2.79ZM7.67,13.19l0-.09h0l0-.05,0,0s0,0,0,0,0,0,0,0h0l0,0,0,0h0s0,0,0,0,0,0,0,0l0,0,0,.05h0l0,.09a.65.65,0,0,1-.27-.25.6.6,0,0,1-.08-.29A.59.59,0,0,1,7,12.17l.32.28s.28-.18.42-.28a.61.61,0,0,1,.24.48A.6.6,0,0,1,7.67,13.19Zm22.19-.1,0-.05-.06,0s0,0,0,0h-.06l0,0,0,0h-.06s0,0,0,0l-.06,0,0,.05h0l0,.09a.59.59,0,0,1-.35-.54.6.6,0,0,1,.18-.43c.14.1.33.25.35.23l.38-.33a.6.6,0,0,1,.32.53.59.59,0,0,1-.07.29.75.75,0,0,1-.28.25l0-.09Z"/>
</svg>