<svg xmlns="http://www.w3.org/2000/svg" aria-hidden="true" focusable="false" viewBox="0 0 36 36">
  <path d="M28.47,21.12a10,10,0,0,0-.11-2.67l2-1.42L30,15.76l-2.45,0a10.58,10.58,0,0,0-1.42-2.27l1-2.22-1-.9L24,11.53a10.83,10.83,0,0,0-1.23-.74v1.53l.57.38c.21.15.41.31.6.47s.36.31.53.48.35.37.51.56.33.41.49.63.38.56.55.87.24.46.35.7.19.46.27.7.16.46.22.69.11.4.15.61c0,0,0,.09,0,.13a7,7,0,0,1,.11.78,8.87,8.87,0,0,1,0,1c0,.26,0,.53,0,.79s-.07.5-.12.74-.1.47-.16.71a6.67,6.67,0,0,1-.23.72,6.52,6.52,0,0,1-.29.73,7.77,7.77,0,0,1-.48.9,7.48,7.48,0,0,1-.43.66,6.9,6.9,0,0,1-.47.6c-.15.18-.31.36-.48.53s-.37.35-.56.51-.41.33-.63.49a8.39,8.39,0,0,1-.86.55c-.23.13-.47.24-.71.35l-.7.28-.69.21c-.2.05-.4.11-.6.15l-.14,0a7,7,0,0,1-.78.11,7.1,7.1,0,0,1-1,0c-.26,0-.52,0-.78,0l-.75-.11c-.24-.05-.47-.1-.7-.17s-.49-.14-.73-.22-.49-.19-.73-.3a7.77,7.77,0,0,1-.9-.48,7.48,7.48,0,0,1-.66-.43,6.9,6.9,0,0,1-.6-.47c-.18-.15-.36-.31-.53-.48s-.35-.37-.51-.56l-.23-.28H9a10.87,10.87,0,0,0,.74,1l-1,2.21,1,.9,2.14-1.19a10.42,10.42,0,0,0,2.36,1.24l.23,2.44,1.3.3L17,30.74a10.93,10.93,0,0,0,2.67-.11l1.42,2,1.27-.4,0-2.45a10.26,10.26,0,0,0,2.28-1.42l2.21,1,.9-1L26.6,26.27a10.71,10.71,0,0,0,1.24-2.37l2.44-.23.29-1.3Z"/>
  <polygon points="20.81 3.19 19.4 2.66 18.52 3.17 18.52 4.34 20.81 5.21 20.81 3.19"/>
  <path d="M11.4,13.86l.58-.38h0l.8-.46.34-.2.35-.19,1-.56h0l.12-.07.13,0h0l1.5.49v-.74h0V4.58L12,7h0l-.58.33h0V13.8h0Zm4.24-7,0,0v.73L12,9.76V9Z"/>
  <path d="M24.45,24.58l.19-.47.15-.34H23.67V17.39L22,16.72v7.05h-.69V6.14l-.17-.06L20.81,6l-2.29-.87L18.17,5l-.34-.14L17,4.48h0l0,8.27h0l2.27.74.24.32v10h-.67V14l-.59-.19v0l-1.26-.41h0l-.32-.11h0l-.32-.11h0L15.52,13h0L15,12.82h0v11h-.65V12.92h0l-.57.32v0l-.23.13-.35.19-.34.2-1.38.79-.35.2-.34.19-.16.1v0L10,15.4v8.37H9.29V22.19L8,22.53v-.71l1.27-.35v-4L8,18v-.75l1.27-.55V15.2l.17-.29,1.25-.72V13.08L8,14.43v-.77l2.69-1.34v-.79l-3.25,1.8v0h0V23.77H6.19l.13.34.18.47.14.34H24.31Zm-7.58-4.2.75.15.34.07.21,0v.7L18,21.3l-.34-.07-.75-.15h0v-.7h0Zm-6.32,2V22l.16,0,.34-.05.35,0,1.38-.2.34,0,.35-.05.23,0v.69l-.23,0-.35.05-.34.05-1.38.2-.35.05-.34.05-.16,0Zm1.95-3.84v-.36l.28-.11.34-.13.35-.13.23-.08v.73l-.23.09-.35.13-.34.12-.28.11ZM13.7,16v.38l-.23.11-.35.17-.34.16-1.38.67-.35.16-.34.17-.16.08v-.76l.16-.08.34-.17.35-.16L12.78,16l.34-.16.35-.17.23-.11Zm-3,2.87.34-.12.35-.13.34-.13v.73l-.34.13-.35.13-.34.13-.16.06v-.73Zm5.5-4.75h0l.33.1h0l.33.09h0l1,.28.3.08v.72L18,15.3l-.34-.09L16.9,15h0l-.33-.1h0l-.33-.09h0l-.68-.2v-.71Zm-5.5,1.6.34-.18.35-.19,1.38-.73.34-.18.35-.18.23-.12v.78l-.23.12-.35.18-.34.18-1.38.73-.35.18-.34.18-.16.09v-.78Z"/>
</svg>