<svg xmlns="http://www.w3.org/2000/svg" aria-hidden="true" focusable="false" viewBox="0 0 36 36">
  <path d="M33.41,13.29l-1.44-1S23.16,9.26,16,7.53l-.53-.65L15,6.24,12.34,3,11,5.46l-.27.48-.27.47a23.3,23.3,0,0,0-3.28-.33C5.06,6.08,5,6.83,5,8,5,9.83,7.4,12.27,7.4,12.27l.49,3.16L7.76,16l.6.8a7.87,7.87,0,0,0,3,2l1.54.55a19.82,19.82,0,0,0,4.34.76c1.18.08,2.43.12,3.7.12,2.69,0,5-.19,6.42-.33a1.47,1.47,0,0,1,1.19-.61h1.15a1.45,1.45,0,0,1,.65.16L31,18.17l1.08-1.24L33.4,16A1.67,1.67,0,0,0,33.41,13.29ZM11.76,6.12,12,5.65l.48-.84.88,1.09.52.62.51.64,4.41,5.38-.31,4.53H12.22L9,14.92V11l2.5-4.42Z"/>
  <path d="M24.68,24.66c-1.41,1.27-3.75,3.36-5.58,4.85-2.46,2-6.9,2.23-11.87.58-4.6-1.52-4.33-4.45-4.23-5l3.68-4.5a3.57,3.57,0,0,1-.23-.51,2.36,2.36,0,0,1-.15-.61L2.15,24.53l-.09.19S1,29.08,6.91,31a21,21,0,0,0,6.54,1.17,9.83,9.83,0,0,0,6.29-1.92c2.41-2,5.73-5,6.61-5.8l-.85.1Z"/>
  <polygon points="11.54 15.54 11.54 15.54 13.29 14.43 15.05 16.43 14.38 13.75 16.13 12.63 13.96 12.08 13.29 9.4 12.62 11.74 10.46 11.2 12.21 13.2 11.54 15.54"/>
  <path d="M27.09,21.21V21c-1.45.14-3.63.3-6.13.3-.93,0-1.91,0-2.91-.08l-.43,0-.43,0-1.25-.11a19.26,19.26,0,0,1-3.72-.81c-.32-.1-.62-.21-.9-.32a11.69,11.69,0,0,1-2.77-1.54l-.05-.05A4.8,4.8,0,0,1,8.11,18c-.15-.14-.27-.26-.35-.35l-.15-.16-.06-.08v.05L7.47,18v0l-.07.49L7.33,19l0,.31a1.65,1.65,0,0,0,.1.41c.36,1,2,3.54,9.35,3.95,1.69.09,3.15.13,4.41.13,1.74,0,3.09-.08,4.14-.18.77-.07,1.37-.16,1.83-.24a1.36,1.36,0,0,1,0-.29Z"/>
  <path d="M30.1,20.42a.53.53,0,0,0-.38-.16H28.57a.53.53,0,0,0-.32.12.49.49,0,0,0-.22.27.58.58,0,0,0,0,.19v2.23s0,.06,0,.09a.58.58,0,0,0,.31.43.71.71,0,0,0,.25.06h1.15a.58.58,0,0,0,.57-.58V20.84a.55.55,0,0,0-.1-.31A.48.48,0,0,0,30.1,20.42Z"/>
</svg>