<svg xmlns="http://www.w3.org/2000/svg" aria-hidden="true" focusable="false" viewBox="0 0 36 36">
  <path d="M27.9,26.2c-.46-.22-1.78.35-1.78.35L23.07,28l-.49.1a1.28,1.28,0,0,1-.55.76l-.08,0c-.33.07-3.25.7-3.72.7a2.71,2.71,0,0,1-1-.21l.23-.54a2.18,2.18,0,0,0,.76.16c.3,0,2.31-.41,3.54-.68a.6.6,0,0,0,.25-.48.43.43,0,0,0-.08-.27l-3.24.12L16,27.07a3.36,3.36,0,0,0-3.38,1.17l-3,2.82,1.86,2h.94l2.71-2.28,2.05.47a3.56,3.56,0,0,0,1.3-.05A30,30,0,0,0,23,30.09L28.39,27A1,1,0,0,0,27.9,26.2Z"/>
  <path d="M12.35,16.85a17.84,17.84,0,0,0,5.15.75l1,0,.59,1.51.81-1,.76.32.6.4.57,1.32.35-1.46.3-1.14,1.65.58.13,1,.87-1.55a1.57,1.57,0,0,1,.33-.18A16,16,0,0,0,25,15.64l-.78-1.23a4.15,4.15,0,0,0-.65-2L20.44,8.75h0l0,0-.13-.16a3.15,3.15,0,0,1-.54-1,2.55,2.55,0,0,1,1.78,1.16.27.27,0,0,0,.25.15.28.28,0,0,0,.15,0,.29.29,0,0,0,.11-.4,3.3,3.3,0,0,0-1.93-1.41,1.87,1.87,0,0,1,.34,0,2.88,2.88,0,0,1,1.83.91.32.32,0,0,0,.22.1A.32.32,0,0,0,22.7,8a.3.3,0,0,0,0-.41,3.46,3.46,0,0,0-2.25-1.11,3.55,3.55,0,0,0-.72.09c.31-.62,1.1-1,1.25-1.44.24-.62-1.75-1.16-1.75-1.16s.26-.81-.12-1.2-2.24-.38-2.88-.19-.05,1-.05,1a8.36,8.36,0,0,0-1.75.76c-.35.31.58.66,1,1.72a2.56,2.56,0,0,1-.23,2.65l-3.51,3.38C10.82,13.06,10.27,16.35,12.35,16.85Zm12,.93L23.54,17l-.26-.25-1.44.7v.07l0,1.26-1-1.13-.13-.13-.61-.34-1.62-.3.57-2.2h1.1l.37.73L21,14.11l.72-1.2,2.31,2.16.15.36.5,1.18ZM19,4.36a2,2,0,0,1,1,.52,8.19,8.19,0,0,1-1.62,2A5,5,0,0,0,19,4.36Zm-3.7,0s1-.57,1.17-.1a8.32,8.32,0,0,1,0,2.19A3.06,3.06,0,0,0,15.29,4.34Z"/>
  <path d="M21.07,26.4c1,0,1.81-.33,1.79-.62V25.6l-.07,0a1.05,1.05,0,0,1-.3.15,4.75,4.75,0,0,1-1.42.27h-.34a4.31,4.31,0,0,1-1-.1l-.1,0-.32-.12-.07,0V26C19.24,26.26,20.07,26.45,21.07,26.4Z"/>
  <path d="M19.4,25.45a.77.77,0,0,0,.32.13,4.48,4.48,0,0,0,1.32.1,4.39,4.39,0,0,0,1.29-.23.82.82,0,0,0,.3-.18,2.29,2.29,0,0,0-1.3-.25H21a2.66,2.66,0,0,0-1.59.41Z"/>
  <path d="M17.87,21.8l0-.06-.07.14c-.11.25.5.78,1.37,1.18s1.66.51,1.78.26l.07-.16-.08,0-.14,0-.17,0a4.72,4.72,0,0,1-1.34-.4A4.4,4.4,0,0,1,18.07,22,1.33,1.33,0,0,1,17.87,21.8Z"/>
  <path d="M19.42,22.43a4.45,4.45,0,0,0,1.16.36,1,1,0,0,0,.35,0h0a2.79,2.79,0,0,0-1.26-.91,3.72,3.72,0,0,0-1.36-.38l-.15,0h0a1,1,0,0,0,.22.25A4.64,4.64,0,0,0,19.42,22.43Z"/>
  <path d="M25.12,20.53l-.07-.14,0,.05a1,1,0,0,1-.18.23,4.52,4.52,0,0,1-1.18.79,4.77,4.77,0,0,1-1.33.42l-.19,0h-.19L22,22c.12.25.91.11,1.77-.3S25.24,20.78,25.12,20.53Z"/>
  <path d="M22.31,21.5a4.2,4.2,0,0,0,1.17-.4,3.87,3.87,0,0,0,1-.66.92.92,0,0,0,.22-.27h-.13a3.56,3.56,0,0,0-1.37.4c-.83.4-1.2.8-1.23.93a0,0,0,0,0,0,0A.71.71,0,0,0,22.31,21.5Z"/>
</svg>