<svg xmlns="http://www.w3.org/2000/svg" aria-hidden="true" focusable="false" viewBox="0 0 36 36">
  <path d="M23.52,21.4,26,22.89a35.1,35.1,0,0,0-3-3.27,4.86,4.86,0,0,0,2.7-1.35.83.83,0,0,0,.17-.49h0a1.15,1.15,0,0,0-.57-.88q0-.43-.15-1l.21-.57a6.45,6.45,0,0,0,.05-.75c0-.33,0-.64,0-.64a1.09,1.09,0,0,0-.34-.75,2.4,2.4,0,0,0-.64-.49,2.33,2.33,0,0,0-.07-.25l.16-.44a4.47,4.47,0,0,0,.05-.61c0-.3,0-.6,0-.61a1.12,1.12,0,0,0-.51-.86,3,3,0,0,0-.67-.4c0-.1-.08-.2-.11-.3l.13-.39a3.25,3.25,0,0,0,0-.51c0-.32,0-.67,0-.67,0-.36-.27-.67-.71-.93a4.06,4.06,0,0,0-.69-.31c-.28-.59-.58-1.19-.91-1.8l-.55.74H15.59l-.53-.75c-.33.62-.64,1.22-.92,1.81a5.65,5.65,0,0,0-.69.31c-.43.26-.7.57-.7.93,0,0,0,.34,0,.66a3.43,3.43,0,0,0,0,.52l.13.38-.12.31a3.84,3.84,0,0,0-.67.41,1.11,1.11,0,0,0-.49.85s0,.3,0,.6a3.7,3.7,0,0,0,0,.62l.15.44c0,.1,0,.19-.08.29a2.54,2.54,0,0,0-.65.53,1.08,1.08,0,0,0-.26.67v.44a7.5,7.5,0,0,0,.06.95l.17.48c-.07.45-.13.83-.16,1.14a1.15,1.15,0,0,0-.57.88h0a.83.83,0,0,0,.17.49,4,4,0,0,0,2.05,1.17C11.1,20.62,10,21.72,10,21.72l2.32-1.23.63.15L11.46,25.4l2-1.9,1.05-.92L14.07,31l1.6-4.4.6-1.65.79,10,1.37-6.61,1.78-2.05,2.09,7.44-.67-9,.85.42,1.67,2.76L23,21.61ZM10.85,17.78h0c0-.14.12-.31.36-.49.84-.63,3.18-1.38,6.92-1.38s6.07.75,6.92,1.38c.23.18.36.35.36.49h0c0,.15-.13.32-.36.49a6.69,6.69,0,0,1-2.44.95c-.36-.33-.73-.65-1.11-.95-.21-.17-.43-.33-.66-.49s-.51-.34-.77-.49a4.21,4.21,0,0,0-2-.64,5.48,5.48,0,0,0-2.25.64c-.31.15-.61.31-.91.49l-.78.49c-.38.26-.75.53-1.1.8a5.56,5.56,0,0,1-1.85-.8C11,18.1,10.85,17.93,10.85,17.78Zm.5-3.89a.66.66,0,0,1,.23-.45c.73-.75,3.23-1.45,6.57-1.45s5.7.66,6.51,1.38a.75.75,0,0,1,.3.52c0,.07,0,.35,0,.63h0c-1.16-1-4.07-1.47-6.78-1.47s-5.65.51-6.79,1.48v-.13C11.35,14.16,11.35,14,11.35,13.89Zm.8-2.67c0-.22,0-.42,0-.48s.15-.39.43-.57a11.31,11.31,0,0,1,5.56-1.08,11.4,11.4,0,0,1,5.56,1.07c.28.19.44.39.44.58s0,.27,0,.48L24,11.16c-1.1-.8-3.58-1.22-5.9-1.22s-4.81.42-5.9,1.23Zm1.1-3.14c0-.21,0-.42,0-.47s.22-.38.59-.57a10.07,10.07,0,0,1,4.3-.75A10.24,10.24,0,0,1,22.42,7c.38.19.6.4.6.58s0,.26,0,.47L22.84,8a10.52,10.52,0,0,0-4.71-.89,10.34,10.34,0,0,0-4.71.9A1,1,0,0,0,13.25,8.08Z"/>
  <polygon points="19.76 32.69 19.85 27.32 19.1 28.76 19.76 32.69"/>
  <polygon points="11.77 28.54 13.63 25.27 13.87 23.62 13.45 24.42 11.77 28.54"/>
  <polygon points="22.02 3.44 24.17 6.05 25.35 5.67 24.37 2.09 22.71 2.49 22.02 3.44"/>
  <polygon points="14.32 3.49 13.61 2.47 12.02 2.09 11.04 5.67 12.21 6.05 14.32 3.49"/>
  <polygon points="14.64 3.1 14.81 3.34 15.1 3.75 15.38 4.15 15.84 4.82 20.41 4.82 20.89 4.16 21.18 3.76 21.47 3.36 21.7 3.05 21.98 2.67 22.76 1.59 13.59 1.59 14.33 2.65 14.64 3.1"/>
</svg>