<svg xmlns="http://www.w3.org/2000/svg" aria-hidden="true" focusable="false" viewBox="0 0 36 36">
  <path d="M18,16.4v1.44A3.34,3.34,0,0,1,21.15,20h3.73V12.72l-.65-.25H11.64V20h3a3.3,3.3,0,0,1,2.93-2.13V16.4H17.3v-.84h.26v-.15H18v.15h.26v.84Zm-4.1,1.38h-.26v.58H13.2v-.58h-.26V14.57h.26V14h.45v.57h.26Zm1.45-1.88h-1V14.57h.26V14h.45v.57h.26Zm1.45.28h-.25v.93H16.1v-.93h-.26V13.26h.26v-.47h.46v.47h.25Zm6.3-1.95h.26V12.9h.45v1.33h.26v1h-.26v2.14h-.45V15.22h-.26Zm-1.46.34h.26v-.64h.46v.64h.25v1.61h-.25v.4h-.46v-.4h-.26ZM20.2,15.73h.26v-1h.45v1h.26v2.05h-.26v.3h-.45v-.3H20.2Zm-1.45-.5H19V14.06h.45v1.17h.26v1.49h-.26v.44H19v-.44h-.26Z"/>
  <polygon points="7.3 15.83 6.17 15.38 6.17 10.99 6.54 10.88 6.54 10.17 5.49 10.48 5.49 15.84 6.42 16.21 7.3 15.83"/>
  <polygon points="29.61 15.38 28.64 15.76 29.52 16.14 30.28 15.84 30.28 10.48 29.32 10.2 29.32 10.91 29.61 10.99 29.61 15.38"/>
  <path d="M28.65,10.71V7.5l-9.1-2.26V10l4.8,1.83,1.21.45,3.09,1.18Zm-1.68,1-1-1.54-1.09.44-.91-2-.82.17-.72-1.24L20.36,9.4l-.31-.33,2.48-2.3.84,1.44L24.24,8l.87,2,1-.42.15.24.15.22.69,1.06.58-.3.2.41Z"/>
  <path d="M11.51,11.8,16.32,10V5.24L7.22,7.5v5.93L11,12Zm2.92-5V6.52a4.12,4.12,0,0,1,.79.43l-.2.19-.59.56Zm-.45,0v2l1.3-1.23a1.89,1.89,0,0,1,.2.84A1.52,1.52,0,0,1,14.11,10a1.53,1.53,0,0,1-1.37-1.64A1.55,1.55,0,0,1,14,6.74ZM8.12,12.29,8,11.87l.55-.21V9.79H9v1.69l.42-.17v-.94h.45v.76L10.2,11V8.44h.45v2.35l.5-.2V7.5h.46v3.4Z"/>
  <polygon points="10.34 15.25 7.72 16.38 7.32 16.56 4.1 17.95 4.1 23.88 10.34 20.28 10.34 15.25"/>
  <polygon points="28.63 16.49 27.98 16.21 25.92 15.33 25.92 20.35 32.16 23.95 32.16 18.02 28.63 16.49"/>
  <path d="M22.45,26.9l-3-.83-.18-1a5.06,5.06,0,0,0,1.15-2.49l.12-1.29a3.54,3.54,0,0,0-.13-.66,2.79,2.79,0,0,0-.12-.34,2.6,2.6,0,0,0-.16-.34,2.43,2.43,0,0,0-2.27-1.24A2.38,2.38,0,0,0,15.64,20a2.6,2.6,0,0,0-.16.34,2.79,2.79,0,0,0-.12.34,3.19,3.19,0,0,0-.15.79l.1,1.16a5.65,5.65,0,0,0,1.14,2.49l-.18,1-3,.83c-.82.23-2.21,1-2.21,1.83l-.83,2.33H25.49l-.82-2.33C24.67,27.88,23.27,27.13,22.45,26.9Z"/>
</svg>