<svg xmlns="http://www.w3.org/2000/svg" aria-hidden="true" focusable="false" viewBox="0 0 36 36">
  <path d="M33.18,9.07V25.44c-.69-.05-1.36-.07-2-.07A30,30,0,0,0,21,27.15a20.21,20.21,0,0,0-3,1.33,20.21,20.21,0,0,0-3-1.33A30,30,0,0,0,4.83,25.37c-.65,0-1.32,0-2,.07V9.07a1,1,0,0,0-.95,1v16a1,1,0,0,0,.85,1L15,28.82v.25a.58.58,0,0,0,.58.58h4.86a.58.58,0,0,0,.58-.58v-.25L33.28,27a1,1,0,0,0,.85-1V10A1,1,0,0,0,33.18,9.07Z"/>
  <path d="M19.1,27c.52-.23,1.15-.49,1.91-.75a30.75,30.75,0,0,1,10.16-1.73q.6,0,1.2,0V6.37c-.35,0-.7,0-1,0v16.9l-.78,0A19.19,19.19,0,0,0,21,25.79,18.22,18.22,0,0,0,19.1,27Z"/>
  <path d="M30.52,22.42V5a18.22,18.22,0,0,0-7.93,1.84,18.67,18.67,0,0,0-2,1.11A17.27,17.27,0,0,0,19.08,9c-.11.09-.2.16-.27.23v17A19.23,19.23,0,0,1,21,24.86,20,20,0,0,1,30.52,22.42ZM21,11.52A32.5,32.5,0,0,1,24.35,10,27.09,27.09,0,0,1,29.2,8.61l.14.8c-.2,0-.39.08-.59.12A31.74,31.74,0,0,0,21,12.43c-.4.21-.64.35-.65.36l-.41-.7C20,12.06,20.39,11.84,21,11.52Zm-.81-1.15L20,9.94A32,32,0,0,1,29.2,6.47l.14.79a31.53,31.53,0,0,0-8.57,3.15l-.06,0-.35.19-.1-.17Zm.16,4.6-.41-.7L21,13.7a35,35,0,0,1,3.71-1.64l.14.38.14.38a35,35,0,0,0-4,1.79Z"/>
  <path d="M15,26.29c.76.26,1.39.52,1.91.75A18.22,18.22,0,0,0,15,25.79a19.19,19.19,0,0,0-9.54-2.56l-.78,0V6.35c-.34,0-.69,0-1,0V24.59q.6,0,1.2,0A30.75,30.75,0,0,1,15,26.29Z"/>
  <path d="M17.19,26.24v-17A3.28,3.28,0,0,0,16.93,9,16.39,16.39,0,0,0,15.4,7.9a18.44,18.44,0,0,0-2-1.11A18.22,18.22,0,0,0,5.48,5V22.42A20,20,0,0,1,15,24.86,19.23,19.23,0,0,1,17.19,26.24ZM14.28,15.81a15.6,15.6,0,0,1-1.14,1.81,1.23,1.23,0,0,1,.28.77,1.26,1.26,0,0,1-1.26,1.27,1.24,1.24,0,0,1-.71-.25,3.34,3.34,0,0,1-1.93.87,1.33,1.33,0,0,1-.63-.15c-.69-.36-1-1.31-.84-2.65a11,11,0,0,1,.89-3.14,2.88,2.88,0,0,1-1.49-2.51,2.88,2.88,0,0,1,4.81-2.16c1-.79,1.92-1.1,2.6-.74a1.8,1.8,0,0,1,.81,1.44s0,0,0,.06a8.23,8.23,0,0,1-.69,3.8A14.53,14.53,0,0,1,14.28,15.81Z"/>
  <path d="M15.16,10.54a.88.88,0,0,0,0-.17,1.31,1.31,0,0,0-.53-1,.87.87,0,0,0-.4-.09,2.85,2.85,0,0,0-1.59.75l0,0a2.82,2.82,0,0,1,.59,1.73,2.9,2.9,0,0,1-2.9,2.89,2.66,2.66,0,0,1-.9-.16,10.23,10.23,0,0,0-.85,3c-.12,1.1.08,1.88.55,2.12s1.15,0,1.95-.62a1.18,1.18,0,0,1-.2-.64,1.27,1.27,0,0,1,1.27-1.27,1.2,1.2,0,0,1,.56.15,14.39,14.39,0,0,0,1.08-1.71A12.8,12.8,0,0,0,15,12.49,5.85,5.85,0,0,0,15.16,10.54Z"/>
  <path d="M9.41,13.37a1.48,1.48,0,0,0,.5.21,1.54,1.54,0,0,0,.43.06,1.81,1.81,0,0,0,1.5-2.84,2,2,0,0,0-.37-.39,1.85,1.85,0,0,0-1.13-.4,1.82,1.82,0,0,0-1.81,1.82A1.79,1.79,0,0,0,9.41,13.37Z"/>
</svg>