<svg xmlns="http://www.w3.org/2000/svg" aria-hidden="true" focusable="false" viewBox="0 0 36 36">
  <polygon points="24.51 6.72 23.75 5.96 23.18 5.08 21.85 5.45 21.85 6.29 23.21 7.2 24.51 6.72"/>
  <polygon points="24.02 10.46 24.96 11.05 25.33 10.12 25.68 9.13 24.56 8.31 23.9 8.83 24.02 10.46"/>
  <path d="M19.22,11.68A1.57,1.57,0,0,0,21,10.35a1.58,1.58,0,1,0-3.12-.45A1.57,1.57,0,0,0,19.22,11.68Z"/>
  <path d="M7,18.47a1.58,1.58,0,0,0-.45,3.12A1.58,1.58,0,1,0,7,18.47Z"/>
  <path d="M21.41,12.73a3.26,3.26,0,0,0-3.92-5.21h0L4.85,17.42h0l-.13.1h0a3.25,3.25,0,0,0,1.62,5.72l.47,0a3.25,3.25,0,0,0,1.81-.56h0l12.79-10Zm-2-5.19a2.36,2.36,0,0,1,.37,0,2.64,2.64,0,1,1-.37,0Zm-13,15.05a2.58,2.58,0,0,1-1.31-4.53h0a2.6,2.6,0,0,1,1.68-.62l.37,0a2.59,2.59,0,0,1-.74,5.12Zm3.5-1.72c0-.13.07-.25.09-.38A3.26,3.26,0,0,0,7.25,16.8a4.35,4.35,0,0,0-.51,0l9.57-7.49c0,.12-.07.24-.09.37A3.27,3.27,0,0,0,19,13.35l.48,0h0Z"/>
  <polygon points="16.08 7.35 14.62 7.09 13.42 7.3 13.01 8.42 12.9 8.73 12.86 8.98 12.24 8.87 10.32 8.98 9.19 9.05 9.52 8.34 9.13 8.29 8.74 9.09 7.82 10.46 8.01 10.76 8.09 10.79 9.09 11.23 8.25 11.92 5.82 13.96 4.81 14.8 4.72 13.54 4.06 13.66 3.82 15.01 4.07 16.4 16.08 7.35"/>
  <polygon points="12.97 6.59 11.36 6 10.28 8.31 12.38 8.19 12.97 6.59"/>
  <polygon points="5.39 13.44 5.42 13.42 6.3 12.68 7.82 11.41 7.57 11.3 6.08 10.64 5.3 12.12 5.39 13.42 5.39 13.44"/>
  <polygon points="19.08 4.18 17.74 5.17 17.24 6.4 20.32 5.63 19.08 4.18"/>
  <path d="M24.38,17.9H17.13v6.16h0v6.68l.66.65h1.15V27.17l3.27,4.2h4.33l3.28-4.2v4.22H31l.66-.65V24.85h0v-7Zm3.71,3.28H27.9l0,.09L27,22.8H21.45l-.89-1.62H18.13v-.89h3l.54,1,.35.64h4.5l.35-.64.54-1h3.15v.89Z"/>
  <polygon points="24.45 14.22 23.46 15.31 24.66 16.54 26.11 15.54 25.87 13.76 24.8 13.18 24.45 14.22"/>
</svg>