<svg xmlns="http://www.w3.org/2000/svg" aria-hidden="true" focusable="false" viewBox="0 0 36 36">
  <polygon points="9.68 21.65 9.51 21.01 8.2 19.96 5.32 20.08 4.88 20.1 4.81 19.66 4.68 18.84 4.6 18.31 5.14 18.27 8.36 18.08 11.66 14.79 6.64 16.82 11.51 7.63 4.84 16.46 5.07 12.47 2.79 18.32 3.94 21.69 9.29 24.97 6.3 21.28 9.68 21.65"/>
  <polygon points="9.51 18.51 8.57 18.57 8.2 18.59 7.83 18.61 5.17 18.77 5.3 19.59 7.61 19.49 7.99 19.48 8.37 19.46 8.98 19.44 9.74 19.99 9.94 20.72 10.05 21.12 10.16 21.53 10.21 21.71 10.28 21.97 10.35 22.22 10.37 22.31 10.57 22.25 11.17 22.06 11.21 22.05 11.46 21.97 11.45 21.93 10.75 19.51 9.51 18.51"/>
  <polygon points="12.07 22.3 11.96 22.34 11.84 22.37 11.81 22.38 11.6 22.45 10.5 22.79 10.27 22.86 10.03 22.93 10.01 22.94 10.18 23.48 10.56 24.75 11.04 26.35 11.14 26.68 13.3 33.9 15.49 33.22 12.21 22.26 12.07 22.3"/>
  <path d="M33.2,14l-.27-5.9a6.47,6.47,0,0,0-.11-.86,5.3,5.3,0,0,0-2.88,3.47l.12,4.73a7,7,0,0,1-2.11,5,.39.39,0,0,1-.27.11.35.35,0,0,1-.25-.1.38.38,0,0,1,0-.53,6.34,6.34,0,0,0,1.9-4.48l-.11-4.84a5.93,5.93,0,0,1,3.4-4.12,3.41,3.41,0,0,0-1-1.37l-2.7-2a7.89,7.89,0,0,0-4.14,4,.38.38,0,0,1-.35.25l-.12,0a.37.37,0,0,1-.23-.47A8.25,8.25,0,0,1,28,2.74a17,17,0,0,0-6.14-.6c-5.87.36-9.29,6-9.29,6l.58.47,6.69-.29a7,7,0,0,1,3.26.73l-2,.11-7,.22.5,7.47a2.25,2.25,0,0,0-.26.59c.74.42,3.84,1.8,8.87-.54l.56.3a12.88,12.88,0,0,1-6.35,1.91,6.17,6.17,0,0,1-2.94-.61,38.29,38.29,0,0,0,2.08,5.29l-.34.74s-1.09,3.24,2.58,3.34a9.59,9.59,0,0,0,6.29-2.43s6.33-7.33,7-8.25A5,5,0,0,0,33.2,14ZM21,16.64l-5.32.2a.37.37,0,0,1-.38-.35L15,10.57a.36.36,0,0,1,.35-.38L20.77,10a.36.36,0,0,1,.38.34l.24,5.9A.37.37,0,0,1,21,16.64Zm4.19,5.45L23.16,24a5.61,5.61,0,0,1-3.82,1.21,4.62,4.62,0,0,1-2.54-.62l.35-.71a4.56,4.56,0,0,0,2.92.57A5.59,5.59,0,0,0,23,23.4L25.38,21Zm1.27-9a1,1,0,0,1-.87.65c-.61,0-1.1-.76-1.1-1.68s.49-1.68,1.1-1.68a.94.94,0,0,1,.76.47L27,11a.84.84,0,0,1,.64.93,1,1,0,0,1-.51,1Z"/>
</svg>