<svg xmlns="http://www.w3.org/2000/svg" aria-hidden="true" focusable="false" viewBox="0 0 36 36">
  <path d="M27.76,20A9.25,9.25,0,0,0,20.53,9.54v.51a8.86,8.86,0,0,1,6.82,8.6,8.55,8.55,0,0,1-.06,1A2,2,0,0,1,27.76,20Z"/>
  <path d="M29.74,10.65a2.28,2.28,0,0,1-.14.65A13.27,13.27,0,0,1,11.63,30a2.78,2.78,0,0,1-.29.41,13.76,13.76,0,0,0,18.4-19.74Z"/>
  <path d="M26.37,7.94A2.42,2.42,0,0,1,27,7.81,13.76,13.76,0,0,0,20.5,5v.51A13.24,13.24,0,0,1,26.37,7.94Z"/>
  <path d="M7.51,26.9a2.37,2.37,0,0,1,.39-.32A13.23,13.23,0,0,1,9.45,9l.51.55A12.55,12.55,0,0,1,18,6.13V8.59a10,10,0,0,0-6.38,2.72l.51.54a9.32,9.32,0,1,0,13.59,12.7,2.39,2.39,0,0,1-.54-.15A8.82,8.82,0,1,1,12.5,12.22l.51.54a8.06,8.06,0,0,1,5-2.17V12.3A6.26,6.26,0,0,0,14.18,14l.51.54a5.63,5.63,0,1,0,5.87-1.14V14a5.14,5.14,0,1,1-5.53,1l.51.55A4.34,4.34,0,0,1,18,14.32V16.1a2.64,2.64,0,0,0-1.26.66,2.58,2.58,0,0,0,1.76,4.48,2.58,2.58,0,0,0,2.06-4.16v1.29a2.4,2.4,0,0,1,0,.28,2.1,2.1,0,0,1-4.19,0,2.07,2.07,0,0,1,.67-1.52,2,2,0,0,1,.92-.51v2a.51.51,0,0,0,.5.5.5.5,0,0,0,.5-.5V3.71a.5.5,0,0,0-.5-.5h0a.47.47,0,0,0-.4.23.45.45,0,0,0-.1.27v.42A14.53,14.53,0,0,0,8.6,8.06l.51.55A13.73,13.73,0,0,0,7.51,26.9Z"/>
  <path d="M25.31,10.4a1.85,1.85,0,0,0,3.7.1s0-.07,0-.1a1.92,1.92,0,0,0-.31-1c-.11-.12-.22-.25-.34-.36a1.78,1.78,0,0,0-1.2-.46h0A1.85,1.85,0,0,0,25.31,10.4Z"/>
  <path d="M25.71,23.78a2.22,2.22,0,0,0,.46.06h.12a1.84,1.84,0,0,0,1.31-3,1.9,1.9,0,0,0-.42-.38A1.86,1.86,0,0,0,24.31,22,1.86,1.86,0,0,0,25.71,23.78Z"/>
  <path d="M9.36,26.87a1.84,1.84,0,0,0-1,.3A1.94,1.94,0,0,0,8,27.5,1.85,1.85,0,0,0,10.71,30a2.34,2.34,0,0,0,.29-.41,1.91,1.91,0,0,0,.21-.85A1.85,1.85,0,0,0,9.36,26.87Z"/>
</svg>