<svg xmlns="http://www.w3.org/2000/svg" aria-hidden="true" focusable="false" viewBox="0 0 36 36">
  <path d="M13.19,11a.71.71,0,0,1,.72-.71h5.74V9.45s0-.08,0-.12H13.91A1.72,1.72,0,0,0,12.19,11v.46h1Z"/>
  <rect x="27.18" y="28.36" width="1.51" height="2.03"/>
  <rect x="23.15" y="28.36" width="1.51" height="2.03"/>
  <polygon points="28.18 20.8 31.2 20.78 31.2 19.45 28.15 19.45 28.18 20.8"/>
  <polygon points="28.18 16.3 31.2 16.28 31.2 10.83 28.15 10.83 28.18 16.3"/>
  <path d="M31.33,9.45c0-.88-.83-1.64-2.11-2.13H22.77c-1.22.47-2,1.19-2.09,2a.53.53,0,0,0,0,.12v.88l0,5.38a7.4,7.4,0,0,1,1.07,2.59,1.64,1.64,0,0,1,.74,1.37A1.61,1.61,0,0,1,21.76,21a7.51,7.51,0,0,1-1.13,3,2.54,2.54,0,0,0,1.52,1.67l.5.2.08,0h6.38l.08,0,.5-.2c1-.49,1.57-1.16,1.57-1.91v-2H28.15a.87.87,0,0,1-.4-.09,1,1,0,0,1-.5-.5,1,1,0,0,1-.07-.38V19.42a1,1,0,0,1,1-1h3.14V17.27H28.15a1,1,0,0,1-1-1V10.8a1,1,0,0,1,1-1h3.18Z"/>
  <polygon points="28.53 6.57 28.69 6.57 28.69 6.09 28.69 5.62 23.3 5.62 23.3 6.09 23.3 6.57 23.46 6.57 28.53 6.57"/>
  <polygon points="28.69 27.61 28.69 27.1 28.69 26.66 28.4 26.66 27.18 26.66 26.68 26.66 26.18 26.66 25.66 26.66 25.16 26.66 24.66 26.66 23.44 26.66 23.3 26.66 23.3 27.14 23.3 27.61 24.66 27.61 25.16 27.61 25.66 27.61 26.18 27.61 26.68 27.61 27.18 27.61 28.69 27.61"/>
  <path d="M20.11,18h.48a7.39,7.39,0,0,0-.47-1.21,8.39,8.39,0,0,0-.5-.81,6.72,6.72,0,0,0-2.43-2.09v0h-9v0A6.63,6.63,0,0,0,4.79,18H20.11Z"/>
  <polygon points="14.34 13.21 16.44 13.21 16.44 13.06 16.44 12.54 16.44 12.25 15.08 12.25 13.19 12.25 12.19 12.25 10.3 12.25 8.95 12.25 8.95 12.54 8.95 13.06 8.95 13.21 11.04 13.21 14.34 13.21"/>
  <polygon points="10.3 26.46 8.95 26.46 8.95 26.66 8.95 27.19 8.95 27.41 9.92 27.41 15.46 27.41 16.44 27.41 16.44 27.19 16.44 26.66 16.44 26.46 15.08 26.46 10.3 26.46"/>
  <path d="M18.66,26.08l-.18-.49-.18-.49a6.45,6.45,0,0,0,1.28-1.33,5.61,5.61,0,0,0,.5-.8,6.74,6.74,0,0,0,.51-1.27c0-.13.07-.26.1-.39h-16a6.63,6.63,0,0,0,2.54,3.9l-.18.48-.18.49L5.58,29.69H4v.69H7v-.69l1-2.85.15-.39,0-.08.18-.47.07-.19h0l.92-2.43H10l-.91,2.43h7.22l-.92-2.43H16l.93,2.43h0v0l.07.17L17,26h0l.12.33,0,.08.14.39,1.05,2.85v.69h3.05v-.69H20Z"/>
  <path d="M4.57,20.55H20.82a.94.94,0,0,0,.51-.19.87.87,0,0,0,.35-.69.88.88,0,0,0-.39-.72.86.86,0,0,0-.5-.17H4.59a.93.93,0,0,0-.89.89.9.9,0,0,0,.35.69A.94.94,0,0,0,4.57,20.55Z"/>
</svg>