<svg xmlns="http://www.w3.org/2000/svg" aria-hidden="true" focusable="false" viewBox="0 0 36 36">
  <path d="M20.4,6.46l0,0H14.91l4.16-2.22-.37-.63L3.08,12.77A2.16,2.16,0,1,0,5.26,16.5L20.88,7.29Z"/>
  <polygon points="21.14 6.25 21.83 7.43 22.96 6.77 20.07 1.82 18.94 2.48 19.74 3.84 21.14 6.25"/>
  <path d="M24.07,11.88s0,.53.53.53.52-.56.52-.56V6.3L24,4.62s-.26-.69-1.47-.69l1.53,2.48Z"/>
  <path d="M14.66,13.85l2,3.34a.46.46,0,0,1,.06.23V32.16a1.46,1.46,0,0,0,1.46,1.45h11a1.45,1.45,0,0,0,1.45-1.45V17.42a.55.55,0,0,1,.07-.24l2-3.33Zm15.15,2.83a1.38,1.38,0,0,0-.21.74v3.66h-.84V31.21H28V28.53H25.79v-.75H28v-1.4H25.79v-.75H28v-1.4H25.79v-.75H28V21.79H25.79v-.71h-8.1V17.42a1.47,1.47,0,0,0-.2-.74l-1.08-1.83H30.89Z"/>
  <polygon points="25.79 19.94 28.01 19.94 28.01 21.04 28.76 21.04 28.76 19.94 28.76 19.34 28.76 19.19 25.79 19.19 25.79 19.94"/>
</svg>