<svg xmlns="http://www.w3.org/2000/svg" aria-hidden="true" focusable="false" viewBox="0 0 36 36">
  <path d="M24,22.44l-.3.41H12.32l-.3-.41L11,21a15.34,15.34,0,0,1-3-1.06c.09.39.18.81.26,1.3C8.62,23.45,9.3,23.8,9.7,23.8a.58.58,0,0,0,.3-.08l.57,2.67s3.28,5.22,4.45,5.89a2.83,2.83,0,0,0,1.94.54H18c2,0,2.7-.21,3.5-.8s4.06-5.82,4.06-5.82l1-2.77a.39.39,0,0,0,.22.07c.28,0,.75-.31,1-2.26.07-.49.15-.91.23-1.3A15.49,15.49,0,0,1,25,21Z"/>
  <path d="M29.52,16.94a6.33,6.33,0,0,0-1.61-2.1l-.38.38,0,0-.45.45-.35.35-.12.12-.48.48c-.18.17-1.38,1-8.09,1s-7.92-.86-8.09-1l-.42-.42-.18-.18L9,15.79l-.44-.44-.13-.13-.38-.38a6.33,6.33,0,0,0-1.61,2.1l-.28.52.51.37.51.37.53.39.47.35a13.58,13.58,0,0,0,3.33,1.15l1.28,1.76H23.17l1.28-1.76a13.58,13.58,0,0,0,3.33-1.15l.47-.34.54-.4.5-.37.51-.37h0Z"/>
  <path d="M8.86,14.55l.42.42.43.43.66.66.07.07s1.13.81,7.56.81,7.53-.79,7.58-.83l.05-.05.76-.76.45-.45.38-.38.06-.06.25-.25V12.83a9.5,9.5,0,0,0-5.3-8.52v8l.49.48.39.4.24.24-.26.26-.27.27-.27-.27-.5-.5L21.86,13l-.2-.21-.18-.17v-10h-3V8.33h-1V2.61h-3V12.66l-.18.17-.2.21-.19.19-.5.5-.27.27-.27-.27-.26-.26.23-.24.4-.4.49-.48v-8a9.5,9.5,0,0,0-5.3,8.52v1.33l.31.31Z"/>
</svg>