<svg xmlns="http://www.w3.org/2000/svg" aria-hidden="true" focusable="false" viewBox="0 0 36 36">
  <path d="M31.68,14.39h0v0c-.31-.23-2.12.36-3.2.72l-1.38.44A4.49,4.49,0,0,1,27,17.44c-.07.35-.16.75-.22,1.2v0c2.3-.9,4-2.05,4.63-3.17a1.44,1.44,0,0,0,.28-.83v-.28Z"/>
  <path d="M8.24,17.59a5.82,5.82,0,0,1-.18-1.73c-.73-.23-1.41-.49-2-.72a8.07,8.07,0,0,0-2.51-.72.4.4,0,0,0,0,.11v.14a1.61,1.61,0,0,0,.29.83c.64,1.12,2.32,2.27,4.63,3.17C8.39,18.27,8.31,17.91,8.24,17.59Z"/>
  <polygon points="21.37 33 24.35 29.94 25.12 30.81 27.33 30.28 24.56 26.04 21.37 33"/>
  <path d="M24.52,20.52l.08-.24a.35.35,0,0,0,.19.06c.14,0,.35-.11.54-.61a3.92,3.92,0,0,0,.17-.61c0-.19.08-.39.11-.64A12.52,12.52,0,0,0,26,15.86l-.67.22a20.64,20.64,0,0,1-7.69,1.21A24.12,24.12,0,0,1,9.19,16.2c0,.54.25,1.27.41,2.28,0,.24.09.45.14.64a4.72,4.72,0,0,0,.2.63,1.67,1.67,0,0,0,.48.7.66.66,0,0,0,.37.14l.1,0,.15,0,0,.08.44,2.1s2.69,4.28,3.66,4.83a2.27,2.27,0,0,0,1.59.45h.86c1.67,0,2.21-.17,2.87-.66a44.28,44.28,0,0,0,3.33-4.77Z"/>
  <polygon points="7.66 30.28 9.88 30.81 10.53 30.07 13.49 33 10.43 26.04 7.66 30.28"/>
  <path d="M10.84,10.91H24.7c.4,0,1,.09,1.73.19A17.07,17.07,0,0,1,25.29,8c-.12-.59-.31-1.63-.45-2.52,0-.19-.06-.38-.08-.58s-.05-.36-.06-.5S24,3.21,19.74,3l-.33,0h-.05l-.65,0h-.6c-.58,0-1.12,0-1.62,0-4.31.25-5,1.45-5,1.45-.08.91-.21,1.79-.37,2.65A16.7,16.7,0,0,1,9.86,11c.39,0,.71-.06.91-.07ZM19.43,4a9.37,9.37,0,0,1,4.25.91c.12,1,.39,2.4.54,3.23,0,.67-.28,1-.8,1.1a1.46,1.46,0,0,1-.31,0,2.54,2.54,0,0,1-.7-.11,3.79,3.79,0,0,1-1.17-.52,4.19,4.19,0,0,1-.33-.26A4,4,0,0,1,20,7.54,4.78,4.78,0,0,1,19.43,4Z"/>
  <path d="M7.71,14.6l.36.12.36.12.19.06L9,15l.71.21a23.33,23.33,0,0,0,7.89,1h.68a18.32,18.32,0,0,0,5.79-.87l.64-.2L25,15l.86-.27.68-.21.1,0q.75-.22,1.5-.48h0a23.14,23.14,0,0,1,2.5-.72,13,13,0,0,0-2.85-.88l-.11,0-.36-.07-.26,0h-.14c-.47-.08-.92-.14-1.33-.19l-.36,0L24.58,12l-.17,0H10.8l-.3,0h-.09l-.2,0c-.3,0-.62.06-.94.1l-.43.06-.55.09h0a13.61,13.61,0,0,0-3.81,1.13,18.28,18.28,0,0,1,2,.7Z"/>
</svg>