<svg xmlns="http://www.w3.org/2000/svg" aria-hidden="true" focusable="false" viewBox="0 0 36 36">
  <path d="M13.15,25.87,16,21.68a3.52,3.52,0,0,0,.56.74,4.61,4.61,0,0,0,.5.4l-.81-3.13.81-3.13a4.72,4.72,0,0,0-.5.41,4,4,0,0,0-.57.74l-2.88-4.19,4,2.77,1.72-6.57V8.5a11.09,11.09,0,0,0-7.18,3l1.42,1.42-.32.29c-.11.1-.2.22-.3.32L11.1,12.09a11.15,11.15,0,0,0-3,7.17h2q0,.43,0,.87h-2a11.15,11.15,0,0,0,3,7.17l1.41-1.41c.1.1.19.22.3.32l.32.29-1.42,1.42a11.17,11.17,0,0,0,7.18,3V29.66L17.17,23.1Zm-.55-6.18,2.92-.53a3.84,3.84,0,0,0,0,1.07Z"/>
  <path d="M28.66,10.36A13.19,13.19,0,0,0,11.55,9l-.76-.76L10.11,9l-.42-.41a3.56,3.56,0,1,0-1.52,1.51l.42.42-.68.68.76.76a13.2,13.2,0,1,0,20-1.56ZM4.75,8.73a2.55,2.55,0,1,1,4.18-.9.94.94,0,0,0-1.23.09l-.15.15A.94.94,0,0,0,7.46,9.3,2.54,2.54,0,0,1,4.75,8.73ZM27.87,28.24a12.09,12.09,0,1,1,0-17.09A12,12,0,0,1,27.87,28.24Z"/>
  <path d="M28.52,19.26h2a11.17,11.17,0,0,0-3-7.18L26.13,13.5c-.1-.11-.19-.22-.29-.32l-.33-.29,1.42-1.42a11.09,11.09,0,0,0-7.17-3V9.71l1.71,6.58,4-2.77-2.88,4.19A4,4,0,0,0,22,17a3.72,3.72,0,0,0-.49-.4l.81,3.12-.81,3.13a3.72,3.72,0,0,0,.49-.4,4,4,0,0,0,.57-.74l2.88,4.19-4-2.77-1.71,6.58v1.21a11.15,11.15,0,0,0,7.17-3L25.51,26.5l.33-.29c.1-.1.19-.22.29-.32l1.42,1.42a11.19,11.19,0,0,0,3-7.18h-2Q28.54,19.7,28.52,19.26Zm-5.4,1a3.91,3.91,0,0,0,0-1.08l2.93.54Z"/>
  <path d="M19.32,22.46A2.8,2.8,0,0,1,18,22.1l1.35,5.18,1.36-5.18A2.81,2.81,0,0,1,19.32,22.46Z"/>
  <path d="M18,19.18a1.45,1.45,0,0,0-.1.51h0a1.45,1.45,0,0,0,.1.51,1.54,1.54,0,0,0,.33.51,1.44,1.44,0,0,0,2,0,1.52,1.52,0,0,0,.32-.51,1.45,1.45,0,0,0,.1-.51h0a1.45,1.45,0,0,0-.1-.51,1.32,1.32,0,0,0-.33-.51,1.41,1.41,0,0,0-1-.42,1.43,1.43,0,0,0-1,.42A1.6,1.6,0,0,0,18,19.18Z"/>
</svg>