<svg xmlns="http://www.w3.org/2000/svg" aria-hidden="true" focusable="false" viewBox="0 0 36 36">
  <polygon points="15.59 25.31 18.57 28.22 21.54 25.31 21.54 21.1 22.3 20.71 22.3 18.94 21.54 19.33 15.59 22.43 14.85 22.81 14.85 24.59 15.59 24.2 15.59 25.31"/>
  <polygon points="15.59 17.5 21.54 14.41 21.54 12.55 22.3 12.16 22.3 10.38 21.54 10.77 15.59 13.87 14.85 14.26 14.85 16.03 15.59 15.64 15.59 17.5"/>
  <polygon points="21.54 4.47 15.59 4.47 15.59 8.95 21.54 5.85 21.54 4.47"/>
  <polygon points="15.59 13.06 21.54 9.97 21.54 8.43 22.3 8.04 22.3 6.26 21.54 6.66 15.59 9.76 14.85 10.14 14.85 11.91 15.59 11.53 15.59 13.06"/>
  <polygon points="15.59 21.62 21.54 18.52 21.54 16.99 22.3 16.6 22.3 14.82 21.54 15.21 15.59 18.31 14.85 18.7 14.85 20.47 15.59 20.09 15.59 21.62"/>
  <polygon points="25.8 14.59 26.26 13.19 25.06 12.32 23.87 13.19 24.33 14.59 25.8 14.59"/>
  <polygon points="31.02 7.17 30.23 5.63 28.52 5.9 28.25 7.61 29.79 8.39 31.02 7.17"/>
  <polygon points="28.03 13.51 28.8 12.74 28.31 11.77 27.23 11.94 27.08 12.89 27.06 13.02 27.08 13.03 28.03 13.51"/>
  <polygon points="7.48 7.85 8.42 6.4 7.33 5.05 5.71 5.67 5.81 7.4 7.48 7.85"/>
  <polygon points="7.58 10.8 7.91 11.82 8.98 11.82 9.31 10.8 8.44 10.18 7.58 10.8"/>
  <polygon points="13.6 12.97 12.87 11.4 11.15 11.61 10.82 13.31 12.33 14.15 13.6 12.97"/>
  <path d="M24.5,16.16v8.73a2.26,2.26,0,0,1-1.05,1.92L18.6,31.43l-5.26-4.59a2.28,2.28,0,0,1-1-1.87V16.15L1.72,13.32v1.5l9.2,2.45V25a3.69,3.69,0,0,0,1.52,3l6.2,5.42L24.3,28A3.7,3.7,0,0,0,26,24.89V17.26l8.79-2.5V13.25Z"/>
</svg>