<svg xmlns="http://www.w3.org/2000/svg" aria-hidden="true" focusable="false" viewBox="0 0 36 36">
  <path d="M11,24.91c-.73-.29-1.19-1.22-1.37-2.77a6.71,6.71,0,0,0-.21-1.07,1.62,1.62,0,0,1,1.11-2.26h0c.05-.18.11-.39.18-.61a6.24,6.24,0,0,1-1.14-1.43,5,5,0,0,0-1.12,3.49c.07.57.15,1.08.22,1.54a5.64,5.64,0,0,1-.06,3.27,4.32,4.32,0,0,0-.12,3.17c.29.95-.35,1.76-1,2.54s-1.15,1.55-1,2.29c1.83.12,5.93.06,7.45-1.38a2.64,2.64,0,0,0,.52-1.4C12.79,28.93,11.5,26.15,11,24.91Z"/>
  <path d="M27.67,32.63c-.61-.69-1.3-1.46-.94-2.45.52-1.39.41-2-.15-4.21a6.61,6.61,0,0,1,0-2.39,16.23,16.23,0,0,0,.11-2.24,6,6,0,0,0-2.84-5.2,8.26,8.26,0,0,1,.81,2.21l.18.07a1.79,1.79,0,0,1,1,2.5,6.17,6.17,0,0,0-.24,1.2c-.16,1.73-.87,2.3-1.43,2.48-.54,1.31-1.91,4.32-3.56,5.73l0,0,0,0-.06,0a5.07,5.07,0,0,0,.66,2.84c1.52,1.45,5.61,1.5,7.45,1.38C28.76,34,28.34,33.4,27.67,32.63Z"/>
  <path d="M23.46,23.63a.59.59,0,0,0,.22,0c.28,0,.77-.22.9-1.64.16-1.71.92-2.24-.15-2.67l-.63.18a7.6,7.6,0,0,0-1.09-3.28l-.52.18-.78.25-.76.2a9.54,9.54,0,0,1-2.15.28,2.83,2.83,0,0,0-2.17.93l0,0-.44.37a3.88,3.88,0,0,1-.56.37,3.76,3.76,0,0,1-1.87.44,3.83,3.83,0,0,1-1.86-.48,7.19,7.19,0,0,0-.2,1l-.48-.1c-1.06.43-.47.58-.27,2.28s.65,2,.9,2a.37.37,0,0,0,.17,0,16.16,16.16,0,0,0,3,5.11,5.08,5.08,0,0,0,.5.44l.08.06a3.09,3.09,0,0,0,.42.22,5,5,0,0,0,1.92.36,4.77,4.77,0,0,0,1.81-.32,2.71,2.71,0,0,0,.54-.26h0a7.07,7.07,0,0,0,.54-.55A21.17,21.17,0,0,0,23.46,23.63ZM16.2,20.87a2.08,2.08,0,0,1-.55.29,2.62,2.62,0,0,1-.54.12,5.35,5.35,0,0,1-2.65-.59,4,4,0,0,1,2.75-.58,2.35,2.35,0,0,1,.51.15,2.89,2.89,0,0,1,.51.27,1.94,1.94,0,0,1,.19.16A1.24,1.24,0,0,1,16.2,20.87Zm2.6-.18,0,0a2.12,2.12,0,0,1,.5-.33,3.19,3.19,0,0,1,.51-.2,4,4,0,0,1,3,.55,5.33,5.33,0,0,1-2.92.57,2.6,2.6,0,0,1-.54-.17,1.89,1.89,0,0,1-.56-.39Z"/>
  <path d="M14.63,15.47l-.59.07-.58.07-.16,0c-.29,0-.56.09-.8.14s-.51.12-.73.19a5.6,5.6,0,0,0-1.33.53,5,5,0,0,0,.61.78,4.3,4.3,0,0,0,.81.68,2.94,2.94,0,0,0,1.58.47A2.86,2.86,0,0,0,15,18a4.23,4.23,0,0,0,.42-.32l.28-.24.12-.11a3.63,3.63,0,0,1,2.65-1.05,10,10,0,0,0,2.85-.51l.51-.16-.37-.05a36.55,36.55,0,0,0-4.32-.22C16.2,15.37,15.36,15.41,14.63,15.47Z"/>
  <path d="M9,9.43l.7,3.82a23.06,23.06,0,0,1,7.43-1.09h.48a29.61,29.61,0,0,1,7.91,1l.69-3.77.81-.4.29-2.49L25.73,8.06V9.17l-2.47,2.31L22.5,7l.66-.61-.42-2.45-1.37,2,.4.9-2.18,3.93L18.18,5.85,19,4.39,17.79,1.85,16.64,4.43l.58,1.07L15.7,10.71,13.52,6.78l.4-.9-1.37-2-.42,2.45L12.8,7,12,11.48,9.56,9.17V8.06L7.94,6.54,8.23,9Z"/>
  <path d="M22.25,14.94c.31,0,.6.09.85.14l.86.2a5.46,5.46,0,0,1,.61.2h0l0,0v0l.24-.39.26-.42.25-.41.14-.24-.09,0a29,29,0,0,0-7.23-1l-.55,0h-.48a25.45,25.45,0,0,0-4,.31c-.63.1-1.19.21-1.69.33s-1.17.32-1.59.46a9.1,9.1,0,0,0-.85.33l.53.82,0,.08.24.36v0l.17.27a4.5,4.5,0,0,1,.63-.32A10.17,10.17,0,0,1,12.49,15l.52-.09.39-.07.19,0,.58-.07.3,0c.78-.07,1.67-.12,2.7-.12a39,39,0,0,1,4,.19l.73.08Z"/>
</svg>