<svg xmlns="http://www.w3.org/2000/svg" aria-hidden="true" focusable="false" viewBox="0 0 36 36">
  <path d="M20.11,15.53,20,15,19.42,3.67a1.86,1.86,0,0,0-.89-1.16,1.81,1.81,0,0,0-1.84.16,1.09,1.09,0,0,0-.36.88L16,16.83C17.77,16.25,19.56,15.7,20.11,15.53Z"/>
  <path d="M28.46,17a3.24,3.24,0,0,0-2.72,1.75c-.26.41-.77,1.41-1.26,2.4l-.56-1.6L24,17.36l.44-11.51s-.07-1.53-.84-1.93A1.72,1.72,0,0,0,21.73,4a.87.87,0,0,0-.43.87L20.38,16.2l-.07,0L20.23,16c-1,.38-6.45,2.46-7.91,3.05a2.32,2.32,0,0,0-1.38,2l-1,.83c0-.12.2-2.93,2.07-3.7.71-.28,2.3-.81,3.89-1.33l-.36-1L14.68,5.64s-.3-.93-.91-1.12a1.48,1.48,0,0,0-1.51.19A3.56,3.56,0,0,0,11.7,6.2L12,18.14l-.56-1.73-1-6.13a.88.88,0,0,0-.75-.75,1.37,1.37,0,0,0-1.48.6,2.1,2.1,0,0,0-.36,1.31L8.6,21.8l.66,6s1.86,3.53,5,4.69a11.42,11.42,0,0,0,6.64,0S25.42,31,26,29.18s1.19-3.8,1.19-3.8l1-2.7,2-5A2.7,2.7,0,0,0,28.46,17Zm-6.33,7.83a12.81,12.81,0,0,0-.68,3.9l-.79-1.05a8.37,8.37,0,0,1,.74-3.36,26.25,26.25,0,0,1,2.47-2.43l.35.28S22.63,24.13,22.13,24.86Z"/>
</svg>