<svg xmlns="http://www.w3.org/2000/svg" aria-hidden="true" focusable="false" viewBox="0 0 36 36">
  <path d="M18.63,10.25a6.42,6.42,0,0,0-6.42,6.42,6.46,6.46,0,0,0,1.88,4.56,56.22,56.22,0,0,1,2.46,5.56h4.16c-.07,0,2.39-5.59,2.46-5.56a6.43,6.43,0,0,0-4.54-11Zm-3.36,3.59a3.39,3.39,0,0,0-.86,2.25.48.48,0,0,1-.47.42h-.06a.47.47,0,0,1-.41-.53,4.24,4.24,0,0,1,1.24-2.91,4.13,4.13,0,0,1,2.9-1.18.47.47,0,0,1,0,.94,3.19,3.19,0,0,0-2.26.94Zm4.38,11.81a.46.46,0,0,1-.46.38H19.1a.47.47,0,0,1-.37-.56l1-4.8-.89.44a.51.51,0,0,1-.42,0l-.84-.43,1,4.8a.47.47,0,0,1-.93.18l-1.14-5.74a.46.46,0,0,1,.17-.46.48.48,0,0,1,.5-.05l1.5.75,1.54-.75a.46.46,0,0,1,.49.05.49.49,0,0,1,.18.47Z"/>
  <polygon points="20.87 27.32 16.2 28.24 16.23 29.17 18.07 29.41 16.2 29.78 16.22 30.71 18.24 31.02 16.2 31.42 16.38 32.35 21.05 31.42 21.03 30.5 19.02 30.19 21.05 29.78 21.02 28.85 19.18 28.61 21.05 28.24 20.87 27.32"/>
  <polygon points="17.4 33.79 19.84 33.79 20.62 33.01 20.66 32.3 16.6 32.99 17.4 33.79"/>
  <path d="M18.62,8a.48.48,0,0,0,.47-.48V1.47a.47.47,0,1,0-.94,0V7.54A.48.48,0,0,0,18.62,8Z"/>
  <path d="M13.22,9.88a.46.46,0,0,0,.23-.06.48.48,0,0,0,.18-.65L12,6.41a.47.47,0,0,0-.82.47l1.6,2.77A.48.48,0,0,0,13.22,9.88Z"/>
  <path d="M30.5,13.14a.48.48,0,0,0-.58-.33l-3.08.82a.47.47,0,0,0,.12.93h.12l3.09-.83A.47.47,0,0,0,30.5,13.14Z"/>
  <path d="M10.42,13.63l-3.09-.82a.48.48,0,0,0-.58.33.49.49,0,0,0,.34.58l3.08.83h.13a.47.47,0,0,0,.12-.93Z"/>
  <path d="M25.85,6.24a.46.46,0,0,0-.64.17l-1.6,2.76a.48.48,0,0,0,.17.65.53.53,0,0,0,.24.06.45.45,0,0,0,.4-.23L26,6.88A.47.47,0,0,0,25.85,6.24Z"/>
</svg>