<svg xmlns="http://www.w3.org/2000/svg" aria-hidden="true" focusable="false" viewBox="0 0 256 256">
  <defs>
    <style>
      .AdalianIcon-1,.AdalianIcon-2,.AdalianIcon-3{fill:currentColor;}
      .AdalianIcon-2{opacity:.5;}
      .AdalianIcon-3{opacity:.25;}
    </style>
  </defs>
  <g>
    <path class="AdalianIcon-1" d="M219.73,145.71c0,14.32-3.31,27.89-9.19,39.98l1.21,2.7c6.56-12.82,10.28-27.32,10.28-42.68,0-16.87-4.49-32.71-12.3-46.41-.59,.49-1.26,.88-2,1.15,7.62,13.37,11.99,28.81,11.99,45.26Z"/>
    <path class="AdalianIcon-1" d="M102.8,57.52l1.23-2.75c-4.91,1.3-9.66,2.99-14.22,5.03,.45,.62,.79,1.32,1,2.08,3.87-1.72,7.87-3.18,12-4.36Z"/>
    <path class="AdalianIcon-1" d="M79.45,67.93c-.5-.58-.9-1.25-1.17-1.99-8.37,5.23-15.85,11.74-22.19,19.25,.7,.34,1.34,.8,1.88,1.35,6.14-7.26,13.39-13.55,21.48-18.62Z"/>
    <path class="AdalianIcon-1" d="M45.45,185.69c-5.88-12.09-9.19-25.66-9.19-39.98,0-17.88,5.16-34.57,14.04-48.69-.7-.35-1.32-.82-1.85-1.38-9.17,14.51-14.49,31.67-14.49,50.07,0,15.36,3.73,29.86,10.28,42.68l1.21-2.7Z"/>
    <path class="AdalianIcon-1" d="M200.65,89.8c.52-.57,1.14-1.04,1.83-1.4-4.29-5.56-9.17-10.64-14.57-15.12-.37,.69-.85,1.3-1.43,1.81,5.25,4.36,10,9.3,14.17,14.71Z"/>
    <path class="AdalianIcon-1" d="M176.04,67.6c.31-.72,.74-1.36,1.27-1.92-7.77-4.8-16.28-8.51-25.33-10.9l1.23,2.75c8.12,2.33,15.79,5.73,22.83,10.07Z"/>
    <path class="AdalianIcon-3" d="M92.08,126.1c-2.11,2.72-3.91,5.69-5.36,8.85-.26,.58-.52,1.16-.76,1.74-.72,1.76-1.33,3.58-1.83,5.45-.99,3.73-1.52,7.66-1.52,11.7,0,4.7,.71,9.24,2.04,13.5,.66,2.13,1.48,4.2,2.44,6.18,.64,1.32,1.34,2.61,2.1,3.86,2.65,4.37,6.02,8.25,9.95,11.49,1.12,.93,2.29,1.8,3.49,2.61,1.15,.77,2.33,1.49,3.55,2.16,.78,.43,1.58,.84,2.4,1.22,.84,.4,1.7,.77,2.57,1.12,3.51,1.41,7.23,2.38,11.11,2.87,1.89,.24,3.81,.38,5.76,.38s3.87-.14,5.76-.38c3.88-.49,7.6-1.47,11.11-2.87,.87-.35,1.73-.72,2.57-1.12,.81-.39,1.61-.79,2.4-1.22,1.22-.67,2.4-1.39,3.55-2.16,1.21-.82,2.37-1.69,3.49-2.61,3.92-3.24,7.29-7.12,9.95-11.49,.76-1.25,1.46-2.54,2.1-3.86,.96-1.98,1.77-4.05,2.44-6.18,1.33-4.26,2.04-8.8,2.04-13.5,0-4.05-.53-7.97-1.52-11.7-.5-1.87-1.11-3.69-1.83-5.45-.24-.59-.49-1.17-.76-1.74-1.45-3.16-3.26-6.13-5.36-8.85-6.32-8.17-15.37-14.12-25.78-16.49h0c-.82,2.28-2.37,4.2-4.38,5.47-1.67,1.06-3.64,1.68-5.76,1.68s-4.09-.62-5.76-1.68c-2.01-1.28-3.57-3.2-4.38-5.47h0c-10.41,2.38-19.46,8.33-25.78,16.49Z"/>
    <path class="AdalianIcon-2" d="M210.39,190.98l-1.19-2.66-4.24-9.48-1.3-2.9-47.79-106.81-1.28-2.87-4.26-9.52-1.18-2.64-15.38-34.39V62.13c-1.91-.13-3.82-.22-5.76-.22s-3.86,.09-5.76,.22V19.71l-15.38,34.39-1.18,2.64-4.26,9.52-1.28,2.87-47.79,106.81-1.3,2.9-4.24,9.48-1.19,2.66-6.44,14.39c-.52,3.56,1.68,7.01,5.11,8.05h38.84l3.67-2.28,19.58-12.18c-.81-.39-1.6-.8-2.38-1.23-.76-.42-1.51-.86-2.25-1.32-14.25-8.83-23.77-24.6-23.77-42.56,0-23.9,16.85-43.93,39.3-48.86,.31-3.41,2.22-6.36,4.97-8.11v-32.44c1.91-.13,3.82-.23,5.76-.23s3.86,.09,5.76,.23v32.44c2.75,1.75,4.66,4.7,4.97,8.11,22.45,4.93,39.3,24.96,39.3,48.86,0,17.96-9.52,33.74-23.77,42.56-.74,.46-1.49,.9-2.25,1.32-.78,.43-1.58,.84-2.38,1.23l19.58,12.18,3.67,2.28h38.84c3.43-1.04,5.64-4.49,5.11-8.05l-6.44-14.39Z"/>
    <path class="AdalianIcon-1" d="M204.86,97.33c.2,.04,.42,.06,.63,.06,.14,0,.27-.02,.41-.04,.07,0,.15,0,.22-.02,.41-.08,.79-.25,1.12-.47,.26-.17,.48-.39,.67-.63,.06-.07,.12-.14,.17-.21,.34-.5,.53-1.1,.53-1.75s-.2-1.25-.53-1.75c-.16-.24-.37-.45-.59-.64-.54-.46-1.24-.74-2.01-.74-.31,0-.6,.06-.89,.14,0,0,0,0,0,0-.51,.15-.96,.41-1.33,.77-.19,.19-.35,.42-.48,.65-.27,.46-.43,.99-.43,1.56,0,1.51,1.07,2.78,2.5,3.07Z"/>
    <path class="AdalianIcon-1" d="M158.93,70.33c29.64,12.21,50.56,41.39,50.56,75.38,0,9.53-1.66,18.67-4.68,27.18l1.34,2.99c3.63-9.37,5.64-19.54,5.64-30.17,0-35.79-22.57-66.4-54.21-78.39l1.35,3.01Z"/>
    <path class="AdalianIcon-1" d="M97.07,70.33l1.35-3.01c-31.65,11.98-54.21,42.59-54.21,78.39,0,10.63,2.01,20.8,5.64,30.17l1.34-2.99c-3.02-8.51-4.68-17.65-4.68-27.18,0-33.99,20.92-63.17,50.56-75.38Z"/>
    <path class="AdalianIcon-1" d="M133.76,226.97c-1.91,.13-3.82,.23-5.76,.23s-3.86-.09-5.76-.23c-13.03-.92-25.23-4.9-35.86-11.24h-4.33c11.7,7.7,25.42,12.54,40.19,13.55,1.91,.13,3.82,.22,5.76,.22s3.86-.09,5.76-.22c14.77-1.01,28.49-5.85,40.19-13.55h-4.33c-10.64,6.35-22.83,10.33-35.86,11.24Z"/>
    <path class="AdalianIcon-1" d="M128,55.95c1.29,0,2.41-.79,2.88-1.91,.16-.38,.25-.79,.25-1.23,0-.38-.08-.74-.2-1.08-.44-1.2-1.58-2.05-2.93-2.05s-2.49,.86-2.93,2.05c-.12,.34-.2,.7-.2,1.08,0,.44,.09,.85,.25,1.23,.48,1.12,1.59,1.91,2.88,1.91Z"/>
    <path class="AdalianIcon-1" d="M81.39,64.28c.15,.73,.57,1.37,1.13,1.81,.53,.42,1.2,.69,1.94,.69,1.51,0,2.78-1.07,3.07-2.5,.04-.2,.06-.42,.06-.63,0-.09-.02-.17-.03-.25-.01-.13-.01-.26-.04-.38-.08-.41-.25-.79-.47-1.12-.14-.21-.32-.4-.51-.57h0c-.11-.1-.22-.2-.34-.28-.5-.34-1.1-.53-1.75-.53s-1.25,.2-1.75,.53c-.33,.23-.62,.51-.85,.85-.23,.33-.39,.71-.47,1.12-.04,.2-.06,.41-.06,.63,0,.15,.02,.3,.05,.45,0,.06,0,.12,.02,.18Z"/>
    <path class="AdalianIcon-1" d="M50.48,92.56c.37,.71,.99,1.25,1.75,1.51,.32,.11,.66,.18,1.02,.18,1.51,0,2.78-1.07,3.07-2.5,.04-.2,.06-.42,.06-.63s-.02-.43-.06-.63c-.08-.41-.25-.79-.47-1.12-.02-.04-.06-.06-.08-.1h0c-.21-.29-.47-.55-.76-.75-.35-.24-.76-.4-1.2-.48-.18-.03-.36-.06-.55-.06-.65,0-1.25,.2-1.75,.53-.33,.23-.62,.51-.85,.85-.23,.33-.39,.71-.47,1.12-.04,.2-.06,.41-.06,.63s.02,.43,.06,.63c.06,.29,.17,.55,.3,.81Z"/>
    <path class="AdalianIcon-1" d="M182.09,73.32c.58,0,1.12-.17,1.59-.45,.23-.13,.44-.29,.62-.47,.37-.37,.63-.84,.78-1.35,.08-.28,.14-.56,.14-.86,0-.86-.35-1.65-.92-2.21-.57-.57-1.35-.92-2.21-.92-.66,0-1.27,.2-1.77,.55-.16,.11-.31,.23-.44,.37-.42,.42-.71,.95-.84,1.55-.05,.22-.08,.44-.08,.67,0,.86,.35,1.65,.92,2.21s1.35,.92,2.21,.92Z"/>
    <path class="AdalianIcon-1" d="M122.24,110.49s.07,.1,.11,.14c.3,.36,.63,.69,.99,.99,.36,.3,.75,.56,1.17,.79s.85,.41,1.31,.56c.69,.21,1.42,.33,2.18,.33,.51,0,1-.05,1.48-.15,.24-.05,.47-.11,.7-.18,.38-.12,.75-.28,1.11-.45,.49-.25,.96-.54,1.38-.89,.36-.3,.69-.63,.99-.99,.04-.05,.07-.1,.11-.14,.37-.47,.69-.99,.93-1.55h0s.04-.08,.06-.12c.19-.44,.33-.9,.43-1.38,.1-.48,.15-.97,.15-1.48,0-.57-.07-1.11-.19-1.64-.24-1.07-.72-2.04-1.37-2.87-.33-.42-.69-.8-1.1-1.14-.54-.45-1.15-.82-1.81-1.1-.44-.19-.9-.33-1.38-.43-.48-.1-.97-.15-1.48-.15-2.34,0-4.42,1.1-5.76,2.81-.65,.83-1.13,1.81-1.37,2.87-.12,.53-.19,1.08-.19,1.64,0,.51,.05,1,.15,1.48,.1,.48,.24,.94,.43,1.38,.02,.04,.04,.08,.06,.12h0c.25,.56,.56,1.07,.93,1.55Z"/>
  </g>
  <g>
    <polygon class="AdalianIcon-1" points="137.61 149.55 132.94 148.92 132.31 144.24 128 112.32 123.69 144.24 123.06 148.92 118.39 149.55 86.47 153.85 86.47 153.85 118.39 158.16 123.06 158.79 123.69 163.46 128 195.38 132.31 163.46 132.94 158.79 137.61 158.16 169.53 153.85 169.53 153.85 137.61 149.55"/>
    <polygon class="AdalianIcon-1" points="121.02 146.87 121.52 143.12 112.67 138.52 117.26 147.37 121.02 146.87"/>
    <polygon class="AdalianIcon-1" points="134.98 160.84 134.48 164.59 143.33 169.18 138.74 160.33 134.98 160.84"/>
    <polygon class="AdalianIcon-1" points="138.74 147.37 143.33 138.52 134.48 143.12 134.98 146.87 138.74 147.37"/>
    <polygon class="AdalianIcon-1" points="117.26 160.33 112.67 169.18 121.52 164.59 121.02 160.84 117.26 160.33"/>
  </g>
  <g>
    <path class="AdalianIcon-1" d="M101.46,196.23l-20.18,12.56H46.43c-1.33,0-2.04-.87-2.28-1.24-.24-.37-.75-1.37-.2-2.59L122.24,29.99v-11.28L39.74,203.07c-2.17,4.85,1.38,10.32,6.69,10.32h36.17l23.47-14.6c-1.58-.78-3.12-1.63-4.61-2.56Z"/>
    <path class="AdalianIcon-1" d="M216.26,203.07L133.76,18.7v11.28l78.29,174.97c.55,1.22,.04,2.22-.2,2.59-.24,.37-.95,1.24-2.28,1.24h-34.86l-20.18-12.56c-1.48,.93-3.02,1.79-4.61,2.56l23.47,14.6h36.17c5.31,0,8.86-5.48,6.69-10.32Z"/>
  </g>
</svg>
