<svg xmlns="http://www.w3.org/2000/svg" aria-hidden="true" focusable="false" viewBox="0 0 64 64">
  <path d="m53.88,34.44c0-1.01-.44-1.98-1.25-2.88-.11,1.32-.66,2.51-1.49,3.44-1.04,2.15-7.7,5.5-19.14,5.5-12.49,0-19.3-4.01-19.3-6.06,0-.55.51-1.25,1.48-1.97,2.62-1.96,8.7-4.09,17.82-4.09,3.38,0,6.33.29,8.85.76v-2.6c-2.71-.47-5.7-.74-8.85-.74-12.08,0-21.88,3.87-21.88,8.64,0,.07.02.14.03.21,0,.05-.03.09-.03.13,0,12.08,9.79,21.88,21.88,21.88s21.88-9.79,21.88-21.88c0-.05-.02-.09-.03-.13,0-.07.03-.14.03-.21Z"/>
  <path d="m57.61,18.52h-9.14v-9.14c0-.95-.77-1.72-1.72-1.72s-1.72.77-1.72,1.72v9.14h-9.14c-.95,0-1.72.77-1.72,1.72s.77,1.72,1.72,1.72h9.14v9.14c0,.95.77,1.72,1.72,1.72s1.72-.77,1.72-1.72v-9.14h9.14c.95,0,1.72-.77,1.72-1.72s-.77-1.72-1.72-1.72Z"/>
</svg>