<svg xmlns="http://www.w3.org/2000/svg" aria-hidden="true" focusable="false" viewBox="0 0 64 64">
  <path d="M51.42,36.33c0-2.58-3.24-4.86-8.2-6.25l-1.86,1.86c3.02.71,5.2,1.7,6.46,2.64.86.64,1.31,1.26,1.31,1.75,0,1.83-6.05,5.38-17.13,5.38s-17.14-3.56-17.14-5.38c0-.49.45-1.11,1.31-1.75,1.27-.95,3.45-1.94,6.48-2.65l-1.86-1.86c-4.96,1.39-8.21,3.67-8.21,6.26,0,.06.02.13.02.19,0,.04-.02.08-.02.12,0,10.73,8.7,19.42,19.42,19.42s19.42-8.7,19.42-19.42c0-.04-.02-.08-.02-.12,0-.06.02-.12.02-.19Z"/>
  <path d="M32.01,34.59c-.32,0-.64-.12-.88-.37l-12.26-12.26c-.49-.49-.49-1.28,0-1.77s1.28-.49,1.77,0l11.38,11.38,11.38-11.38c.49-.49,1.28-.49,1.77,0s.49,1.28,0,1.77l-12.26,12.26c-.24.24-.56.37-.88.37Z"/>
  <path d="M32.01,24.82c-.33,0-.65-.13-.88-.37l-12.26-12.26c-.49-.49-.49-1.28,0-1.77s1.28-.49,1.77,0l11.38,11.38,11.38-11.38c.49-.49,1.28-.49,1.77,0s.49,1.28,0,1.77l-12.26,12.26c-.23.23-.55.37-.88.37Z"/>
</svg>