<svg xmlns="http://www.w3.org/2000/svg" aria-hidden="true" focusable="false" viewBox="0 0 24 24">
  <path d="M17.54,9.17l-3.37-3.42c-.46-.47-1.21-.47-1.67,0l-2.98,3.02c-.46,.47-.46,1.22,0,1.69s1.21,.47,1.67,0l1.27-1.28,5.48,5.56,5.13,.17v-6.35l-5.52,.62Z"/>
  <path d="M12.39,10.86v-.2l-.49,.5c-.41,.42-.96,.65-1.55,.65s-1.13-.23-1.55-.65c-.84-.85-.84-2.24,0-3.1l1.15-1.17h-.55c-.79,0-1.54,.32-2.09,.88l-1.38,1.4-5-.62v6.75l6.43-.57,2.51,2.55c.46,.47,1.21,.47,1.67,0l.56-.56,.56,.56c.46,.47,1.21,.47,1.67,0l.53-.53,.53,.53c.46,.47,1.21,.47,1.67,0,.46-.47,.46-1.22,0-1.69l-4.66-4.73Z"/>
</svg>