<?xml version="1.0" encoding="UTF-8"?>
<svg id="Layer_1" data-name="Layer 1" xmlns="http://www.w3.org/2000/svg" viewBox="0 0 24 24">
  <defs>
    <style>
      .cls-1 {
        fill: #fff;
      }
    </style>
  </defs>
  <path class="cls-1" d="m22.55,19.98l-3.14-3.14c.82-1.12,1.31-2.49,1.31-3.98,0-3.72-3.03-6.75-6.75-6.75s-6.75,3.03-6.75,6.75,3.03,6.75,6.75,6.75c1.69,0,3.24-.63,4.42-1.66l3.1,3.1,1.06-1.06Zm-8.58-1.87c-2.89,0-5.25-2.35-5.25-5.25s2.35-5.25,5.25-5.25,5.25,2.35,5.25,5.25-2.35,5.25-5.25,5.25Z"/>
  <rect class="cls-1" x="5.69" y="2.98" width="3.43" height="3.43" transform="translate(-1.16 6.61) rotate(-45)"/>
  <rect class="cls-1" x="2.36" y="8.81" width="3.43" height="3.43" transform="translate(-6.25 5.96) rotate(-45)"/>
  <rect class="cls-1" x="12.26" y="11.15" width="3.43" height="3.43" transform="translate(-5 13.65) rotate(-45)"/>
</svg>