<?xml version="1.0" encoding="UTF-8"?>
<svg id="Layer_1" data-name="Layer 1" xmlns="http://www.w3.org/2000/svg" viewBox="0 0 24 24">
  <defs>
    <style>
      .cls-1 {
        fill: #fff;
        stroke-width: 0px;
      }
    </style>
  </defs>
  <rect class="cls-1" x="8.84" y="8.18" width="4.7" height="4.7" transform="translate(-4.17 11) rotate(-45)"/>
  <path class="cls-1" d="M22.38,20.19l-4.28-4.28c1.16-1.49,1.86-3.35,1.86-5.38,0-4.83-3.93-8.77-8.77-8.77S2.42,5.7,2.42,10.53s3.93,8.77,8.77,8.77c2.09,0,4-.74,5.51-1.96l4.26,4.26,1.41-1.41ZM3.92,10.53c0-4.01,3.26-7.27,7.27-7.27s7.27,3.26,7.27,7.27-3.26,7.27-7.27,7.27-7.27-3.26-7.27-7.27Z"/>
</svg>