<svg xmlns="http://www.w3.org/2000/svg" aria-hidden="true" focusable="false" viewBox="0 0 20 20">
  <path d="m6.73,6.32v.91h6.57v-.91c0-.71-.23-1.35-.6-1.89l1.68-2.42-.82-.57-1.57,2.27c-.55-.41-1.23-.67-1.97-.67s-1.42.25-1.97.67l-1.57-2.27-.82.57,1.68,2.42c-.38.54-.61,1.19-.61,1.89Z"/>
  <g>
    <path d="m9.46,8.34h-5.34l-1.08-1.87-.87.5,1.37,2.37h3.18v1.18h-3.23v1h3.23v1.26h-3.18l-1.37,2.37.87.5,1.08-1.87h2.61v.87c0,1.63,1.18,2.97,2.73,3.23v-9.54Z"/>
    <path d="m13.3,12.78v-1.26h3.2v-1h-3.2v-1.18h3.16l1.37-2.37-.87-.5-1.08,1.87h-5.32v9.54c1.55-.26,2.73-1.61,2.73-3.23v-.87h2.59l1.08,1.87.87-.5-1.37-2.37h-3.16Z"/>
  </g>
</svg>