<svg xmlns="http://www.w3.org/2000/svg" aria-hidden="true" focusable="false" viewBox="0 0 20 20">
  <path d="M13.04,12.83v-1.59h2.96v-1h-2.96v-1.59h2.94l1.28-2.21-.87-.5-.99,1.71h-2.36v-.99c0-.58-.17-1.11-.47-1.55l1.5-2.16-.82-.57-1.39,2.01c-.45-.32-1-.51-1.6-.51h-.49c-.6,0-1.15.19-1.6.51l-1.39-2-.82.57,1.5,2.16c-.3.44-.47.98-.47,1.55v.99h-2.38l-.99-1.71-.87.5,1.28,2.21h2.96v1.59h-2.98v1h2.98v1.59h-2.96l-1.28,2.21.87.5.99-1.71h2.38v1.01c0,1.54,1.25,2.79,2.79,2.79h.49c1.54,0,2.79-1.25,2.79-2.79v-1.01h2.36l.99,1.71.87-.5-1.28-2.21h-2.94Z"/>
</svg>