<svg xmlns="http://www.w3.org/2000/svg" aria-hidden="true" focusable="false" viewBox="0 0 24 24">
  <path d="m21.68,16.21l-.36-4.57s0-.02,0-.03c0-.02,0-.03-.02-.05-.01-.03-.02-.05-.04-.08,0,0,0-.02-.01-.03l-3.42-3.73v-2.96c0-.17-.13-.3-.3-.3s-.3.13-.3.3v2.71l-.91-.31v-3.73c0-.17-.13-.3-.3-.3s-.3.13-.3.3v3.52l-3.53-1.22s-.02,0-.03,0c-.02,0-.04,0-.07,0-.02,0-.05,0-.07,0,0,0-.02,0-.03,0l-5.21,1.8h-.14c-.13,0-.24.09-.27.21v.02s-3.35,3.66-3.35,3.66c0,0-.02,0-.02,0-.07.05-.12.13-.13.22l-.36,4.54-.36-.21v1.96l5.13,2.9h9.64l5.13-2.9v-1.96l-.36.2Zm-9.29-8l2.19,1.49,3.57,2.42-5.75.93v-4.84Zm-.3,5.68l3.97,5.13h-7.93l3.97-5.13Zm4.49,4.83l-3.95-5.1.37-.06,5.5-.89-.68,2.13-1.25,3.93Zm-10.91-6.05l5.87.95-3.95,5.1-1.25-3.93-.68-2.13Zm11.53,6.06l1.37-4.31.44-1.37,2,3.54-3.8,2.14Zm1.18-7.16l-5.18-3.52,4.11.15,1.07,3.36Zm-6.6-3.35v4.84l-5.76-.93,3.47-2.36,2.28-1.55Zm-6.62,4.85l.43,1.36,1.37,4.31-3.79-2.14,1.99-3.53Zm4.49-4.13l-3.84,2.61,1.06-3.35,4.09-.15-1.31.89Z"/>
</svg>