<svg xmlns="http://www.w3.org/2000/svg" aria-hidden="true" focusable="false" viewBox="0 0 110 32">
  <defs>
    <style>.cls-1{fill:#fff;}.cls-2{fill:#2edaff;}</style>
  </defs>
  <path class="cls-1" d="M55.17,4.2l-9.69,21.66c-.24,.53,.15,1.13,.73,1.13h3.97s4.99-3.1,4.99-3.1l4.99,3.1h3.97c.58,0,.97-.6,.73-1.13L55.17,4.2Z"/>
  <g>
    <polygon class="cls-2" points="46.32 15.43 24.35 15.43 33.63 20.54 44.04 20.54 46.32 15.43"/>
    <polygon class="cls-2" points="49.52 8.28 11.35 8.28 20.63 13.39 47.24 13.39 49.52 8.28"/>
    <polygon class="cls-2" points="60.81 8.28 63.1 13.39 90.22 13.39 98.98 8.28 60.81 8.28"/>
    <polygon class="cls-2" points="66.3 20.54 77.95 20.54 86.72 15.43 64.01 15.43 66.3 20.54"/>
  </g>
</svg>