<svg xmlns="http://www.w3.org/2000/svg" aria-hidden="true" focusable="false" viewBox="0 0 110 36">
  <polygon points="55.57 2.73 58.9 13 69.71 13 60.97 19.35 64.31 29.62 55.57 23.27 46.83 29.62 50.16 19.35 41.42 13 52.23 13 55.57 2.73"/>
  <g>
    <polygon points="46.44 20.14 39.56 15.14 36.61 13 16.54 13 23.21 19.67 45.42 23.29 46.44 20.14"/>
    <polygon points="35.3 11 31.57 7 11.65 7 15.65 11 35.3 11"/>
  </g>
  <g>
    <polygon points="64.62 20.14 71.5 15.14 74.44 13 94.52 13 87.85 19.67 65.64 23.29 64.62 20.14"/>
    <polygon points="75.75 11 79.49 7 99.41 7 95.41 11 75.75 11"/>
  </g>
</svg>

