<svg xmlns="http://www.w3.org/2000/svg" aria-hidden="true" focusable="false" viewBox="0 0 24 24">
  <path d="M19.55,4.52H4.45c-1.63,0-2.95,1.32-2.95,2.95v6.1c0,1.63,1.32,2.95,2.95,2.95h5.29l4.76,4.58v-4.58h5.05c1.63,0,2.95-1.32,2.95-2.95V7.47c0-1.63-1.32-2.95-2.95-2.95ZM7.75,11.73c-.64,0-1.15-.52-1.15-1.15s.52-1.15,1.15-1.15,1.15,.52,1.15,1.15-.52,1.15-1.15,1.15Zm4.15-2.31c.64,0,1.15,.52,1.15,1.15s-.52,1.15-1.15,1.15-1.15-.52-1.15-1.15,.52-1.15,1.15-1.15Zm4.15,2.31c-.64,0-1.15-.52-1.15-1.15s.52-1.15,1.15-1.15,1.15,.52,1.15,1.15-.52,1.15-1.15,1.15Z"/>
</svg>