<svg xmlns="http://www.w3.org/2000/svg" aria-hidden="true" focusable="false" viewBox="0 0 20 20">
  <path class="cls-1" d="M19.25,10.2h-9.09l2.09-2.09c.29-.29.29-.77,0-1.06s-.77-.29-1.06,0l-3.9,3.9,3.9,3.9c.15.15.34.22.53.22s.38-.07.53-.22c.29-.29.29-.77,0-1.06l-2.09-2.09h9.09c.41,0,.75-.34.75-.75s-.34-.75-.75-.75Z"/>
  <path class="cls-1" d="M16.29,18.06H3.79V3.85h2.46c.31.93,1.18,1.6,2.21,1.6h3.48c1.03,0,1.9-.67,2.21-1.6h2.14v4.19h1.5V2.35h-3.64c-.31-.93-1.18-1.6-2.21-1.6h-3.48c-1.03,0-1.9.67-2.21,1.6h-3.96v17.21h15.5v-5.69h-1.5v4.19ZM8.46,2.25h3.48c.47,0,.85.38.85.85s-.38.85-.85.85h-3.48c-.47,0-.85-.38-.85-.85s.38-.85.85-.85Z"/>
</svg>