<svg xmlns="http://www.w3.org/2000/svg" aria-hidden="true" focusable="false" viewBox="0 0 20 20">
  <g>
    <path d="M4.44,7.93h-1.9c-.87,0-1.57,.7-1.57,1.57v1.9c0,.5,.24,.95,.61,1.23l.65,3.81c.06,.39,.38,.67,.76,.67h1c.38,0,.7-.28,.76-.67l.65-3.81c.37-.29,.61-.73,.61-1.23v-1.9c0-.87-.7-1.57-1.57-1.57Z"/>
    <path d="M17.68,7.93h-1.9c-.87,0-1.57,.7-1.57,1.57v1.9c0,.5,.24,.95,.61,1.23l.65,3.81c.06,.39,.38,.67,.76,.67h1c.38,0,.7-.28,.76-.67l.65-3.81c.37-.29,.61-.73,.61-1.23v-1.9c0-.87-.7-1.57-1.57-1.57Z"/>
    <path d="M11.8,6.4c-.46,.32-1.01,.51-1.61,.51s-1.15-.19-1.6-.51c-.75,.26-1.29,.97-1.29,1.81v3.33c0,.63,.3,1.18,.77,1.53l.68,3.99c.07,.44,.44,.77,.87,.77h1.15c.43,0,.8-.32,.87-.77l.68-3.99c.46-.35,.77-.9,.77-1.53v-3.33c0-.84-.54-1.55-1.29-1.81Z"/>
  </g>
  <path d="M5.45,5.07c-.02-.11-.05-.22-.09-.32-.06-.16-.13-.32-.22-.45-.14-.21-.33-.39-.54-.54-.26-.18-.58-.29-.91-.32-.07,0-.13-.02-.2-.02-.14,0-.27,.01-.4,.04-.26,.05-.5,.16-.71,.3-.26,.18-.48,.42-.64,.7-.15,.28-.24,.6-.24,.95h0c0,1.1,.89,1.99,1.99,1.99s1.99-.89,1.99-1.99h0c0-.12-.01-.23-.03-.34Zm-.57,.34c0,.17-.14,.3-.3,.3H2.41c-.17,0-.3-.14-.3-.3,0-.76,.62-1.39,1.39-1.39s1.39,.62,1.39,1.39Z"/>
  <path d="M18.69,5.07c-.02-.11-.05-.22-.09-.32-.06-.16-.13-.32-.22-.45-.14-.21-.33-.39-.54-.54-.26-.18-.58-.29-.91-.32-.07,0-.13-.02-.2-.02-.14,0-.27,.01-.4,.04-.26,.05-.5,.16-.71,.3-.26,.18-.48,.42-.64,.7-.15,.28-.24,.6-.24,.95h0c0,1.1,.89,1.99,1.99,1.99s1.99-.89,1.99-1.99h0c0-.12-.01-.23-.03-.34Zm-.57,.34c0,.17-.14,.3-.3,.3h-2.16c-.17,0-.3-.14-.3-.3,0-.76,.62-1.39,1.39-1.39s1.39,.62,1.39,1.39Z"/>
  <path d="M12.3,3.66c-.02-.12-.06-.23-.09-.35-.06-.17-.14-.34-.24-.49-.15-.23-.35-.43-.58-.58-.29-.19-.62-.31-.98-.35-.07,0-.14-.02-.22-.02-.15,0-.29,.02-.43,.04-.28,.06-.54,.17-.77,.32-.29,.19-.52,.45-.69,.76-.17,.3-.26,.65-.26,1.02h0c0,1.19,.96,2.15,2.15,2.15s2.15-.96,2.15-2.15h0c0-.13-.01-.25-.04-.37Zm-.62,.37c0,.18-.15,.33-.33,.33h-2.34c-.18,0-.33-.15-.33-.33,0-.83,.67-1.5,1.5-1.5s1.5,.67,1.5,1.5Z"/>
</svg>