<svg xmlns="http://www.w3.org/2000/svg" aria-hidden="true" focusable="false" viewBox="0 0 24 24">
  <path d="M22.14,9.93L14.07,1.86c-1.14-1.14-3-1.14-4.14,0L1.86,9.93c-1.14,1.14-1.14,3,0,4.14l8.07,8.07c1.14,1.14,3,1.14,4.14,0l8.07-8.07c1.14-1.14,1.14-3,0-4.14ZM9.73,6.57h0c0-.39.1-.76.27-1.08s.42-.6.73-.8c.24-.16.52-.28.81-.34.15-.03.3-.05.46-.05.08,0,.15.02.23.02.38.04.74.16,1.04.36.24.16.45.37.61.61.11.16.19.33.25.52.04.12.08.24.1.36.02.13.04.25.04.39h0c0,1.25-1.01,2.27-2.27,2.27s-2.27-1.01-2.27-2.27h0ZM14.87,13.4c0,.57-.27,1.08-.69,1.4l-.75,4.34c-.07.44-.44.76-.87.76h-1.14c-.43,0-.79-.32-.87-.76l-.75-4.34c-.42-.33-.69-.83-.69-1.4v-2.17c0-.99.8-1.79,1.79-1.79h2.16c.99,0,1.79.8,1.79,1.79v2.17Z"/>
</svg>