<svg xmlns="http://www.w3.org/2000/svg" aria-hidden="true" focusable="false" viewBox="0 0 24 24">
  <path d="M15.84,10.07c-.12-.33-.26-.65-.45-.93-.29-.44-.67-.81-1.1-1.11-.54-.37-1.19-.59-1.87-.66-.14-.01-.27-.04-.41-.04-.28,0-.56,.03-.82,.08-.53,.11-1.03,.32-1.46,.62-.54,.37-.99,.86-1.31,1.44-.32,.58-.49,1.24-.49,1.95h0c0,2.26,1.83,4.09,4.09,4.09s4.09-1.83,4.09-4.09h0c0-.24-.02-.47-.07-.7-.04-.23-.11-.45-.18-.66Zm-1.62,1.98h-4.45c-.34,0-.62-.28-.62-.63,0-1.57,1.28-2.85,2.85-2.85s2.85,1.28,2.85,2.85c0,.34-.28,.63-.63,.63Z"/>
  <path d="M17.66,2.4H6.34L.69,12.2l5.66,9.8h11.31l5.66-9.8L17.66,2.4Zm-.14,17.09v-.1c0-1.6-1.03-2.95-2.46-3.45-.87,.61-1.92,.97-3.06,.97s-2.19-.36-3.06-.97c-1.43,.5-2.46,1.85-2.46,3.45v.1L2.27,12.2,7.14,3.78h9.73l4.86,8.43-4.21,7.29Z"/>
</svg>