<svg xmlns="http://www.w3.org/2000/svg" aria-hidden="true" focusable="false" viewBox="0 0 64 64">
  <g>
    <path d="M17.8,26.59h-4.88c-2.23,0-4.03,1.81-4.03,4.03v4.88c0,1.29,.62,2.43,1.56,3.17l1.68,9.79c.16,.99,.99,1.71,1.95,1.71h2.56c.96,0,1.79-.72,1.95-1.71l1.68-9.79c.94-.74,1.56-1.87,1.56-3.17v-4.88c0-2.23-1.81-4.03-4.03-4.03Z"/>
    <path d="M51.79,26.59h-4.88c-2.23,0-4.03,1.81-4.03,4.03v4.88c0,1.29,.62,2.43,1.56,3.17l1.68,9.79c.16,.99,.99,1.71,1.95,1.71h2.56c.96,0,1.79-.72,1.95-1.71l1.68-9.79c.94-.74,1.56-1.87,1.56-3.17v-4.88c0-2.23-1.81-4.03-4.03-4.03Z"/>
    <path d="M36.68,22.67c-1.17,.82-2.58,1.31-4.12,1.31s-2.95-.49-4.12-1.31c-1.93,.68-3.32,2.49-3.32,4.65v8.56c0,1.61,.78,3.02,1.97,3.93l1.76,10.23c.19,1.14,1.13,1.97,2.24,1.97h2.94c1.11,0,2.05-.83,2.24-1.97l1.76-10.23c1.19-.9,1.97-2.32,1.97-3.93v-8.56c0-2.16-1.39-3.97-3.32-4.65Z"/>
  </g>
  <path d="M20.39,19.25c-.05-.28-.13-.56-.22-.82-.15-.41-.32-.81-.56-1.16-.37-.54-.84-1.01-1.38-1.38-.68-.46-1.48-.73-2.34-.82-.17-.02-.34-.05-.51-.05-.35,0-.7,.04-1.03,.1-.66,.14-1.28,.4-1.83,.77-.68,.46-1.24,1.08-1.63,1.8-.39,.72-.62,1.55-.62,2.43h0c0,2.82,2.29,5.11,5.11,5.11s5.1-2.28,5.11-5.1h0c0-.3-.03-.59-.08-.87Zm-1.46,.87c0,.43-.35,.78-.78,.78h-5.55c-.43,0-.78-.35-.78-.78,0-1.96,1.6-3.56,3.56-3.56s3.56,1.6,3.56,3.56Z"/>
  <path d="M54.37,19.25c-.05-.28-.13-.56-.22-.82-.15-.41-.32-.81-.56-1.16-.37-.54-.84-1.01-1.38-1.38-.68-.46-1.48-.73-2.34-.82-.17-.02-.34-.05-.51-.05-.35,0-.7,.04-1.03,.1-.66,.14-1.28,.4-1.83,.77-.68,.46-1.24,1.08-1.63,1.8-.39,.72-.62,1.55-.62,2.43h0c0,2.82,2.29,5.11,5.11,5.11s5.1-2.28,5.11-5.1h0c0-.3-.03-.59-.08-.87Zm-1.46,.87c0,.43-.35,.78-.78,.78h-5.55c-.43,0-.78-.35-.78-.78,0-1.96,1.6-3.56,3.56-3.56s3.56,1.6,3.56,3.56Z"/>
  <path d="M37.98,15.63c-.06-.3-.14-.6-.24-.89-.16-.45-.35-.87-.61-1.26-.4-.59-.9-1.09-1.49-1.49-.73-.5-1.6-.79-2.53-.89-.19-.02-.37-.06-.56-.06-.38,0-.75,.04-1.11,.11-.72,.15-1.39,.43-1.97,.83-.73,.5-1.34,1.16-1.76,1.94-.42,.78-.67,1.68-.67,2.63h0c0,3.05,2.47,5.51,5.51,5.51s5.51-2.47,5.51-5.51h0c0-.32-.03-.64-.09-.94Zm-1.58,.94c0,.46-.38,.84-.84,.84h-6c-.46,0-.84-.38-.84-.84,0-2.12,1.72-3.84,3.84-3.84s3.84,1.72,3.84,3.84Z"/>
</svg>