<svg xmlns="http://www.w3.org/2000/svg" aria-hidden="true" focusable="false" viewBox="0 0 24 24">
  <polygon points="20.85 13.04 20.04 13.51 21.94 14.6 12 20.34 2.06 14.6 3.96 13.51 3.15 13.04 .44 14.6 12 21.28 23.56 14.6 20.85 13.04"/>
  <g>
    <path d="m7.63,8.38h-1.47c-.67,0-1.21.54-1.21,1.21v1.47c0,.39.19.73.47.95l.5,2.94c.05.3.3.51.59.51h.77c.29,0,.54-.22.59-.51l.5-2.94c.28-.22.47-.56.47-.95v-1.47c0-.67-.54-1.21-1.21-1.21Z"/>
    <path d="m17.84,8.38h-1.47c-.67,0-1.21.54-1.21,1.21v1.47c0,.39.19.73.47.95l.5,2.94c.05.3.3.51.59.51h.77c.29,0,.54-.22.59-.51l.5-2.94c.28-.22.47-.56.47-.95v-1.47c0-.67-.54-1.21-1.21-1.21Z"/>
    <path d="m8.4,6.18c-.02-.08-.04-.17-.07-.25-.04-.12-.1-.24-.17-.35-.11-.16-.25-.3-.41-.41-.2-.14-.45-.22-.7-.25-.05,0-.1-.02-.15-.02-.11,0-.21.01-.31.03-.2.04-.39.12-.55.23-.2.14-.37.32-.49.54-.12.22-.19.47-.19.73h0c0,.85.69,1.53,1.53,1.53s1.53-.69,1.53-1.53h0c0-.09,0-.18-.03-.26Z"/>
    <path d="m12.84,7.38h-1.67c-.76,0-1.38.62-1.38,1.38v1.67c0,.44.21.83.54,1.09l.58,3.36c.06.34.34.59.67.59h.88c.33,0,.61-.25.67-.59l.58-3.36c.32-.25.54-.64.54-1.09v-1.67c0-.76-.62-1.38-1.38-1.38Z"/>
    <path d="m13.73,4.87c-.02-.1-.04-.19-.08-.28-.05-.14-.11-.28-.19-.4-.13-.19-.29-.35-.47-.47-.23-.16-.51-.25-.8-.28-.06,0-.12-.02-.18-.02-.12,0-.24.01-.35.04-.23.05-.44.14-.63.26-.23.16-.43.37-.56.62-.13.25-.21.53-.21.83h0c0,.97.78,1.75,1.75,1.75s1.75-.78,1.75-1.75h0c0-.1-.01-.2-.03-.3Z"/>
    <path d="m18.61,6.18c-.02-.08-.04-.17-.07-.25-.04-.12-.1-.24-.17-.35-.11-.16-.25-.3-.41-.41-.2-.14-.45-.22-.7-.25-.05,0-.1-.02-.15-.02-.11,0-.21.01-.31.03-.2.04-.39.12-.55.23-.2.14-.37.32-.49.54-.12.22-.19.47-.19.73h0c0,.85.69,1.53,1.53,1.53s1.53-.69,1.53-1.53h0c0-.09,0-.18-.03-.26Z"/>
  </g>
</svg>