<svg xmlns="http://www.w3.org/2000/svg" aria-hidden="true" focusable="false" viewBox="0 0 24 24">
  <path d="M20.12,8.46v6.57l-1.83,4.64c-.16.4-.55.67-.98.67H6.69c-.43,0-.82-.26-.98-.67l-1.83-4.64v-6.57h-1.18v11.64c0,.74.6,1.34,1.34,1.34h15.9c.74,0,1.34-.6,1.34-1.34v-11.64h-1.18Z"/>
  <g>
    <polygon points="9.16 14.22 8.03 14.62 8.03 18.02 6.32 12.91 8.66 12.23 9.16 14.22"/>
    <path d="M13.39,14.22c3.89-7.53-1.33-12.43-1.33-12.43h-.06s-5.22,4.9-1.33,12.43h2.72Z"/>
    <polygon points="14.84 14.22 15.97 14.62 15.97 18.02 17.68 12.91 15.34 12.23 14.84 14.22"/>
  </g>
</svg>