<svg xmlns="http://www.w3.org/2000/svg" aria-hidden="true" focusable="false" viewBox="4 4 24 24">
  <path d="M14.78,18.93c-4.83-.21-8.1-1.63-8.1-2.93s3.27-2.72,8.1-2.93v-1c-4.61,.21-9.1,1.56-9.1,3.92s4.49,3.72,9.1,3.92v-1Z"/>
  <path d="M17.22,12.08v1c4.83,.21,8.1,1.63,8.1,2.93s-3.27,2.72-8.1,2.93v1c4.61-.21,9.1-1.56,9.1-3.92s-4.49-3.72-9.1-3.92Z"/>
  <polygon points="16 19.46 14.43 23.3 15.5 22.68 15.5 25.82 16.5 25.82 16.5 22.68 17.57 23.3 16 19.46"/>
  <polygon points="16 12.54 17.57 8.7 16.5 9.32 16.5 6.18 15.5 6.18 15.5 9.32 14.43 8.7 16 12.54"/>
</svg>