<svg xmlns="http://www.w3.org/2000/svg" aria-hidden="true" focusable="false" viewBox="0 0 24 24">
  <path d="M16.88,14.6l-1.27-5.7c-.38-1.69-1.88-2.89-3.6-2.89s-3.23,1.2-3.61,2.89l-1.27,5.7c-.94,.6-1.56,1.64-1.56,2.84h12.88c0-1.19-.62-2.24-1.56-2.84Z"/>
  <path d="M12,21.34c1.08,0,1.96-.88,1.96-1.96h-3.93c0,1.08,.88,1.96,1.96,1.96Z"/>
  <path d="M9.01,3.79l-.42-1.13c-2.71,1.28-4.59,4.04-4.59,7.22h1.2c0-2.67,1.55-4.98,3.8-6.09Z"/>
  <path d="M15.41,2.66l-.42,1.13c2.25,1.11,3.8,3.42,3.8,6.09h1.2c0-3.19-1.88-5.94-4.59-7.22Z"/>
</svg>