<svg xmlns="http://www.w3.org/2000/svg" aria-hidden="true" focusable="false" viewBox="0 0 64 64">
  <path d="m50.7,26.21l-4.06-10.32h-10.57l-3.68,9.35H9l3.91,11.18c-1.23,1.21-2,2.89-2,4.76,0,3.69,2.99,6.67,6.67,6.67s6.67-2.99,6.67-6.67c0-1.13-.31-2.17-.8-3.11h11.48c.75,5.52,5.47,9.78,11.19,9.78,6.24,0,11.31-5.06,11.31-11.31,0-4.62-2.77-8.58-6.74-10.34Zm-33.11,19.18c-2.32,0-4.21-1.89-4.21-4.21s1.89-4.21,4.21-4.21,4.21,1.89,4.21,4.21-1.89,4.21-4.21,4.21Zm28.55,0c-4.88,0-8.85-3.97-8.85-8.85s3.97-8.85,8.85-8.85,8.85,3.97,8.85,8.85-3.97,8.85-8.85,8.85Z"/>
</svg>