<svg xmlns="http://www.w3.org/2000/svg" aria-hidden="true" focusable="false" viewBox="0 0 24 24">
 <path class="cls-1" d="M21.63,10.94l-9.63,9.63L3.43,12,12,3.43l2.58,2.58,1.06-1.06-3.11-3.11c-.29-.29-.77-.29-1.06,0L1.84,11.47c-.29.29-.29.77,0,1.06l9.63,9.63c.15.15.34.22.53.22s.38-.07.53-.22l9.63-9.63c.14-.14.22-.33.22-.53s-.08-.39-.22-.53l-.53-.53Z"/>
  <path class="cls-1" d="M11.89,15.68l-3.86-3.86c-.39-.39-.39-1.02,0-1.41s1.02-.39,1.41,0l2.44,2.44,7.7-7.7c.39-.39,1.02-.39,1.41,0s.39,1.02,0,1.41l-9.11,9.11Z"/>
</svg>