<svg xmlns="http://www.w3.org/2000/svg" aria-hidden="true" focusable="false" viewBox="0 0 24 24">
  <path d="m19.17,8.47l-.15-.15c.05-.16.02-.35-.11-.48l-2.53-2.54v-1.34c0-.88-.71-1.59-1.59-1.59h-6.52c-.88,0-1.59.71-1.59,1.59v15.37h9.7v-3.74h.21c.21,0,.38.17.38.38v1.21c0,.71.58,1.29,1.29,1.29s1.29-.58,1.29-1.29v-7.8c0-.34-.13-.67-.38-.91Zm-4-1.02c0,.43-.35.78-.78.78h-5.72c-.43,0-.78-.35-.78-.78v-3.12c0-.43.35-.78.78-.78h5.72c.43,0,.78.35.78.78v3.12Zm3.47,9.73c0,.21-.17.38-.38.38s-.38-.17-.38-.38v-1.21c0-.71-.58-1.29-1.29-1.29h-.21v-7.65l.51.5v.98l.67.67c.19.19.49.19.68,0l.19-.19.11.11c.07.07.11.17.11.27v7.8Z"/>
  <path d="m17.27,20.43H5.8c-.7,0-1.27.57-1.27,1.27v.3h14v-.3c0-.7-.57-1.27-1.27-1.27Z"/>
</svg>