<svg xmlns="http://www.w3.org/2000/svg" aria-hidden="true" focusable="false" viewBox="0 0 160.95 173.19">
  <defs><style>.GenesisIcon-2{opacity:0.5;}</style></defs>
  <path d="M132.41,139.86l2.59,2.59-1.49-3.93C133.13,139,132.8,139.43,132.41,139.86Z"/>
  <path d="M64.15,24.48l1.47-3.85-1.08-6.79A80.26,80.26,0,0,0,47,19.61l4.64,9.1A70,70,0,0,1,64.15,24.48Z"/>
  <path d="M28.53,45.58l-7.22-7.23A80.45,80.45,0,0,0,10.44,53.23l9.11,4.64A70.7,70.7,0,0,1,28.53,45.58Z"/>
  <path d="M16.47,63.91l-9.1-4.63A79,79,0,0,0,1.6,76.79l10.1,1.6A69.44,69.44,0,0,1,16.47,63.91Z"/>
  <path d="M45.63,31.8,41,22.68A80.88,80.88,0,0,0,26.11,33.56l7.22,7.22A70.12,70.12,0,0,1,45.63,31.8Z"/>
  <path d="M141.39,57.87l9.12-4.65a80.71,80.71,0,0,0-10.87-14.87l-7.23,7.23A69.68,69.68,0,0,1,141.39,57.87Z"/>
  <path d="M28.53,139.86c-.25-.29-.47-.61-.73-.9l-1,2.63Z"/>
  <path d="M149.25,78.39l10.1-1.6a79.82,79.82,0,0,0-5.77-17.52l-9.1,4.64A69.05,69.05,0,0,1,149.25,78.39Z"/>
  <path d="M134.84,33.56A80.88,80.88,0,0,0,120,22.68l-4.65,9.12a70.12,70.12,0,0,1,12.3,9Z"/>
  <path d="M97.39,24.64a70.92,70.92,0,0,1,11.89,4.07l4.64-9.1a80.44,80.44,0,0,0-17.51-5.77l-.92,5.81Z"/>
  <path d="M80.47,163a71.18,71.18,0,0,1-7.62-.43l-1.6,10.08a74.93,74.93,0,0,0,18.45,0l-1.6-10.08A71.22,71.22,0,0,1,80.47,163Z"/>
  <path d="M125.9,146.06a70.24,70.24,0,0,1-10.58,7.58l4.65,9.11a78.56,78.56,0,0,0,10.89-7.6Z"/>
  <path d="M138.37,132.22l4.27,11.21a79,79,0,0,0,7.87-11.22l-9.12-4.64C140.47,129.18,139.41,130.69,138.37,132.22Z"/>
  <path d="M94.8,161.49l1.61,10.1a79.21,79.21,0,0,0,17.51-5.77l-4.64-9.09A69.61,69.61,0,0,1,94.8,161.49Z"/>
  <path d="M144.48,121.53l9.1,4.63a79.64,79.64,0,0,0,5.77-17.52l-10.1-1.59A69.44,69.44,0,0,1,144.48,121.53Z"/>
  <path d="M160.38,83.5,150.3,85.09a67.82,67.82,0,0,1,0,15.25l10.08,1.6a74.85,74.85,0,0,0,0-18.44Z"/>
  <path d="M11.7,107.05,1.6,108.64a79.12,79.12,0,0,0,5.77,17.52l9.1-4.64A69.16,69.16,0,0,1,11.7,107.05Z"/>
  <path d="M22.92,132.73c-1.18-1.68-2.34-3.38-3.37-5.17l-9.11,4.65a79.53,79.53,0,0,0,8.23,11.66Z"/>
  <path d="M47,165.82a79.21,79.21,0,0,0,17.51,5.77l1.6-10.1a69.72,69.72,0,0,1-14.47-4.76Z"/>
  <path d="M10.22,92.72a71.22,71.22,0,0,1,.43-7.63L.57,83.5a74.85,74.85,0,0,0,0,18.44l10.08-1.6A71.18,71.18,0,0,1,10.22,92.72Z"/>
  <path d="M30.45,155.45A79,79,0,0,0,41,162.75l4.65-9.11a70.26,70.26,0,0,1-10.21-7.28Z"/>
  <path d="M124.5,65.68l-5.52.66L108,64l-3.54,1L91.08,63.35l-3.32.6-.43-.45-3.83-1-.84-3,2-2.48.79-4-1.22-4.77-2.46-1.14h-2.6l-2.45,1.14-1.23,4.77.8,4,2,2.48-.85,3-3.82,1-.43.45-3.33-.6L56.52,65,53,64,42,66.34l-5.52-.66L31,67.34l1.91,2a20.7,20.7,0,0,0,2.78-.56l.55.57,4.46-.72,12,2,4.42-1.33,12.7,1.89-.06.2,2.73,14.47-1.31,9.76L70.29,107l1.28,13.89-.75,10.81,2.25,14.37-.66,4.16-1.59,1.89v1.2H77v-1.26l-.5-1.71-.36-4.66,1.8-14.1L77,120l1.43-7.69,1.49-10.65H81l1.48,10.65L83.94,120l-1,11.6,1.81,14.11-.36,4.65-.51,1.71v1.26h6.23v-1.2l-1.6-1.89-.65-4.16,2.25-14.37-.75-10.81L90.66,107l-1-11.45L88.4,85.81l2.72-14.47-.05-.2,12.7-1.89,4.42,1.33,12-2,4.47.72.55-.57a20.7,20.7,0,0,0,2.78.56l1.91-2Z"/>
  <polygon points="108.89 73.91 108.73 73.94 107.96 74.06 107.2 73.83 103.52 72.72 94.32 74.08 142.71 162.69 108.89 73.91"/>
  <polygon points="66.89 74.12 57.43 72.72 53.74 73.83 52.99 74.06 52.55 73.99 18.77 162.69 66.95 74.45 66.89 74.12"/>
  <polygon points="61.78 54.63 73.32 60.02 73.39 60.05 74.16 59.86 73.65 59.23 73.12 58.57 72.96 57.74 72.17 53.71 72.02 52.95 72.21 52.21 73.43 47.44 73.83 45.88 75.29 45.21 77.74 44.06 78.42 43.75 79.17 43.75 80.47 43.75 81.77 43.75 82.52 43.75 83.2 44.06 85.66 45.21 87.11 45.88 87.52 47.44 88.74 52.21 88.93 52.95 88.78 53.71 87.99 57.74 87.83 58.57 87.3 59.23 86.78 59.86 87.56 60.05 87.63 60.02 99.17 54.63 100.83 52.75 80.74 0 60.48 53.17 61.78 54.63"/>
  <polygon class="GenesisIcon-2" points="80 102.24 79.87 102.07 79.81 102.49 80 102.24"/>
  <path class="GenesisIcon-2" d="M92.84,31.77a62.21,62.21,0,0,1,29.09,14.67l-3.31.89-4.34,3.49-10.59,3.82-2.45,2.76L89.06,63.1l-.85.77,2.87-.52,8.34,1,3.53-3,4.45-1.21,9.14-8,4.17-1.76.16-.78a21.32,21.32,0,0,0,2.66-1s0-.27.11-.57a61.87,61.87,0,0,1,6.59,81.92l1.43,3.75A65.48,65.48,0,0,0,91.44,28.09Z"/>
  <polygon class="GenesisIcon-2" points="81.14 102.49 81.08 102.07 80.95 102.24 81.14 102.49"/>
  <path class="GenesisIcon-2" d="M31.08,130.36A61.84,61.84,0,0,1,37.3,48c.07.3.11.53.12.57a20.75,20.75,0,0,0,2.66,1l.16.78,4.16,1.76,9.15,8L58,61.36l3.53,3,8.34-1,2.86.52-.84-.77L59.7,57.4l-2.45-2.76L46.66,50.82l-4.33-3.49L39,46.44A62.15,62.15,0,0,1,68.69,31.63L70.07,28A65.51,65.51,0,0,0,29.64,134.14Z"/>
  <path class="GenesisIcon-2" d="M127,133.88a62.92,62.92,0,0,1-12.35,10.79l-.42-.76-2.29-.9-2.56-3.35L104.49,126l-5.81-9.15L93.19,104,90,99.13l.65,7.89-.67,7.3,3.47,4.3,4.68,10.65,8.3,11.54,1.91,4.27.37,1.74.55,1a61.86,61.86,0,0,1-57.59,0l.55-1,.37-1.74,1.9-4.27,8.31-11.54,4.67-10.65L71,114.33,70.29,107l.65-7.89L67.76,104l-5.49,12.82L56.46,126l-4.88,13.7L49,143l-2.3.9-.41.76a62.23,62.23,0,0,1-12-10.4l-1.72,3.14a65.29,65.29,0,0,0,96.14-.36Z"/>
</svg>