<svg xmlns="http://www.w3.org/2000/svg" aria-hidden="true" focusable="false" viewBox="0 0 24 24">
  <path d="M2.97,5.1c-.62,2.28-.51,4.69.37,6.93,1.08,2.77,3.18,4.96,5.9,6.15.06.03.12.04.18.04.17,0,.34-.1.41-.27.1-.23,0-.49-.23-.59-2.51-1.1-4.43-3.11-5.43-5.66-.8-2.05-.91-4.24-.35-6.32.04,0,.07.01.11.01.65,0,1.27-.38,1.56-1.01h0c.38-.86,0-1.87-.86-2.25-.86-.38-1.87,0-2.25.86-.19.42-.2.88-.04,1.3.13.33.35.61.64.8Z"/>
  <path d="M17.95,14.18c-.22-.1-.49,0-.59.23-2.05,4.67-7.19,7.04-11.98,5.78.02-.24-.02-.48-.1-.71-.16-.43-.48-.76-.9-.95-.42-.19-.88-.2-1.3-.04-.43.16-.76.48-.95.9-.19.42-.2.88-.04,1.3.16.43.48.76.9.95.22.1.46.15.7.15.2,0,.41-.04.61-.11.33-.13.61-.35.8-.64.95.26,1.91.4,2.89.4,1.37,0,2.74-.25,4.05-.77,2.77-1.08,4.96-3.17,6.15-5.9.1-.23,0-.49-.23-.59Z"/>
  <path d="M21.01,2.37c-.76-.34-1.65-.07-2.1.6-2.28-.62-4.69-.51-6.93.37-2.77,1.08-4.96,3.18-6.15,5.9-.1.23,0,.49.23.59.06.03.12.04.18.04.17,0,.34-.1.41-.27,1.1-2.51,3.11-4.43,5.66-5.43,2.05-.8,4.24-.91,6.32-.35-.04.69.33,1.37,1,1.66.23.1.46.15.69.15.65,0,1.27-.38,1.56-1.01.38-.86,0-1.87-.86-2.25Z"/>
  <path d="M21.03,18.9c.62-2.28.51-4.69-.37-6.93-1.08-2.77-3.17-4.96-5.9-6.15-.22-.1-.49,0-.59.23s0,.49.23.59c2.51,1.1,4.43,3.11,5.43,5.66.8,2.04.91,4.24.35,6.32-.24-.02-.48.02-.72.1-.43.16-.76.48-.95.9-.19.42-.2.88-.04,1.3.16.43.48.76.9.95.22.1.46.15.7.15.2,0,.41-.04.61-.11.43-.16.76-.48.95-.9.19-.42.2-.88.04-1.3-.13-.33-.35-.61-.64-.8Z"/>
</svg>