<svg xmlns="http://www.w3.org/2000/svg" aria-hidden="true" focusable="false" viewBox="0 0 20 20">
  <path d="M10,4.04c-3.29,0-5.96,2.67-5.96,5.96s2.67,5.96,5.96,5.96,5.96-2.67,5.96-5.96-2.67-5.96-5.96-5.96ZM10.78,13.72c0,.42-.23.66-.63.66h-.3c-.42,0-.66-.23-.66-.66v-.32c0-.42.23-.65.66-.65h.3c.4,0,.63.24.63.65v.32ZM12.67,9.43c-.17.29-.37.52-.6.69-.22.16-.42.29-.61.4-.18.1-.33.2-.46.3-.11.08-.19.17-.24.29-.05.11-.08.28-.08.49,0,.44-.24.68-.68.68s-.68-.24-.68-.68c0-.47.08-.86.25-1.15.17-.29.37-.52.6-.69.22-.16.42-.29.61-.4.18-.1.33-.2.46-.29.11-.08.19-.17.24-.29.05-.11.08-.28.08-.49,0-.57-.12-.81-.22-.91-.1-.1-.34-.22-.91-.22h-.85c-.45,0-.76.08-.91.23-.15.15-.22.46-.22.9s-.24.68-.68.68-.68-.24-.68-.68c0-.82.21-1.45.63-1.87.42-.42,1.05-.63,1.87-.63h.85c.83,0,1.46.21,1.88.62.41.41.62,1.04.62,1.88,0,.47-.08.86-.25,1.15Z"/>
  <path d="M10,18.03c-4.43,0-8.03-3.6-8.03-8.03S5.57,1.97,10,1.97s8.03,3.6,8.03,8.03-3.6,8.03-8.03,8.03ZM10,2.88c-3.92,0-7.12,3.19-7.12,7.12s3.19,7.12,7.12,7.12,7.12-3.19,7.12-7.12-3.19-7.12-7.12-7.12Z"/>
</svg>