<svg xmlns="http://www.w3.org/2000/svg" aria-hidden="true" focusable="false" viewBox="0 0 20 20">
  <path d="M18.36,9.4L10.6,1.64c-.33-.33-.87-.33-1.21,0L1.64,9.4c-.33.33-.33.87,0,1.21l7.75,7.75c.33.33.87.33,1.21,0l7.75-7.75c.33-.33.33-.87,0-1.21ZM10.88,14.69c0,.47-.26.74-.71.74h-.34c-.48,0-.74-.26-.74-.74v-.36c0-.47.26-.73.74-.73h.34c.45,0,.71.26.71.73v.36ZM13,9.87c-.19.33-.41.59-.67.77-.25.18-.48.33-.69.45-.2.12-.37.23-.52.33-.12.09-.21.19-.27.32-.06.13-.09.31-.09.55,0,.5-.27.77-.77.77s-.77-.27-.77-.77c0-.53.1-.97.28-1.3.19-.33.41-.59.67-.77.25-.18.48-.33.69-.45.2-.12.37-.23.51-.33.12-.09.21-.19.28-.32.06-.13.09-.31.09-.55,0-.64-.13-.91-.25-1.02-.11-.11-.38-.25-1.02-.25h-.96c-.5,0-.86.09-1.02.26-.16.17-.25.52-.25,1.01s-.27.77-.77.77-.77-.27-.77-.77c0-.93.24-1.63.71-2.1.47-.47,1.18-.71,2.1-.71h.96c.94,0,1.65.23,2.11.7.46.46.7,1.17.7,2.11,0,.53-.1.97-.28,1.3Z"/>
</svg>