<svg xmlns="http://www.w3.org/2000/svg" aria-hidden="true" focusable="false" viewBox="0 0 24 24">
  <path d="M19.12,5.08c-.95-.95-2.04-1.66-3.2-2.15,0,.52-.11,1.01-.3,1.46,.9,.41,1.74,.98,2.48,1.72,3.36,3.36,3.36,8.83,0,12.19-3.36,3.36-8.83,3.36-12.19,0-3.36-3.36-3.36-8.83,0-12.19,.74-.74,1.58-1.3,2.48-1.72-.19-.45-.3-.94-.31-1.46-1.16,.49-2.25,1.2-3.2,2.15-3.93,3.93-3.93,10.32,0,14.24,1.96,1.96,4.54,2.95,7.12,2.95s5.16-.98,7.12-2.95c3.93-3.93,3.93-10.32,0-14.24Z"/>
  <path d="M12,4.95c.84,0,1.56-.5,1.9-1.22,.12-.27,.2-.56,.2-.87,0-.12-.02-.24-.04-.35-.17-.99-1.02-1.74-2.06-1.74s-1.89,.76-2.06,1.74c-.02,.11-.04,.23-.04,.35,0,.31,.07,.61,.2,.87,.33,.72,1.05,1.22,1.9,1.22Z"/>
  <rect x="10.91" y="7.65" width="2.17" height="9.77"/>
</svg>