<svg xmlns="http://www.w3.org/2000/svg" aria-hidden="true" focusable="false" viewBox="0 0 24 24">
  <polygon points="20.85 13.04 20.04 13.51 21.94 14.6 12 20.34 2.06 14.6 3.96 13.51 3.15 13.04 .44 14.6 12 21.28 23.56 14.6 20.85 13.04"/>
  <g>
    <polygon points="4.99 14.86 8.09 16.66 8.09 13.07 4.99 11.28 4.99 14.86"/>
    <polygon points="8.36 9.03 5.26 10.82 8.36 12.61 11.46 10.82 9.28 9.56 8.36 9.03"/>
    <polygon points="15.64 9.03 14.72 9.56 12.54 10.82 15.64 12.61 18.74 10.82 15.64 9.03"/>
    <polygon points="12.27 14.86 15.37 16.66 15.37 13.07 12.27 11.28 12.27 14.86"/>
    <polygon points="8.63 8.56 11.73 10.35 11.73 6.77 8.63 4.98 8.63 8.56"/>
    <polygon points="12 2.72 8.9 4.51 12 6.3 15.1 4.51 12 2.72"/>
  </g>
</svg>