<svg xmlns="http://www.w3.org/2000/svg" aria-hidden="true" focusable="false" viewBox="0 0 24 24">
  <polygon points="1.32 19.43 6.12 22.2 6.12 16.66 1.32 13.89 1.32 19.43"/>
  <polygon points="6.53 10.4 1.73 13.17 6.53 15.94 11.33 13.17 7.95 11.21 6.53 10.4"/>
  <polygon points="17.8 10.4 16.39 11.21 13 13.17 17.8 15.94 22.6 13.17 17.8 10.4"/>
  <polygon points="12.59 19.43 17.39 22.2 17.39 16.66 12.59 13.89 12.59 19.43"/>
  <polygon points="6.95 9.67 11.75 12.44 11.75 6.9 6.95 4.13 6.95 9.67"/>
  <polygon points="12.17 .64 7.37 3.41 12.17 6.18 16.97 3.41 12.17 .64"/>
</svg>