<svg xmlns="http://www.w3.org/2000/svg" aria-hidden="true" focusable="false" viewBox="0 0 24 24">
  <path d="m14.58,8.16c-.38.82-.95,1.55-1.68,2.11v2.26l5.11,5.2,2.96-.03.03-3-6.42-6.53Z"/>
  <path d="m13.96,5.82c0-2.44-1.98-4.43-4.43-4.43s-4.43,1.98-4.43,4.43c0,1.61.86,3,2.14,3.77v10.65s2.17,2.07,2.17,2.07l2.15-2.15v-1.39s-1.27-1.27-1.27-1.27c-.19-.19-.19-.49,0-.68l1.27-1.27v-.62s-1.27-1.27-1.27-1.27c-.19-.19-.19-.49,0-.68l1.27-1.27v-1.98c1.42-.74,2.4-2.2,2.4-3.92Zm-4.05-.41c-.8.21-1.61-.26-1.82-1.06-.21-.8.26-1.61,1.06-1.82.8-.21,1.61.26,1.82,1.06.21.8-.26,1.61-1.06,1.82Z"/>
</svg>