<svg xmlns="http://www.w3.org/2000/svg" aria-hidden="true" focusable="false" viewBox="0 0 20 20">
  <path d="M17.97,3.8h-3.26c.12-.95,.19-1.87,.19-2.71H5.1c0,.83,.07,1.75,.19,2.71H2.03c-.66,0-1.12,.58-.87,1.11l2.64,6.22c.14,.31,.49,.51,.87,.51h2.95c.35,.62,.74,1.14,1.14,1.49l.08,3.22-3.93,1.89v.67H15.1v-.67l-3.93-1.89,.08-3.22c.4-.36,.78-.87,1.14-1.49h2.83c.38,0,.72-.2,.86-.5l2.75-6.22c.26-.53-.19-1.13-.86-1.13ZM4.77,10.49L2.42,4.95h3.04c.33,1.96,.88,3.95,1.58,5.55h-2.27Zm10.35,0h-2.16c.7-1.59,1.25-3.59,1.58-5.55h3.03l-2.45,5.55Z"/>
</svg>