<svg xmlns="http://www.w3.org/2000/svg" aria-hidden="true" focusable="false" viewBox="0 -0.22 40.63 40.63">
  <path d="M16.2,24.43a7.68,7.68,0,0,1,0-10.85L27.55,2.24A7.67,7.67,0,0,1,38.39,13.08l-7.85,7.86-1.69-1.69,7.86-7.85a5.29,5.29,0,0,0-7.48-7.48L17.89,15.27a5.27,5.27,0,0,0,0,7.47Z"/>
  <path d="M7.67,40.19A7.66,7.66,0,0,1,2.25,27.11l7.85-7.86,1.68,1.69L3.93,28.79a5.3,5.3,0,0,0,0,7.48,5.29,5.29,0,0,0,7.48,0L22.75,24.93a5.3,5.3,0,0,0,0-7.48l1.68-1.69a7.68,7.68,0,0,1,0,10.85L13.09,38A7.62,7.62,0,0,1,7.67,40.19Z"/>
</svg>