<svg xmlns="http://www.w3.org/2000/svg" aria-hidden="true" focusable="false" viewBox="0 0 20 20">
  <path d="M8.15,11.98c-1.35-1.37-1.35-3.6,0-4.97L13.26,1.82c1.35-1.37,3.54-1.37,4.89,0,1.35,1.37,1.35,3.6,0,4.97l-3.54,3.6-.76-.77,3.54-3.6c.93-.94,.93-2.48,0-3.43-.93-.94-2.44-.94-3.37,0l-5.11,5.19c-.93,.94-.93,2.48,0,3.42l-.76,.77Z"/>
  <path d="M4.3,19.2c-.92,0-1.79-.37-2.44-1.03s-1.01-1.54-1.01-2.48,.36-1.82,1.01-2.48l3.54-3.6,.76,.77-3.54,3.6c-.93,.94-.93,2.48,0,3.43,.45,.46,1.05,.71,1.69,.71s1.24-.25,1.69-.71l5.11-5.19c.93-.94,.93-2.48,0-3.42l.76-.77c1.35,1.37,1.35,3.6,0,4.97l-5.11,5.19c-.65,.66-1.52,1.03-2.44,1.03Z"/>
</svg>