<svg xmlns="http://www.w3.org/2000/svg" aria-hidden="true" focusable="false" viewBox="0 0 24 24">
  <rect x="3.04" y="16.15" width="10.7" height="1.45"/>
  <rect x="3.04" y="19.39" width="10.7" height="1.45"/>
  <path d="M7.43,12.92H3.04v1.45h5.79c-.53-.42-1-.91-1.4-1.45Z"/>
  <path d="M22.32,15.97l-3.82-3.89c1.8-2.44,1.62-5.9-.56-8.12-1.2-1.22-2.77-1.82-4.34-1.82s-3.14.61-4.34,1.82c-2.4,2.43-2.4,6.38,0,8.81,1.2,1.22,2.77,1.82,4.34,1.82,1.29,0,2.58-.43,3.66-1.25l3.82,3.89,1.24-1.26ZM13.6,13.16c-1.25,0-2.42-.49-3.31-1.39-1.85-1.87-1.85-4.92,0-6.79.89-.9,2.06-1.39,3.31-1.39s2.42.49,3.31,1.39c1.85,1.87,1.85,4.92,0,6.79-.89.9-2.06,1.39-3.31,1.39Z"/>
</svg>