<svg xmlns="http://www.w3.org/2000/svg" aria-hidden="true" focusable="false" viewBox="0 0 24 24">
  <path d="M7.48,4.48c-3.52,0-6.37,2.85-6.37,6.37s2.85,6.37,6.37,6.37,6.37-2.85,6.37-6.37-2.85-6.37-6.37-6.37ZM11.93,12.06h-5.35v-5.95c0-.45.36-.81.81-.81s.81.36.81.81v4.33h3.73c.45,0,.81.36.81.81s-.36.81-.81.81Z"/>
  <rect x="15" y="9.31" width="8" height="2" rx="1" ry="1"/>
  <rect x="15" y="13.31" width="8" height="2" rx="1" ry="1"/>
  <rect x="15" y="17.31" width="8" height="2" rx="1" ry="1"/>
</svg>