<svg xmlns="http://www.w3.org/2000/svg" aria-hidden="true" focusable="false" viewBox="0 0 24 24">
  <rect x="2.09" y="17.31" width="12.05" height="1.45"/>
  <rect x="2.09" y="20.55" width="12.05" height="1.45"/>
  <path d="M8.72,14.08H2.09v1.45h8.13c-.55-.42-1.05-.91-1.49-1.45Z"/>
  <path d="M15.42,2.36c-3.52,0-6.37,2.85-6.37,6.37s2.85,6.37,6.37,6.37,6.37-2.85,6.37-6.37-2.85-6.37-6.37-6.37ZM19.87,9.94h-5.35V3.98c0-.45.36-.81.81-.81s.81.36.81.81v4.33h3.73c.45,0,.81.36.81.81s-.36.81-.81.81Z"/>
</svg>