<svg xmlns="http://www.w3.org/2000/svg" aria-hidden="true" focusable="false" viewBox="0 0 24 24">
  <polygon points="17.73 2.47 7.25 2.47 2.01 11.54 3.98 14.95 4.71 14.22 3.17 11.54 7.83 3.47 17.16 3.47 21.82 11.54 17.16 19.62 9.35 19.62 8.35 20.62 17.73 20.62 22.97 11.54 17.73 2.47"/>
  <path d="M15.4,14.32c1.59-1.59,1.59-4.17,0-5.76-1.59-1.59-4.17-1.59-5.76,0-1.05,1.05-1.39,2.51-1.06,3.85l-6.93,6.94v2.75h2.86s.9-.91.9-.91v-1.65c0-.25.2-.44.44-.44h1.65s.4-.4.4-.4v-1.65c0-.25.2-.44.44-.44h1.65s1.29-1.29,1.29-1.29c1.41.45,3,.13,4.11-.98ZM13.04,11.41c-.66-.38-.88-1.22-.5-1.88.38-.66,1.22-.88,1.88-.5.66.38.88,1.22.5,1.88-.38.66-1.22.88-1.88.5Z"/>
</svg>