<?xml version="1.0" encoding="UTF-8"?>
<svg id="Layer_1" data-name="Layer 1" xmlns="http://www.w3.org/2000/svg" viewBox="0 0 24 24">
  <defs>
    <style>
      .cls-1 {
        fill: #fff;
        stroke-width: 0px;
      }
    </style>
  </defs>
  <path class="cls-1" d="M13.56,18.37h-5.63l-4.09-7.09,4.09-7.09h8.18l3.05,5.27h1.15l-3.48-6.02c-.09-.15-.25-.25-.43-.25H7.64c-.18,0-.34.1-.43.25l-4.38,7.59c-.09.15-.09.35,0,.5l4.38,7.59c.09.15.25.25.43.25h5.92v-1Z"/>
  <path class="cls-1" d="M21.76,11.47c.14,0,.21.17.11.26l-4.36,4.52v5.03c0,.07-.04.14-.11.17l-1.57.67s-.05.01-.07.01c-.1,0-.18-.08-.18-.18v-5.7l-4.36-4.52c-.1-.1-.03-.26.11-.26h10.45"/>
  <path class="cls-1" d="M9.76,13.12c-.6-.62-.77-1.54-.43-2.34.34-.8,1.12-1.31,1.98-1.31h5.06l-1.65-2.87h-5.4l-2.7,4.68,2.7,4.68h3.18l-2.74-2.84Z"/>
</svg>