<svg xmlns="http://www.w3.org/2000/svg" aria-hidden="true" focusable="false" viewBox="0 0 64 64">
  <path d="m40.05,22.84v-6.21h11.14c.79,0,1.42-.64,1.42-1.42s-.64-1.42-1.42-1.42h-11.14v-6.21c0-1.01-1.22-1.51-1.93-.8l-7.63,7.63c-.44.44-.44,1.16,0,1.6l7.63,7.63c.71.71,1.93.21,1.93-.8Z"/>
  <path d="m53.68,28.74l-7.63-7.63c-.71-.71-1.93-.21-1.93.8v6.21h-10.45c-.79,0-1.42.64-1.42,1.42s.64,1.42,1.42,1.42h10.45v6.21c0,1.01,1.22,1.51,1.93.8l7.63-7.63c.44-.44.44-1.16,0-1.6Z"/>
  <path d="m23.31,27.43h-6.44c-2.94,0-5.32,2.38-5.32,5.32v6.44c0,1.7.82,3.2,2.06,4.18l2.22,12.92c.22,1.3,1.3,2.26,2.58,2.26h3.38c1.27,0,2.36-.95,2.57-2.26l2.22-12.92c1.25-.97,2.06-2.47,2.06-4.18v-6.44c0-2.94-2.38-5.32-5.32-5.32Z"/>
  <path d="m20.09,25.63c3.72,0,6.74-3.02,6.74-6.74h0c0-.39-.04-.78-.11-1.15-.07-.37-.17-.73-.3-1.08-.19-.54-.43-1.07-.74-1.54-.48-.72-1.1-1.34-1.82-1.82-.9-.61-1.96-.97-3.09-1.08-.23-.02-.45-.07-.68-.07-.47,0-.92.05-1.36.14-.88.18-1.69.53-2.41,1.01-.9.61-1.64,1.42-2.16,2.38-.52.95-.81,2.05-.81,3.21h0c0,3.72,3.02,6.74,6.74,6.74Z"/>
</svg>