<svg xmlns="http://www.w3.org/2000/svg" aria-hidden="true" focusable="false" viewBox="0 0 64 64">
  <path d="M31.8,26.29l6.34,6.34c.24.24.56.37.88.37s.64-.12.88-.37c.49-.49.49-1.28,0-1.77l-4.21-4.21h16.98c.69,0,1.25-.56,1.25-1.25s-.56-1.25-1.25-1.25h-16.99l4.23-4.23c.49-.49.49-1.28,0-1.77s-1.28-.49-1.77,0l-7.25,7.25.88.88s0,0,.01.01Z"/>
  <path d="M53.57,40.33s0,0-.01-.01l-6.34-6.34c-.49-.49-1.28-.49-1.77,0s-.49,1.28,0,1.77l4.21,4.21h-16.98c-.69,0-1.25.56-1.25,1.25s.56,1.25,1.25,1.25h16.99l-4.23,4.23c-.49.49-.49,1.28,0,1.77.24.24.56.37.88.37s.64-.12.88-.37l7.25-7.25-.88-.88Z"/>
  <path d="M22.08,25.7h-5.99c-2.74,0-4.95,2.22-4.95,4.95v5.99c0,1.59.76,2.98,1.92,3.89l2.06,12.02c.2,1.21,1.21,2.1,2.4,2.1h3.14c1.18,0,2.19-.89,2.4-2.1l2.06-12.02c1.16-.91,1.92-2.3,1.92-3.89v-5.99c0-2.74-2.22-4.95-4.95-4.95Z"/>
  <path d="M25.25,16.68c-.07-.35-.16-.68-.28-1.01-.18-.51-.4-.99-.69-1.43-.45-.67-1.03-1.24-1.69-1.69-.83-.56-1.82-.9-2.87-1.01-.21-.02-.42-.06-.63-.06-.43,0-.86.04-1.26.13-.82.17-1.58.49-2.24.94-.83.56-1.52,1.32-2.01,2.21-.48.89-.76,1.91-.76,2.99h0c0,2.66,1.65,5.11,4.18,5.93,4.35,1.41,8.36-1.79,8.36-5.93h0c0-.37-.04-.72-.1-1.07Z"/>
</svg>