<svg xmlns="http://www.w3.org/2000/svg" aria-hidden="true" focusable="false" viewBox="0 0 24 24">
  <g>
  <path class="b" d="M3.74,9.89l1.3-.32c.74-2.12,2.42-3.79,4.53-4.53l.32-1.3c-3.01.77-5.38,3.14-6.15,6.15ZM18.96,9.57l1.3.32c-.77-3.01-3.14-5.38-6.15-6.15l.32,1.3c2.12.74,3.79,2.42,4.53,4.53ZM5.04,14.43l-1.3-.32c.77,3.01,3.14,5.38,6.15,6.15l-.32-1.3c-2.12-.74-3.79-2.42-4.53-4.53ZM14.43,18.96l-.32,1.3c3.01-.77,5.38-3.14,6.15-6.15l-1.3.32c-.74,2.12-2.42,3.79-4.53,4.53Z"/>
  <path class="c" d="M11.8,23.18l-2.02-8.23c-.09-.36-.37-.64-.73-.73L.82,12.2c-.21-.05-.21-.35,0-.4l8.23-2.02c.36-.09.64-.37.73-.73L11.8.82c.05-.21.35-.21.4,0l2.02,8.23c.09.36.37.64.73.73l8.23,2.02c.21.05.21.35,0,.4l-8.23,2.02c-.36.09-.64.37-.73.73l-2.02,8.23c-.05.21-.35.21-.4,0Z"/>
  </g>
</svg>