<svg xmlns="http://www.w3.org/2000/svg" aria-hidden="true" focusable="false" viewBox="0 0 24 24">
  <polygon points="12 23.52 9.63 13.88 0 11.52 9.63 9.15 12 -.48 14.37 9.15 24 11.52 14.37 13.88 12 23.52"/>
  <g>
    <path class="cls-2" d="M3.74,9.89l1.3-.32c.74-2.12,2.42-3.79,4.53-4.53l.32-1.3c-3.01.77-5.38,3.14-6.15,6.15ZM18.96,9.57l1.3.32c-.77-3.01-3.14-5.38-6.15-6.15l.32,1.3c2.12.74,3.79,2.42,4.53,4.53ZM5.04,14.43l-1.3-.32c.77,3.01,3.14,5.38,6.15,6.15l-.32-1.3c-2.12-.74-3.79-2.42-4.53-4.53ZM14.43,18.96l-.32,1.3c3.01-.77,5.38-3.14,6.15-6.15l-1.3.32c-.74,2.12-2.42,3.79-4.53,4.53Z"/>
  <path class="cls-1" d="M12,23.34l-2.13-8.67c-.07-.27-.28-.48-.55-.55L.66,12l8.67-2.13c.27-.07.48-.28.55-.55L12,.66l2.13,8.67c.07.27.28.48.55.55l8.67,2.13-8.67,2.13c-.27.07-.48.28-.55.55l-2.13,8.67Z"/>
  </g>
</svg>