<svg xmlns="http://www.w3.org/2000/svg" aria-hidden="true" focusable="false" viewBox="0 0 24 24">
  <polygon points="12 23.52 9.63 13.88 0 11.52 9.63 9.15 12 -.48 14.37 9.15 24 11.52 14.37 13.88 12 23.52"/>
  <g>
    <path d="M14.15,4.26c2.45,.73,4.38,2.66,5.1,5.1l1.06,.26c-.73-3.18-3.23-5.69-6.42-6.42l.26,1.06Z"/>
    <path d="M4.75,9.37c.73-2.45,2.66-4.37,5.1-5.1l.26-1.06c-3.18,.73-5.69,3.23-6.42,6.42l1.06-.26Z"/>
    <path d="M19.25,13.67c-.73,2.45-2.66,4.37-5.1,5.1l-.26,1.06c3.18-.73,5.69-3.23,6.42-6.42l-1.06,.26Z"/>
    <path d="M9.85,18.77c-2.45-.73-4.37-2.66-5.1-5.1l-1.06-.26c.73,3.18,3.23,5.69,6.42,6.42l-.26-1.06Z"/>
  </g>
</svg>