<svg xmlns="http://www.w3.org/2000/svg" aria-hidden="true" focusable="false" viewBox="4 4 24 24">
  <path d="M10.03,10.06c.12,0,.24-.04,.34-.13,.23-.21,.46-.4,.71-.58,.22-.16,.27-.47,.11-.7-.16-.22-.47-.27-.7-.11-.28,.2-.55,.42-.8,.65-.2,.19-.22,.5-.03,.71,.1,.11,.23,.16,.37,.16Z"/>
  <path d="M10.47,22.17c-.21-.18-.52-.16-.71,.04-.18,.21-.16,.52,.04,.71,.26,.23,.53,.44,.81,.64,.09,.06,.19,.09,.29,.09,.16,0,.31-.07,.41-.21,.16-.23,.1-.54-.12-.7-.25-.18-.49-.37-.72-.57Z"/>
  <path d="M8.33,19.21c-.11-.25-.4-.37-.66-.26-.25,.11-.37,.4-.26,.66,.14,.32,.29,.63,.46,.93,.09,.16,.26,.25,.44,.25,.08,0,.17-.02,.25-.06,.24-.14,.33-.44,.19-.68-.15-.27-.29-.54-.41-.83Z"/>
  <path d="M13.4,8.15s.09,0,.14-.02c.29-.09,.59-.16,.9-.21,.27-.05,.45-.31,.4-.58-.05-.27-.31-.45-.58-.4-.34,.06-.68,.14-1,.24-.26,.08-.42,.36-.34,.62,.06,.22,.26,.36,.48,.36Z"/>
  <path d="M17.19,7.89c.31,.05,.61,.11,.9,.2,.04,.01,.09,.02,.13,.02,.22,0,.42-.15,.48-.37,.07-.27-.08-.54-.35-.62-.33-.09-.67-.17-1.01-.22-.27-.04-.53,.14-.57,.42s.14,.53,.42,.57Z"/>
  <path d="M7.7,16.52c-.01-.18-.02-.35-.02-.52,0-.13,0-.26,0-.38,.01-.28-.2-.51-.48-.52-.25,0-.51,.2-.52,.48,0,.14,0,.29,0,.43,0,.19,0,.39,.02,.56,0,.02,0,.05,0,.06,.02,.26,.24,.45,.5,.45,.01,0,.03,0,.04,0,.27-.02,.48-.26,.46-.54Z"/>
  <path d="M7.63,13.2c.06,.02,.12,.04,.19,.04,.2,0,.38-.12,.46-.31,.12-.29,.25-.56,.39-.83,.13-.24,.04-.55-.2-.68-.24-.13-.55-.04-.68,.2-.16,.3-.31,.61-.44,.94-.1,.26,.02,.55,.28,.65Z"/>
  <path d="M23.45,12.78c.08,.19,.27,.3,.46,.3,.07,0,.13-.01,.2-.04,.25-.11,.37-.4,.26-.66-.14-.32-.29-.63-.46-.92-.14-.24-.44-.32-.68-.19-.24,.14-.33,.44-.19,.68,.15,.27,.29,.54,.41,.83Z"/>
  <path d="M21.41,22.09c-.23,.21-.46,.4-.71,.58-.22,.16-.28,.47-.11,.7,.1,.14,.25,.21,.41,.21,.1,0,.2-.03,.29-.09,.28-.2,.55-.42,.8-.65,.2-.19,.22-.5,.03-.71-.19-.2-.5-.22-.71-.03Z"/>
  <path d="M24.16,18.82c-.26-.1-.55,.02-.65,.27-.12,.29-.25,.56-.39,.83-.13,.24-.04,.55,.2,.68,.08,.04,.16,.06,.24,.06,.18,0,.35-.09,.44-.26,.17-.3,.31-.61,.44-.93,.1-.26-.02-.55-.27-.65Z"/>
  <path d="M21.31,9.82c.09,.08,.21,.12,.33,.12,.14,0,.28-.06,.38-.17,.18-.21,.16-.52-.05-.71-.26-.23-.53-.44-.81-.64-.23-.16-.54-.1-.7,.12-.16,.23-.1,.54,.12,.7,.25,.18,.49,.36,.73,.57Z"/>
  <path d="M18.23,23.88c-.29,.09-.59,.16-.9,.21-.27,.05-.45,.31-.4,.58,.04,.24,.25,.41,.49,.41,.03,0,.06,0,.09,0,.34-.06,.68-.14,1-.24,.26-.08,.42-.36,.34-.62-.08-.26-.35-.42-.62-.34Z"/>
  <path d="M14.58,24.11c-.31-.05-.61-.12-.9-.2-.26-.07-.54,.08-.62,.35-.07,.27,.08,.54,.35,.62,.33,.09,.67,.17,1.01,.22,.03,0,.05,0,.08,0,.24,0,.45-.17,.49-.42,.04-.27-.14-.53-.41-.57Z"/>
  <circle cx="24.49" cy="15.97" r="1.89"/>
  <polygon points="16.4 9.01 15.4 9.01 15.4 16.21 18.33 19.15 19.04 18.44 16.4 15.79 16.4 9.01"/>
</svg>