<svg xmlns="http://www.w3.org/2000/svg" aria-hidden="true" focusable="false" viewBox="0 0 24 24">
  <g>
    <path class="cls-1" d="M19.31,12.84c-.16.38-.36.73-.58,1.08,2.06.68,3.28,1.63,3.28,2.52,0,1.27-2.47,2.66-6.31,3.22.06.28.11.56.11.86,0,.12-.02.23-.03.34,4.42-.62,7.44-2.31,7.44-4.42,0-1.48-1.49-2.76-3.9-3.6Z"/>
    <path class="cls-1" d="M8.19,20.52c0-.3.04-.58.11-.86-3.85-.56-6.31-1.94-6.31-3.22,0-.89,1.22-1.84,3.28-2.52-.22-.34-.41-.7-.58-1.08-2.42.84-3.9,2.12-3.9,3.6,0,2.11,3.02,3.8,7.44,4.42-.01-.11-.03-.23-.03-.34Z"/>
  </g>
  <g>
    <polygon class="cls-1" points="9.16 13.58 8.03 13.97 8.03 17.38 6.32 12.27 8.66 11.59 9.16 13.58"/>
    <path class="cls-1" d="M13.39,13.58c3.89-7.53-1.33-12.43-1.33-12.43h-.06s-5.22,4.9-1.33,12.43h2.72Z"/>
    <polygon class="cls-1" points="14.84 13.58 15.97 13.97 15.97 17.38 17.68 12.27 15.34 11.59 14.84 13.58"/>
  </g>
  <circle class="cls-1" cx="12" cy="20.52" r="2.34"/>
</svg>