<svg xmlns="http://www.w3.org/2000/svg" aria-hidden="true" focusable="false" viewBox="0 0 24 24">
  <g>
    <path d="m17.33,8.2h-1.78c-.81,0-1.47.66-1.47,1.47v1.78c0,.47.23.89.57,1.15l.61,3.57c.06.36.36.62.71.62h.93c.35,0,.65-.26.71-.62l.61-3.57c.34-.27.57-.68.57-1.15v-1.78c0-.81-.66-1.47-1.47-1.47Z"/>
    <path d="m18.27,5.52c-.02-.1-.05-.2-.08-.3-.05-.15-.12-.29-.21-.42-.13-.2-.3-.37-.5-.5-.25-.17-.54-.27-.85-.3-.06,0-.12-.02-.19-.02-.13,0-.25.01-.38.04-.24.05-.47.15-.67.28-.25.17-.45.39-.6.66-.14.26-.22.57-.22.89h0c0,1.03.83,1.86,1.86,1.86s1.86-.83,1.86-1.86h0c0-.11-.01-.21-.03-.32Z"/>
  </g>
  <g>
    <path d="m8.45,8.2h-1.78c-.81,0-1.47.66-1.47,1.47v1.78c0,.47.23.89.57,1.15l.61,3.57c.06.36.36.62.71.62h.93c.35,0,.65-.26.71-.62l.61-3.57c.34-.27.57-.68.57-1.15v-1.78c0-.81-.66-1.47-1.47-1.47Z"/>
    <path d="m9.39,5.52c-.02-.1-.05-.2-.08-.3-.05-.15-.12-.29-.21-.42-.13-.2-.3-.37-.5-.5-.25-.17-.54-.27-.85-.3-.06,0-.12-.02-.19-.02-.13,0-.25.01-.38.04-.24.05-.47.15-.67.28-.25.17-.45.39-.6.66-.14.26-.22.57-.22.89h0c0,1.03.83,1.86,1.86,1.86s1.86-.83,1.86-1.86h0c0-.11-.01-.21-.03-.32Z"/>
  </g>
  <path d="m20.27,9.03v5.43c0,.11-.02.22-.06.33l-1.5,3.79c-.14.34-.47.57-.83.57h-3.08c-.37,0-.7-.22-.83-.57l-1.5-3.79c-.04-.1-.06-.22-.06-.33v-5.43h-.91v5.43c0,.11-.02.22-.06.33l-1.5,3.79c-.14.34-.47.57-.83.57h-3.08c-.37,0-.7-.22-.83-.57l-1.5-3.79c-.04-.1-.06-.22-.06-.33v-5.43h-1.02v9.14c0,1.02.79,1.86,1.76,1.86h15.27c.97,0,1.76-.83,1.76-1.86v-9.14h-1.12Z"/>
</svg>