<svg xmlns="http://www.w3.org/2000/svg" aria-hidden="true" focusable="false" viewBox="0 0 24 24">
  <g>
    <path d="m19.88,5.04c-.03-.18-.08-.35-.14-.52-.09-.26-.2-.51-.35-.73-.23-.34-.52-.64-.87-.87-.43-.29-.93-.46-1.47-.51-.11-.01-.21-.03-.32-.03-.22,0-.44.02-.65.07-.42.09-.81.25-1.15.48-.43.29-.78.68-1.03,1.13-.25.45-.39.97-.39,1.53h0c0,1.77,1.43,3.21,3.21,3.21s3.2-1.43,3.21-3.2h0c0-.19-.02-.37-.05-.55Z"/>
    <path d="m21.6,14.09v-1.25c0-1.67-1.36-3.03-3.03-3.03h-3.67c-1.68,0-3.03,1.36-3.03,3.03v1.25h9.73Z"/>
  </g>
  <path d="m13.37,20.59h-3.31c-2.32,0-4.21-1.89-4.21-4.21v-7.58c0-2.32,1.89-4.21,4.21-4.21h.47v1.36h-.47c-1.57,0-2.85,1.28-2.85,2.85v7.58c0,1.57,1.28,2.85,2.85,2.85h3.31c1.57,0,2.85-1.28,2.85-2.85h1.36c0,2.32-1.89,4.21-4.21,4.21Z"/>
</svg>