<svg xmlns="http://www.w3.org/2000/svg" aria-hidden="true" focusable="false" viewBox="0 0 24 24">
  <path d="m13.36,14.31l1.55-1.4-.48-1.17-2.09.11c-.28-.28-.42-.42-.71-.71l.11-2.09-1.17-.48-1.4,1.55h-1l-1.4-1.55q-.58.24-1.17.48l.11,2.09-.71.71-2.09-.11-.48,1.17,1.55,1.4v1l-1.55,1.4.48,1.17,2.09-.11.71.71-.11,2.09,1.17.48,1.4-1.55h1s1.4,1.55,1.4,1.55l1.17-.48-.11-2.09.7-.7,2.09.11.48-1.17-1.55-1.4v-1Zm-3.43,3.4c-2.69,1.05-5.21-1.47-4.16-4.16.29-.75.9-1.35,1.65-1.65,2.69-1.05,5.21,1.47,4.16,4.16-.29.75-.9,1.36-1.65,1.65Z"/>
  <path d="m20.1,8.01l1.48-1.01-.22-.99-1.77-.27-.46-.58.13-1.78-.91-.44-1.31,1.21h-.74l-1.31-1.21-.91.44.13,1.78-.46.58-1.77.27-.22.99,1.48,1.01.16.72-.89,1.55.63.79,1.71-.52.66.32.66,1.66h1.01l.66-1.66.66-.32,1.71.52.63-.79-.89-1.55.16-.72Zm-2.25,1.82c-2.26,1.07-4.46-1.14-3.4-3.4.21-.44.58-.81,1.02-1.02,2.26-1.07,4.46,1.14,3.4,3.4-.21.44-.58.81-1.02,1.02Z"/>
</svg>