<svg xmlns="http://www.w3.org/2000/svg" aria-hidden="true" focusable="false" viewBox="0 0 24 24">
  <polygon points="1.36 19.87 6.16 22.64 6.16 17.1 1.36 14.33 1.36 19.87"/>
  <polygon points="6.57 10.83 1.77 13.6 6.57 16.38 11.37 13.6 7.99 11.65 6.57 10.83"/>
  <polygon points="17.84 10.83 16.43 11.65 13.04 13.6 17.84 16.38 22.64 13.6 17.84 10.83"/>
  <polygon points="12.63 19.87 17.43 22.64 17.43 17.1 12.63 14.33 12.63 19.87"/>
  <polygon points="6.99 10.11 11.79 12.88 11.79 7.34 6.99 4.57 6.99 10.11"/>
  <polygon points="12.21 1.07 7.41 3.85 12.21 6.62 17.01 3.85 12.21 1.07"/>
</svg>