<svg xmlns="http://www.w3.org/2000/svg" aria-hidden="true" focusable="false" viewBox="0 0 64 64">
  <path d="M45.28,32.99l-14.61-14.61c-2.07-2.07-5.42-2.07-7.49,0l-14.61,14.61c-2.07,2.07-2.07,5.42,0,7.49l14.61,14.61c2.07,2.07,5.42,2.07,7.49,0l14.61-14.61c2.07-2.07,2.07-5.42,0-7.49ZM22.83,26.92h0c0-.71.18-1.37.5-1.95s.77-1.08,1.31-1.44c.44-.29.93-.51,1.47-.62.27-.05.54-.08.83-.08.14,0,.28.03.41.04.69.07,1.33.29,1.88.66.44.29.81.67,1.11,1.11.19.29.34.6.45.94.08.21.14.43.18.66.04.23.07.46.07.7h0c0,2.26-1.84,4.1-4.1,4.1s-4.1-1.84-4.1-4.1h0ZM32.12,39.26c0,1.04-.5,1.95-1.25,2.54l-1.35,7.86c-.13.79-.79,1.37-1.57,1.37h-2.05c-.77,0-1.44-.58-1.57-1.37l-1.35-7.86c-.76-.59-1.25-1.51-1.25-2.54v-3.92c0-1.79,1.45-3.24,3.24-3.24h3.92c1.79,0,3.24,1.45,3.24,3.24v3.92Z"/>
  <path d="M46.84,19.76l-8.39-8.39c-.39-.39-.39-1.02,0-1.41s1.02-.39,1.41,0l6.98,6.98,6.96-6.96c.39-.39,1.02-.39,1.41,0s.39,1.02,0,1.41l-8.38,8.38Z"/>
  <path d="M46.84,26.42l-8.39-8.39c-.39-.39-.39-1.02,0-1.41s1.02-.39,1.41,0l6.98,6.98,6.96-6.96c.39-.39,1.02-.39,1.41,0s.39,1.02,0,1.41l-8.38,8.38Z"/>
</svg>