<svg xmlns="http://www.w3.org/2000/svg" aria-hidden="true" focusable="false" viewBox="0 0 64 64">
  <g>
    <path d="m25.43,23.75h-6.7c-3.06,0-5.54,2.48-5.54,5.54v6.7c0,1.77.85,3.34,2.15,4.35l2.31,13.45c.23,1.36,1.36,2.35,2.68,2.35h3.52c1.32,0,2.45-.99,2.68-2.35l2.31-13.45c1.3-1.01,2.15-2.58,2.15-4.35v-6.7c0-3.06-2.48-5.54-5.54-5.54Z"/>
    <path d="m28.98,13.67c-.07-.39-.18-.76-.31-1.13-.2-.57-.44-1.11-.77-1.6-.5-.75-1.15-1.39-1.89-1.89-.93-.63-2.04-1.01-3.21-1.13-.24-.02-.47-.07-.71-.07-.48,0-.96.05-1.41.14-.91.19-1.76.55-2.51,1.06-.93.63-1.71,1.48-2.25,2.47-.54.99-.85,2.13-.85,3.34h0c0,3.87,3.14,7.01,7.01,7.01s7.01-3.14,7.01-7.01h0c0-.41-.04-.81-.12-1.2Z"/>
  </g>
  <path d="m52.99,30.6h-7.31v-7.31c0-.77-.63-1.4-1.4-1.4s-1.4.63-1.4,1.4v7.31h-7.31c-.77,0-1.4.63-1.4,1.4s.63,1.4,1.4,1.4h7.31v7.31c0,.77.63,1.4,1.4,1.4s1.4-.63,1.4-1.4v-7.31h7.31c.77,0,1.4-.63,1.4-1.4s-.63-1.4-1.4-1.4Z"/>
</svg>