<svg xmlns="http://www.w3.org/2000/svg" aria-hidden="true" focusable="false" viewBox="0 0 20 20">
  <path d="m19.26,9.65c0-1.16-1.36-2.04-3.3-2.61-.94-2.15-3.01-3.69-5.46-3.88v-1.98h-1v1.98c-2.45.19-4.52,1.73-5.46,3.88-1.94.57-3.3,1.44-3.3,2.61s1.36,2.04,3.3,2.61c.94,2.15,3.01,3.69,5.46,3.88v2.68h1v-2.68c2.45-.19,4.52-1.73,5.46-3.88,1.94-.57,3.3-1.44,3.3-2.61Zm-4.6-2.93c-1.29-.26-2.73-.41-4.16-.43v-2.13c1.75.16,3.27,1.14,4.16,2.56Zm.85,2.93c0,.63-.11,1.23-.31,1.79-1.35.34-3.11.57-5.2.57s-3.85-.23-5.2-.57c-.19-.56-.31-1.17-.31-1.79s.11-1.23.31-1.79c1.35-.34,3.11-.57,5.2-.57s3.85.23,5.2.57c.19.56.31,1.17.31,1.79Zm-6.01-5.48v2.13c-1.43.03-2.87.17-4.16.43.89-1.42,2.41-2.4,4.16-2.56ZM1.74,9.65c0-.46.68-1,1.92-1.45-.11.47-.17.95-.17,1.45s.06.98.17,1.45c-1.24-.45-1.92-.99-1.92-1.45Zm3.6,2.93c1.29.26,2.73.41,4.16.43v2.13c-1.75-.16-3.27-1.14-4.16-2.56Zm5.16,2.56v-2.13c1.43-.03,2.87-.17,4.16-.43-.89,1.42-2.41,2.4-4.16,2.56Zm5.84-4.04c.11-.47.17-.95.17-1.45s-.06-.98-.17-1.45c1.24.45,1.92.99,1.92,1.45s-.68,1-1.92,1.45Z"/>
</svg>