<svg xmlns="http://www.w3.org/2000/svg" aria-hidden="true" focusable="false" viewBox="0 0 20 20">
  <path d="M17.92,4.18c-.1-.13-.26-.21-.42-.21h-2.91l.36-1.88H5.05l.36,1.88h-2.91c-.17,0-.32.08-.42.21-.1.13-.13.3-.09.46l1.79,6.38c.06.23.27.39.51.39h2.54l.33,1.73h1.87v1.89c0,1-.82,1.82-1.82,1.82h-.6v1.06h6.76v-1.06h-.6c-1,0-1.82-.82-1.82-1.82v-1.89h1.87l.33-1.73h2.54c.24,0,.45-.16.51-.39l1.79-6.38c.04-.16.01-.33-.09-.46ZM4.7,10.34l-1.49-5.32h2.41l1.02,5.32h-1.94ZM15.3,10.34h-1.94l1.02-5.32h2.41l-1.49,5.32Z"/>
</svg>