<svg xmlns="http://www.w3.org/2000/svg" aria-hidden="true" focusable="false" viewBox="0 0 24 24">
  <path class="cls-1" d="M22.24,20.73l-6.15-6.23c2.35-3.19,2.12-7.72-.74-10.61-1.57-1.59-3.62-2.39-5.68-2.39-2.53,0-5.06,1.21-6.68,3.62-1.82,2.7-1.82,6.35,0,9.05,1.62,2.41,4.15,3.62,6.68,3.62,1.69,0,3.37-.56,4.79-1.64l6.14,6.22c.19.19.49.19.68,0l.96-.97c.18-.19.18-.48,0-.67ZM9.68,16.11c-2.21,0-4.26-1.15-5.47-3.18s-1.19-4.56,0-6.56,3.25-3.18,5.47-3.18,4.26,1.15,5.47,3.18,1.19,4.56,0,6.56-3.25,3.18-5.47,3.18Z"/>
</svg>