<?xml version="1.0" encoding="UTF-8"?>
<svg id="Layer_1" data-name="Layer 1" xmlns="http://www.w3.org/2000/svg" viewBox="0 0 24 24">
  <defs>
    <style>
      .cls-1 {
        fill: #fff;
        stroke-width: 0px;
      }
    </style>
  </defs>
  <path class="cls-1" d="M21.2,19.97l-5.61-5.68c2.15-2.92,1.94-7.06-.67-9.71-1.43-1.46-3.32-2.18-5.2-2.18-2.32,0-4.63,1.1-6.12,3.31-1.66,2.47-1.66,5.81,0,8.28,1.48,2.21,3.8,3.31,6.12,3.31,1.55,0,3.08-.51,4.38-1.5l5.6,5.67c.18.18.48.18.66,0l.84-.85c.18-.18.18-.47,0-.65ZM9.73,16.04c-1.62,0-3.14-.64-4.28-1.8-2.39-2.42-2.39-6.37,0-8.79,1.15-1.16,2.67-1.8,4.28-1.8s3.14.64,4.28,1.8c2.39,2.42,2.39,6.37,0,8.79-1.15,1.16-2.67,1.8-4.28,1.8Z"/>
</svg>