<svg xmlns="http://www.w3.org/2000/svg" aria-hidden="true" focusable="false" viewBox="4 4 24 24">
  <path d="M26.12,14.88c-.48,0-.89,.29-1.08,.7h-7.78c-.19-.41-.6-.7-1.08-.7-.66,0-1.2,.54-1.2,1.2s.54,1.2,1.2,1.2c.48,0,.89-.29,1.08-.7h7.78c.19,.41,.6,.7,1.08,.7,.66,0,1.2-.54,1.2-1.2s-.54-1.2-1.2-1.2Z"/>
  <path d="M16.18,22.6c-5.34,0-9.69-2.92-9.69-6.52s4.35-6.52,9.69-6.52c4.28,0,7.91,1.87,9.19,4.46,.16-.06,.32-.09,.5-.12-1.33-2.81-5.17-4.85-9.69-4.85-5.62,0-10.19,3.15-10.19,7.02s4.57,7.02,10.19,7.02c4.52,0,8.35-2.04,9.69-4.85-.17-.02-.34-.06-.5-.12-1.28,2.59-4.91,4.46-9.19,4.46Z"/>
</svg>