<?xml version="1.0" encoding="UTF-8"?>
<svg id="Layer_1" data-name="Layer 1" xmlns="http://www.w3.org/2000/svg" viewBox="0 0 20 20">
  <defs>
    <style>
      .cls-1 {
        fill: #fff;
        stroke-width: 0px;
      }
    </style>
  </defs>
  <path class="cls-1" d="m15.98,9.46l1.48-2.57-1.04-1.8h-2.97c-.38,0-.74-.21-.93-.54l-1.48-2.57h-2.08l-1.48,2.57c-.19.33-.55.54-.93.54h-2.97l-1.04,1.8,1.48,2.57c.19.33.19.74,0,1.08l-1.48,2.57,1.04,1.8h2.97c.38,0,.74.2.93.54l1.48,2.57h2.08l1.48-2.57c.19-.33.55-.54.93-.54h2.97l1.04-1.8-1.48-2.57c-.19-.33-.19-.74,0-1.08Zm-4.84,5.41c-3.65.81-6.83-2.37-6.02-6.02.41-1.84,1.89-3.32,3.73-3.73,3.65-.81,6.83,2.37,6.02,6.02-.41,1.84-1.89,3.32-3.73,3.73Z"/>
</svg>