<svg xmlns="http://www.w3.org/2000/svg" aria-hidden="true" focusable="false" viewBox="0 0 24 24">
  <polygon points="13.19 4.3 12.09 4.21 10.99 4.3 10.45 6.57 10.8 6.87 10.8 6.87 12.09 6.87 13.39 6.87 13.39 6.87 13.74 6.57 13.19 4.3"/>
  <path d="m13.08,18.21l-.29-.19h-1.39l-.29.19c-.19.12-.33.31-.41.52l-.23.63v.42h3.26v-.42l-.23-.63c-.08-.21-.22-.39-.41-.52Z"/>
  <polygon points="13.73 7.16 13.73 8.96 14.26 8.96 14.26 7.48 14.04 7.16 13.73 7.16"/>
  <polygon points="10.46 7.16 10.46 8.96 9.92 8.96 9.92 7.48 10.14 7.16 10.46 7.16"/>
  <g>
    <rect x="2.69" y="15.42" width="6.83" height="1.52" rx=".36" ry=".36"/>
    <rect x="9.09" y="15.97" width=".86" height=".41"/>
  </g>
  <g>
    <rect x="14.65" y="15.42" width="6.83" height="1.52" rx=".36" ry=".36" transform="translate(36.12 32.35) rotate(-180)"/>
    <rect x="14.22" y="15.97" width=".86" height=".41" transform="translate(29.29 32.35) rotate(-180)"/>
  </g>
  <path d="m14.08,11.97h0s-.37-.37-.37-.37h.55v-1.15l-.29-1.24h-.5v-2.05h-2.76v2.05h-.51l-.28,1.24v1.15h.55l-.37.37h0s-.89.18-.89.18l-.18.44v.31l.18.44.66.13-.66.13-.18.44v.31l.18.44.89.18h0s.41.41.41.41h-.23v1.62l.86.68h1.91l.86-.68v-1.62h-.23l.41-.41h0s.89-.18.89-.18l.18-.44v-.31l-.18-.44-.66-.13.66-.13.18-.44v-.31l-.18-.44-.89-.18Zm-3.34,3.24l-.38-.38v-2.73l.38-.38v3.49Zm3.08-1.74v1.36l-.38.38v-3.49l.38.38v1.36Z"/>
</svg>