<svg xmlns="http://www.w3.org/2000/svg" aria-hidden="true" focusable="false" viewBox="0 0 20 20">
  <path d="M14.94,6.76s0,0,0,0l1.04-1.04c.23-.23.23-.61,0-.84-.23-.23-.61-.23-.84,0l-1.04,1.04s-.02.04-.03.05c-.99-.75-2.18-1.23-3.48-1.34,0-.01,0-.02,0-.03v-1.53h1.72c.33,0,.59-.27.59-.59s-.26-.59-.59-.59h-4.63c-.33,0-.59.26-.59.59s.27.59.59.59h1.72v1.53s0,.02,0,.03c-1.3.11-2.5.6-3.48,1.34-.01-.02-.02-.04-.03-.05l-1.04-1.04c-.23-.23-.61-.23-.84,0s-.23.61,0,.84l1.04,1.04s0,0,0,0c-1.12,1.21-1.81,2.82-1.81,4.59,0,1.86.76,3.55,1.98,4.77,1.22,1.22,2.91,1.98,4.77,1.98s3.55-.76,4.77-1.98c1.22-1.22,1.98-2.91,1.98-4.77s-.69-3.39-1.81-4.59ZM13.04,12.08h-3.04c-.33,0-.59-.26-.59-.59v-5.14c0-.33.27-.59.59-.59s.59.26.59.59v4.55h2.45c.33,0,.59.27.59.59s-.26.59-.59.59Z"/>
</svg>