<svg xmlns="http://www.w3.org/2000/svg" aria-hidden="true" focusable="false" viewBox="0 0 20 20">
  <path d="m13.95,7.11v-2.34c0-1.35-1.1-2.45-2.45-2.45h-2.99c-1.35,0-2.45,1.1-2.45,2.45v2.34h-2.45v7.94c0,1.32,1.07,2.4,2.4,2.4h8c1.32,0,2.4-1.07,2.4-2.4v-7.94h-2.45Zm-6.99-2.34c0-.85.69-1.55,1.55-1.55h2.99c.85,0,1.55.69,1.55,1.55v2.34h-6.08v-2.34Zm8.65,10.28c0,.88-.72,1.6-1.6,1.6H6c-.88,0-1.6-.72-1.6-1.6v-7.15h1.66v.48c0,.25.2.45.45.45s.45-.2.45-.45v-.48h6.08v.48c0,.25.2.45.45.45s.45-.2.45-.45v-.48h1.66v7.15Z"/>
  <path d="m13.41,14h-6.82c-.25,0-.45.2-.45.45s.2.45.45.45h6.82c.25,0,.45-.2.45-.45s-.2-.45-.45-.45Z"/>
</svg>