<svg xmlns="http://www.w3.org/2000/svg" aria-hidden="true" focusable="false" viewBox="4 4 24 24">
  <path d="M23.23,9.26H8.77l-3.53,13.49H26.76l-3.53-13.49Zm.76,5.85h-3.42l-.27-2.07h3.15l.54,2.07Zm-4.18,0h-3.43v-2.07h3.16l.27,2.07Zm-4.18,0h-3.43l.27-2.07h3.16v2.07Zm-4.19,0h-3.42l.54-2.07h3.15l-.27,2.07Zm-.1,.75l-.32,2.42h-3.84l.63-2.42h3.52Zm.76,0h3.53v2.42h-3.85l.32-2.42Zm4.28,0h3.53l.32,2.42h-3.85v-2.42Zm4.29,0h3.52l.63,2.42h-3.84l-.32-2.42Zm4.35,3.17l.78,2.97h-4.32l-.39-2.97h3.94Zm-1.77-6.74h-3.05l-.3-2.28h2.76l.6,2.28Zm-4.11-2.28l.3,2.28h-3.06v-2.28h2.76Zm-3.51,2.28h-3.06l.3-2.28h2.76v2.28Zm-6.27-2.28h2.76l-.3,2.28h-3.05l.6-2.28Zm-2.36,9.02h3.93l-.39,2.97H6.21l.78-2.97Zm4.3,2.97l.39-2.97h3.95v2.97h-4.34Zm5.09-2.97h3.95l.39,2.97h-4.34v-2.97Z"/>
</svg>