<svg xmlns="http://www.w3.org/2000/svg" aria-hidden="true" focusable="false" viewBox="0 0 24 24">
  <defs>
    <style>
      .TutorialIcon-1 { opacity:.5; }
      .TutorialIcon-2 { fill:#fff; }
      .TutorialIcon-2,.TutorialIcon-3 { stroke-width:0px; }
      .TutorialIcon-3 { fill: currentColor; }
    </style>
  </defs>
  <g class="TutorialIcon-1">
    <path class="TutorialIcon-3" d="m12.34,20.89c-2.26,0-4.51-.86-6.23-2.58-1.67-1.67-2.58-3.88-2.58-6.23s.92-4.57,2.58-6.23c1.66-1.67,3.88-2.58,6.23-2.58s4.57.92,6.23,2.58c1.67,1.67,2.58,3.88,2.58,6.23s-.92,4.57-2.58,6.23h0c-1.72,1.72-3.98,2.58-6.23,2.58Zm0-16.63c-2.09,0-4.05.81-5.53,2.29-1.48,1.48-2.29,3.44-2.29,5.53s.81,4.05,2.29,5.53c3.05,3.05,8.01,3.05,11.05,0h0c1.48-1.48,2.29-3.44,2.29-5.53s-.81-4.05-2.29-5.53c-1.48-1.48-3.44-2.29-5.53-2.29Z"/>
  </g>
  <rect class="TutorialIcon-2" x="9.62" y="9.36" width="5.43" height="5.43" transform="translate(-4.93 12.26) rotate(-45)"/>
</svg>
