<svg xmlns="http://www.w3.org/2000/svg" aria-hidden="true" focusable="false" viewBox="0 0 20 20">
  <path class="cls-1" d="M16.78,3.13c-.41,0-.75.34-.75.75v2.11c-.95-1.46-2.36-2.54-4.05-3.05-1.89-.57-3.88-.38-5.62.55-1.74.93-3.01,2.48-3.58,4.36-.57,1.89-.38,3.88.55,5.62.93,1.74,2.48,3.01,4.36,3.58.71.21,1.43.32,2.15.32,1.2,0,2.38-.29,3.47-.87,1.74-.93,3.01-2.48,3.58-4.36.12-.4-.1-.82-.5-.94-.4-.12-.81.1-.94.5-.46,1.5-1.47,2.74-2.85,3.48-1.38.74-2.97.9-4.48.44-1.5-.46-2.74-1.47-3.48-2.85-.74-1.38-.9-2.97-.44-4.48.46-1.5,1.47-2.74,2.85-3.48,1.38-.74,2.97-.9,4.48-.44,1.49.45,2.71,1.45,3.45,2.82h-2.28c-.41,0-.75.34-.75.75s.34.75.75.75h4.06c.41,0,.75-.34.75-.75V3.88c0-.41-.34-.75-.75-.75Z"/>
</svg>