<svg xmlns="http://www.w3.org/2000/svg" aria-hidden="true" focusable="false" viewBox="0 0 20 20">
  <path d="M18.06,1.62c-.41,0-.75.34-.75.75v2.9c-1.12-1.75-2.81-3.03-4.81-3.64-2.24-.68-4.61-.45-6.67.66-2.06,1.1-3.57,2.94-4.25,5.18-.68,2.24-.45,4.61.66,6.67s2.94,3.57,5.18,4.25c.84.25,1.7.38,2.55.38,1.42,0,2.83-.35,4.12-1.04,2.06-1.1,3.57-2.94,4.25-5.18.12-.4-.1-.82-.5-.94-.4-.12-.82.1-.94.5-.56,1.85-1.81,3.38-3.52,4.29-1.71.91-3.67,1.11-5.53.54s-3.38-1.81-4.29-3.52c-.91-1.71-1.11-3.67-.54-5.53.56-1.85,1.81-3.38,3.52-4.29,1.71-.91,3.67-1.1,5.53-.54,1.83.56,3.34,1.79,4.26,3.47h-3.17c-.41,0-.75.34-.75.75s.34.75.75.75h4.91c.41,0,.75-.34.75-.75V2.37c0-.41-.34-.75-.75-.75Z"/>
</svg>