<svg xmlns="http://www.w3.org/2000/svg" aria-hidden="true" focusable="false" viewBox="0 0 20 20">
  <circle class="cls-1" cx="14.88" cy="12.5" r="1.03"/>
  <path class="cls-1" d="M16.34,18.06H3.47c-1.5,0-2.72-1.22-2.72-2.72V5.26c.16-1.37,1.32-2.44,2.72-2.44h11.32c1.5,0,2.72,1.22,2.72,2.72v1.49c.91.44,1.54,1.38,1.54,2.46v5.84c0,1.5-1.22,2.72-2.72,2.72ZM2.25,7.97v7.36c0,.67.55,1.22,1.22,1.22h12.87c.67,0,1.22-.55,1.22-1.22v-5.84c0-.67-.55-1.22-1.22-1.22H3.47c-.44,0-.86-.1-1.22-.29ZM2.25,5.54c0,.67.55,1.22,1.22,1.22h12.55v-1.22c0-.67-.55-1.22-1.22-1.22H3.47c-.67,0-1.22.55-1.22,1.22Z"/>
</svg>