<svg xmlns="http://www.w3.org/2000/svg" aria-hidden="true" focusable="false" viewBox="0 0 20 20">
  <path d="M17.28,6.42v-1.48c0-1.31-1.07-2.37-2.37-2.37H3.45c-1.31,0-2.37,1.07-2.37,2.37V15.31c0,1.1,.89,1.99,1.99,1.99h13.87c1.1,0,1.99-.89,1.99-1.99v-6.94c0-.98-.71-1.78-1.64-1.95ZM3.45,3.49H14.91c.8,0,1.45,.65,1.45,1.45v1.45H3.45c-.8,0-1.45-.65-1.45-1.45s.65-1.45,1.45-1.45Zm14.54,11.82c0,.58-.47,1.06-1.06,1.06H3.06c-.58,0-1.06-.47-1.06-1.06V6.81c.4,.31,.9,.5,1.45,.5h13.48c.58,0,1.06,.47,1.06,1.06v6.94Z"/>
  <circle cx="15.46" cy="11.97" r=".82"/>
</svg>