<svg xmlns="http://www.w3.org/2000/svg" aria-hidden="true" focusable="false" viewBox="0 0 20 20">
  <path class="cls-1" d="M18.84,16.64L10.7,2.55c-.16-.27-.43-.41-.7-.41s-.55.14-.7.41L1.16,16.64c-.31.54.08,1.22.7,1.22h16.28c.63,0,1.02-.68.7-1.22ZM9.25,6.88c-.05-.23.2-.45.57-.48.06,0,.13,0,.19,0,.37-.03.71.13.76.36,0,.04,0,.08,0,.12v5.45c.05.23-.2.45-.57.48-.06,0-.13,0-.19,0-.37.03-.71-.13-.76-.36,0-.04,0-.08,0-.12h0s0-5.45,0-5.45ZM10.92,14.79v.46c.01.2-.05.39-.18.54-.14.13-.32.2-.51.19h-.44c-.35.04-.66-.2-.71-.55,0-.06,0-.12,0-.18v-.46c-.04-.34.2-.64.53-.69.06,0,.12,0,.17,0h.44c.33-.05.64.18.68.51,0,.06,0,.11,0,.17Z"/>
</svg>