<svg xmlns="http://www.w3.org/2000/svg" aria-hidden="true" focusable="false" viewBox="0 -12.19 200 200">
  <path d="M94.25,139.2v-3.41a4.51,4.51,0,0,1,3.92-5,4.16,4.16,0,0,1,1.27,0h3.23a4.44,4.44,0,0,1,5,3.78,4.29,4.29,0,0,1,0,1.24v3.41a5.6,5.6,0,0,1-1.3,4,4.88,4.88,0,0,1-3.73,1.38H99.44a4.66,4.66,0,0,1-5.21-4,4.36,4.36,0,0,1,0-1.3m1.78-23V59.09a4.44,4.44,0,0,1,5-5,4.43,4.43,0,0,1,5,3.78,4.36,4.36,0,0,1,0,1.25v57.09a4.44,4.44,0,0,1-3.76,5,4.36,4.36,0,0,1-1.25,0,4.44,4.44,0,0,1-5-5"/>
  <path d="M100,13l87.54,151.62H12.46L100,13m0-13a9,9,0,0,0-7.87,4.54L1.23,162A9.08,9.08,0,0,0,9.1,175.62H190.9A9.08,9.08,0,0,0,198.77,162L107.87,4.54A9,9,0,0,0,100,0Z"/>
</svg>