<svg xmlns="http://www.w3.org/2000/svg" aria-hidden="true" focusable="false" viewBox="0 0 128 128">
  <title>Pilot</title>
  <defs>
    <style>.cls-8{opacity:0.66;}</style>
  </defs>
  <path d="M115.08,10.3C86.75,16.58,62.94,31.13,49.47,40.79l3.73-.27a12.24,12.24,0,0,1,4.1.41c12.92-8.66,32.44-19.62,55.19-25.3-5.68,22.72-16.61,42.21-25.27,55.13A12,12,0,0,1,87.68,75l-.27,3.5C97.07,65,111.56,41.28,117.81,13l.78-3.52Z"/>
  <path d="M38.26,54.44l13.29-1.77a3,3,0,0,1,2.5.84L74.61,74.07a3,3,0,0,1,.84,2.49l-1.77,13.3,4.8,4.8L80.8,77.28a8.4,8.4,0,0,0-2.37-7L57.87,49.69a8.45,8.45,0,0,0-7-2.38L33.45,49.64Z"/>
  <path d="M9.41,118.71,29.9,76.85A16.28,16.28,0,1,1,51.27,98.22ZM44.86,71.58A11.66,11.66,0,0,0,34.1,78.7l-.05.11L19.42,108.7,49.42,94a11.68,11.68,0,0,0-4.56-22.44Z"/>
  <path class="cls-8" d="M56.54,83.26A11.68,11.68,0,0,0,34.1,78.7l-.05.11L19.42,108.7,49.42,94a11.7,11.7,0,0,0,7.12-10.76Z"/>
  <path class="cls-8" d="M57.29,40.93A12.17,12.17,0,0,1,62.65,44L84.16,65.55a12,12,0,0,1,3.06,5.22c8.66-12.92,19.59-32.42,25.27-55.14C89.73,21.31,70.21,32.27,57.29,40.93Z"/>
</svg>