<svg xmlns="http://www.w3.org/2000/svg" aria-hidden="true" focusable="false" viewBox="0 0 128 128">
  <title>Engineer</title>
  <defs>
    <style>.EngineerCrewClass-1{opacity:0.66;}</style>
  </defs>
  <path d="M68.09,104.28H63.5a38.94,38.94,0,0,0-38.9-38.9V60.79A43.54,43.54,0,0,1,68.09,104.28Z"/>
  <path d="M98.53,104.28H93.94c0-1.89-.15-3.77-.29-5.53l-.11-1.33,15.57-10.67-2-7.31L88.55,78,88,76.76a67.14,67.14,0,0,0-7.13-12.18l-.81-1.11L88.36,46.1,83,40.75,65.35,49.2l-1.09-.75a70.2,70.2,0,0,0-11-6.13l-1.24-.55L50.63,23.4l-7.32-2L32.9,36.64l-1.35-.13c-2.34-.23-4.68-.35-6.95-.35V31.57c2,0,4,.08,6,.25L41.37,16.17,55,19.81,56.41,38.7a74.74,74.74,0,0,1,9.34,5.22L84,35.21l10,9.94L85.37,63A71.64,71.64,0,0,1,91.6,73.64l19.14,1.48,3.64,13.58-16,11C98.44,101.17,98.53,102.7,98.53,104.28Z"/>
  <path d="M106.07,115H21.67a8,8,0,0,1-8-8V22.65a8,8,0,0,1,8-8v4.59a3.37,3.37,0,0,0-3.38,3.37v84.41a3.38,3.38,0,0,0,3.38,3.38h84.4a3.38,3.38,0,0,0,3.38-3.38H114A8,8,0,0,1,106.07,115Z"/>
  <path class="EngineerCrewClass-1" d="M93.65,98.75l-.11-1.33,15.57-10.67-2-7.31L88.55,78,88,76.76a67.14,67.14,0,0,0-7.13-12.18l-.81-1.11L88.36,46.1,83,40.75,65.35,49.2l-1.09-.75a70.2,70.2,0,0,0-11-6.13l-1.24-.55L50.63,23.4l-7.32-2L32.9,36.64l-1.35-.13c-2.34-.23-4.68-.35-6.95-.35V60.79a43.54,43.54,0,0,1,43.49,43.49H93.94C93.94,102.38,93.79,100.51,93.65,98.75Z"/>
</svg>