<svg xmlns="http://www.w3.org/2000/svg" aria-hidden="true" focusable="false" viewBox="0 0 128 128">
  <title>Miner</title>
  <defs>
    <style>.cls-2{opacity:0.66;}</style>
  </defs>
  <path d="M110.11,83.83l-5,.55,11.62,20.14a3.46,3.46,0,0,1-3,5.18H13.31a3.46,3.46,0,0,1-3-5.18l50.23-87a3.43,3.43,0,0,1,3-1.73h0a3.44,3.44,0,0,1,3,1.73L77.11,35.85l2.79-4.34L70.5,15.23a8,8,0,0,0-7-4h0a8,8,0,0,0-7,4l-50.23,87a8,8,0,0,0,7,12.07H113.76a8,8,0,0,0,7-12.07Z"/>
  <path d="M81.07,76.81l-4.64,1A13,13,0,1,1,63.51,63.52a12,12,0,0,1,1.71.13,12.81,12.81,0,0,1,4.71,1.58l3-3.51L98.64,32.21l-3.46-3L68.65,59.7a17.57,17.57,0,1,0-5.14,34.37,17.6,17.6,0,0,0,16.8-12.41l40.21-8.44-.94-4.49Z"/>
  <path d="M73.87,68.71A12.8,12.8,0,0,1,76,72.81l4-2.35,48-27.92-2.31-4L77.86,66.39Z"/>
  <path class="cls-2" d="M116.75,104.52,105.13,84.38,87.75,86.32A26.1,26.1,0,1,1,63.53,50.48a25.81,25.81,0,0,1,4,.3l9.62-14.93L66.53,17.52a3.44,3.44,0,0,0-3-1.73h0a3.43,3.43,0,0,0-3,1.73l-50.23,87a3.46,3.46,0,0,0,3,5.18H113.76a3.46,3.46,0,0,0,3-5.18Z"/>
</svg>