<svg xmlns="http://www.w3.org/2000/svg" aria-hidden="true" focusable="false" viewBox="0 0 128 128">
  <title>Scientist</title>
  <defs>
    <style>.cls-12{opacity:0.66;}</style>
  </defs>
  <circle cx="64" cy="63.41" r="9.55"/>
  <path d="M74.54,97.37C71.66,106.93,67.72,112.6,64,112.6c-6.31,0-13.25-16.21-14.56-40.33l-4.69-4.68C45.33,92.2,52,117.1,64,117.1c6.12,0,10.85-6.52,14.1-16.16Z"/>
  <path d="M64,11.14c-6.12,0-10.85,6.52-14.1,16.16l3.56,3.56C56.34,21.3,60.28,15.64,64,15.64c6.31,0,13.25,16.21,14.56,40.33l4.69,4.68C82.67,36,76,11.14,64,11.14Z"/>
  <path d="M40.47,89.87C30.75,92.15,23.88,91.58,22,88.35c-3.15-5.46,7.42-19.58,27.65-32.78l1.71-6.39C30.35,62,12.13,80.24,18.12,90.6c2.07,3.6,6.42,5.15,12.12,5.15a46.59,46.59,0,0,0,8.93-1Z"/>
  <path d="M109.88,37.62c-3.06-5.3-11.07-6.14-21-4.14l-1.31,4.9A46.49,46.49,0,0,1,97.77,37c4.21,0,7.1,1,8.22,2.91,3.15,5.47-7.42,19.58-27.65,32.78l-1.71,6.4C97.65,66.24,115.87,48,109.88,37.62Z"/>
  <path d="M22,39.88c3.16-5.48,20.67-3.38,42.22,7.55l6.39-1.72C49,33.9,24.1,27.25,18.12,37.63c-3.06,5.29.23,12.65,7,20.29l4.86-1.3C23.1,49.34,20.16,43.1,22,39.88Z"/>
  <path d="M109.88,90.61c3.06-5.3-.22-12.66-6.94-20.3l-4.87,1.31c6.83,7.27,9.77,13.52,7.92,16.74-3.16,5.47-20.67,3.37-42.22-7.55l-6.37,1.7C71.51,90.22,87,95.75,97.75,95.75,103.46,95.75,107.81,94.21,109.88,90.61Z"/>
  <path class="cls-12" d="M30.23,56.54a34.36,34.36,0,0,1,10.15-18.2C30.69,36.06,23.87,36.65,22,39.88s1.08,9.46,7.92,16.74Z"/>
  <path class="cls-12" d="M64,29a34.36,34.36,0,0,1,10.45,1.62C71.58,21.17,67.69,15.64,64,15.64s-7.57,5.55-10.45,14.93A34.71,34.71,0,0,1,64,29Z"/>
  <path class="cls-12" d="M97.83,56.87c7-7.39,10-13.74,8.15-17-1.11-1.93-4-2.91-8.21-2.91a46.34,46.34,0,0,0-10.13,1.39A34.36,34.36,0,0,1,97.83,56.87Z"/>
  <path class="cls-12" d="M64,97.87A34.55,34.55,0,0,1,53.09,96.1c2.9,10.35,7,16.5,10.91,16.5,3.72,0,7.66-5.67,10.54-15.23l1.78,1.78h0l-2.66-2.66A34.23,34.23,0,0,1,64,97.87Z"/>
  <path class="cls-12" d="M100.5,71h0l-3.06.83a34.48,34.48,0,0,1-11,17.81c10.33,2.61,17.66,2.11,19.59-1.24s-1.08-9.47-7.91-16.74Z"/>
  <path class="cls-12" d="M30.41,71.1c-7.2,7.5-10.3,14-8.4,17.25s8.74,3.8,18.46,1.52l-.65,2.43h0l.93-3.46A34.42,34.42,0,0,1,30.41,71.1Z"/>
</svg>