<svg xmlns="http://www.w3.org/2000/svg" width="283" height="250" viewBox="0 0 283 250">
  <g id="C-Type" transform="translate(0 3.807)">
    <g id="Group_331" data-name="Group 331" transform="translate(20.235 11.193)">
      <g id="Group_326" data-name="Group 326">
        <path id="Path_241" data-name="Path 241" d="M-271.552,445.542h0a3.8,3.8,0,0,0-.638-5.16,101.962,101.962,0,0,1-36.686-78.273c0-53.991,42.282-98.351,95.682-102.143a3.826,3.826,0,0,0,3.576-3.8v-.006a3.834,3.834,0,0,0-4.1-3.815c-57.4,4.063-102.847,51.738-102.847,109.766a109.569,109.569,0,0,0,39.434,84.121A3.861,3.861,0,0,0-271.552,445.542Z" transform="translate(316.568 -252.332)" fill="#5bc0f5"/>
        <path id="Path_242" data-name="Path 242" d="M-187.377,256.229h0a3.744,3.744,0,0,0,3.475,3.739c56.353,4,100.228,54.075,94.326,112.812-4.829,48.051-42.945,86.393-90.822,91.348a101.537,101.537,0,0,1-64.7-14.913,3.8,3.8,0,0,0-5.1.988h0a3.83,3.83,0,0,0,1.049,5.487,108.863,108.863,0,0,0,60.159,16.623c58.754-1.156,106.511-49.17,107.554-108.127s-44.329-107.7-101.812-111.838A3.873,3.873,0,0,0-187.377,256.229Z" transform="translate(301.423 -252.334)" fill="#78d356"/>
      </g>
      <g id="Group_327" data-name="Group 327">
        <path id="Path_241-2" data-name="Path 241" d="M-271.552,445.542h0a3.8,3.8,0,0,0-.638-5.16,101.962,101.962,0,0,1-36.686-78.273c0-53.991,42.282-98.351,95.682-102.143a3.826,3.826,0,0,0,3.576-3.8v-.006a3.834,3.834,0,0,0-4.1-3.815c-57.4,4.063-102.847,51.738-102.847,109.766a109.569,109.569,0,0,0,39.434,84.121A3.861,3.861,0,0,0-271.552,445.542Z" transform="translate(316.568 -252.332)" fill="#5bc0f5" opacity="0.497"/>
        <path id="Path_242-2" data-name="Path 242" d="M-187.377,256.229h0a3.744,3.744,0,0,0,3.475,3.739c56.353,4,100.228,54.075,94.326,112.812-4.829,48.051-42.945,86.393-90.822,91.348a101.537,101.537,0,0,1-64.7-14.913,3.8,3.8,0,0,0-5.1.988h0a3.83,3.83,0,0,0,1.049,5.487,108.863,108.863,0,0,0,60.159,16.623c58.754-1.156,106.511-49.17,107.554-108.127s-44.329-107.7-101.812-111.838A3.873,3.873,0,0,0-187.377,256.229Z" transform="translate(301.423 -252.334)" fill="#78d356" opacity="0.497"/>
      </g>
    </g>
    <text id="C-type-2" data-name="C-type" transform="translate(130.617 130.193)" fill="#c7c7c7" font-size="32" font-family="Jura" font-weight="300"><tspan x="-51.648" y="0">C-type</tspan></text>
    <text id="Volatiles" transform="translate(0 17)" fill="#c7c7c7" font-size="16" font-family="Jura" font-weight="300"><tspan x="0" y="0">Volatiles</tspan></text>
    <text id="Organics" transform="translate(217 218)" fill="#c7c7c7" font-size="16" font-family="Jura" font-weight="300"><tspan x="0" y="0">Organics</tspan></text>
  </g>
</svg>
