<svg xmlns="http://www.w3.org/2000/svg" width="267.545" height="250" viewBox="0 0 267.545 250">
  <g id="M-type" transform="translate(5.598 5)">
    <g id="Group_350" data-name="Group 350" transform="translate(9.402 10)">
      <g id="Group_334" data-name="Group 334">
        <path id="Path_253" data-name="Path 253" d="M179.566-246.266a102.635,102.635,0,0,1,87.5-63.565,3.819,3.819,0,0,0,3.555-3.805h0a3.822,3.822,0,0,0-4.08-3.817,110.293,110.293,0,0,0-94.058,68.332,3.819,3.819,0,0,0,2.369,5.06h0A3.821,3.821,0,0,0,179.566-246.266Z" transform="translate(-164.381 317.49)" fill="#8a15ff"/>
        <path id="Path_254" data-name="Path 254" d="M275.787-314.027h0a4.235,4.235,0,0,0,3.928,4.22,102.561,102.561,0,0,1,94.6,104.109c-1.02,55.29-46.268,100.1-101.5,100.55A102.535,102.535,0,0,1,169.605-207.625a102.453,102.453,0,0,1,3.069-24.957,3.393,3.393,0,0,0-2.244-4.053h0a4.134,4.134,0,0,0-5.367,3.027A110.191,110.191,0,0,0,162-205.144C163.308-145.83,211.96-97.9,271.219-97.5c61,.408,110.748-49.151,110.748-110.125A110.212,110.212,0,0,0,279.482-317.489,3.469,3.469,0,0,0,275.787-314.027Z" transform="translate(-161.968 317.498)" fill="#ff852b"/>
        <path id="Path_278" data-name="Path 278" d="M179.566-246.266a102.635,102.635,0,0,1,87.5-63.565,3.819,3.819,0,0,0,3.555-3.805h0a3.822,3.822,0,0,0-4.08-3.817,110.293,110.293,0,0,0-94.058,68.332,3.819,3.819,0,0,0,2.369,5.06h0A3.821,3.821,0,0,0,179.566-246.266Z" transform="translate(-164.381 317.49)" fill="#8a15ff" opacity="0.5"/>
        <path id="Path_279" data-name="Path 279" d="M275.787-314.027h0a4.235,4.235,0,0,0,3.928,4.22,102.561,102.561,0,0,1,94.6,104.109c-1.02,55.29-46.268,100.1-101.5,100.55A102.535,102.535,0,0,1,169.605-207.625a102.453,102.453,0,0,1,3.069-24.957,3.393,3.393,0,0,0-2.244-4.053h0a4.134,4.134,0,0,0-5.367,3.027A110.191,110.191,0,0,0,162-205.144C163.308-145.83,211.96-97.9,271.219-97.5c61,.408,110.748-49.151,110.748-110.125A110.212,110.212,0,0,0,279.482-317.489,3.469,3.469,0,0,0,275.787-314.027Z" transform="translate(-161.968 317.497)" fill="#ff852b" opacity="0.5"/>
      </g>
    </g>
    <text id="M-type-2" data-name="M-type" transform="translate(118.947 129)" fill="#c7c7c7" font-size="32" font-family="Jura" font-weight="300"><tspan x="-53.44" y="0">M-type</tspan></text>
    <text id="Metals" transform="translate(212.947 219)" fill="#c7c7c7" font-size="16" font-family="Jura" font-weight="300"><tspan x="0" y="0">Metals</tspan></text>
    <text id="Fissile" transform="translate(-0.053 17)" fill="#c7c7c7" font-size="16" font-family="Jura" font-weight="300"><tspan x="0" y="0">Fissile</tspan></text>
  </g>
</svg>
