<svg xmlns="http://www.w3.org/2000/svg" xmlnsXlink="http://www.w3.org/1999/xlink" version="1.1" id="svg833" width="2303.2073" height="1042.9933" viewBox="0 0 2303.2074 1042.9933">
  <defs id="defs837">
    <linearGradient id="linearGradient881">
      <stop style="stop-color:#ffffff;stop-opacity:1" offset="0" id="stop877"/>
      <stop style="stop-color:#ffffff;stop-opacity:0.25" offset="1" id="stop879"/>
    </linearGradient>
    <linearGradient id="linearGradient895-5">
      <stop style="stop-color:#36a7cd;stop-opacity:1" offset="0" id="stop891"/>
      <stop style="stop-color:#36a7cd;stop-opacity:0" offset="1" id="stop893"/>
    </linearGradient>
    <linearGradient xlinkHref="#linearGradient895-5" id="linearGradient897" x1="384.2598" y1="500.00629" x2="591.7998" y2="292.4613" gradientUnits="userSpaceOnUse"/>
    <linearGradient xlinkHref="#linearGradient881" id="linearGradient883" x1="590.30017" y1="-146.69022" x2="1928.0677" y2="-146.69022" gradientUnits="userSpaceOnUse"/>
  </defs>
  <g id="g841" transform="matrix(1.3333333,0,0,-1.3333333,-267.54959,1188.1629)">
    <g id="g845" transform="translate(799.3379,799.3369)">
      <path d="m 0,0 -83.21,35.474 h -83.084 L -112.679,12.394 -129.688,0 l 17.009,-12.394 -53.615,-23.066 h 83.084 z" style="fill:#ffffff;fill-opacity:1;fill-rule:nonzero;stroke:none" id="path847"/>
    </g>
    <g id="g857" transform="translate(799.3379,500.0063)">
      <path d="M 0,0 C 0,-114.629 -92.916,-207.545 -207.538,-207.545 V 207.539 C -92.916,207.539 0,114.622 0,0" style="fill:#ffffff;fill-opacity:1;fill-rule:nonzero;stroke:none" id="path859"/>
    </g>
    <path d="m 589.4102,184.4902 c -173.975,0 -315.543,141.549 -315.543,315.516 0,173.974 141.568,315.516 315.543,315.516 0.806,0 1.59,-0.118 2.39,-0.237 v 75.837 c -216.025,0 -391.138,-175.12 -391.138,-391.116 0,-216.016 175.113,-391.129 391.138,-391.129 l -3e-5,75.62603 c -0.77389,-0.007 -1.58397,-0.013 -2.38997,-0.013" style="fill:#ffffff;fill-opacity:1;fill-rule:nonzero;stroke:none" id="path863" />
    <path d="m 384.2598,500.0063 c 0,114.622 92.924,207.539 207.54,207.539 v 75.76 c -0.8,-0.119 -1.584,-0.243 -2.39,-0.243 -156.087,0 -283.068,-126.982 -283.068,-283.056 0,-156.067 126.981,-283.047 283.068,-283.047 0.806,0 1.59,-0.114 2.39,-0.25 v 75.752 c -114.616,0 -207.54,92.916 -207.54,207.545" style="fill:url(#linearGradient897);fill-opacity:1;fill-rule:nonzero;stroke:none;stroke-width:1.00063;stroke-miterlimit:4;stroke-dasharray:none" id="path867"/>
    <rect style="fill:url(#linearGradient883);stroke:none;stroke-width:1.91474;fill-opacity:1;opacity:1" id="rect853" width="1337.7676" height="75.626038" x="590.30017" y="-184.50323" transform="scale(1,-1)"/>
  </g>
</svg>
