<svg xmlns="http://www.w3.org/2000/svg" aria-hidden="true" focusable="false" viewBox="0 0 64 64">
  <path class="cls-1" d="M41.46,18.79l-5.76-5.84c-.78-.79-2.07-.79-2.85,0l-5.01,5.08c-.71.72-.89,1.88-.3,2.71.75,1.05,2.2,1.14,3.07.26l2.16-2.19,9.36,9.49,8.76.29v-10.85l-9.43,1.06Z"/>
  <path class="cls-1" d="M41.01,30.83l-.72-.73-7.52-7.63-.19.19c-.78.79-1.79,1.36-2.9,1.48-1.52.16-2.96-.41-3.96-1.56-1.56-1.79-1.3-4.77.36-6.46l1.18-1.19c-1.22.08-2.39.59-3.26,1.47l-2.35,2.38-8.55-1.06v11.54l10.99-.98,4.29,4.35c.78.79,2.07.79,2.85,0l.95-.96.95.96c.78.8,2.07.8,2.85,0l.9-.91.9.91c.75.76,1.99.82,2.76.08.55-.52.76-1.06.64-1.74l-.17-.16Z"/>
  <g>
    <rect class="cls-1" x="19" y="40" width="3" height="2"/>
    <rect class="cls-1" x="19" y="45" width="3" height="2"/>
    <rect class="cls-1" x="19" y="50" width="3" height="2"/>
  </g>
  <g>
    <rect class="cls-1" x="25" y="40" width="21" height="2"/>
    <rect class="cls-1" x="25" y="45" width="21" height="2"/>
    <rect class="cls-1" x="25" y="50" width="21" height="2"/>
  </g>
</svg>