<svg xmlns="http://www.w3.org/2000/svg" aria-hidden="true" focusable="false" viewBox="0 0 64 64">
  <polygon points="10.34 45.55 10.34 46.3 10.34 50.15 10.34 53.75 19.59 53.75 19.59 50.15 44.48 50.15 44.48 53.75 53.73 53.75 53.73 50.15 53.73 46.3 53.73 45.55 10.34 45.55"/>
  <polygon points="35.03 15.2 35.85 13.8 34.57 8.46 31.97 8.24 29.38 8.46 28.09 13.8 28.92 15.2 35.03 15.2"/>
  <polygon points="35.44 21.24 37.08 21.24 37.08 16.86 36.57 16.1 35.44 16.1 35.44 21.24"/>
  <polygon points="28.4 16.1 27.38 16.1 26.86 16.86 26.86 21.24 28.4 21.24 28.4 16.1"/>
  <polygon points="15.32 23.04 20.92 23.04 20.92 19.71 15.32 19.71 15.32 9.4 12.14 9.4 12.14 42.31 15.32 42.31 20.76 42.31 15.32 35.07 15.32 23.04"/>
  <polygon points="48 9.4 48 19.71 42.39 19.71 42.39 23.04 48 23.04 48 35.07 42.56 42.31 48 42.31 51.18 42.31 51.18 9.4 48 9.4"/>
  <path d="M38.46,26.01l-1.37-1h0v-1.16l-.67-1.52h-1.77v-6.24h-5.41v6.24h-1.71l-.66,1.52v1.16h-.64l-1.37,1v3.22l1.3.94-1.3.94v3.22l1.37,1h1.48v4.83l2.02,1.6h4.49l2.02-1.6v-4.83h.85l1.37-1v-3.22l-1.3-.94,1.3-.94v-3.22ZM29.27,34.58l-1.03-1.03v-6.66l1.04-1.04-.02,8.73ZM35.7,33.56l-1.03,1.03-.02-8.73,1.04,1.04v6.66Z"/>
</svg>