<svg xmlns="http://www.w3.org/2000/svg" aria-hidden="true" focusable="false" viewBox="0 0 64 64">
  <polygon points="35.22 19.37 36.09 17.89 34.73 12.24 31.99 12.01 29.24 12.24 27.88 17.89 28.76 19.37 35.22 19.37"/>
  <polygon points="31.99 47.4 29.93 47.4 27.17 51.36 27.17 52.62 31.99 52.62 36.8 52.62 36.8 51.36 34.05 47.4 31.99 47.4"/>
  <polygon points="35.65 25.76 37.39 25.76 37.39 21.13 36.85 20.33 35.65 20.33 35.65 25.76"/>
  <polygon points="28.21 20.33 27.13 20.33 26.58 21.13 26.58 25.76 28.21 25.76 28.21 20.33"/>
  <path d="M37.39,29.76v-1.22l-.71-1.6h-1.88v-6.6h-5.72v6.6h-1.81l-.69,1.6v1.22h-.67l-1.45,1.05v3.41l1.37,1-1.37,1v3.41l1.45,1.05h1.57v4.16l2.14,1.7h4.75l2.14-1.7v-4.16h.9l1.45-1.05v-3.41l-1.37-1,1.37-1v-3.41l-1.45-1.05h0ZM29.12,39.88l-1.09-1.09v-7.04l1.1-1.1-.02,9.23ZM35.94,38.8l-1.09,1.09-.02-9.23,1.1,1.1v7.04Z"/>
  <polygon points="14.44 14.1 12.44 14.1 12.44 52.54 19.42 52.54 19.42 48.54 14.44 48.54 14.44 30.48 19.42 30.48 19.42 26.48 14.44 26.48 14.44 14.1"/>
  <polygon points="49.63 14.1 49.63 26.48 44.64 26.48 44.64 30.48 49.63 30.48 49.63 48.54 44.64 48.54 44.64 52.54 51.63 52.54 51.63 14.1 49.63 14.1"/>
</svg>