<svg xmlns="http://www.w3.org/2000/svg" aria-hidden="true" focusable="false" viewBox="0 0 64 64">
  <polygon points="53.17 53.12 51.17 53.12 51.17 49.51 12.92 49.51 12.92 53.12 10.92 53.12 10.92 47.51 53.17 47.51 53.17 53.12"/>
  <polygon points="18.14 41.83 18.14 38.32 19.6 38.32 19.6 32.76 15.56 32.76 15.56 38.32 17.02 38.32 17.02 41.83 18.14 41.83"/>
  <path d="M46.64,24.21c-.71.02-1.38.14-2.02.34l-5.66-7.14c.24-.6.37-1.27.36-1.96-.04-2.79-2.34-5.01-5.12-4.97-2.79.04-5.01,2.34-4.97,5.12,0,.11.03.22.04.33l-8.61,5.92v-4.09h-6.14v6.31c-1.27,1.34-1.59,3.39-.61,5.06,1.18,2.03,3.79,2.72,5.82,1.54,1.32-.77,2.06-2.14,2.1-3.56l10.27-7.06c.68.33,1.44.53,2.26.52.23,0,.45-.04.67-.08l5.68,7.16c-.67,1.12-1.05,2.43-1.02,3.82.04,1.92.85,3.65,2.12,4.9v8.11h10v-8.11c1.34-1.33,2.16-3.18,2.12-5.22-.09-3.93-3.35-7.05-7.28-6.96ZM18.75,29.02c-1.11.65-2.54.27-3.19-.84-.65-1.11-.27-2.54.84-3.19,1.11-.65,2.54-.27,3.19.84s.27,2.54-.84,3.19ZM34.31,18.3c-1.53.02-2.79-1.2-2.81-2.72-.02-1.53,1.2-2.79,2.72-2.81s2.79,1.2,2.81,2.72c.02,1.53-1.2,2.79-2.72,2.81ZM46.89,35.23c-2.16.05-3.94-1.66-3.99-3.81-.05-2.16,1.66-3.94,3.81-3.99,2.16-.05,3.94,1.66,3.99,3.81.05,2.16-1.66,3.94-3.81,3.99Z"/>
</svg>