<svg xmlns="http://www.w3.org/2000/svg" aria-hidden="true" focusable="false" viewBox="0 0 64 64">
  <polygon points="10.35 45.51 10.35 46.26 10.35 50.12 10.35 53.72 19.6 53.72 19.6 50.12 44.49 50.12 44.49 53.72 53.74 53.72 53.74 50.12 53.74 46.26 53.74 45.51 10.35 45.51"/>
  <polygon points="18.14 38.83 18.14 35.32 19.6 35.32 19.6 29.76 15.56 29.76 15.56 35.32 17.02 35.32 17.02 38.83 18.14 38.83"/>
  <path d="M53.92,28.17c0-.29-.04-.58-.08-.86l.04-.03-.06-.06c-.46-2.91-2.67-5.21-5.5-5.83l-9.07-9.61c-.37-2.46-2.51-4.32-5.06-4.28-2.72.04-4.89,2.22-4.96,4.91l-8.58,6.95v-4.59h-6.14v6.31c-1.27,1.34-1.59,3.39-.61,5.06,1.18,2.03,3.79,2.72,5.82,1.54,1.1-.64,1.79-1.71,2.02-2.87l11.16-6.93,6.79,10.29c0,.11-.01.22,0,.33.04,1.74.7,3.31,1.76,4.53l-1.58,9.7h13.88l-1.58-9.7c1.13-1.29,1.8-2.99,1.76-4.84ZM18.75,26.02c-1.11.65-2.54.27-3.19-.84s-.27-2.54.84-3.19c1.11-.65,2.54-.27,3.19.84.65,1.11.27,2.54-.84,3.19ZM23.74,21.53l-1.15-1.68,6.56-4.72,1.15,1.68-6.56,4.72ZM31.5,12.58c-.02-1.53,1.2-2.79,2.72-2.81,1.53-.02,2.79,1.2,2.81,2.72.02,1.53-1.2,2.79-2.72,2.81s-2.79-1.2-2.81-2.72ZM36.12,16.76l2.12-1.67,6.39,8-2.12,1.67-6.39-8ZM46.89,32.23c-2.16.05-3.94-1.66-3.99-3.81-.05-2.16,1.66-3.94,3.81-3.99s3.94,1.66,3.99,3.81c.05,2.16-1.66,3.94-3.81,3.99Z"/>
</svg>