<svg xmlns="http://www.w3.org/2000/svg" aria-hidden="true" focusable="false" viewBox="0 0 64 64">
  <path d="M51,44.65c0-4.52-3.67-8.19-8.19-8.19-3.12,0-5.8,1.77-7.19,4.34h-19.36s-3.9,3.9-3.9,3.9l3.9,3.9h2.54s2.48-2.48,2.48-2.48h.18s2.48,2.48,2.48,2.48h2.3s2.48-2.48,2.48-2.48h.18s2.48,2.48,2.48,2.48h4.29c1.4,2.52,4.05,4.24,7.13,4.24,4.52,0,8.19-3.67,8.19-8.19ZM46.18,47.39c-1.51,0-2.74-1.23-2.74-2.74,0-1.51,1.23-2.74,2.74-2.74,1.51,0,2.74,1.23,2.74,2.74,0,1.51-1.23,2.74-2.74,2.74Z"/>
  <g>
    <path d="M41.57,16.77l-5.76-5.84c-.79-.8-2.06-.8-2.85,0l-5.09,5.16c-.79.8-.79,2.09,0,2.89s2.06.8,2.85,0l2.16-2.19,9.36,9.49,8.76.29v-10.85l-9.43,1.06Z"/>
    <path d="M41.12,28.81l-.72-.73-7.52-7.63-.33.33c-.87.88-2.03,1.37-3.26,1.37s-2.39-.49-3.26-1.37c-1.77-1.79-1.77-4.71,0-6.51l1.34-1.36c-1.22.08-2.39.59-3.26,1.47l-2.35,2.38-8.55-1.06v11.54l10.99-.98,4.29,4.35c.79.8,2.06.8,2.85,0l.95-.96.95.96c.79.8,2.06.8,2.85,0l.9-.91.9.91c.79.8,2.06.8,2.85,0,.48-.49.67-1.02.56-1.65l-.17-.16Z"/>
  </g>
</svg>