<svg xmlns="http://www.w3.org/2000/svg" aria-hidden="true" focusable="false" viewBox="0 0 64 64">
  <g>
    <path d="M35.56,35.2c-.57,1.23-1.42,2.33-2.52,3.17v3.4l7.68,7.82,4.44-.05.04-4.52-9.65-9.82Z"/>
    <path d="M34.61,31.68c0-3.68-2.98-6.66-6.66-6.66s-6.66,2.98-6.66,6.66c0,2.41,1.3,4.51,3.22,5.68l.02,16.01,3.25,3.11,3.23-3.24v-2.09s-1.91-1.91-1.91-1.91c-.28-.28-.28-.74,0-1.02l1.91-1.91v-.93s-1.91-1.91-1.91-1.91c-.28-.28-.28-.74,0-1.02l1.91-1.91v-2.98c2.13-1.11,3.61-3.31,3.61-5.89ZM28.52,31.06c-1.2.32-2.42-.39-2.74-1.59-.32-1.2.39-2.42,1.59-2.74,1.2-.32,2.42.39,2.74,1.59.32,1.2-.39,2.42-1.59,2.74Z"/>
  </g>
  <g>
    <path d="M31.31,7.1l-5.73,12.8c-.14.31.09.67.43.67h2.35s2.95-1.83,2.95-1.83l2.95,1.83h2.35c.34,0,.57-.36.43-.67l-5.73-12.8Z"/>
    <g>
      <polygon points="26.08 13.73 13.1 13.73 18.59 16.75 24.73 16.75 26.08 13.73"/>
      <polygon points="27.97 9.51 5.43 9.51 10.91 12.53 26.62 12.53 27.97 9.51"/>
      <polygon points="34.64 9.51 35.99 12.53 52.01 12.53 57.19 9.51 34.64 9.51"/>
      <polygon points="37.88 16.75 44.77 16.75 49.94 13.73 36.53 13.73 37.88 16.75"/>
    </g>
  </g>
</svg>