<svg xmlns="http://www.w3.org/2000/svg" aria-hidden="true" focusable="false" viewBox="0 0 64 64">
  <path d="M43.04,39.5l-6.09-6.17c-.83-.84-2.18-.84-3.01,0l-5.37,5.45c-.83.84-.83,2.21,0,3.05.83.84,2.18.84,3.01,0l2.29-2.32,9.88,10.02,9.26.31v-11.46l-9.96,1.12Z"/>
  <path d="M42.57,52.22l-.76-.77-7.95-8.06-.35.35c-.92.93-2.14,1.44-3.44,1.44s-2.53-.51-3.44-1.44c-1.87-1.89-1.87-4.98,0-6.87l1.42-1.44c-1.29.08-2.52.62-3.44,1.55l-2.48,2.52-9.03-1.12v12.19l11.61-1.03,4.53,4.6c.83.84,2.18.84,3.01,0l1-1.02,1,1.02c.83.84,2.18.84,3.01,0l.95-.96.95.96c.83.84,2.18.84,3.01,0,.51-.52.63-1.15.51-1.82l-.11-.09Z"/>
  <polygon points="25.51 30.65 34.22 21.94 42.93 30.65 45.34 28.24 36.63 19.53 45.34 10.81 42.93 8.41 34.22 17.12 25.51 8.41 23.1 10.81 31.81 19.53 23.1 28.24 25.51 30.65"/>
</svg>