<svg xmlns="http://www.w3.org/2000/svg" aria-hidden="true" focusable="false" viewBox="0 0 64 64">
  <path d="M34.66,29.82l7.81-7.81c.44-.44.44-1.16,0-1.6s-1.16-.44-1.6,0l-7.81,7.81-7.81-7.81c-.44-.44-1.16-.44-1.6,0s-.44,1.16,0,1.6l7.81,7.81-7.81,7.81c-.44.44-.44,1.16,0,1.6.22.22.51.33.8.33s.58-.11.8-.33l7.81-7.81,7.81,7.81c.22.22.51.33.8.33s.58-.11.8-.33c.44-.44.44-1.16,0-1.6l-7.81-7.81Z"/>
  <g>
    <path d="M48.66,57.05c3.31,0,6-2.69,6-6v-2.31h-24.62v2.31c0,3.31-2.69,6-6,6h24.62Z"/>
    <path d="M43.97,7.87l-28.09-.06c-3.31,0-6,2.69-6,6v5.31h5.43v28.86c0,3.86,3.14,7,7,7h2.31c1.26-.18,2.32-.94,2.92-2h-5.22c-2.76,0-5-2.24-5-5V9.87h26.67c2.76,0,5,2.24,5,5v31.86h2V14.87c0-3.86-3.14-7-7-7Z"/>
  </g>
</svg>