<svg xmlns="http://www.w3.org/2000/svg" aria-hidden="true" focusable="false" viewBox="0 0 64 64">
  <g>
    <path d="m28.6,19.76h-14.27c-1.85,0-3.35,1.52-3.35,3.39v4.83h18.93v-4.49c0-1.51.7-2.85,1.77-3.74h-3.08Z"/>
    <path d="m42.04,48.67h0s-2.24,0-2.24,0v-25.18c0-1.44-1.15-2.62-2.56-2.62h-2.52c-1.41,0-2.56,1.17-2.56,2.62v6.73H15.29v21.49h.02c.12,2.85,2.45,5.12,5.32,5.12h18.77c2.95,0,5.35-2.39,5.35-5.35v-2.82h-2.71Zm-7.69-3.18h-12.5v-2.24h12.5v2.24Zm0-6.07h-12.5v-2.24h12.5v2.24Z"/>
  </g>
  <path d="m51.8,14.72l5.17-5.17c.55-.55.55-1.43,0-1.98s-1.43-.55-1.98,0l-5.17,5.17-5.17-5.17c-.55-.55-1.43-.55-1.98,0s-.55,1.43,0,1.98l5.17,5.17-5.17,5.17c-.55.55-.55,1.43,0,1.98.27.27.63.41.99.41s.72-.14.99-.41l5.17-5.17,5.17,5.17c.27.27.63.41.99.41s.72-.14.99-.41c.55-.55.55-1.43,0-1.98l-5.17-5.17Z"/>
</svg>