<svg xmlns="http://www.w3.org/2000/svg" aria-hidden="true" focusable="false" viewBox="0 0 64 64">
  <path d="M21.36,42.07l-3.7,2.13,3.7,2.13c.48,.28,.64,.89,.37,1.37-.19,.32-.52,.5-.87,.5-.17,0-.34-.04-.5-.13l-5.2-3c-.31-.18-.5-.51-.5-.87s.19-.69,.5-.87l5.2-3c.48-.28,1.09-.11,1.37,.37,.28,.48,.11,1.09-.37,1.37Zm16.33-5.16l-5.2-3c-.31-.18-.69-.18-1,0l-5.2,3c-.48,.28-.64,.89-.37,1.37s.89,.64,1.37,.37l4.7-2.71,4.7,2.71c.16,.09,.33,.13,.5,.13,.35,0,.68-.18,.87-.5,.28-.48,.11-1.09-.37-1.37Zm11.14,6.43l-5.2-3c-.48-.28-1.09-.11-1.37,.37s-.11,1.09,.37,1.37l3.7,2.13-3.7,2.13c-.48,.28-.64,.89-.37,1.37,.19,.32,.52,.5,.87,.5,.17,0,.34-.04,.5-.13l5.2-3c.31-.18,.5-.51,.5-.87s-.19-.69-.5-.87Zm-12.14,6.43l-4.7,2.71-4.7-2.71c-.48-.28-1.09-.11-1.37,.37s-.11,1.09,.37,1.37l5.2,3c.15,.09,.33,.13,.5,.13s.35-.04,.5-.13l5.2-3c.48-.28,.64-.89,.37-1.37-.28-.48-.89-.64-1.37-.37Zm5.44-21.1l-8.72-8.72,8.72-8.72c.39-.39,.39-1.02,0-1.41s-1.02-.39-1.41,0l-8.72,8.72-8.72-8.72c-.39-.39-1.02-.39-1.41,0s-.39,1.02,0,1.41l8.72,8.72-8.72,8.72c-.39,.39-.39,1.02,0,1.41,.2,.2,.45,.29,.71,.29s.51-.1,.71-.29l8.72-8.72,8.72,8.72c.2,.2,.45,.29,.71,.29s.51-.1,.71-.29c.39-.39,.39-1.02,0-1.41Z"/>
</svg>