<svg xmlns="http://www.w3.org/2000/svg" aria-hidden="true" focusable="false" viewBox="0 0 64 64">
  <path class="cls-1" d="m49.79,22.73c0-1.98-1.61-3.58-3.58-3.58h-28.33c-1.98,0-3.58,1.61-3.58,3.58v10.48h1.61v17.43c0,1.98,1.61,3.59,3.59,3.59h25.1c1.98,0,3.59-1.61,3.59-3.59v-17.43h1.61v-10.48Zm-2.43,0v8.05h-14.11v-9.21h12.95c.64,0,1.15.52,1.15,1.15Zm-30.64,0c0-.64.52-1.15,1.15-1.15h12.95v9.21h-14.11v-8.05Zm1.61,27.92v-17.43h12.5v18.6h-11.33c-.64,0-1.16-.52-1.16-1.16Zm27.42,0c0,.64-.52,1.16-1.16,1.16h-11.33v-18.6h12.5v17.43Z"/>
  <path class="cls-1" d="m23.24,16.16h17.6c2.46,0,4.45-2,4.45-4.45s-2-4.45-4.45-4.45h-.4l-8.4,6.18-8.4-6.18h-.4c-2.45,0-4.45,2-4.45,4.45s2,4.45,4.45,4.45Zm17.95-6.45c.95.17,1.67,1,1.67,1.99,0,1.12-.91,2.02-2.02,2.02h-5.1l5.46-4.02Zm-18.31,0l5.46,4.02h-5.1c-1.12,0-2.02-.91-2.02-2.02,0-.99.72-1.82,1.67-1.99Z"/>
</svg>