<svg xmlns="http://www.w3.org/2000/svg" aria-hidden="true" focusable="false" viewBox="0 0 64 64">
  <defs>
  <style>.cls-16{opacity:0.25;}</style>
  </defs>
  <polygon class="cls-16" points="17.31 20.5 31.64 28.77 45.97 20.5 31.64 12.22 17.31 20.5"/>
  <polygon class="cls-16" points="28 35.61 14 27.52 14 43.69 28 51.78 28 35.61"/>
  <polygon class="cls-16" points="50 27.52 36 35.61 36 51.78 50 43.69 50 27.52"/>
  <g>
    <path d="M48.98,20.5c0-.36-.19-.69-.5-.87l-16.33-9.43c-.31-.18-.69-.18-1,0L14.81,19.63c-.31,.18-.5,.51-.5,.87s.19,.69,.5,.87l16.33,9.43c.15,.09,.33,.13,.5,.13s.35-.04,.5-.13l16.33-9.43c.31-.18,.5-.51,.5-.87Zm-31.67,0l14.33-8.28,14.33,8.28-14.33,8.27-14.33-8.27Z"/>
    <path d="M30,35.03c0-.36-.19-.69-.5-.87L13.47,24.91c-.3-.17-.68-.17-.98,0-.3,.18-.49,.5-.49,.85v18.51c0,.36,.19,.69,.5,.87l16.03,9.25c.15,.09,.32,.13,.49,.13s.34-.04,.49-.13c.3-.18,.49-.5,.49-.85v-18.51Zm-2,16.74l-14-8.08V27.52l14,8.08v16.17Z"/>
    <path d="M51.51,24.91c-.3-.17-.68-.17-.98,0l-16.03,9.26c-.31,.18-.5,.51-.5,.87v18.51c0,.35,.19,.68,.49,.85,.15,.09,.32,.13,.49,.13s.34-.04,.49-.13l16.03-9.25c.31-.18,.5-.51,.5-.87V25.76c0-.35-.19-.68-.49-.85Zm-1.51,18.78l-14,8.08v-16.17l14-8.08v16.17Z"/>
  </g>
</svg>