<svg xmlns="http://www.w3.org/2000/svg" aria-hidden="true" focusable="false" viewBox="0 0 64 64">
  <polygon points="26.52 48.46 18.91 51.17 18.91 52.78 38.09 52.78 38.09 51.17 30.48 48.46 26.52 48.46"/>
  <path d="m48.99,21.16l-20.61-9.88-13.33,9.88h-3.04v3.69h14.49v22.06h4.02v-22.06h22.01v-3.69h-3.54Zm-30.08,0l8.19-6.07v6.07h-8.19Zm11.01,0v-6.59l13.76,6.59h-13.76Z"/>
  <rect x="12" y="27.25" width="8.82" height="8.82"/>
  <path d="m49.01,28.77v-2.88h-2.3v2.88c-.61.19-1.06.75-1.06,1.43v6.34c0,.83.67,1.5,1.5,1.5h.14v1.04c0,.59.54.95.94,1.21.11.07.24.16.29.2.17.17.27.41.27.65s-.1.48-.27.65c-.35.35-.96.35-1.31,0-.17-.18-.27-.41-.27-.65h-1.15c0,.55.22,1.07.61,1.47.39.39.91.61,1.47.61s1.07-.22,1.47-.61c.39-.39.61-.91.61-1.46s-.22-1.07-.61-1.47c-.13-.13-.3-.24-.47-.35-.13-.09-.35-.25-.42-.24v-1.04h.14c.83,0,1.5-.67,1.5-1.5v-6.34c0-.68-.45-1.24-1.06-1.43Z"/>
</svg>