<svg xmlns="http://www.w3.org/2000/svg" aria-hidden="true" focusable="false" viewBox="0 0 64 64">
  <polygon points="7.93 47.17 7.93 48 7.93 52.28 7.93 56.28 18.2 56.28 18.2 52.28 45.87 52.28 45.87 56.28 56.14 56.28 56.14 52.28 56.14 48 56.14 47.17 7.93 47.17"/>
  <polygon points="16.58 39.74 16.58 35.84 18.2 35.84 18.2 29.67 13.72 29.67 13.72 35.84 15.34 35.84 15.34 39.74 16.58 39.74"/>
  <path d="M56.34,27.9c0-.33-.04-.65-.09-.96l.05-.04-.07-.07c-.51-3.23-2.97-5.79-6.11-6.47l-10.08-10.68c-.42-2.73-2.79-4.8-5.62-4.76-3.02.05-5.43,2.47-5.51,5.46l-9.53,7.72v-5.09h-6.82v7.01c-1.42,1.48-1.76,3.77-.68,5.63,1.31,2.26,4.21,3.02,6.46,1.71,1.23-.71,1.99-1.9,2.25-3.19l12.4-7.7,7.55,11.43c0,.12-.01.24-.01.36.04,1.93.78,3.68,1.96,5.03l-1.76,10.77h15.42l-1.76-10.78c1.26-1.44,2.01-3.32,1.96-5.38ZM17.26,25.51c-1.24.72-2.82.3-3.54-.94s-.3-2.82.94-3.54c1.24-.72,2.82-.3,3.54.94.72,1.24.3,2.82-.94,3.54ZM22.81,20.53l-1.28-1.87,7.29-5.24,1.28,1.87-7.29,5.24ZM31.43,10.58c-.03-1.7,1.33-3.09,3.03-3.12,1.7-.03,3.09,1.33,3.12,3.03.03,1.7-1.33,3.09-3.03,3.12s-3.09-1.33-3.12-3.03ZM36.56,15.23l2.36-1.85,7.1,8.89-2.36,1.85-7.1-8.89ZM48.53,32.41c-2.39.05-4.38-1.84-4.43-4.24-.05-2.39,1.84-4.38,4.24-4.43s4.38,1.84,4.43,4.24c.05,2.39-1.84,4.38-4.24,4.43Z"/>
</svg>