<svg xmlns="http://www.w3.org/2000/svg" aria-hidden="true" focusable="false" viewBox="0 0 64 64">
  <polygon points="36.05 12.09 27.95 12.09 27.95 15.45 25.77 17.33 25.77 20.41 27.95 18.53 27.95 22.78 25.77 24.66 25.77 27.74 27.95 25.86 27.95 30.11 25.77 31.99 25.77 35.07 27.95 33.19 27.95 37.44 25.77 39.32 25.77 42.4 27.95 40.52 27.95 47.34 32 51.39 36.05 47.34 36.05 39.86 38.03 38.15 38.03 35.07 36.05 36.77 36.05 32.53 38.03 30.82 38.03 27.74 36.05 29.44 36.05 25.2 38.03 23.49 38.03 20.41 36.05 22.11 36.05 17.87 38.03 16.16 38.03 13.08 36.05 14.78 36.05 12.09"/>
  <polygon points="56.33 26.28 54.62 25.25 42.07 45.96 55.47 45.96 55.47 43.96 45.62 43.96 56.33 26.28"/>
  <rect x="39.51" y="50.03" width="15.96" height="2"/>
  <polygon points="8.53 43.96 8.53 45.96 21.94 45.96 9.39 25.25 7.68 26.28 18.39 43.96 8.53 43.96"/>
  <rect x="8.53" y="50.03" width="15.96" height="2"/>
</svg>