<svg xmlns="http://www.w3.org/2000/svg" aria-hidden="true" focusable="false" viewBox="0 0 64 64">
  <path d="M35.18,39.63c-.2,.2-.45,.29-.71,.29s-.51-.1-.71-.29c-.39-.39-.39-1.02,0-1.41l3-3v-7.29l-1.58,1.58c-.2,.2-.45,.29-.71,.29s-.51-.1-.71-.29c-.39-.39-.39-1.02,0-1.41l3-3v-7.29l-1.58,1.58c-.2,.2-.45,.29-.71,.29s-.51-.1-.71-.29c-.39-.39-.39-1.02,0-1.41l3-3v-5.97h-8.66v1.29l3,3c.39,.39,.39,1.02,0,1.41-.2,.2-.45,.29-.71,.29s-.51-.1-.71-.29l-1.58-1.58v7.29l3,3c.39,.39,.39,1.02,0,1.41-.2,.2-.45,.29-.71,.29s-.51-.1-.71-.29l-1.58-1.58v7.29l3,3c.39,.39,.39,1.02,0,1.41-.2,.2-.45,.29-.71,.29s-.51-.1-.71-.29l-1.58-1.58v7.29l3,3c.39,.39,.39,1.02,0,1.41-.2,.2-.45,.29-.71,.29s-.51-.1-.71-.29l-1.58-1.58v6.19l4.33,5.32,4.33-5.32v-11.62l-1.58,1.58Z"/>
  <g>
    <path d="M41.75,50.8c-.55,0-1-.45-1-1v-16.92c0-2.46,2-4.46,4.46-4.46h11.33c.55,0,1,.45,1,1s-.45,1-1,1h-11.33c-1.36,0-2.46,1.1-2.46,2.46v16.92c0,.55-.45,1-1,1Z"/>
    <path d="M22.25,50.8c-.55,0-1-.45-1-1v-16.92c0-1.36-1.1-2.46-2.46-2.46H7.46c-.55,0-1-.45-1-1s.45-1,1-1h11.33c2.46,0,4.46,2,4.46,4.46v16.92c0,.55-.45,1-1,1Z"/>
  </g>
</svg>