<svg xmlns="http://www.w3.org/2000/svg" aria-hidden="true" focusable="false" viewBox="0 0 64 64">
  <defs>
    <style>.cls-6{opacity:0.5;}</style>
  </defs>
  <path d="M48.91,43.75l-16.33-9.43c-.31-.18-.69-.18-1,0l-16.33,9.43c-.31,.18-.5,.51-.5,.87s.19,.69,.5,.87l16.33,9.43c.15,.09,.33,.13,.5,.13s.34-.04,.5-.13l16.33-9.43c.31-.18,.5-.51,.5-.87s-.19-.69-.5-.87Zm-16.83,9.14l-14.33-8.27,14.33-8.28,14.33,8.28-14.33,8.27ZM53.99,16.52l-5.99,5.99c-.2,.2-.45,.29-.71,.29s-.51-.1-.71-.29c-.39-.39-.39-1.02,0-1.41l4.44-4.44h-4.38c-4.46,0-8.08,3.62-8.08,8.08v7.46c0,.55-.45,1-1,1s-1-.45-1-1v-7.46c0-5.56,4.52-10.08,10.08-10.08h4.07l-3.99-3.99c-.39-.39-.39-1.02,0-1.41s1.02-.39,1.41,0l5.85,5.85c.39,.39,.39,1.02,0,1.41Zm-37.98,5.99l-5.99-5.99c-.39-.39-.39-1.02,0-1.41l5.85-5.85c.39-.39,1.02-.39,1.41,0s.39,1.02,0,1.41l-3.99,3.99h4.07c5.56,0,10.08,4.52,10.08,10.08v7.46c0,.55-.45,1-1,1s-1-.45-1-1v-7.46c0-4.46-3.62-8.08-8.08-8.08h-4.38l4.44,4.44c.39,.39,.39,1.02,0,1.41-.2,.2-.45,.29-.71,.29s-.51-.1-.71-.29Z"/>
  <polygon class="cls-6" points="17.74 44.61 32.07 52.89 46.41 44.61 32.07 36.34 17.74 44.61"/>
</svg>