<svg xmlns="http://www.w3.org/2000/svg" aria-hidden="true" focusable="false" viewBox="0 0 64 64">
  <rect x="7.53" y="50.97" width="48.94" height="2"/>
  <polygon points="51.05 47.34 51.05 22.54 43.35 18.09 43.35 20.4 49.05 23.69 49.05 47.34 51.05 47.34"/>
  <polygon points="14.95 23.69 20.65 20.4 20.65 18.09 12.95 22.54 12.95 47.34 14.95 47.34 14.95 23.69"/>
  <polygon points="23.8 27.67 31.99 35.87 40.2 27.66 23.8 27.67"/>
  <polygon points="31.99 46.24 40.2 38.03 23.8 38.04 31.99 46.24"/>
  <path d="M31,27.66h2c0-8.22,6.69-14.91,14.91-14.91v-2c-7.33,0-13.57,4.7-15.91,11.24-2.34-6.54-8.58-11.24-15.91-11.24v2c8.22,0,14.91,6.69,14.91,14.91Z"/>
</svg>