<svg xmlns="http://www.w3.org/2000/svg" aria-hidden="true" focusable="false" viewBox="0 0 64 64">
  <path d="M56.56,30.27l-2.62-4.73c-.13-.23-.31-.41-.53-.52-.12-.1-.25-.18-.4-.25l-1.56-.72c-.18-.08-.37-.13-.55-.15-.1-.04-.21-.07-.33-.09l-3.39-.41-2.42-4.84c-.33-.67-1.15-.94-1.81-.61-.67.33-.94,1.15-.61,1.81l2.74,5.5c.2.41.6.69,1.05.74l2.18.26-2.59,6.12h-5.08c-.32,0-.63.11-.87.32l-4.65,3.93c-.57.48-.64,1.34-.16,1.91.27.32.65.48,1.03.48.31,0,.62-.1.87-.32l4.27-3.61h5.45s.01,0,.02.01l-3.42,3.03c-.22.2-.37.46-.43.75l-1.25,6.25c-.15.73.33,1.45,1.06,1.59.09.02.18.03.27.03.63,0,1.2-.44,1.33-1.09l1.16-5.81,4.59-4.06c.38-.19.71-.5.9-.92l2.25-5.33.96,1.73v5.47c0,.75.61,1.35,1.35,1.35s1.35-.61,1.35-1.35v-5.82c0-.23-.06-.46-.17-.66Z"/>
  <polygon points="31.56 46.88 31.56 51.78 29.73 53.6 12.06 53.6 10.23 51.78 10.23 12.64 12.06 10.81 29.73 10.81 31.56 12.64 31.56 17.53 33.56 17.53 33.56 11.81 30.56 8.81 11.23 8.81 8.23 11.81 8.23 52.6 11.23 55.6 30.56 55.6 33.56 52.6 33.56 46.88 31.56 46.88"/>
  <circle cx="54.24" cy="19.97" r="3.2"/>
  <polygon points="16.4 40.76 22.99 34.16 29.59 40.76 31.41 38.94 24.82 32.34 31.41 25.75 29.59 23.92 22.99 30.52 16.4 23.92 14.58 25.75 21.17 32.34 14.58 38.94 16.4 40.76"/>
</svg>