<svg xmlns="http://www.w3.org/2000/svg" aria-hidden="true" focusable="false" viewBox="0 0 64 64">
  <path d="M24.67,39.44c-.55,0-1,.45-1,1v11.66c0,.55.45,1,1,1s1-.45,1-1v-11.66c0-.55-.45-1-1-1Z"/>
  <path d="M39.33,39.44c-.55,0-1,.45-1,1v11.66c0,.55.45,1,1,1s1-.45,1-1v-11.66c0-.55-.45-1-1-1Z"/>
  <path d="M32,39.44c-.55,0-1,.45-1,1v17.12c0,.55.45,1,1,1s1-.45,1-1v-17.12c0-.55-.45-1-1-1Z"/>
  <path d="M23.69,25.58h-2.79c-1.27,0-2.3,1.03-2.3,2.3v2.03h7.39v-2.03c0-1.27-1.03-2.3-2.3-2.3Z"/>
  <path d="M43.1,25.58h-2.79c-1.27,0-2.3,1.03-2.3,2.3v2.03h7.39v-2.03c0-1.27-1.03-2.3-2.3-2.3Z"/>
  <path d="M22.3,24.8c1.61,0,2.92-1.3,2.92-2.91h0c0-.17-.02-.34-.05-.5s-.08-.32-.13-.47c-.08-.24-.18-.46-.32-.67-.21-.31-.48-.58-.79-.79-.39-.26-.85-.42-1.34-.47-.1-.01-.19-.03-.29-.03-.2,0-.4.02-.59.06-.38.08-.73.23-1.04.44-.39.26-.71.61-.93,1.03-.22.41-.35.89-.35,1.39,0,1.61,1.31,2.92,2.92,2.92Z"/>
  <path d="M33.6,23.68h-3.18c-1.45,0-2.63,1.18-2.63,2.63v3.6h8.43v-3.6c0-1.45-1.18-2.63-2.63-2.63Z"/>
  <path d="M32.01,22.8c1.84,0,3.33-1.49,3.33-3.33h0c0-.2-.02-.38-.06-.57-.03-.18-.09-.36-.15-.53-.09-.27-.21-.53-.37-.76-.24-.35-.54-.66-.9-.9-.44-.3-.97-.48-1.52-.53-.11-.01-.22-.03-.34-.03-.23,0-.45.02-.67.07-.43.09-.84.26-1.19.5-.44.3-.81.7-1.06,1.17-.26.47-.4,1.01-.4,1.59,0,1.84,1.49,3.33,3.33,3.33Z"/>
  <path d="M41.7,24.8c1.61,0,2.92-1.3,2.92-2.91h0c0-.17-.02-.34-.05-.5-.03-.16-.07-.32-.13-.47-.08-.24-.18-.46-.32-.67-.21-.31-.48-.58-.79-.79-.39-.26-.85-.42-1.34-.47-.1-.01-.19-.03-.29-.03-.2,0-.4.02-.59.06-.38.08-.73.23-1.04.44-.39.26-.71.61-.93,1.03-.22.41-.35.89-.35,1.39,0,1.61,1.31,2.92,2.92,2.92Z"/>
  <path d="M55.48,34.81h0s0-.01,0-.01l-9.59-22.59c-.74-1.74-2.41-2.87-4.25-2.87h-19.28c-1.84,0-3.51,1.12-4.25,2.87l-9.59,22.6h0v3.53h9.99v-3.53h26.99v3.52h9.99v-3.52h0ZM19.95,12.99c.42-1,1.37-1.65,2.41-1.65h19.28c1.04,0,1.98.65,2.41,1.65l8.41,19.82H11.54l8.41-19.82Z"/>
</svg>