<svg xmlns="http://www.w3.org/2000/svg" aria-hidden="true" focusable="false" viewBox="0 0 64 64">
  <g>
    <path d="m20.46,27.78h-4.52c-2.06,0-3.73,1.67-3.73,3.73v4.52c0,1.2.57,2.25,1.45,2.93l1.55,9.06c.15.92.91,1.58,1.81,1.58h2.37c.89,0,1.65-.67,1.81-1.58l1.55-9.06c.87-.68,1.45-1.74,1.45-2.93v-4.52c0-2.06-1.67-3.73-3.73-3.73Z"/>
    <path d="m22.85,20.99c-.05-.26-.12-.51-.21-.76-.13-.38-.3-.75-.52-1.08-.34-.5-.77-.94-1.28-1.28-.63-.42-1.37-.68-2.17-.76-.16-.02-.31-.05-.48-.05-.33,0-.64.03-.95.1-.62.13-1.19.37-1.69.71-.63.42-1.15,1-1.51,1.67-.36.67-.57,1.44-.57,2.25h0c0,2.61,2.12,4.73,4.73,4.73s4.72-2.12,4.73-4.72h0c0-.28-.03-.55-.08-.81Z"/>
  </g>
  <polygon points="49.09 13.23 33.94 13.23 31.24 15.93 31.24 26.89 33.56 26.89 33.56 16.89 34.9 15.55 48.13 15.55 49.47 16.89 49.47 47.1 48.13 48.45 34.9 48.45 33.56 47.1 33.56 38.11 31.24 38.11 31.24 48.06 33.94 50.77 49.09 50.77 51.79 48.06 51.79 15.93 49.09 13.23"/>
  <path d="m38.41,25.09c-.45-.45-1.19-.45-1.64,0s-.45,1.19,0,1.64l4.81,4.81h-14.03v2.32h14.03l-4.81,4.81c-.45.45-.45,1.19,0,1.64.23.23.52.34.82.34s.59-.11.82-.34l7.61-7.61-7.61-7.61Z"/>
</svg>