<svg xmlns="http://www.w3.org/2000/svg" aria-hidden="true" focusable="false" viewBox="0 0 64 64">
  <path d="m35.53,8.66l20.1,20.1v6.26l-20.1,20.1h-6.26l-20.1-20.1v-6.26L29.27,8.66h6.26m.99-2.4h-8.25L6.77,27.77v8.25l21.51,21.51h8.25l21.51-21.51v-8.25L36.53,6.26h0Z"/>
  <g>
    <path d="m39.75,43.15h-16.13c-.98,0-1.78.8-1.78,1.78v.43h19.69v-.43c0-.98-.8-1.78-1.78-1.78Z"/>
    <path d="m42.43,26.33l-.21-.21c.07-.23.03-.49-.16-.68l-3.56-3.57v-1.88c0-1.23-1-2.23-2.23-2.23h-9.17c-1.23,0-2.23,1-2.23,2.23v21.61h13.64v-5.26h.29c.3,0,.54.24.54.54v1.7c0,1,.81,1.81,1.81,1.81s1.81-.81,1.81-1.81v-10.97c0-.48-.19-.94-.53-1.28Zm-5.62-1.44c0,.61-.49,1.1-1.1,1.1h-8.04c-.61,0-1.1-.49-1.1-1.1v-4.39c0-.61.49-1.1,1.1-1.1h8.04c.61,0,1.1.49,1.1,1.1v4.39Zm4.88,13.69c0,.3-.24.54-.54.54s-.54-.24-.54-.54v-1.7c0-1-.81-1.81-1.81-1.81h-.29v-10.75l.72.7v1.37l.95.95c.26.26.69.26.95,0l.26-.26.15.15c.1.1.16.24.16.38v10.97Z"/>
  </g>
</svg>