<svg xmlns="http://www.w3.org/2000/svg" aria-hidden="true" focusable="false" viewBox="0 0 64 64">
  <path d="M55.2,15.22h-6.68v-6.68c0-.71-.57-1.28-1.28-1.28s-1.28.57-1.28,1.28v6.68h-6.68c-.71,0-1.28.57-1.28,1.28s.57,1.28,1.28,1.28h6.68v6.68c0,.71.57,1.28,1.28,1.28s1.28-.57,1.28-1.28v-6.68h6.68c.71,0,1.28-.57,1.28-1.28s-.57-1.28-1.28-1.28Z"/>
  <path d="M42.81,25.42l-.13-.13c-.61-.61-1.61-.61-2.22,0l-.13.13c-.43.43-.54,1.04-.37,1.58l-1.64,1.64c-2.46-2.59-5.85-4.26-9.64-4.47v-2.69h2.52c.76,0,1.37-.61,1.37-1.37v-.16c0-.76-.61-1.37-1.37-1.37h-6.65c-.76,0-1.37.61-1.37,1.37v.16c0,.76.61,1.37,1.37,1.37h2.52v2.69c-3.79.21-7.19,1.88-9.64,4.47l-1.64-1.63c.17-.54.06-1.15-.37-1.58l-.13-.13c-.61-.61-1.61-.61-2.22,0l-.13.13c-.61.61-.61,1.61,0,2.22l.13.13c.43.43,1.04.54,1.58.37l1.73,1.73c-1.83,2.42-2.93,5.42-2.93,8.68,0,7.96,6.47,14.43,14.43,14.43s14.43-6.47,14.43-14.43c0-3.26-1.1-6.26-2.93-8.68l1.73-1.73c.54.17,1.15.06,1.58-.37l.13-.13c.61-.61.61-1.61,0-2.22ZM27.87,48.85c-5.68,0-10.31-4.62-10.31-10.31,0-.64.52-1.16,1.16-1.16s1.16.52,1.16,1.16c0,4.4,3.58,7.98,7.98,7.98s7.98-3.58,7.98-7.98c0-4-2.96-7.33-6.81-7.89v7.89c0,.64-.52,1.16-1.16,1.16s-1.16-.52-1.16-1.16v-10.31h1.16c5.68,0,10.31,4.62,10.31,10.31s-4.62,10.31-10.31,10.31Z"/>
</svg>