<svg xmlns="http://www.w3.org/2000/svg" aria-hidden="true" focusable="false" viewBox="0 0 64 64">
  <path d="M41.86,39.5l-6.09-6.17c-.83-.84-2.18-.84-3.01,0l-5.37,5.45c-.83.84-.83,2.21,0,3.05.83.84,2.18.84,3.01,0l2.29-2.32,9.88,10.02,9.26.31v-11.46l-9.96,1.12Z"/>
  <path d="M41.39,52.22l-.76-.77-7.95-8.06-.35.35c-.92.93-2.14,1.44-3.44,1.44s-2.53-.51-3.44-1.44c-1.87-1.89-1.87-4.98,0-6.87l1.42-1.44c-1.29.08-2.52.62-3.44,1.55l-2.48,2.52-9.03-1.12v12.19l11.61-1.03,4.53,4.6c.83.84,2.18.84,3.01,0l1-1.02,1,1.02c.83.84,2.18.84,3.01,0l.95-.96.95.96c.83.84,2.18.84,3.01,0,.51-.52.63-1.15.51-1.82l-.11-.09Z"/>
  <path d="M52.26,11.91l-.08-.08c-.4-.4-1.05-.4-1.46,0l-.09.08c-.28.28-.35.68-.24,1.03l-1.07,1.07c-1.61-1.69-3.83-2.79-6.31-2.93v-1.76h1.65c.49,0,.9-.4.9-.9v-.1c0-.49-.4-.9-.9-.9h-4.36c-.49,0-.9.4-.9.9v.1c0,.49.4.9.9.9h1.65v1.76c-2.48.14-4.71,1.23-6.31,2.93l-1.07-1.07c.11-.35.04-.75-.24-1.03l-.08-.08c-.4-.4-1.05-.4-1.46,0l-.08.08c-.4.4-.4,1.05,0,1.46l.08.08c.28.28.68.35,1.03.24l1.13,1.13c-1.2,1.58-1.92,3.55-1.92,5.69,0,5.21,4.24,9.45,9.45,9.45s9.45-4.24,9.45-9.45c0-2.14-.72-4.1-1.92-5.69l1.13-1.13c.35.11.75.04,1.03-.24l.08-.08c.4-.4.4-1.05,0-1.46ZM42.47,27.26c-3.72,0-6.75-3.03-6.75-6.75,0-.42.34-.76.76-.76s.76.34.76.76c0,2.88,2.34,5.22,5.22,5.22s5.22-2.34,5.22-5.22c0-2.62-1.94-4.8-4.46-5.17v5.17c0,.42-.34.76-.76.76s-.76-.34-.76-.76v-6.75h.76c3.72,0,6.75,3.03,6.75,6.75s-3.03,6.75-6.75,6.75Z"/>
  <path d="M28.23,18.25h-6.52v-6.52c0-.69-.56-1.25-1.25-1.25s-1.25.56-1.25,1.25v6.52h-6.52c-.69,0-1.25.56-1.25,1.25s.56,1.25,1.25,1.25h6.52v6.52c0,.69.56,1.25,1.25,1.25s1.25-.56,1.25-1.25v-6.52h6.52c.69,0,1.25-.56,1.25-1.25s-.56-1.25-1.25-1.25Z"/>
</svg>