<svg xmlns="http://www.w3.org/2000/svg" aria-hidden="true" focusable="false" viewBox="0 0 64 64">
  <g>
    <polygon points="28.37 24.83 16.42 24.83 10.36 30.52 28.37 30.52 28.37 24.83"/>
    <polygon points="10.2 32.52 29.71 54.16 19.07 32.52 10.2 32.52"/>
    <polygon points="35.79 30.52 53.96 30.52 47.91 24.83 35.79 24.83 35.79 30.52"/>
    <polygon points="45.26 32.52 34.62 54.16 54.13 32.52 45.26 32.52"/>
    <path d="M35.7,32.52c-.37,1.67-1.85,2.91-3.62,2.91s-3.26-1.25-3.62-2.91h-7.16l10.87,22.09,10.87-22.09h-7.33Z"/>
  </g>
  <path d="M41.69,17.48l-9.6-9.6-9.62,9.62c-.46,.46-.46,1.2,0,1.65,.23,.23,.53,.34,.83,.34s.6-.11,.83-.34l6.79-6.79V31.52h2.33V12.34l6.79,6.79c.46,.46,1.2,.46,1.65,0s.46-1.2,0-1.65Z"/>
</svg>