<svg xmlns="http://www.w3.org/2000/svg" aria-hidden="true" focusable="false" viewBox="0 0 64 64">
  <path d="M52.98,33.35h-13.21c-.55,0-1,.45-1,1v17.7c0,.55,.45,1,1,1s1-.45,1-1v-16.7h12.21c.55,0,1-.45,1-1s-.45-1-1-1Z"/>
  <path d="M24.56,33.35H11.35c-.55,0-1,.45-1,1s.45,1,1,1h12.21v16.7c0,.55,.45,1,1,1s1-.45,1-1v-17.7c0-.55-.45-1-1-1Z"/>
  <path d="M41.49,22.69c.2,.2,.45,.29,.71,.29s.51-.1,.71-.29c.39-.39,.39-1.02,0-1.41l-10.03-10.03c-.09-.09-.2-.17-.33-.22-.24-.1-.52-.1-.76,0-.12,.05-.23,.12-.33,.22l-10.03,10.03c-.39,.39-.39,1.02,0,1.41s1.02,.39,1.41,0l8.32-8.32V52.05c0,.55,.45,1,1,1s1-.45,1-1V14.36l8.32,8.32Z"/>
</svg>