<svg xmlns="http://www.w3.org/2000/svg" aria-hidden="true" focusable="false" viewBox="0 0 64 64">
  <path class="cls-1" d="M50.65,19.23c-.41-3.63-3.3-6.63-6.92-7.15s-6.84,1.35-8.4,4.25H15.97s-3.9,3.9-3.9,3.9l3.9,3.9h2.54s2.48-2.48,2.48-2.48h.18s2.48,2.48,2.48,2.48h2.3s2.48-2.48,2.48-2.48h.18s2.48,2.48,2.48,2.48h4.29c1.4,2.52,4.05,4.24,7.13,4.24,4.83,0,8.69-4.19,8.13-9.13ZM46.42,22.86c-1.93.37-3.59-1.29-3.22-3.22.2-1.07,1.08-1.95,2.15-2.15,1.93-.37,3.59,1.29,3.22,3.22-.2,1.07-1.08,1.95-2.15,2.15Z"/>
  <path class="cls-1" d="M42.34,39.94l-6.3-6.39c-.86-.87-2.26-.87-3.12,0l-5.47,5.55c-.82.83-.98,2.18-.24,3.09.84,1.04,2.35,1.09,3.27.17l2.37-2.4,10.23,10.38,9.58.32v-11.86l-10.31,1.16Z"/>
  <path class="cls-1" d="M41.86,53.11l-.79-.8-8.23-8.34-.23.23c-.88.89-2.03,1.51-3.27,1.61-1.72.14-3.34-.58-4.4-1.95-1.57-2.03-1.26-4.94.54-6.77l1.34-1.36c-1.34.09-2.61.64-3.56,1.61l-2.57,2.61-9.35-1.16v12.61l12.02-1.07,4.69,4.76c.86.87,2.26.87,3.12,0l1.04-1.05,1.04,1.05c.86.87,2.26.87,3.12,0l.98-1,.94.96c.81.82,2.14.93,3.01.17.65-.56.8-1.27.67-2.02l-.11-.09Z"/>
</svg>