<svg xmlns="http://www.w3.org/2000/svg" aria-hidden="true" focusable="false" viewBox="0 0 64 64">
  <path d="M44.75,27.13l-7.48-7.59c-1.02-1.04-2.68-1.04-3.7,0l-6.61,6.7c-1.02,1.04-1.02,2.72,0,3.75,1.02,1.04,2.68,1.04,3.7,0l2.81-2.85,12.15,12.32,11.38.38v-14.09l-12.25,1.38Z"/>
  <path d="M44.18,42.76l-.94-.95-9.77-9.91-.43.43c-1.13,1.14-2.63,1.77-4.23,1.77s-3.1-.63-4.23-1.77c-2.3-2.33-2.3-6.12,0-8.45l1.74-1.77c-1.59.1-3.1.76-4.23,1.91l-3.05,3.09-11.1-1.38v14.98l14.27-1.27,5.57,5.65c1.02,1.04,2.68,1.04,3.7,0l1.23-1.25,1.23,1.25c1.02,1.04,2.68,1.04,3.7,0l1.16-1.18,1.16,1.18c1.02,1.04,2.68,1.04,3.7,0,.63-.64.77-1.42.63-2.24l-.13-.11Z"/>
</svg>