<svg xmlns="http://www.w3.org/2000/svg" aria-hidden="true" focusable="false" viewBox="0 0 64 64">
  <path d="M43.79,53.8h-24.17c-.38,0-.73-.2-.92-.53l-12.09-20.94c-.19-.33-.19-.74,0-1.07l12.09-20.94c.19-.33.54-.53.92-.53h24.17c.38,0,.73.2.92.53l12.09,20.94c.19.33.19.74,0,1.07l-12.09,20.94c-.19.33-.54.53-.92.53ZM20.23,51.67h22.94l11.47-19.87-11.47-19.87h-22.94l-11.47,19.87,11.47,19.87Z"/>
  <path d="M35.53,21.58c-.81-.82-2.14-.82-2.96,0l-5.19,5.27c-.74.75-.92,1.95-.31,2.81.78,1.09,2.29,1.18,3.18.27l2.25-2.28,9.71,9.85,5.57.11,3.36-5.81-2.67-4.63-6.95.47-5.98-6.06Z"/>
  <path d="M27.96,42.02c.81.82,2.14.82,2.96,0l.98-1,.99,1c.81.82,2.14.82,2.96,0l.93-.94.93.94c.78.79,2.06.85,2.87.09.57-.54.79-1.1.67-1.8l-.18-.17-.75-.76-7.81-7.92-.2.2c-.81.82-1.86,1.41-3.01,1.54-1.57.17-3.07-.43-4.11-1.62-1.61-1.85-1.35-4.95.38-6.7l1.22-1.24c-1.27.08-2.48.61-3.38,1.53l-2.44,2.47-6.05-.44-2.65,4.59,3.55,6.14,7.69-.44,4.45,4.52Z"/>
</svg>