<svg xmlns="http://www.w3.org/2000/svg" aria-hidden="true" focusable="false" viewBox="0 0 64 64">
  <path d="M55.67,15.45l-.09-.09c-.44-.44-1.16-.44-1.6,0l-.09.09c-.31.31-.39.75-.27,1.14l-1.18,1.18c-1.77-1.86-4.21-3.06-6.93-3.21v-1.93h1.81c.54,0,.98-.44.98-.98v-.11c0-.54-.44-.98-.98-.98h-4.78c-.54,0-.98.44-.98.98v.11c0,.54.44.98.98.98h1.81v1.93c-2.72.15-5.16,1.35-6.93,3.21l-1.18-1.17c.12-.39.04-.83-.27-1.14l-.09-.09c-.44-.44-1.16-.44-1.6,0l-.09.09c-.44.44-.44,1.16,0,1.6l.09.09c.31.31.75.39,1.14.27l1.24,1.24c-1.32,1.74-2.11,3.9-2.11,6.24,0,5.72,4.65,10.37,10.37,10.37s10.37-4.65,10.37-10.37c0-2.34-.79-4.5-2.11-6.24l1.25-1.24c.39.12.83.04,1.13-.27l.09-.09c.44-.44.44-1.16,0-1.6ZM44.93,32.29c-4.08,0-7.41-3.32-7.41-7.41,0-.46.37-.84.84-.84s.84.38.84.84c0,3.16,2.57,5.73,5.73,5.73s5.73-2.57,5.73-5.73c0-2.88-2.13-5.27-4.9-5.67v5.67c0,.46-.37.84-.84.84s-.84-.38-.84-.84v-7.41h.84c4.09,0,7.41,3.32,7.41,7.41s-3.32,7.41-7.41,7.41Z"/>
  <g>
    <path d="M38.63,40.48l-6.09-6.17c-.83-.84-2.18-.84-3.01,0l-5.37,5.45c-.83.84-.83,2.21,0,3.05.83.84,2.18.84,3.01,0l2.29-2.32,9.88,10.02,9.26.31v-11.46l-9.96,1.12Z"/>
    <path d="M38.16,53.19l-.76-.77-7.95-8.06-.35.35c-.92.93-2.14,1.44-3.44,1.44s-2.53-.51-3.44-1.44c-1.87-1.89-1.87-4.98,0-6.87l1.42-1.44c-1.29.08-2.52.62-3.44,1.55l-2.48,2.52-9.03-1.12v12.19l11.61-1.03,4.53,4.6c.83.84,2.18.84,3.01,0l1-1.02,1,1.02c.83.84,2.18.84,3.01,0l.95-.96.95.96c.83.84,2.18.84,3.01,0,.51-.52.63-1.15.51-1.82l-.11-.09Z"/>
  </g>
</svg>