<svg xmlns="http://www.w3.org/2000/svg" aria-hidden="true" focusable="false" viewBox="0 0 64 64">
  <path class="cls-1" d="M42.34,39.56l-6.3-6.39c-.86-.87-2.26-.87-3.12,0l-5.47,5.55c-.82.83-.98,2.18-.24,3.09.84,1.04,2.35,1.09,3.27.17l2.37-2.4,10.23,10.38,9.58.32v-11.86l-10.31,1.16Z"/>
  <path class="cls-1" d="M41.86,52.72l-.79-.8-8.23-8.34-.23.23c-.88.89-2.03,1.51-3.27,1.61-1.72.14-3.34-.58-4.4-1.95-1.57-2.03-1.26-4.94.54-6.77l1.34-1.36c-1.34.09-2.61.64-3.56,1.61l-2.57,2.61-9.35-1.16v12.61l12.02-1.07,4.69,4.76c.86.87,2.26.87,3.12,0l1.04-1.05,1.04,1.05c.86.87,2.26.87,3.12,0l.98-1,.94.96c.81.82,2.14.93,3.01.17.65-.56.8-1.27.67-2.02l-.11-.09Z"/>
  <path class="cls-1" d="M52.04,12.15h.01v-2.3h-13.86v2.3h.01c0,.28.09.57.33.81l6.59,6.59-6.59,6.59c-.23.23-.33.52-.33.8h-.01v2.3h13.86v-2.3h-.01c0-.28-.09-.57-.33-.8l-6.59-6.59,6.59-6.59c.24-.24.33-.52.33-.81ZM45.12,17.43l-4.93-4.93h9.86l-4.93,4.93Z"/>
  <path class="cls-1" d="M27.55,27.99V9.3h-14.38v18.69l7.19,3.63,7.19-3.63ZM15.17,11.3h10.38v15.46l-2.05,1.04v-5.1c0-1.08-.88-1.96-1.96-1.96h-2.37c-1.08,0-1.96.88-1.96,1.96v5.1l-2.05-1.04v-15.46Z"/>
  <circle class="cls-1" cx="20.36" cy="17.15" r="2.5"/>
</svg>