<svg xmlns="http://www.w3.org/2000/svg" aria-hidden="true" focusable="false" viewBox="0 0 64 64">
  <path d="M32,7.02c-13.77,0-24.98,11.21-24.98,24.98s11.21,24.98,24.98,24.98,24.98-11.21,24.98-24.98S45.77,7.02,32,7.02ZM54.36,37.29l-3.23.87-4.01,6.95.9,3.35c-2.63,2.56-5.88,4.5-9.49,5.57h0s-2.41-2.41-2.41-2.41h-8.02l-2.46,2.46c-3.7-1.07-7.02-3.04-9.7-5.67l.88-3.3-4.01-6.95-3.16-.85c-.41-1.71-.63-3.48-.63-5.31s.24-3.78.68-5.56l3.1-.83,4.01-6.95-.84-3.12c2.66-2.59,5.95-4.55,9.62-5.61l2.22,2.22h8.02l2.3-2.3c3.75,1.04,7.11,3.01,9.83,5.64l-.85,3.17,4.01,6.95,3.17.85c.44,1.77.68,3.63.68,5.54s-.22,3.59-.62,5.29Z"/>
  <path d="M18.91,35.46c0,5.45,4.42,9.87,9.87,9.87,0-5.45-4.42-9.87-9.87-9.87Z"/>
  <path d="M35.22,45.32c5.45,0,9.87-4.42,9.87-9.87-5.45,0-9.87,4.42-9.87,9.87Z"/>
  <path d="M37.14,34.87c4.1-.88,7.17-4.52,7.17-8.88-4.61,0-8.41,3.43-9,7.88l-2.31,2.31v-8.32c2.5-3.55,2.17-8.48-1-11.65-3.17,3.17-3.5,8.1-1,11.65v8.36l-2.72-2.72c-.75-4.26-4.46-7.5-8.94-7.5,0,4.5,3.27,8.22,7.56,8.95l4.1,4.1v6.36h2v-6.39l4.14-4.14Z"/>
</svg>