<svg xmlns="http://www.w3.org/2000/svg" aria-hidden="true" focusable="false" viewBox="0 0 64 64">
  <path d="M13.72,37.46c0,8.18,6.63,14.81,14.81,14.81,0-8.18-6.63-14.81-14.81-14.81Z"/>
  <path d="M38.18,52.27c8.18,0,14.81-6.63,14.81-14.81-8.18,0-14.81,6.63-14.81,14.81Z"/>
  <path d="M40.21,36.73c6.57-.98,11.61-6.63,11.61-13.47-7.19,0-13.06,5.56-13.58,12.61l-3.88,3.88v-8.9c5.43-6.5,5.1-16.17-1-22.27-6.1,6.1-6.43,15.78-1,22.27v8.96l-4.46-4.46c-.77-6.8-6.53-12.09-13.54-12.09,0,7.04,5.33,12.82,12.17,13.55l5.82,5.82v9.74h2v-9.8l5.86-5.86Z"/>
</svg>