<svg xmlns="http://www.w3.org/2000/svg" aria-hidden="true" focusable="false" viewBox="0 0 64 64">
  <polygon points="36.05 12.61 27.95 12.61 27.95 15.97 25.77 17.85 25.77 20.93 27.95 19.05 27.95 23.3 25.77 25.18 25.77 28.26 27.95 26.38 27.95 30.63 25.77 32.51 25.77 35.59 27.95 33.71 27.95 37.96 25.77 39.84 25.77 42.92 27.95 41.05 27.95 47.86 32 51.91 36.05 47.86 36.05 40.38 38.03 38.67 38.03 35.59 36.05 37.3 36.05 33.05 38.03 31.34 38.03 28.26 36.05 29.97 36.05 25.72 38.03 24.01 38.03 20.93 36.05 22.64 36.05 18.39 38.03 16.68 38.03 13.6 36.05 15.31 36.05 12.61"/>
  <polygon points="20.55 20.66 5.83 20.66 5.83 18.66 18.55 18.66 18.55 5.94 20.55 5.94 20.55 20.66"/>
  <polygon points="20.55 58.34 18.55 58.34 18.55 45.62 5.83 45.62 5.83 43.62 20.55 43.62 20.55 58.34"/>
  <polygon points="45.34 58.34 43.34 58.34 43.34 43.62 58.06 43.62 58.06 45.62 45.34 45.62 45.34 58.34"/>
  <polygon points="58.06 20.66 43.34 20.66 43.34 5.94 45.34 5.94 45.34 18.66 58.06 18.66 58.06 20.66"/>
</svg>