<svg xmlns="http://www.w3.org/2000/svg" aria-hidden="true" focusable="false" viewBox="0 0 64 64">
  <path d="M23.09,39.63c-.2,.2-.45,.29-.71,.29s-.51-.1-.71-.29c-.39-.39-.39-1.02,0-1.41l3-3v-7.29l-1.58,1.58c-.2,.2-.45,.29-.71,.29s-.51-.1-.71-.29c-.39-.39-.39-1.02,0-1.41l3-3v-7.29l-1.58,1.58c-.2,.2-.45,.29-.71,.29s-.51-.1-.71-.29c-.39-.39-.39-1.02,0-1.41l3-3v-5.97h-8.66v1.28l3,3c.39,.39,.39,1.02,0,1.41-.2,.2-.45,.29-.71,.29s-.51-.1-.71-.29l-1.58-1.58v7.29l3,3c.39,.39,.39,1.02,0,1.41-.2,.2-.45,.29-.71,.29s-.51-.1-.71-.29l-1.58-1.58v7.29l3,3c.39,.39,.39,1.02,0,1.41-.2,.2-.45,.29-.71,.29s-.51-.1-.71-.29l-1.58-1.58v7.29l3,3c.39,.39,.39,1.02,0,1.41-.2,.2-.45,.29-.71,.29s-.51-.1-.71-.29l-1.58-1.58v6.19l4.33,5.32,4.33-5.32v-11.62l-1.58,1.58Z"/>
  <g>
    <path d="M42.16,25.39c-.09-.09-.2-.17-.33-.22-.24-.1-.52-.1-.76,0-.12,.05-.23,.12-.33,.22l-10.03,10.03c-.39,.39-.39,1.02,0,1.41s1.02,.39,1.41,0l8.32-8.32v16.73c0,.55,.45,1,1,1s1-.45,1-1V28.51l8.32,8.32c.2,.2,.45,.29,.71,.29s.51-.1,.71-.29c.39-.39,.39-1.02,0-1.41l-10.03-10.03Z"/>
    <path d="M32.13,28.51l9.32-9.32,9.32,9.32c.2,.2,.45,.29,.71,.29s.51-.1,.71-.29c.39-.39,.39-1.02,0-1.41l-10.03-10.03c-.39-.39-1.02-.39-1.41,0l-10.03,10.03c-.39,.39-.39,1.02,0,1.41s1.02,.39,1.41,0Z"/>
  </g>
</svg>