<svg xmlns="http://www.w3.org/2000/svg" aria-hidden="true" focusable="false" viewBox="0 0 64 64">
  <path d="M57.62,14.01h-6.64V7.35c0-.55-.45-1-1-1s-1,.45-1,1v6.66h-6.66c-.55,0-1,.45-1,1s.45,1,1,1h6.66v6.64c0,.55,.45,1,1,1s1-.45,1-1v-6.64h6.64c.55,0,1-.45,1-1s-.45-1-1-1Z"/>
  <polygon points="36.05 12.61 27.95 12.61 27.95 15.97 25.77 17.85 25.77 20.93 27.95 19.05 27.95 23.3 25.77 25.18 25.77 28.26 27.95 26.38 27.95 30.63 25.77 32.51 25.77 35.59 27.95 33.71 27.95 37.96 25.77 39.84 25.77 42.92 27.95 41.05 27.95 47.86 32 51.91 36.05 47.86 36.05 40.38 38.03 38.67 38.03 35.59 36.05 37.3 36.05 33.05 38.03 31.34 38.03 28.26 36.05 29.97 36.05 25.72 38.03 24.01 38.03 20.93 36.05 22.64 36.05 18.39 38.03 16.68 38.03 13.6 36.05 15.31 36.05 12.61"/>
  <polygon points="54.62 25.77 42.07 46.48 55.47 46.48 55.47 44.48 45.62 44.48 56.33 26.81 54.62 25.77"/>
  <rect x="39.51" y="50.55" width="15.96" height="2"/>
  <polygon points="8.53 44.48 8.53 46.48 21.94 46.48 9.39 25.77 7.68 26.81 18.39 44.48 8.53 44.48"/>
  <rect x="8.53" y="50.55" width="15.96" height="2"/>
</svg>