<svg xmlns="http://www.w3.org/2000/svg" aria-hidden="true" focusable="false" viewBox="0 0 64 64">
  <path d="M10.17,25.92h9.52l-4.75-4.75c-.42-.42-.42-1.1,0-1.52s1.1-.42,1.52,0l6.59,6.59h0s.76.76.76.76l-.76.76h0s-6.59,6.59-6.59,6.59c-.21.21-.49.32-.76.32s-.55-.11-.76-.32c-.42-.42-.42-1.1,0-1.52l4.75-4.75h-9.52c-.6,0-1.08-.48-1.08-1.08h0c0-.6.48-1.08,1.08-1.08Z"/>
  <path d="M26.81,21.02l2.17,22.61c.06.61.57,1.08,1.19,1.08h16.11c.62,0,1.13-.47,1.19-1.08l2.17-22.61h-22.83ZM33.89,40.61c0,.55-.45,1-1,1s-1-.45-1-1v-15.48c0-.55.45-1,1-1s1,.45,1,1v15.48ZM39.29,40.61c0,.55-.45,1-1,1s-1-.45-1-1v-15.48c0-.55.45-1,1-1s1,.45,1,1v15.48ZM44.82,40.61c0,.55-.45,1-1,1s-1-.45-1-1v-15.48c0-.55.45-1,1-1s1,.45,1,1v15.48Z"/>
  <path d="M54.57,42.38c0-.55-.45-1-1-1s-1,.45-1,1v7.54H12.62v-7.54c0-.55-.45-1-1-1s-1,.45-1,1v9.54h43.95v-9.54Z"/>
  <path d="M43.9,15.44c-.08-1.31-1.16-2.35-2.5-2.35h-5.9c-1.33,0-2.41,1.04-2.5,2.35h-6.63v2h24.17v-2h-6.63Z"/>
</svg>