<svg xmlns="http://www.w3.org/2000/svg" aria-hidden="true" focusable="false" viewBox="0 0 64 64">
  <path d="M21.37,22.1c-.19,.32-.52,.5-.87,.5-.17,0-.34-.04-.5-.13l-5.2-3c-.31-.18-.5-.51-.5-.87s.19-.69,.5-.87l5.2-3c.48-.28,1.09-.11,1.37,.37,.28,.48,.11,1.09-.37,1.37l-3.7,2.13,3.7,2.13c.48,.28,.64,.89,.37,1.37Zm5.57-9.06l4.7-2.71,4.7,2.71c.16,.09,.33,.13,.5,.13,.35,0,.68-.18,.87-.5,.28-.48,.11-1.09-.37-1.37l-5.2-3c-.31-.18-.69-.18-1,0l-5.2,3c-.48,.28-.64,.89-.37,1.37,.28,.48,.89,.64,1.37,.37Zm22.03,5.56c0-.36-.19-.69-.5-.87l-5.2-3c-.48-.28-1.09-.11-1.37,.37s-.11,1.09,.37,1.37l3.7,2.13-3.7,2.13c-.48,.28-.64,.89-.37,1.37,.19,.32,.52,.5,.87,.5,.17,0,.34-.04,.5-.13l5.2-3c.31-.18,.5-.51,.5-.87Zm-11.27,5.93c-.28-.48-.89-.64-1.37-.37l-4.7,2.71-4.7-2.71c-.48-.28-1.09-.11-1.37,.37-.28,.48-.11,1.09,.37,1.37l5.2,3c.15,.09,.33,.13,.5,.13s.35-.04,.5-.13l5.2-3c.48-.28,.64-.89,.37-1.37Zm-19.59,20.07l-4.7-2.71v-5.42c0-.55-.45-1-1-1s-1,.45-1,1v6c0,.36,.19,.69,.5,.87l5.2,3c.16,.09,.33,.13,.5,.13,.35,0,.68-.18,.87-.5,.28-.48,.11-1.09-.37-1.37Zm0-18.86l-5.2-3c-.31-.18-.69-.18-1,0-.31,.18-.5,.51-.5,.87v6c0,.55,.45,1,1,1s1-.45,1-1v-4.27l3.7,2.13c.48,.28,1.09,.11,1.37-.37,.28-.48,.11-1.09-.37-1.37Zm11.14,6.43l-5.2-3c-.48-.28-1.09-.11-1.37,.37-.28,.48-.11,1.09,.37,1.37l4.7,2.71v5.42c0,.55,.45,1,1,1s1-.45,1-1v-6c0-.36-.19-.69-.5-.87Zm-.5,12.73c-.55,0-1,.45-1,1v4.27l-3.7-2.13c-.48-.28-1.09-.11-1.37,.37s-.11,1.09,.37,1.37l5.2,3c.15,.09,.33,.13,.5,.13s.35-.04,.5-.13c.31-.18,.5-.51,.5-.87v-6c0-.55-.45-1-1-1Zm11.2-15.73l-5.2,3c-.31,.18-.5,.51-.5,.87v6c0,.55,.45,1,1,1s1-.45,1-1v-5.42l4.7-2.71c.48-.28,.64-.89,.37-1.37-.28-.48-.89-.64-1.37-.37Zm12.14-6.43c-.31-.18-.69-.18-1,0l-5.2,3c-.48,.28-.64,.89-.37,1.37s.89,.64,1.37,.37l3.7-2.13v4.27c0,.55,.45,1,1,1s1-.45,1-1v-6c0-.36-.19-.69-.5-.87Zm-.5,12.73c-.55,0-1,.45-1,1v5.42l-4.7,2.71c-.48,.28-.64,.89-.37,1.37,.19,.32,.52,.5,.87,.5,.17,0,.34-.04,.5-.13l5.2-3c.31-.18,.5-.51,.5-.87v-6c0-.55-.45-1-1-1Zm-11.64,12.56l-3.7,2.13v-4.27c0-.55-.45-1-1-1s-1,.45-1,1v6c0,.36,.19,.69,.5,.87,.15,.09,.33,.13,.5,.13s.35-.04,.5-.13l5.2-3c.48-.28,.64-.89,.37-1.37-.28-.48-.89-.64-1.37-.37Z"/>
</svg>