<svg xmlns="http://www.w3.org/2000/svg" aria-hidden="true" focusable="false" viewBox="0 0 64 64">
  <g>
    <rect x="23.17" y="18.1" width="19.78" height="2.1" transform="translate(66.12 38.3) rotate(-180)"/>
    <g>
      <polygon points="23.71 31.55 33.06 22.2 42.41 31.55 23.71 31.55"/>
      <path d="M33.06,42.6c-.62,0-1.13-.51-1.13-1.13v-12.93c0-.62.51-1.13,1.13-1.13s1.13.51,1.13,1.13v12.93c0,.62-.51,1.13-1.13,1.13Z"/>
    </g>
  </g>
  <g>
    <path d="M48.59,57.14c3.31,0,6-2.69,6-6v-2.31h-24.62v2.31c0,3.31-2.69,6-6,6h24.62Z"/>
    <path d="M43.89,7.96l-28.09-.06c-3.31,0-6,2.69-6,6v5.31h5.43v28.86c0,3.86,3.14,7,7,7h2.31c1.26-.18,2.32-.94,2.92-2h-5.22c-2.76,0-5-2.24-5-5V9.96h26.67c2.76,0,5,2.24,5,5v31.86h2V14.96c0-3.86-3.14-7-7-7Z"/>
  </g>
</svg>