<svg xmlns="http://www.w3.org/2000/svg" aria-hidden="true" focusable="false" viewBox="0 0 64 64">
  <g>
    <rect class="cls-1" x="23.17" y="39.38" width="19.78" height="2.1"/>
    <path class="cls-1" d="M33.06,37.38l9.35-9.35h-8.22v-9.92c0-.62-.51-1.13-1.13-1.13s-1.13.51-1.13,1.13v9.92h-8.22l9.35,9.35Z"/>
  </g>
  <g>
    <path class="cls-1" d="M48.5,57.05c3.31,0,6-2.69,6-6v-2.31h-24.62v2.31c0,3.31-2.69,6-6,6h24.62Z"/>
    <path class="cls-1" d="M43.81,7.87l-28.09-.06c-3.31,0-6,2.69-6,6v5.31h5.43v28.86c0,3.86,3.14,7,7,7h2.31c1.26-.18,2.32-.94,2.92-2h-5.22c-2.76,0-5-2.24-5-5V9.87h26.67c2.76,0,5,2.24,5,5v31.86h2V14.87c0-3.86-3.14-7-7-7Z"/>
  </g>
</svg>