<svg xmlns="http://www.w3.org/2000/svg" aria-hidden="true" focusable="false" viewBox="0 0 64 64">
  <g>
    <path d="m28.91,21.54h-14.27c-1.85,0-3.35,1.52-3.35,3.39v4.83h18.93v-4.49c0-1.51.7-2.85,1.77-3.74h-3.08Z"/>
    <path d="m42.35,50.45h0s-2.24,0-2.24,0v-25.18c0-1.44-1.15-2.62-2.56-2.62h-2.52c-1.41,0-2.56,1.17-2.56,2.62v6.73H15.6v21.49h.02c.12,2.85,2.45,5.12,5.32,5.12h18.77c2.95,0,5.35-2.39,5.35-5.35v-2.82h-2.71Zm-7.69-3.18h-12.5v-2.24h12.5v2.24Zm0-6.07h-12.5v-2.24h12.5v2.24Z"/>
  </g>
  <rect x="36.37" y="5.38" width="19.13" height="2.98"/>
  <path d="m45.93,10.32l-7.07,7.07,5.68-.03v7.64c0,.77.63,1.4,1.4,1.4s1.4-.63,1.4-1.4v-7.66l5.58-.03-6.99-6.99Z"/>
</svg>