<svg xmlns="http://www.w3.org/2000/svg" aria-hidden="true" focusable="false" viewBox="0 0 64 64">
  <path d="M43.33,53.38h-23.29c-.37,0-.71-.2-.89-.51l-11.64-20.17c-.18-.32-.18-.71,0-1.03l11.64-20.17c.18-.32.52-.51.89-.51h23.29c.37,0,.71.2.89.51l11.64,20.17c.18.32.18.71,0,1.03l-11.64,20.17c-.18.32-.52.51-.89.51ZM20.64,51.32h22.1l11.05-19.14-11.05-19.14h-22.1l-11.05,19.14,11.05,19.14Z"/>
  <g>
    <path d="M35.38,22.34c-.79-.8-2.06-.8-2.85,0l-5.09,5.16c-.79.8-.79,2.09,0,2.89.79.8,2.06.8,2.85,0l2.16-2.19,9.35,9.49,5.37.1,3.23-5.6-2.57-4.46-6.69.45-5.76-5.84Z"/>
    <path d="M28.08,42.03c.79.8,2.06.8,2.85,0l.95-.96.95.96c.79.8,2.06.8,2.85,0l.9-.91.9.91c.79.8,2.06.8,2.85,0,.48-.49.67-1.02.56-1.65l-.17-.16-.72-.73-7.52-7.63-.33.33c-.87.88-2.02,1.37-3.26,1.37s-2.39-.49-3.26-1.37c-1.77-1.79-1.77-4.71,0-6.5l1.34-1.36c-1.22.08-2.38.59-3.26,1.47l-2.35,2.38-5.83-.42-2.55,4.42,3.42,5.92,7.41-.42,4.29,4.35Z"/>
  </g>
</svg>