<svg xmlns="http://www.w3.org/2000/svg" aria-hidden="true" focusable="false" viewBox="0 0 64 64">
  <path d="M45,21.46v-8.32h-4.42v15.76h-1.74v-4.13l-8.07-3.32v-10.32h-4.42v17.76h-1.74v-4.59l-6.96-2.86v-12.32h-4.42l-.12,19.76h-3.26l.12,19.21h3.26v4.67h8.94v-4.26h21.17v4.26h8.7v-4.26h2.75v-23.03h.02l-9.81-4.03ZM20.39,44.9l5.11-5.72-5.11-5.72h4.66l5.11,5.72-5.11,5.72h-4.66ZM27.89,44.9l5.11-5.72-5.11-5.72h4.66l5.11,5.72-5.11,5.72h-4.66ZM40.19,44.85h-4.66l5.11-5.72-5.11-5.72h4.66l5.11,5.72-5.11,5.72Z"/>
</svg>