<svg xmlns="http://www.w3.org/2000/svg" aria-hidden="true" focusable="false" viewBox="0 0 64 64">
  <path d="M35.13,21.5v-2.22l-1.65-1.65v-3.79h-17.2v3.79l-1.65,1.65v3.13h0v7.57l2.08,2.08,1.41-1.41-1.5-1.5v-5.28l1.32-1.32h13.85l1.35,1.35v5.25l-1.5,1.5,1.41,1.41,2.08-2.08v-8.47h-.03Z"/>
  <polygon points="38.83 13.84 36.83 13.84 36.83 10.23 12.93 10.23 12.93 13.84 10.93 13.84 10.93 8.23 38.83 8.23 38.83 13.84"/>
  <path d="M48.19,44.6c2.14,0,3.88,1.74,3.88,3.88s-1.74,3.88-3.88,3.88h-30.83c-2.14,0-3.88-1.74-3.88-3.88s1.74-3.88,3.88-3.88h30.83M48.19,42.6h-30.83c-3.24,0-5.88,2.64-5.88,5.88s2.64,5.88,5.88,5.88h30.83c3.24,0,5.88-2.64,5.88-5.88s-2.64-5.88-5.88-5.88h0Z"/>
  <circle cx="17.64" cy="48.48" r="2.22"/>
  <circle cx="47.9" cy="48.48" r="2.22"/>
  <circle cx="32.77" cy="48.48" r="2.22"/>
  <path d="M21.54,28.76h8.55v8.55l-1.87,1.87h-8.55v-8.55l1.87-1.87Z"/>
  <path d="M39.1,28.76h8.55v8.55l-1.87,1.87h-8.55v-8.55l1.87-1.87Z"/>
</svg>