<svg xmlns="http://www.w3.org/2000/svg" aria-hidden="true" focusable="false" viewBox="0 0 64 64">
  <g>
    <path d="m28.63,21.11h-14.27c-1.85,0-3.35,1.52-3.35,3.39v4.83h18.93v-4.49c0-1.51.7-2.85,1.77-3.74h-3.08Z"/>
    <path d="m42.07,50.02h0s-2.24,0-2.24,0v-25.18c0-1.44-1.15-2.62-2.56-2.62h-2.52c-1.41,0-2.56,1.17-2.56,2.62v6.73H15.32v21.49h.02c.12,2.85,2.45,5.12,5.32,5.12h18.77c2.95,0,5.35-2.39,5.35-5.35v-2.82h-2.71Zm-7.69-3.18h-12.5v-2.24h12.5v2.24Zm0-6.07h-12.5v-2.24h12.5v2.24Z"/>
  </g>
  <path d="m55.78,14.52h-7.31v-7.31c0-.77-.63-1.4-1.4-1.4s-1.4.63-1.4,1.4v7.31h-7.31c-.77,0-1.4.63-1.4,1.4s.63,1.4,1.4,1.4h7.31v7.31c0,.77.63,1.4,1.4,1.4s1.4-.63,1.4-1.4v-7.31h7.31c.77,0,1.4-.63,1.4-1.4s-.63-1.4-1.4-1.4Z"/>
</svg>