<svg xmlns="http://www.w3.org/2000/svg" aria-hidden="true" focusable="false" viewBox="0 0 64 64">
  <path d="M47.84,37.77l5.09-17.19c.18-.6-.16-1.23-.76-1.41-.6-.17-1.23.17-1.41.76l-4.61,15.58h-21.61l-6.95-23.46h-8.19c-.62,0-1.13.51-1.13,1.13s.51,1.13,1.13,1.13h6.5l6.59,22.23-4.59,9.34h29.38c.62,0,1.13-.51,1.13-1.13s-.51-1.13-1.13-1.13h-25.75l2.87-5.84h23.43Z"/>
  <path d="M19.72,49.28c-1.4,0-2.54,1.14-2.54,2.54s1.14,2.54,2.54,2.54,2.54-1.14,2.54-2.54-1.14-2.54-2.54-2.54Z"/>
  <path d="M45.52,49.28c-1.4,0-2.54,1.14-2.54,2.54s1.14,2.54,2.54,2.54,2.54-1.14,2.54-2.54-1.14-2.54-2.54-2.54Z"/>
  <path d="M34.54,28.78c0,.62.51,1.13,1.13,1.13s1.13-.51,1.13-1.13v-9.56h8.28l-9.41-9.41-9.41,9.41h8.28v9.56Z"/>
</svg>