<svg xmlns="http://www.w3.org/2000/svg" aria-hidden="true" focusable="false" viewBox="0 0 64 64">
  <path class="cls-1" d="M48.32,39.14l5.09-17.19c.18-.6-.16-1.23-.76-1.41-.6-.17-1.23.17-1.41.76l-4.61,15.58h-21.61l-6.95-23.46h-8.19c-.62,0-1.13.51-1.13,1.13s.51,1.13,1.13,1.13h6.5l6.59,22.23-4.59,9.34h29.38c.62,0,1.13-.51,1.13-1.13s-.51-1.13-1.13-1.13h-25.75l2.87-5.84h23.44Z"/>
  <circle class="cls-1" cx="20.2" cy="53.19" r="2.54"/>
  <path class="cls-1" d="M45.99,50.65c-1.4,0-2.54,1.14-2.54,2.54s1.14,2.54,2.54,2.54,2.54-1.14,2.54-2.54-1.14-2.54-2.54-2.54Z"/>
  <polygon class="cls-1" points="43.45 22.06 27.26 22.06 35.36 30.16 43.45 22.06"/>
  <polygon class="cls-1" points="43.45 13.67 27.26 13.67 35.36 21.76 43.45 13.67"/>
</svg>