<svg xmlns="http://www.w3.org/2000/svg" aria-hidden="true" focusable="false" viewBox="0 0 64 64">
  <path d="M54.56,45.35c0-.55-.45-1-1-1s-1,.45-1,1v7.55H12.56v-7.55c0-.55-.45-1-1-1s-1,.45-1,1v9.55h44v-9.55Z"/>
  <path d="M31.49,48.48c0,.59.48,1.07,1.07,1.07s1.07-.48,1.07-1.07v-6.64h7.86l-8.94-8.94-8.94,8.94h7.86v6.64Z"/>
  <path d="M38.24,9.52c-2.09,0-4.04.62-5.68,1.69-.74-.48-1.55-.87-2.41-1.16-.39-.13-.79-.24-1.2-.32-.43-.09-.87-.14-1.32-.17-.25-.02-.5-.04-.76-.04-5.77,0-10.47,4.69-10.47,10.47s4.69,10.47,10.47,10.47c.32,0,.64-.02.96-.05.44-.04.87-.11,1.29-.2.41-.09.8-.21,1.19-.34.79-.28,1.54-.64,2.24-1.09,1.64,1.06,3.59,1.69,5.68,1.69,5.77,0,10.47-4.69,10.47-10.47s-4.69-10.47-10.47-10.47ZM38.24,28.25c-1.4,0-2.72-.35-3.87-.97,1.07-1.1,1.9-2.44,2.41-3.93h-2.36c-.45.99-1.08,1.88-1.86,2.62-.78-.74-1.41-1.63-1.86-2.62h-2.36c.51,1.49,1.34,2.82,2.41,3.93-.62.33-1.28.58-1.98.74-.4.09-.8.16-1.22.19-.22.02-.45.03-.67.03-.2,0-.4-.02-.6-.03-4.28-.31-7.67-3.88-7.67-8.24s3.31-7.85,7.52-8.23c.25-.02.5-.04.75-.04.18,0,.36.02.53.03.41.03.82.08,1.21.16.75.16,1.47.43,2.13.78-.96.98-1.72,2.15-2.24,3.45h2.41c.42-.8.98-1.52,1.63-2.14.65.62,1.21,1.34,1.63,2.14h2.41c-.52-1.3-1.28-2.47-2.24-3.45,1.16-.62,2.47-.97,3.87-.97,4.56,0,8.27,3.71,8.27,8.27s-3.71,8.27-8.27,8.27Z"/>
  <polygon points="35.03 18.65 30.09 18.65 27.87 18.65 26.2 18.65 25.28 18.65 25.28 20.85 26.19 20.85 27.82 20.85 30.02 20.85 35.1 20.85 37.3 20.85 39.84 20.85 39.84 18.65 37.25 18.65 35.03 18.65"/>
</svg>