<svg xmlns="http://www.w3.org/2000/svg" aria-hidden="true" focusable="false" viewBox="0 0 64 64">
  <polygon points="25.5 27.5 30.4 30.33 30.4 24.67 25.5 21.85 25.5 27.5"/>
  <polygon points="30.82 18.28 25.93 21.11 30.82 23.94 35.72 21.11 32.27 19.12 30.82 18.28"/>
  <polygon points="42.32 18.28 40.87 19.12 37.42 21.11 42.32 23.94 47.21 21.11 42.32 18.28"/>
  <polygon points="37 27.5 41.89 30.33 41.89 24.67 37 21.85 37 27.5"/>
  <polygon points="31.25 17.54 36.15 20.37 36.15 14.72 31.25 11.89 31.25 17.54"/>
  <polygon points="36.57 8.33 31.68 11.15 36.57 13.98 41.47 11.15 36.57 8.33"/>
  <path d="M48.12,38.68l4.94-16.68c.18-.6-.17-1.23-.77-1.41-.6-.18-1.23.16-1.41.77l-4.46,15.06h-20.87l-6.73-22.73h-7.96c-.63,0-1.14.51-1.14,1.14s.51,1.14,1.14,1.14h6.27l6.37,21.49-4.47,9.09h28.53c.63,0,1.14-.51,1.14-1.14s-.51-1.14-1.14-1.14h-24.87l2.74-5.58h22.71Z"/>
  <circle cx="20.85" cy="52.25" r="2.46"/>
  <path d="M45.84,49.79c-1.36,0-2.46,1.1-2.46,2.46s1.1,2.46,2.46,2.46,2.46-1.1,2.46-2.46-1.1-2.46-2.46-2.46Z"/>
</svg>