<svg xmlns="http://www.w3.org/2000/svg" aria-hidden="true" focusable="false" viewBox="0 0 64 64">
  <path d="M48.98,15.01c-7.75-7.75-19.5-9.07-28.64-4,.48.47.89,1.01,1.2,1.61,3.25-1.75,6.85-2.64,10.45-2.64,5.64,0,11.28,2.15,15.57,6.44,8.58,8.58,8.58,22.55,0,31.14-8.58,8.58-22.55,8.58-31.14,0-7.03-7.03-8.29-17.68-3.8-26.02-.6-.32-1.14-.72-1.61-1.2-5.07,9.13-3.75,20.89,4,28.64,4.68,4.68,10.83,7.02,16.98,7.02s12.3-2.34,16.98-7.02c9.36-9.36,9.36-24.6,0-33.97Z"/>
  <circle cx="15.72" cy="15.72" r="3.56"/>
  <polygon points="18.18 28.22 30.69 44.77 24.43 28.22 18.18 28.22"/>
  <polygon points="28.05 22.36 22.96 22.36 18.33 26.99 24.55 26.99 28.05 22.36"/>
  <polygon points="37.92 26.99 34.42 22.36 29.6 22.36 26.1 26.99 37.92 26.99"/>
  <polygon points="33.33 44.76 45.85 28.22 39.59 28.22 33.33 44.76"/>
  <polygon points="45.7 26.99 41.07 22.36 35.97 22.36 39.47 26.99 45.7 26.99"/>
  <polygon points="25.75 28.22 32.01 44.76 38.27 28.22 25.75 28.22"/>
</svg>