<svg xmlns="http://www.w3.org/2000/svg" aria-hidden="true" focusable="false" viewBox="0 0 64 64">
  <rect x="7.53" y="52.18" width="48.94" height="2"/>
  <path d="M16.33,46.8h11.43c.66-.66,1.03-1.02,1.68-1.68v-11.43c-.66-.66-1.03-1.02-1.68-1.68h-11.43c-.66,.66-1.03,1.03-1.68,1.68v11.43c.66,.66,1.03,1.03,1.68,1.68Z"/>
  <path d="M26.28,28.21h11.43c.66-.66,1.03-1.03,1.68-1.68V15.1c-.66-.66-1.03-1.03-1.68-1.68h-11.43c-.66,.66-1.03,1.03-1.68,1.68v11.43c.66,.66,1.03,1.03,1.68,1.68Z"/>
  <path d="M34.55,33.68v11.43c.66,.66,1.02,1.03,1.68,1.68h11.43c.66-.66,1.02-1.02,1.68-1.68v-11.43c-.66-.66-1.03-1.02-1.68-1.68h-11.43c-.66,.66-1.03,1.03-1.68,1.68Z"/>
</svg>