<svg xmlns="http://www.w3.org/2000/svg" aria-hidden="true" focusable="false" viewBox="0 0 64 64">
  <polygon points="19.65 13.34 12.95 17.22 12.95 47.02 14.95 47.02 14.95 18.37 19.65 15.65 19.65 13.34"/>
  <polygon points="44.35 13.34 44.35 15.65 49.05 18.37 49.05 47.02 51.05 47.02 51.05 17.22 44.35 13.34"/>
  <path d="M19.89,44.02h8.84l1.3-1.3v-8.84l-1.3-1.3h-8.84l-1.3,1.3v8.84c.51.51.79.79,1.3,1.3Z"/>
  <path d="M27.58,29.65h8.84l1.3-1.3v-8.84c-.51-.51-.79-.79-1.3-1.3h-8.84c-.51.51-.79.79-1.3,1.3v8.84c.51.51.79.79,1.3,1.3Z"/>
  <path d="M33.97,33.88v8.84c.51.51.79.79,1.3,1.3h8.84l1.3-1.3v-8.84l-1.3-1.3h-8.84c-.51.51-.79.79-1.3,1.3Z"/>
  <rect x="7.76" y="52.41" width="48.94" height="2"/>
</svg>