<svg xmlns="http://www.w3.org/2000/svg" aria-hidden="true" focusable="false" viewBox="0 0 64 64">
  <path d="M48.91,38.63l4.94-16.67c.24-.79-.22-1.63-1.01-1.86-.8-.23-1.63.22-1.86,1.01l-4.3,14.53h-19.94l-6.62-22.34h-8.12c-.83,0-1.5.67-1.5,1.5s.67,1.5,1.5,1.5h5.88l6.13,20.71-4.6,9.35h28.66c.83,0,1.5-.67,1.5-1.5s-.67-1.5-1.5-1.5h-23.84l2.32-4.72h22.37Z"/>
  <circle cx="21.82" cy="51.59" r="2.42"/>
  <circle cx="46.38" cy="51.59" r="2.42"/>
  <path d="M36.73,31.12l-2.18-8.87c-.07-.28-.28-.49-.56-.56l-8.87-2.18,8.87-2.18c.28-.07.49-.28.56-.56l2.18-8.87,2.18,8.87c.07.28.28.49.56.56l8.87,2.18-8.87,2.18c-.28.07-.49.28-.56.56l-2.18,8.87Z"/>
</svg>