<svg xmlns="http://www.w3.org/2000/svg" aria-hidden="true" focusable="false" viewBox="0 0 64 64">
  <path d="M47.1,45.38c1.82-2.55,3.02-5.58,3.34-8.87h-5.99c-.89,5.63-5.76,9.96-11.64,9.96v-2.76s0,0,0,0c4.99,0,9.04-4.05,9.04-9.04,0-.62-.06-1.22-.18-1.8h8.77c-.54-5.48-3.48-10.25-7.75-13.26v-7.23h-4.06v-4.11h-3.48v4.11h-6.11v-4.11h-3.48v4.11h-4.12v7.23c-4.27,3.01-7.21,7.78-7.75,13.26h7.48c.87-5.65,5.75-10,11.64-10v2.76c-4.99,0-9.04,4.05-9.04,9.04,0,.63.07,1.24.19,1.84h-10.27c.32,3.29,1.52,6.32,3.34,8.87l-6.58,3.8v5.82h4.05v-3.48l5.28-3.05c.52.47,1.08.9,1.65,1.3v5.23h21.26v-5.23c.57-.41,1.13-.84,1.65-1.3l5.28,3.05v3.48h4.05v-5.82l-6.58-3.8ZM32.81,29.15c3.05,0,5.53,2.47,5.53,5.53s-2.47,5.53-5.53,5.53-5.53-2.47-5.53-5.53,2.47-5.53,5.53-5.53Z"/>
</svg>