<svg xmlns="http://www.w3.org/2000/svg" aria-hidden="true" focusable="false" viewBox="0 0 64 64">
  <polygon points="53.51 54.44 51.51 54.44 51.51 50.84 13.27 50.84 13.27 54.44 11.27 54.44 11.27 48.84 53.51 48.84 53.51 54.44"/>
  <path d="M13.28,32.04v6.55c0,2.99,2.43,5.42,5.42,5.42s5.42-2.43,5.42-5.42v-6.55h-10.84Z"/>
  <path d="M24.12,30.04v-4.52c0-2.65-1.9-4.85-4.42-5.32v-5.77c0-1.29,1.05-2.34,2.34-2.34h5.01c1.29,0,2.34,1.05,2.34,2.34v1.08c-1.63.94-2.72,2.69-2.72,4.7v9.84h10.84v-9.84c0-2.01-1.1-3.76-2.72-4.7v-1.08c0-1.29,1.05-2.34,2.34-2.34h5.01c1.29,0,2.34,1.05,2.34,2.34v5.77c-2.51.47-4.42,2.67-4.42,5.32v4.52h10.84v-4.52c0-2.65-1.9-4.85-4.42-5.32v-5.77c0-2.39-1.95-4.34-4.34-4.34h-5.01c-2.39,0-4.34,1.95-4.34,4.34v.41c-.23-.03-.46-.05-.69-.05s-.47.02-.69.05v-.41c0-2.39-1.95-4.34-4.34-4.34h-5.01c-2.39,0-4.34,1.95-4.34,4.34v5.77c-2.51.47-4.42,2.67-4.42,5.32v4.52h10.84Z"/>
  <path d="M40.06,32.04v6.55c0,2.99,2.43,5.42,5.42,5.42s5.42-2.43,5.42-5.42v-6.55h-10.84Z"/>
  <path d="M26.67,32.04v6.55c0,2.99,2.43,5.42,5.42,5.42s5.42-2.43,5.42-5.42v-6.55h-10.84Z"/>
</svg>