<svg xmlns="http://www.w3.org/2000/svg" aria-hidden="true" focusable="false" viewBox="0 0 64 64">
  <path d="M41.9,39.9l-6.09-6.17c-.83-.84-2.18-.84-3.01,0l-5.37,5.45c-.83.84-.83,2.21,0,3.05.83.84,2.18.84,3.01,0l2.29-2.32,9.88,10.02,9.26.31v-11.46l-9.96,1.12Z"/>
  <path d="M41.43,52.62l-.76-.77-7.95-8.06-.35.35c-.92.93-2.14,1.44-3.44,1.44s-2.53-.51-3.44-1.44c-1.87-1.89-1.87-4.98,0-6.87l1.42-1.44c-1.29.08-2.52.62-3.44,1.55l-2.48,2.52-9.03-1.12v12.19l11.61-1.03,4.53,4.6c.83.84,2.18.84,3.01,0l1-1.02,1,1.02c.83.84,2.18.84,3.01,0l.95-.96.95.96c.83.84,2.18.84,3.01,0,.51-.52.63-1.15.51-1.82l-.11-.09Z"/>
  <path d="M44.9,17.24h8.41v-8.41h-2.5v4c-1.17-1.52-2.77-2.64-4.64-3.21-2.37-.72-4.87-.47-7.05.69-2.18,1.17-3.78,3.11-4.49,5.48-.72,2.37-.47,4.87.69,7.05,1.17,2.18,3.11,3.78,5.48,4.49.89.27,1.8.4,2.7.4,1.5,0,2.99-.37,4.35-1.1l1.1-.59-1.18-2.2-1.1.59c-1.59.85-3.42,1.03-5.15.51-1.73-.52-3.15-1.69-4-3.28-.85-1.59-1.03-3.42-.51-5.15.52-1.73,1.69-3.15,3.28-4,1.59-.85,3.42-1.03,5.15-.51,1.52.46,2.8,1.42,3.67,2.73h-4.21v2.5Z"/>
  <polygon points="11.08 27.25 18.1 20.22 25.13 27.25 27.08 25.31 20.05 18.28 27.08 11.25 25.13 9.31 18.1 16.34 11.08 9.31 9.13 11.25 16.16 18.28 9.13 25.31 11.08 27.25"/>
</svg>