<svg xmlns="http://www.w3.org/2000/svg" aria-hidden="true" focusable="false" viewBox="0 0 64 64">
  <path d="M32.01,14.47v6c3.1,0,6.01,1.21,8.2,3.4s3.4,5.1,3.4,8.2-1.21,6.01-3.4,8.2-5.1,3.4-8.2,3.4-6.01-1.21-8.2-3.4c-2.19-2.19-3.4-5.1-3.4-8.2,0-2.59.85-5.05,2.41-7.07l5.24,5.24c.07.07.15.1.23.15-.23.51-.37,1.07-.37,1.67,0,2.25,1.83,4.08,4.08,4.08s4.08-1.83,4.08-4.08-1.83-4.08-4.08-4.08c-.6,0-1.16.14-1.67.37-.05-.08-.09-.16-.15-.23L14.04,11.99l-2.12,2.12,6.63,6.63c-2.68,3.17-4.15,7.14-4.15,11.33,0,4.7,1.83,9.12,5.16,12.45,3.32,3.32,7.74,5.16,12.45,5.16s9.12-1.83,12.45-5.16c3.32-3.32,5.16-7.74,5.16-12.45s-1.83-9.12-5.15-12.45c-3.32-3.32-7.74-5.16-12.45-5.16Z"/>
  <path d="M11.14,32.07h-2c0,12.61,10.26,22.87,22.87,22.87v-2c-11.51,0-20.87-9.36-20.87-20.87Z"/>
  <path d="M32.01,9.2v2c11.51,0,20.87,9.36,20.87,20.87h2c0-12.61-10.26-22.87-22.87-22.87Z"/>
</svg>