<svg xmlns="http://www.w3.org/2000/svg" aria-hidden="true" focusable="false" viewBox="0 0 64 64">
  <path d="M17.89,43.24c-.29,0-.58-.11-.81-.33-.45-.45-.45-1.17,0-1.61l8.29-8.29-8.29-8.29c-.45-.45-.45-1.17,0-1.61s1.17-.45,1.61,0l9.9,9.9-9.9,9.9c-.22.22-.51.33-.81.33Z"/>
  <path d="M9.79,43.24c-.29,0-.58-.11-.81-.33-.45-.45-.45-1.17,0-1.61l8.29-8.29-8.29-8.29c-.45-.45-.45-1.17,0-1.61s1.17-.45,1.61,0l9.9,9.9-9.9,9.9c-.22.22-.51.33-.81.33Z"/>
  <path d="M45.95,27.31c-.59,1.26-1.46,2.39-2.59,3.25v3.49l7.88,8.03,4.56-.05.04-4.63-9.89-10.08Z"/>
  <path d="M44.98,23.69c0-4.03-3.49-7.24-7.61-6.78-3.2.36-5.78,3.04-6.02,6.25-.21,2.7,1.17,5.07,3.28,6.35l.02,16.43,3.33,3.19,3.31-3.32v-2.14s-1.96-1.96-1.96-1.96c-.29-.29-.29-.76,0-1.05l1.96-1.96v-.95s-1.96-1.95-1.96-1.95c-.29-.29-.29-.76,0-1.05l1.95-1.96v-3.05c2.19-1.14,3.7-3.4,3.7-6.04ZM39.27,22.84c-1.55.84-3.39-.22-3.43-1.99-.02-.83.45-1.63,1.18-2.03,1.55-.84,3.39.23,3.43,1.99.02.83-.45,1.63-1.17,2.03Z"/>
</svg>