<svg xmlns="http://www.w3.org/2000/svg" aria-hidden="true" focusable="false" viewBox="0 0 64 64">
  <g>
    <path d="M28.47,34.72c-.57,1.23-1.42,2.33-2.52,3.17v3.4l7.68,7.82,4.44-.05.04-4.52-9.65-9.82Z"/>
    <path d="M27.52,31.2c0-3.68-2.98-6.66-6.66-6.66s-6.66,2.98-6.66,6.66c0,2.41,1.3,4.51,3.22,5.68l.02,16.01,3.25,3.11,3.23-3.24v-2.09s-1.91-1.91-1.91-1.91c-.28-.28-.28-.74,0-1.02l1.91-1.91v-.93s-1.91-1.91-1.91-1.91c-.28-.28-.28-.74,0-1.02l1.91-1.91v-2.98c2.13-1.11,3.61-3.31,3.61-5.89ZM21.43,30.58c-1.2.32-2.42-.39-2.74-1.59-.32-1.2.39-2.42,1.59-2.74,1.2-.32,2.42.39,2.74,1.59.32,1.2-.39,2.42-1.59,2.74Z"/>
  </g>
  <g>
    <path d="M42.72,30.59c-.29,0-.58-.11-.81-.33-.45-.45-.45-1.17,0-1.61l8.29-8.29-8.29-8.29c-.45-.45-.45-1.17,0-1.61s1.17-.45,1.61,0l9.9,9.9-9.9,9.9c-.22.22-.51.33-.81.33Z"/>
    <path d="M34.62,30.59c-.29,0-.58-.11-.81-.33-.45-.45-.45-1.17,0-1.61l8.29-8.29-8.29-8.29c-.45-.45-.45-1.17,0-1.61s1.17-.45,1.61,0l9.9,9.9-9.9,9.9c-.22.22-.51.33-.81.33Z"/>
  </g>
</svg>