<svg xmlns="http://www.w3.org/2000/svg" aria-hidden="true" focusable="false" viewBox="0 0 64 64">
  <polygon points="24.7 30.46 24.7 12.5 51.44 12.5 51.44 39.24 33.49 39.24 30.93 41.8 54 41.8 54 9.94 22.14 9.94 22.14 33.01 24.7 30.46"/>
  <g>
    <rect x="27.32" y="32.79" width="5.11" height="2.56" transform="translate(-15.34 31.1) rotate(-45)"/>
    <rect x="20.09" y="40.02" width="5.11" height="2.56" transform="translate(-22.57 28.11) rotate(-45)"/>
    <path d="m10.96,45.75c-2,2-2,5.23,0,7.23,2,2,5.23,2,7.23,0s2-5.23,0-7.23-5.23-2-7.23,0Z"/>
    <path d="m41.69,22.26c-2-2-5.23-2-7.23,0-2,2-2,5.23,0,7.23,2,2,5.23,2,7.23,0s2-5.23,0-7.23Z"/>
  </g>
</svg>