<svg xmlns="http://www.w3.org/2000/svg" aria-hidden="true" focusable="false" viewBox="0 0 64 64">
  <g>
    <path d="m22.63,31.53h-3.65c-1.67,0-3.02,1.35-3.02,3.02v3.65c0,.97.46,1.82,1.17,2.37l1.26,7.33c.12.74.74,1.28,1.46,1.28h1.92c.72,0,1.34-.54,1.46-1.28l1.26-7.33c.71-.55,1.17-1.4,1.17-2.37v-3.65c0-1.67-1.35-3.02-3.02-3.02Z"/>
    <path d="m24.57,26.04c-.04-.21-.1-.42-.17-.61-.11-.31-.24-.61-.42-.87-.27-.41-.63-.76-1.03-1.03-.51-.34-1.11-.55-1.75-.61-.13-.01-.25-.04-.39-.04-.26,0-.52.03-.77.08-.5.1-.96.3-1.37.57-.51.34-.93.81-1.22,1.35-.29.54-.46,1.16-.46,1.82h0c0,2.11,1.71,3.82,3.82,3.82s3.82-1.71,3.82-3.82h0c0-.22-.02-.44-.06-.65Z"/>
  </g>
  <g>
    <path d="m43.02,31.53h-3.65c-1.67,0-3.02,1.35-3.02,3.02v3.65c0,.97.46,1.82,1.17,2.37l1.26,7.33c.12.74.74,1.28,1.46,1.28h1.92c.72,0,1.34-.54,1.46-1.28l1.26-7.33c.71-.55,1.17-1.4,1.17-2.37v-3.65c0-1.67-1.35-3.02-3.02-3.02Z"/>
    <path d="m44.95,26.04c-.04-.21-.1-.42-.17-.61-.11-.31-.24-.61-.42-.87-.27-.41-.63-.76-1.03-1.03-.51-.34-1.11-.55-1.75-.61-.13-.01-.25-.04-.39-.04-.26,0-.52.03-.77.08-.5.1-.96.3-1.37.57-.51.34-.93.81-1.22,1.35-.29.54-.46,1.16-.46,1.82h0c0,2.11,1.71,3.82,3.82,3.82s3.82-1.71,3.82-3.82h0c0-.22-.02-.44-.06-.65Z"/>
  </g>
  <path d="m50.24,28.36v23.03c0,.56-.46,1.02-1.02,1.02h-15.95c-.56,0-1.02-.46-1.02-1.02v-23.03h-2.39v23.03c0,.56-.46,1.02-1.02,1.02h-15.95c-.56,0-1.02-.46-1.02-1.02v-23.03h-2.39v24.01c0,1.4,1.13,2.53,2.53,2.53h38.11c1.4,0,2.53-1.13,2.53-2.53v-24.01h-2.39Z"/>
  <path d="m58.83,13.82h-6.32v-6.32c0-.65-.52-1.17-1.17-1.17s-1.17.52-1.17,1.17v6.32h-6.32c-.65,0-1.17.52-1.17,1.17s.52,1.17,1.17,1.17h6.32v6.32c0,.65.52,1.17,1.17,1.17s1.17-.52,1.17-1.17v-6.32h6.32c.65,0,1.17-.52,1.17-1.17s-.52-1.17-1.17-1.17Z"/>
</svg>