<svg xmlns="http://www.w3.org/2000/svg" aria-hidden="true" focusable="false" viewBox="0 0 64 64">
    <path d="M21.83,38h-3.4c-1.55,0-2.81,1.26-2.81,2.81v3.4c0,.9.43,1.69,1.09,2.21l1.17,6.82c.11.69.69,1.19,1.36,1.19h1.78c.67,0,1.25-.5,1.36-1.19l1.17-6.82c.66-.51,1.09-1.31,1.09-2.21v-3.4c0-1.55-1.26-2.81-2.81-2.81Z"/>
    <path d="M45.52,38h-3.4c-1.55,0-2.81,1.26-2.81,2.81v3.4c0,.9.43,1.69,1.09,2.21l1.17,6.82c.11.69.69,1.19,1.36,1.19h1.78c.67,0,1.25-.5,1.36-1.19l1.17-6.82c.66-.51,1.09-1.31,1.09-2.21v-3.4c0-1.55-1.26-2.81-2.81-2.81Z"/>
    <path d="M23.63,32.88c-.04-.2-.09-.39-.16-.57-.1-.29-.22-.56-.39-.81-.26-.38-.58-.71-.96-.96-.47-.32-1.03-.51-1.63-.57-.12-.01-.24-.04-.36-.04-.25,0-.49.02-.72.07-.46.09-.89.28-1.27.54-.47.32-.87.75-1.14,1.25-.27.5-.43,1.08-.43,1.7h0c0,1.38.76,2.7,2.03,3.24,2.6,1.1,5.09-.78,5.09-3.24h0c0-.21-.02-.41-.06-.61Z"/>
    <path d="M33.92,35.68h-3.88c-1.77,0-3.21,1.44-3.21,3.21v3.88c0,1.03.49,1.93,1.24,2.52l1.34,7.79c.13.79.79,1.36,1.55,1.36h2.04c.77,0,1.42-.57,1.55-1.36l1.34-7.79c.75-.59,1.24-1.49,1.24-2.52v-3.88c0-1.77-1.44-3.21-3.21-3.21Z"/>
    <path d="M35.98,29.85c-.04-.22-.1-.44-.18-.65-.12-.33-.26-.64-.45-.93-.29-.43-.66-.8-1.1-1.1-.54-.36-1.18-.58-1.86-.65-.14-.01-.27-.04-.41-.04-.28,0-.55.03-.82.08-.53.11-1.02.32-1.45.61-.54.36-.99.86-1.3,1.43-.31.58-.49,1.23-.49,1.94h0c0,1.58.87,3.08,2.31,3.69,2.96,1.25,5.81-.89,5.81-3.69h0c0-.24-.02-.47-.07-.69Z"/>
    <path d="M47.32,32.88c-.04-.2-.09-.39-.16-.57-.1-.29-.22-.56-.39-.81-.26-.38-.58-.71-.96-.96-.47-.32-1.03-.51-1.63-.57-.12-.01-.24-.04-.36-.04-.25,0-.49.02-.72.07-.46.09-.89.28-1.27.54-.47.32-.87.75-1.14,1.25-.27.5-.43,1.08-.43,1.7h0c0,1.38.76,2.7,2.03,3.24,2.6,1.1,5.09-.78,5.09-3.24h0c0-.21-.02-.41-.06-.61Z"/>
    <polygon points="31.98 8.57 33.83 14.25 39.8 14.25 34.97 17.75 36.81 23.43 31.98 19.92 27.16 23.43 29 17.75 24.17 14.25 30.14 14.25 31.98 8.57"/>
    <polygon points="39.44 23.41 42.72 23.41 52.91 14.52 42.62 14.52 37.85 18.17 39.44 23.41"/>
    <polygon points="24.56 23.41 21.28 23.41 11.09 14.52 21.38 14.52 26.15 18.17 24.56 23.41"/>
</svg>