<svg xmlns="http://www.w3.org/2000/svg" aria-hidden="true" focusable="false" viewBox="0 0 64 64">
  <path d="M22.63,33.53h-3.65c-1.67,0-3.02,1.35-3.02,3.02v3.65c0,.97.46,1.82,1.17,2.37l1.26,7.33c.12.74.74,1.28,1.46,1.28h1.92c.72,0,1.34-.54,1.46-1.28l1.26-7.33c.71-.55,1.17-1.4,1.17-2.37v-3.65c0-1.67-1.35-3.02-3.02-3.02Z"/>
  <path d="M24.57,28.04c-.04-.21-.1-.42-.17-.61-.11-.31-.24-.61-.42-.87-.27-.41-.63-.76-1.03-1.03-.51-.34-1.11-.55-1.75-.61-.13-.01-.25-.04-.39-.04-.26,0-.52.03-.77.08-.5.1-.96.3-1.37.57-.51.34-.93.81-1.22,1.35-.29.54-.46,1.16-.46,1.82h0c0,1.49.82,2.9,2.18,3.48,2.79,1.18,5.46-.84,5.47-3.48h0c0-.22-.02-.44-.06-.65Z"/>
  <path d="M43.02,33.53h-3.65c-1.67,0-3.02,1.35-3.02,3.02v3.65c0,.97.46,1.82,1.17,2.37l1.26,7.33c.12.74.74,1.28,1.46,1.28h1.92c.72,0,1.34-.54,1.46-1.28l1.26-7.33c.71-.55,1.17-1.4,1.17-2.37v-3.65c0-1.67-1.35-3.02-3.02-3.02Z"/>
  <path d="M44.95,28.04c-.04-.21-.1-.42-.17-.61-.11-.31-.24-.61-.42-.87-.27-.41-.63-.76-1.03-1.03-.51-.34-1.11-.55-1.75-.61-.13-.01-.25-.04-.39-.04-.26,0-.52.03-.77.08-.5.1-.96.3-1.37.57-.51.34-.93.81-1.22,1.35-.29.54-.46,1.16-.46,1.82h0c0,1.49.82,2.9,2.18,3.48,2.79,1.18,5.46-.84,5.47-3.48h0c0-.22-.02-.44-.06-.65Z"/>
  <path d="M50.24,30.36v23.03c0,.56-.46,1.02-1.02,1.02h-15.95c-.56,0-1.02-.46-1.02-1.02v-23.03h-2.39v23.03c0,.56-.46,1.02-1.02,1.02h-15.95c-.56,0-1.02-.46-1.02-1.02v-23.03h-2.39v24.01c0,1.4,1.13,2.53,2.53,2.53h38.11c1.4,0,2.53-1.13,2.53-2.53v-24.01h-2.39Z"/>
  <path d="M31.05,24.18l-7.56-7.56c-.41-.41-.41-1.09,0-1.5s1.09-.41,1.5,0l6.06,6.06,6.04-6.04c.41-.41,1.09-.41,1.5,0s.41,1.09,0,1.5l-7.54,7.54Z"/>
  <path d="M31.05,17.69l-7.56-7.56c-.41-.41-.41-1.09,0-1.5s1.09-.41,1.5,0l6.06,6.06,6.04-6.04c.41-.41,1.09-.41,1.5,0s.41,1.09,0,1.5l-7.54,7.54Z"/>
</svg>