<svg xmlns="http://www.w3.org/2000/svg" aria-hidden="true" focusable="false" viewBox="0 0 64 64">
  <path d="M51.35,20.7l-9.84-9.84c-.39-.39-1.02-.39-1.41,0s-.39,1.02,0,1.41l8.13,8.13H18.86c-.55,0-1,.45-1,1s.45,1,1,1h29.38l-8.13,8.13c-.39,.39-.39,1.02,0,1.41,.2,.2,.45,.29,.71,.29s.51-.1,.71-.29l9.84-9.84c.39-.39,.39-1.02,0-1.41Z"/>
  <path d="M45.73,41.59H15.77l8.13-8.13c.39-.39,.39-1.02,0-1.41s-1.02-.39-1.41,0l-9.84,9.84c-.39,.39-.39,1.02,0,1.41l9.84,9.84c.2,.2,.45,.29,.71,.29s.51-.1,.71-.29c.39-.39,.39-1.02,0-1.41l-8.13-8.13h29.96c.55,0,1-.45,1-1s-.45-1-1-1Z"/>
</svg>