<svg xmlns="http://www.w3.org/2000/svg" aria-hidden="true" focusable="false" viewBox="0 0 64 64">
  <path d="M43,32c0-.34-.14-.67-.38-.91L22.88,11.34c-.37-.37-.92-.48-1.4-.28-.48,.2-.79,.67-.79,1.18V31H9.08v2h11.61v18.75c0,.52,.31,.99,.79,1.18,.16,.07,.33,.1,.49,.1,.33,0,.66-.13,.91-.38l19.75-19.75c.24-.24,.38-.57,.38-.91Z"/>
  <path d="M34.46,11.54c-.39-.39-1.02-.39-1.41,0s-.39,1.02,0,1.41l19.04,19.04-19.04,19.04c-.39,.39-.39,1.02,0,1.41,.2,.2,.45,.29,.71,.29s.51-.1,.71-.29l20.46-20.46L34.46,11.54Z"/>
</svg>