<svg xmlns="http://www.w3.org/2000/svg" aria-hidden="true" focusable="false" viewBox="0 0 64 64">
  <path d="M49.37,29.99c4.3-4.3,4.01-11.46-.88-15.38-3.55-2.84-8.73-2.98-12.41-.31-3.64,2.64-4.93,6.96-3.98,10.85l-17.52,17.57.15,6.97h7.08s2.28-2.3,2.28-2.3v-4.18c0-.62.5-1.12,1.12-1.12h4.18s1.01-1.02,1.01-1.02v-4.18c0-.62.5-1.12,1.12-1.12h4.18s3.26-3.27,3.26-3.27c3.56,1.13,7.59.33,10.41-2.49ZM43.73,22.82c-2.14-.94-2.78-3.67-1.22-5.48.97-1.12,2.64-1.49,4-.89,2.14.94,2.78,3.67,1.22,5.48-.97,1.12-2.64,1.49-4,.89Z"/>
  <polygon points="20.61 20.52 7.89 20.52 7.89 18.52 18.61 18.52 18.61 7.8 20.61 7.8 20.61 20.52"/>
  <polygon points="45.39 56.2 43.39 56.2 43.39 43.48 56.11 43.48 56.11 45.48 45.39 45.48 45.39 56.2"/>
</svg>