<svg xmlns="http://www.w3.org/2000/svg" aria-hidden="true" focusable="false" viewBox="0 0 64 64">
  <path d="M9.85,38.79c.44-.79,1.4-1.13,2.24-.8l8.78,3.33c.54,1,1.54,1.4,2.03,1.58,7.9,3,8.67,3,8.96,3,1.62,0,3.09-.76,3.15-.79l-.86-1.64s-1.14.58-2.29.58c-.41-.04-2.85-.81-8.3-2.88-.91-.35-1.28-.64-1.17-1.59.04-.37.17-.64.39-.82.33-.26.83-.3,1.19-.26l2.36.19,6.64.66,4.59-1.64c3.74-1.33,7.9-.57,10.92,2.02l6.87,6-7.05,7.53-5.78-4.98-7.98,2.97c-1.9.71-4,.57-5.79-.38l-18.13-9.59c-.92-.46-1.27-1.6-.77-2.5Z"/>
  <path d="M27.53,25.98h4.01s2.57-2.56,2.57-2.56c.38-.38,1-.38,1.38,0l2.57,2.58h1.25s2.58-2.57,2.58-2.57c.38-.38,1-.38,1.38,0l2.57,2.58h2.81s4.36-4.35,4.36-4.35l-4.19-4.38-21.59-.03c-1.81-2.98-5.26-4.84-9.12-4.22-3.9.63-7,3.89-7.44,7.82-.6,5.42,3.62,10,8.91,10,3.47,0,6.44-1.99,7.94-4.87ZM15.65,24.88c-2.07-.15-3.35-2.23-2.62-4.12.47-1.2,1.72-2.01,3.01-1.91,2.08.15,3.36,2.23,2.62,4.12-.47,1.2-1.72,2.01-3.01,1.91Z"/>
</svg>