<svg xmlns="http://www.w3.org/2000/svg" aria-hidden="true" focusable="false" viewBox="0 0 64 64">
  <polygon points="24.5 45.49 22.24 45.49 12.77 29.08 22.24 12.68 41.18 12.68 50.66 29.08 46.73 35.88 48.21 37.37 53 29.08 42.36 10.65 21.07 10.65 10.43 29.08 21.07 47.52 24.5 47.52 24.5 45.49"/>
  <g>
    <path d="M40.38,33.62c-.66,1.41-1.63,2.67-2.89,3.63v3.9s8.82,8.98,8.82,8.98l5.1-.06.05-5.18-11.07-11.27Z"/>
    <path d="M39.3,29.58c0-4.22-3.42-7.64-7.64-7.64-4.22,0-7.64,3.42-7.64,7.64,0,2.77,1.49,5.17,3.7,6.51l.02,18.37,3.73,3.57,3.7-3.71v-2.39s-2.2-2.19-2.2-2.19c-.33-.32-.33-.85,0-1.18l2.19-2.19v-1.06s-2.19-2.19-2.19-2.19c-.33-.32-.33-.85,0-1.18l2.19-2.19v-3.42c2.45-1.27,4.14-3.8,4.14-6.76ZM32.31,28.87c-1.37.37-2.78-.45-3.15-1.82-.37-1.37.45-2.78,1.82-3.15,1.37-.37,2.78.45,3.15,1.82.37,1.37-.45,2.78-1.82,3.15Z"/>
  </g>
</svg>