<svg xmlns="http://www.w3.org/2000/svg" aria-hidden="true" focusable="false" viewBox="0 0 64 64">
  <rect x="7.53" y="50.5" width="48.94" height="2.22"/>
  <path d="m28.63,27.69c.73-.73,1.14-1.14,1.87-1.87v-12.68c-.73-.73-1.14-1.14-1.87-1.87h-12.68c-.73.73-1.14,1.14-1.87,1.87v12.68c.73.73,1.14,1.14,1.87,1.87h12.68Z"/>
  <path d="m35.37,27.69h12.68c.73-.73,1.14-1.14,1.87-1.87v-12.68c-.73-.73-1.14-1.14-1.87-1.87h-12.68c-.73.73-1.14,1.14-1.87,1.87v12.68c.73.73,1.14,1.14,1.87,1.87Z"/>
  <path d="m24.21,35.88c-.39-.39-1.02-.39-1.41,0s-.39,1.02,0,1.41l9.2,9.2,9.2-9.2c.39-.39.39-1.02,0-1.41s-1.02-.39-1.41,0l-6.79,6.79v-12.4h-2v12.4l-6.79-6.79Z"/>
</svg>
