<svg xmlns="http://www.w3.org/2000/svg" aria-hidden="true" focusable="false" viewBox="0 0 64 64">
  <polygon points="23.33 43.08 31.82 47.98 31.82 38.18 23.33 33.28 23.33 43.08"/>
  <polygon points="41.05 32 32.56 27.1 24.07 32 32.56 36.9 41.05 32"/>
  <path d="M46.83,23.45c.2.2.45.29.71.29s.51-.1.71-.29l6.11-6.11h0s.71-.71.71-.71l-.71-.71h0s-6.11-6.11-6.11-6.11c-.39-.39-1.02-.39-1.41,0s-.39,1.02,0,1.41l4.4,4.4h-19.67v5.95c0,.55.45,1,1,1s1-.45,1-1v-3.95h17.67l-4.4,4.4c-.39.39-.39,1.02,0,1.41Z"/>
  <path d="M54.53,45.36c0-.55-.45-1-1-1s-1,.45-1,1v7.55H12.53v-7.55c0-.55-.45-1-1-1s-1,.45-1,1v9.55h44v-9.55Z"/>
</svg>