<svg xmlns="http://www.w3.org/2000/svg" aria-hidden="true" focusable="false" viewBox="0 0 64 64">
  <path d="M46.83,23.45c.2.2.45.29.71.29s.51-.1.71-.29l6.11-6.11h0s.71-.71.71-.71l-.71-.71h0s-6.11-6.11-6.11-6.11c-.39-.39-1.02-.39-1.41,0s-.39,1.02,0,1.41l4.4,4.4h-19.67v5.95c0,.55.45,1,1,1s1-.45,1-1v-3.95h17.67l-4.4,4.4c-.39.39-.39,1.02,0,1.41Z"/>
  <path d="M42.34,39.94l-6.3-6.39c-.86-.87-2.26-.87-3.12,0l-5.47,5.55c-.82.83-.98,2.18-.24,3.09.84,1.04,2.35,1.09,3.27.17l2.37-2.4,10.23,10.38,9.58.32v-11.86l-10.31,1.16Z"/>
  <path d="M41.86,53.11l-.79-.8-8.23-8.34-.23.23c-.88.89-2.03,1.51-3.27,1.61-1.72.14-3.34-.58-4.4-1.95-1.57-2.03-1.26-4.94.54-6.77l1.34-1.36c-1.34.09-2.61.64-3.56,1.61l-2.57,2.61-9.35-1.16v12.61l12.02-1.07,4.69,4.76c.86.87,2.26.87,3.12,0l1.04-1.05,1.04,1.05c.86.87,2.26.87,3.12,0l.98-1,.94.96c.81.82,2.14.93,3.01.17.65-.56.8-1.27.67-2.02l-.11-.09Z"/>
</svg>