<svg xmlns="http://www.w3.org/2000/svg" aria-hidden="true" focusable="false" viewBox="0 0 64 64">
  <path d="M27.36,37.37c-.39-.39-1.02-.39-1.41,0s-.39,1.02,0,1.41l6.11,6.11h0s.71.71.71.71l.71-.71h0s6.11-6.11,6.11-6.11c.39-.39.39-1.02,0-1.41s-1.02-.39-1.41,0l-4.4,4.4v-19.73h-6.69c-.55,0-1,.45-1,1s.45,1,1,1h4.69v17.73l-4.4-4.4Z"/>
  <polygon points="8.06 27.11 16.55 32.01 16.55 22.21 8.06 17.31 8.06 27.11"/>
  <polygon points="25.77 16.03 17.29 11.13 8.8 16.03 17.29 20.94 25.77 16.03"/>
  <path d="M53.56,44.35c-.55,0-1,.45-1,1v7.55H12.56v-7.55c0-.55-.45-1-1-1s-1,.45-1,1v9.55h44v-9.55c0-.55-.45-1-1-1Z"/>
  <path d="M55.99,29.82V11.13h-14.38v18.69l7.19,3.63,7.19-3.63ZM43.6,13.13h10.38v15.46l-2.05,1.04v-5.1c0-1.08-.88-1.96-1.96-1.96h-2.37c-1.08,0-1.96.88-1.96,1.96v5.1l-2.05-1.04v-15.46Z"/>
  <circle cx="48.8" cy="18.98" r="2.5"/>
</svg>