<svg xmlns="http://www.w3.org/2000/svg" aria-hidden="true" focusable="false" viewBox="0 0 64 64">
  <polygon points="12.07 27.13 20.56 32.03 20.56 22.22 12.07 17.32 12.07 27.13"/>
  <polygon points="29.78 16.05 21.3 11.14 12.81 16.05 21.3 20.95 29.78 16.05"/>
  <path d="M33.18,36.91c-.39-.39-1.02-.39-1.41,0s-.39,1.02,0,1.41l6.11,6.11h0s.71.71.71.71l.71-.71h0s6.11-6.11,6.11-6.11c.39-.39.39-1.02,0-1.41s-1.02-.39-1.41,0l-4.4,4.4v-19.73h-6.69c-.55,0-1,.45-1,1s.45,1,1,1h4.69v17.73l-4.4-4.4Z"/>
  <path d="M53.57,44.36c-.55,0-1,.45-1,1v7.55H12.57v-7.55c0-.55-.45-1-1-1s-1,.45-1,1v9.55h44v-9.55c0-.55-.45-1-1-1Z"/>
</svg>