<svg xmlns="http://www.w3.org/2000/svg" aria-hidden="true" focusable="false" viewBox="0 0 64 64">
  <path d="M29.05,46.83c.39,.39,1.02,.39,1.41,0s.39-1.02,0-1.41l-13.42-13.42,13.42-13.42c.39-.39,.39-1.02,0-1.41-.2-.2-.45-.29-.71-.29s-.51,.1-.71,.29l-14.83,14.83,14.83,14.83Z"/>
  <path d="M24.78,31.29l-.71,.71,.71,.71h0s14.13,14.13,14.13,14.13c.39,.39,1.02,.39,1.41,0s.39-1.02,0-1.41l-12.42-12.42h20.93c.55,0,1-.45,1-1s-.45-1-1-1H27.9s12.42-12.42,12.42-12.42c.39-.39,.39-1.02,0-1.41-.2-.2-.45-.29-.71-.29s-.51,.1-.71,.29l-14.13,14.13h0Z"/>
</svg>