<svg xmlns="http://www.w3.org/2000/svg" aria-hidden="true" focusable="false" viewBox="0 0 64 64">
  <path d="M17.36,16.91c-.39,.39-.39,1.02,0,1.41l13.42,13.42-13.42,13.42c-.39,.39-.39,1.02,0,1.41,.2,.2,.45,.29,.71,.29s.51-.1,.71-.29l14.83-14.83-14.83-14.83c-.39-.39-1.02-.39-1.41,0Z"/>
  <path d="M10.66,30.74h-3.44c-.55,0-1,.45-1,1s.45,1,1,1h3.44c.55,0,1-.45,1-1s-.45-1-1-1Z"/>
  <path d="M19.34,31.74c0-.55-.45-1-1-1h-3.44c-.55,0-1,.45-1,1s.45,1,1,1h3.44c.55,0,1-.45,1-1Z"/>
  <path d="M26.02,32.74c.55,0,1-.45,1-1s-.45-1-1-1h-3.44c-.55,0-1,.45-1,1s.45,1,1,1h3.44Z"/>
  <path d="M44.64,31.67l6.17-6.17c.39-.39,.39-1.02,0-1.41s-1.02-.39-1.41,0l-6.17,6.17-6.17-6.17c-.39-.39-1.02-.39-1.41,0s-.39,1.02,0,1.41l6.17,6.17-6.17,6.17c-.39,.39-.39,1.02,0,1.41,.2,.2,.45,.29,.71,.29s.51-.1,.71-.29l6.17-6.17,6.17,6.17c.2,.2,.45,.29,.71,.29s.51-.1,.71-.29c.39-.39,.39-1.02,0-1.41l-6.17-6.17Z"/>
</svg>