<svg xmlns="http://www.w3.org/2000/svg" aria-hidden="true" focusable="false" viewBox="0 0 32 32">
  <path d="M17,23.47h-2c0-7.45,6.06-13.5,13.5-13.5v2c-6.34,0-11.5,5.16-11.5,11.5Z"/>
  <path d="M17,23.47h-2c0-6.34-5.16-11.5-11.5-11.5v-2c7.45,0,13.5,6.06,13.5,13.5Z"/>
  <path d="M17,29.99h-2c0-3.61,1.4-7,3.96-9.55,2.55-2.55,5.94-3.95,9.55-3.95h0v2h0c-3.07,0-5.96,1.2-8.13,3.37-2.17,2.17-3.37,5.06-3.37,8.13Z"/>
  <path d="M17,29.99h-2c0-3.07-1.2-5.96-3.37-8.13-2.17-2.17-5.06-3.37-8.13-3.37h0v-2h0c3.61,0,7,1.4,9.55,3.95,2.55,2.55,3.96,5.94,3.96,9.55Z"/>
  <rect x="15" y="19.75" width="2" height="8"/>
  <path d="M16,20.43l-.71-.71c-4.91-4.91-4.91-12.9,0-17.81l.71-.71.71.71c4.91,4.91,4.91,12.9,0,17.81l-.71.71ZM16,4.1c-3.19,3.89-3.19,9.53,0,13.42,3.19-3.89,3.19-9.53,0-13.42Z"/>
</svg>