<svg xmlns="http://www.w3.org/2000/svg" aria-hidden="true" focusable="false" viewBox="0 0 32 32">
  <path d="m27.82,13.67c-2.74,0-5.33.9-7.46,2.54.04-.41.06-.83.06-1.25,0-3.28-1.28-6.37-3.6-8.69l-.71-.71-.71.71c-2.32,2.32-3.6,5.41-3.6,8.69,0,.43.02.85.07,1.26-2.07-1.59-4.65-2.55-7.46-2.55h-1v1c0,6.72,5.42,12.19,12.11,12.29h0s.18,0,.18,0h1c6.69-.11,12.11-5.58,12.11-12.3v-1h-1Zm-11.7-5.22c1.5,1.83,2.31,4.1,2.31,6.5,0,1.65-.39,3.23-1.12,4.66-.15.25-.3.51-.44.78-.23.37-.47.72-.75,1.06-.29-.36-.55-.74-.8-1.14-.11-.21-.23-.41-.35-.62-.75-1.45-1.16-3.06-1.16-4.74,0-2.4.81-4.67,2.31-6.5Zm-10.65,7.27c3.25.33,6.05,2.19,7.7,4.83.12.23.25.46.39.69.58,1.12.97,2.36,1.1,3.67-4.84-.49-8.7-4.35-9.19-9.19Zm12.11,9.19c.13-1.26.49-2.47,1.05-3.59.16-.26.31-.53.45-.8.41-.66.89-1.28,1.45-1.84,1.69-1.69,3.88-2.73,6.23-2.96-.49,4.84-4.35,8.7-9.19,9.19Z"/>
</svg>