<svg xmlns="http://www.w3.org/2000/svg" aria-hidden="true" focusable="false" viewBox="0 0 32 32">  
  <path d="M26.49,8h-2.77c-.68-1.37-2.09-2.33-3.72-2.33s-3.04.96-3.72,2.33H5.51l-3.51,3.61v2.39h15v15h6v-15h7v-2.39l-3.51-3.61ZM20,7.43c1.33,0,2.4,1.08,2.4,2.4s-1.08,2.4-2.4,2.4-2.4-1.08-2.4-2.4,1.08-2.4,2.4-2.4ZM6.54,10h9.31c.03.73.25,1.41.61,2H4.75l1.78-2ZM21,27h-2v-13h2v13ZM23.54,12c.36-.59.58-1.27.61-2h1.57l1.78,2h-3.96Z"/>
  <polygon points="8.97 16 6.08 21 11.86 21 8.97 16"/>
  <polygon points="8.97 22 6.08 27 11.86 27 8.97 22"/>
</svg>