<svg xmlns="http://www.w3.org/2000/svg" aria-hidden="true" focusable="false" viewBox="0 0 32 32">
  <path d="m16,6.93c-7.35,0-13.33,5.98-13.33,13.33v5.4h26.65v-5.4c0-7.35-5.98-13.33-13.33-13.33Zm-1.09,16.72v-6.26c0-.06.05-.1.1-.1h1.98c.06,0,.1.05.1.1v6.26h-2.18Zm4.18,0v-6.26c0-1.16-.94-2.1-2.1-2.1h-1.98c-1.16,0-2.1.94-2.1,2.1v6.26H4.67v-2.4h5.54v-2h-5.49c.25-2.83,1.55-5.36,3.5-7.21l3.29,3.29,1.41-1.41-3.13-3.13c1.78-1.17,3.91-1.86,6.2-1.86s4.42.69,6.2,1.86l-3.13,3.13,1.41,1.41,3.29-3.29c1.95,1.85,3.25,4.38,3.5,7.21h-5.49v2h5.54v2.4h-8.23Z"/>
</svg>