<svg xmlns="http://www.w3.org/2000/svg" aria-hidden="true" focusable="false" viewBox="0 0 32 32">
  <circle class="cls-1" cx="16" cy="11" r="2.5"/>
  <path class="cls-1" d="M26.11,5.9c-2.7-2.7-6.29-4.19-10.11-4.19s-7.41,1.49-10.11,4.19S1.7,12.19,1.7,16.01s1.49,7.41,4.19,10.11c2.22,2.22,5.05,3.61,8.11,4.03v-13.56l-9.29-5.37c.61-1.44,1.49-2.76,2.63-3.89,2.32-2.32,5.39-3.59,8.67-3.59s6.35,1.28,8.67,3.59c1.14,1.14,2.02,2.46,2.62,3.89l-9.29,5.37v13.56c3.06-.43,5.89-1.81,8.11-4.03,2.7-2.7,4.19-6.29,4.19-10.11s-1.49-7.41-4.19-10.11ZM12,17.74v9.6c-1.68-.59-3.23-1.54-4.53-2.84-2.27-2.27-3.52-5.28-3.52-8.49,0-.93.12-1.84.32-2.73l7.73,4.46ZM24.53,24.5c-1.3,1.3-2.85,2.25-4.53,2.84v-9.6l7.73-4.46c.2.89.32,1.8.32,2.73,0,3.21-1.25,6.22-3.52,8.49Z"/>
</svg>