<svg xmlns="http://www.w3.org/2000/svg" aria-hidden="true" focusable="false" viewBox="0 0 32 32">
  <path d="m21.35,6.48c-1.9,0-3.68.57-5.17,1.54-1.49-.97-3.26-1.54-5.17-1.54C5.77,6.48,1.5,10.75,1.5,16s4.27,9.52,9.52,9.52c1.9,0,3.68-.57,5.17-1.54,1.49.97,3.26,1.54,5.17,1.54,5.25,0,9.52-4.27,9.52-9.52s-4.27-9.52-9.52-9.52Zm0,17.04c-1.27,0-2.47-.32-3.52-.88.86-.88,1.54-1.92,2.01-3.07h-2.21c-.38.7-.87,1.34-1.44,1.88-.57-.55-1.06-1.18-1.44-1.88h-2.21c.47,1.15,1.15,2.19,2.01,3.07-1.05.56-2.25.88-3.52.88-4.15,0-7.52-3.37-7.52-7.52s3.37-7.52,7.52-7.52c1.27,0,2.47.32,3.52.88-.75.76-1.36,1.66-1.81,2.64h2.28c.34-.53.73-1.02,1.18-1.45.45.43.84.92,1.18,1.45h2.28c-.46-.98-1.07-1.87-1.81-2.64,1.05-.56,2.25-.88,3.52-.88,4.15,0,7.52,3.37,7.52,7.52s-3.37,7.52-7.52,7.52Z"/>
  <rect x="9.56" y="14.78" width="13.24" height="2"/>
</svg>