<svg xmlns="http://www.w3.org/2000/svg" aria-hidden="true" focusable="false" viewBox="0 0 32 32">
  <path d="M20,7c-1.42,0-2.77.3-4,.84-1.23-.54-2.58-.84-4-.84-5.51,0-10,4.49-10,10s4.49,10,10,10c1.42,0,2.77-.3,4-.84,1.23.54,2.58.84,4,.84,5.51,0,10-4.49,10-10s-4.49-10-10-10ZM20,25c-.6,0-1.19-.07-1.76-.2,1.25-1.01,2.25-2.31,2.9-3.8h-2.23c-.7,1.21-1.71,2.22-2.92,2.92-1.21-.7-2.22-1.71-2.92-2.92h-2.23c.66,1.49,1.65,2.79,2.9,3.8-.57.13-1.15.2-1.76.2-4.41,0-8-3.59-8-8s3.59-8,8-8c.6,0,1.19.07,1.76.2-1.25,1.01-2.25,2.31-2.9,3.8h2.23c.7-1.21,1.71-2.22,2.92-2.92,1.21.7,2.22,1.71,2.92,2.92h2.23c-.66-1.49-1.65-2.79-2.9-3.8.57-.13,1.15-.2,1.76-.2,4.41,0,8,3.59,8,8s-3.59,8-8,8Z"/>
  <rect x="10" y="16" width="12" height="2"/>
</svg>