<svg xmlns="http://www.w3.org/2000/svg" aria-hidden="true" focusable="false" viewBox="0 0 32 32">
  <path d="M21.13,6.48c-1.9,0-3.68.57-5.17,1.54-1.49-.97-3.26-1.54-5.17-1.54C5.55,6.48,1.28,10.75,1.28,16s4.27,9.52,9.52,9.52c1.9,0,3.68-.57,5.17-1.54,1.49.97,3.26,1.54,5.17,1.54,5.25,0,9.52-4.27,9.52-9.52s-4.27-9.52-9.52-9.52ZM21.13,23.52c-1.27,0-2.47-.32-3.52-.88.89-.91,1.59-2.01,2.06-3.22h-2.19c-.39.76-.9,1.45-1.52,2.03-.61-.58-1.12-1.27-1.52-2.03h-2.19c.47,1.21,1.17,2.31,2.06,3.22-1.05.56-2.25.88-3.52.88-4.15,0-7.52-3.37-7.52-7.52s3.37-7.52,7.52-7.52c1.27,0,2.47.32,3.52.88-.78.8-1.42,1.75-1.88,2.79h2.25c.35-.59.78-1.13,1.28-1.6.5.47.92,1.01,1.28,1.6h2.25c-.46-1.04-1.1-1.98-1.88-2.79,1.05-.56,2.25-.88,3.52-.88,4.15,0,7.52,3.37,7.52,7.52s-3.37,7.52-7.52,7.52Z"/>
  <rect x="9.34" y="14.78" width="13.24" height="2"/>
</svg>