<svg xmlns="http://www.w3.org/2000/svg" aria-hidden="true" focusable="false" viewBox="0 0 32 32">
  <path d="m15.26,16.69c0-2.71-1.64-5.03-3.97-6.05l6.8-4.19h3.47v2.42h2v-4.42h-6.04l-9.18,5.66c-3.5.16-6.29,3.05-6.29,6.59s2.96,6.6,6.6,6.6,6.6-2.96,6.6-6.6Zm-6.6-4.6c2.19,0,4.03,1.55,4.49,3.6H4.17c.46-2.06,2.29-3.6,4.49-3.6Zm-4.49,5.6h8.97c-.46,2.06-2.29,3.6-4.49,3.6s-4.03-1.55-4.49-3.6Z"/>
  <path d="m29.17,16.69c0-3.64-2.96-6.6-6.6-6.6s-6.6,2.96-6.6,6.6c0,2.75,1.69,5.11,4.08,6.1l-6.15,4.14h-3.45v-2.42h-2v4.42h6.06l8.39-5.66c3.49-.17,6.27-3.06,6.27-6.59Zm-6.6-4.6c2.19,0,4.03,1.55,4.49,3.6h-8.97c.46-2.06,2.29-3.6,4.49-3.6Zm0,9.21c-2.19,0-4.03-1.55-4.49-3.6h8.97c-.46,2.06-2.29,3.6-4.49,3.6Z"/>
</svg>