<svg xmlns="http://www.w3.org/2000/svg" aria-hidden="true" focusable="false" viewBox="0 0 32 32">
  <polygon points="8 22.9 9.41 24.31 12.19 21.54 15 24.35 16.41 22.93 12.19 18.71 8 22.9"/>
  <polygon points="8 27.1 9.41 28.52 12.19 25.74 15 28.55 16.41 27.14 12.19 22.91 8 27.1"/>
  <path d="m27.88,8.35c0-2.77-2.25-5.02-5.02-5.02-2.42,0-4.45,1.73-4.91,4.02H7.07l-2.64,2.64v3.43h6.73v3.7h2v-3.7h6.7v16.16h6.03V12.33c1.21-.92,2-2.35,2-3.98Zm-21.46,3.08v-.61l1.47-1.47h9.46l1.52,2.08H6.42Zm17.46,16.16h-2.03v-14.16h2.03v14.16Zm-1.02-16.22c-1.66,0-3.02-1.35-3.02-3.02s1.35-3.02,3.02-3.02,3.02,1.35,3.02,3.02-1.35,3.02-3.02,3.02Z"/>
</svg>