<svg xmlns="http://www.w3.org/2000/svg" aria-hidden="true" focusable="false" viewBox="0 0 32 32">
  <path d="m19.43,20.92l2.85,2.3-.11-2.23c-.02-.36-.49-8.98-5.33-16.58l-.84-1.32-.84,1.32c-4.84,7.6-5.31,16.21-5.33,16.58l-.1,2.13,2.92-2.21h6.79Zm-3.44-14.01c2.52,4.54,3.53,9.32,3.93,12.01h-7.87c.4-2.69,1.41-7.46,3.93-12.01Z"/>
  <path d="m16.03,23.84c-7.9,0-12.52,2.96-12.71,3.09l1.1,1.67s4.3-2.76,11.61-2.76,11.32,2.72,11.36,2.75l1.13-1.65c-.18-.13-4.58-3.1-12.49-3.1Z"/>
  <rect x="6.18" y="12.35" width="2" height="10.94"/>
  <rect x="23.82" y="12.32" width="2" height="10.94"/>
</svg>