<svg xmlns="http://www.w3.org/2000/svg" viewBox="0 0 302 77">
  <defs>
    <style>
      .logo_layerswap-cls-1 {
        opacity: .9;
      }

      .logo_layerswap-cls-1, .logo_layerswap-cls-2, .logo_layerswap-cls-3 {
        fill: #f6008e;
        isolation: isolate;
      }

      .logo_layerswap-cls-1, .logo_layerswap-cls-2, .logo_layerswap-cls-3, .logo_layerswap-cls-4 {
        stroke-width: 0px;
      }

      .logo_layerswap-cls-2 {
        opacity: .5;
      }

      .logo_layerswap-cls-3 {
        opacity: .6;
      }

      .logo_layerswap-cls-4 {
        fill: #fff;
      }
    </style>
  </defs>
  <path class="logo_layerswap-cls-4" d="M98.5,55.9c-.6,0-1.1-.5-1.1-1.1v-26.9c0-.6.5-1.1,1.1-1.1h4.2c.6,0,1.1.5,1.1,1.1v22.6h12.2c.6,0,1.1.5,1.1,1.1v3.2c0,.6-.5,1.1-1.1,1.1h-17.5Z"/>
  <path class="logo_layerswap-cls-4" d="M127.1,56.3c-1.5,0-2.8-.3-4-.9-1.1-.6-2.1-1.4-2.7-2.4-.7-1-1-2.1-1-3.3s.4-2.6,1.1-3.5,2-1.5,3.7-1.9c1.7-.4,4-.6,6.8-.6h.8c.4,0,.7-.3.7-.7,0-1.2-.3-2.1-.8-2.6-.5-.5-1.5-.8-2.8-.8s-2.2.2-3.5.5c-.8.2-1.7.5-2.5,1-.6.3-1.3,0-1.5-.6l-.9-2.2c-.2-.5,0-1,.4-1.3.5-.3,1.1-.6,1.8-.8,1-.4,2.1-.7,3.2-.9,1.1-.2,2.2-.3,3.2-.3,3.1,0,5.4.7,6.9,2.1,1.5,1.4,2.3,3.6,2.3,6.6v10.9c0,.6-.5,1.1-1.1,1.1h-3.6c-.6,0-1.1-.5-1.1-1.1v-2c-.4,1.1-1.1,1.9-2.1,2.6-1,.6-2.1.9-3.5.9ZM128.5,52.1c1.1,0,2.1-.4,2.9-1.2.8-.8,1.2-1.8,1.2-3.1s-.4-.8-.8-.8h-.6c-2.1,0-3.6.2-4.4.6-.9.4-1.3,1-1.3,1.9s.3,1.4.8,1.9c.5.5,1.3.7,2.3.7Z"/>
  <path class="logo_layerswap-cls-4" d="M146.1,63.3c-.8,0-1.3-.8-1-1.5l3.1-7-7.6-17.6c-.3-.7.2-1.5,1-1.5h4.1c.4,0,.8.3,1,.7l4.8,12.2,4.9-12.2c.2-.4.6-.7,1-.7h3.8c.8,0,1.3.8,1,1.5l-11.2,25.5c-.2.4-.6.6-1,.6h-3.9Z"/>
  <path class="logo_layerswap-cls-4" d="M174.6,56.3c-2.4,0-4.4-.4-6.1-1.3-1.7-.9-3-2.1-3.9-3.7-.9-1.6-1.3-3.5-1.3-5.6s.4-3.9,1.3-5.5c.9-1.6,2.1-2.8,3.6-3.7,1.6-.9,3.3-1.4,5.3-1.4,2.9,0,5.2.9,6.9,2.8,1.7,1.8,2.6,4.3,2.6,7.5v.5c0,.6-.5,1.1-1.1,1.1h-12.8c.2,1.6.8,2.8,1.7,3.5,1,.7,2.3,1.1,3.9,1.1s2.2-.2,3.3-.5c.6-.2,1.3-.4,1.8-.8.6-.3,1.4-.1,1.7.6l.8,2.1c.2.5,0,1-.4,1.2-.9.6-1.9,1-3,1.4-1.4.4-2.9.7-4.4.7ZM173.7,39.3c-1.3,0-2.4.4-3.2,1.2-.8.8-1.3,1.9-1.5,3.3h8.8c-.2-3-1.6-4.5-4.2-4.5Z"/>
  <path class="logo_layerswap-cls-4" d="M187.6,55.9c-.6,0-1.1-.5-1.1-1.1v-18.1c0-.6.5-1.1,1.1-1.1h3.9c.6,0,1.1.5,1.1,1.1v2.4c1-2.4,3-3.7,6.1-3.9h.7c.6,0,1.1.4,1.1,1l.2,3.1c0,.6-.4,1.1-1,1.2l-2.4.3c-3,.3-4.6,1.9-4.6,4.7v9.4c0,.6-.5,1.1-1.1,1.1h-4.1Z"/>
  <path class="logo_layerswap-cls-4" d="M210.9,56.3c-1.8,0-3.4-.2-4.9-.6-1.2-.3-2.2-.7-3.1-1.2-.4-.2-.6-.8-.4-1.2l.7-2c.2-.6,1-.9,1.6-.6.7.3,1.5.6,2.3.9,1.3.4,2.6.5,3.9.5s2-.2,2.5-.5c.5-.4.8-.9.8-1.5,0-1-.7-1.6-2.1-1.8l-4.3-.8c-1.7-.3-3-.9-3.9-1.9-.9-.9-1.3-2.2-1.3-3.7s.4-2.6,1.1-3.5c.8-1,1.8-1.8,3.1-2.3,1.3-.5,2.9-.8,4.6-.8s2.8.2,4.2.6c1.1.3,2,.7,2.9,1.3.4.3.5.8.3,1.2l-.8,2c-.3.7-1.1.9-1.7.6-.5-.3-1.1-.5-1.8-.7-1.1-.4-2.2-.6-3.1-.6s-2.1.2-2.7.6c-.5.4-.8.9-.8,1.5,0,1,.6,1.6,1.9,1.8l4.3.8c1.8.3,3.1.9,4,1.8.9.9,1.4,2.1,1.4,3.6s-.8,3.8-2.4,4.9c-1.6,1.2-3.8,1.8-6.4,1.8Z"/>
  <path class="logo_layerswap-cls-4" d="M229.3,55.9c-.4,0-.8-.3-1-.7l-7.3-18.1c-.3-.7.2-1.5,1-1.5h3.9c.4,0,.8.3,1,.7l4.5,12.3,4.5-12.3c.2-.4.6-.7,1-.7h2.6c.4,0,.9.3,1,.7l4.5,12.4,4.5-12.4c.2-.4.6-.7,1-.7h3.6c.8,0,1.3.8,1,1.5l-7.2,18.1c-.2.4-.6.7-1,.7h-3.8c-.4,0-.8-.3-1-.7l-4.1-10.8-4,10.8c-.2.4-.6.7-1,.7h-3.7Z"/>
  <path class="logo_layerswap-cls-4" d="M264.4,56.3c-1.5,0-2.8-.3-4-.9-1.1-.6-2.1-1.4-2.7-2.4-.7-1-1-2.1-1-3.3s.4-2.6,1.1-3.5c.8-.9,2-1.5,3.7-1.9,1.7-.4,4-.6,6.8-.6h1.5v-.7c0-1.2-.3-2.1-.8-2.6-.5-.5-1.5-.8-2.8-.8s-2.2.2-3.5.5c-.8.2-1.7.5-2.5,1-.6.3-1.3,0-1.5-.6l-.9-2.2c-.2-.5,0-1,.4-1.3.5-.3,1.1-.6,1.8-.8,1-.4,2.1-.7,3.2-.9,1.1-.2,2.2-.3,3.2-.3,3.1,0,5.4.7,6.9,2.1,1.5,1.4,2.3,3.6,2.3,6.6v10.9c0,.6-.5,1.1-1.1,1.1h-3.6c-.6,0-1.1-.5-1.1-1.1v-2c-.4,1.1-1.1,1.9-2.1,2.6-1,.6-2.1.9-3.5.9ZM265.8,52.1c1.1,0,2.1-.4,2.9-1.2.8-.8,1.2-1.8,1.2-3.1v-.8h-1.4c-2.1,0-3.6.2-4.5.6-.9.4-1.3,1-1.3,1.9s.3,1.4.8,1.9c.5.5,1.3.7,2.3.7Z"/>
  <path class="logo_layerswap-cls-4" d="M281.4,63.3c-.6,0-1.1-.5-1.1-1.1v-25.5c0-.6.5-1.1,1.1-1.1h3.9c.6,0,1.1.5,1.1,1.1v1.9c.5-1,1.4-1.9,2.5-2.5,1.1-.6,2.4-.9,3.8-.9s3.3.4,4.6,1.3c1.3.9,2.4,2.1,3.1,3.6.7,1.6,1.1,3.4,1.1,5.6s-.4,4.1-1.1,5.6c-.7,1.6-1.8,2.8-3.1,3.7-1.3.9-2.8,1.3-4.6,1.3s-2.6-.3-3.7-.9c-1.1-.6-1.9-1.3-2.5-2.3v9.1c0,.6-.5,1.1-1.1,1.1h-4ZM290.9,51.7c1.3,0,2.4-.5,3.2-1.4.8-1,1.2-2.5,1.2-4.5s-.4-3.5-1.2-4.4c-.8-1-1.9-1.4-3.2-1.4s-2.4.5-3.2,1.4c-.8.9-1.2,2.4-1.2,4.4s.4,3.5,1.2,4.5c.8,1,1.9,1.4,3.2,1.4Z"/>
  <path class="logo_layerswap-cls-3" d="M10.3,15.5c0-2.9,2.3-5.2,5.2-5.2h45.2c2.9,0,5.2,2.3,5.2,5.2v45.2c0,2.9-2.3,5.2-5.2,5.2H15.5c-2.9,0-5.2-2.3-5.2-5.2V15.5Z"/>
  <path class="logo_layerswap-cls-2" d="M20.6,25.8c0-2.9,2.3-5.2,5.2-5.2h45.2c2.9,0,5.2,2.3,5.2,5.2v45.2c0,2.9-2.3,5.2-5.2,5.2H25.8c-2.9,0-5.2-2.3-5.2-5.2V25.8Z"/>
  <path class="logo_layerswap-cls-1" d="M0,5.2C0,2.3,2.3,0,5.2,0h45.2c2.9,0,5.2,2.3,5.2,5.2v45.2c0,2.9-2.3,5.2-5.2,5.2H5.2c-2.9,0-5.2-2.3-5.2-5.2V5.2Z"/>
</svg>